<svg xmlns="http://www.w3.org/2000/svg" width="552" height="68.31"><g data-name="Group 5432"><path data-name="Path 18178" d="M104.568 67.462l-2.077-5.991h-.976a13.5 13.5 0 01-5.8 5.073 20.167 20.167 0 01-8.724 1.767q-7.939 0-12.354-4.606t-4.415-13.012V19.36h16.6v26.28a15.1 15.1 0 001.337 7.131 4.631 4.631 0 004.394 2.42 6.394 6.394 0 006.113-3.375q1.826-3.375 1.826-11.4V19.36h16.6v48.1zm53.023-48.951a24.018 24.018 0 014.118.34l.934.17-1.486 15.666a24.42 24.42 0 00-5.647-.509q-5.434 0-7.9 2.484t-2.462 7.154v23.646h-16.6v-48.1h12.354l2.59 7.684h.807a16.622 16.622 0 015.8-6.177 13.871 13.871 0 017.492-2.358zm71.5 34.176q0 7.727-5.264 11.675t-15.118 3.949a65.643 65.643 0 01-9.3-.573 39.5 39.5 0 01-8.066-2.1v-13.29a49.947 49.947 0 008.47 2.8 35.7 35.7 0 008.215 1.1q5.392 0 5.392-2.462a2.786 2.786 0 00-1.507-2.271 68.79 68.79 0 00-8.767-3.885q-6.623-2.717-9.255-6.177a14.068 14.068 0 01-2.632-8.767 12.143 12.143 0 015.18-10.444q5.18-3.736 14.647-3.736a36.928 36.928 0 018.937 1.04 53.135 53.135 0 018.682 3.036l-4.5 10.7a50.566 50.566 0 00-7.005-2.526 23.308 23.308 0 00-6.029-1.04q-4.076 0-4.076 2a2.486 2.486 0 001.422 2.1 76.564 76.564 0 008.215 3.545 31.562 31.562 0 017.536 4.076 12.207 12.207 0 013.651 4.691 16.479 16.479 0 011.172 6.559zm32.432 15.624q-12.014 0-18.659-6.39t-6.644-18.192q0-12.185 6.156-18.7t17.577-6.518q10.868 0 16.791 5.668t5.922 16.324v7.387h-29.675a8.233 8.233 0 002.95 6.326 11.561 11.561 0 007.578 2.292 36.593 36.593 0 008.045-.828 39.853 39.853 0 007.96-2.823v11.93a29.288 29.288 0 01-8.066 2.76 55.82 55.82 0 01-9.935.764zm-.976-38.507a6.9 6.9 0 00-4.9 1.847q-1.974 1.847-2.314 5.8h14.258a8.272 8.272 0 00-1.974-5.562 6.517 6.517 0 00-5.07-2.085zm60.544-11.293a24.018 24.018 0 014.118.34l.934.17-1.489 15.665a24.42 24.42 0 00-5.647-.509q-5.434 0-7.9 2.484t-2.462 7.154v23.647h-16.6v-48.1h12.358l2.588 7.682h.807a16.622 16.622 0 015.793-6.173 13.871 13.871 0 017.5-2.36zm24.366 48.951l-18.341-48.1h17.322l8.153 28.443q.042.212.17.722t.255 1.21q.127.7.233 1.486a10.977 10.977 0 01.106 1.465h.3a17.031 17.031 0 01.764-4.8l8.533-28.53h17.279l-18.34 48.104zm57.187 0h-16.6v-48.1h16.6zM385.619 7.388q0-3.736 2.08-5.562T394.407 0q4.628 0 6.75 1.868a6.962 6.962 0 012.123 5.519q0 7.3-8.873 7.3-8.788.003-8.788-7.299zm50.522 60.923q-11.8 0-17.895-6.368t-6.092-18.3q0-11.972 6.581-18.553t18.723-6.581a35.075 35.075 0 0115.751 3.651l-4.882 12.269a53.231 53.231 0 00-5.562-2.1 17.908 17.908 0 00-5.307-.785 7.182 7.182 0 00-6.241 3.142q-2.208 3.142-2.208 8.873 0 11.548 8.533 11.548a25.816 25.816 0 0014.01-4.245v13.2a27.275 27.275 0 01-15.411 4.249zm48.186 0q-12.015 0-18.659-6.389t-6.644-18.192q0-12.185 6.156-18.7t17.576-6.517q10.868 0 16.791 5.668t5.922 16.324v7.387h-29.678a8.233 8.233 0 002.951 6.326 11.561 11.561 0 007.578 2.293 36.593 36.593 0 008.045-.828 39.853 39.853 0 007.96-2.823v11.927a29.288 29.288 0 01-8.066 2.76 55.82 55.82 0 01-9.932.764zm-.976-38.507a6.9 6.9 0 00-4.9 1.847q-1.974 1.847-2.314 5.8h14.265a8.272 8.272 0 00-1.974-5.562 6.517 6.517 0 00-5.078-2.085zm68.65 22.883q0 7.727-5.264 11.675t-15.115 3.949a65.643 65.643 0 01-9.3-.573 39.5 39.5 0 01-8.066-2.1v-13.29a49.948 49.948 0 008.47 2.8 35.7 35.7 0 008.215 1.1q5.392 0 5.392-2.462a2.786 2.786 0 00-1.507-2.271 68.789 68.789 0 00-8.767-3.885q-6.623-2.717-9.255-6.177a14.068 14.068 0 01-2.632-8.767 12.143 12.143 0 015.18-10.444q5.179-3.736 14.647-3.736a36.928 36.928 0 018.937 1.04 53.135 53.135 0 018.682 3.036l-4.5 10.7a50.566 50.566 0 00-7.005-2.526 23.309 23.309 0 00-6.029-1.04q-4.076 0-4.076 2a2.486 2.486 0 001.422 2.1 76.565 76.565 0 008.215 3.545 31.563 31.563 0 017.536 4.076 12.207 12.207 0 013.651 4.691A16.479 16.479 0 01552 52.687z" fill="#bfa871"/><g data-name="Rectangle 3710" fill="none" stroke="#bfa871" stroke-width="13"><path d="M30.4 1.615a30.4 30.4 0 0130.4 30.4v3.32a30.4 30.4 0 01-30.4 30.4H0v-33.72a30.4 30.4 0 0130.4-30.4z" stroke="none"/><path d="M30.4 8.115h0a23.9 23.9 0 0123.9 23.9v3.32a23.9 23.9 0 01-23.9 23.9H7.768A1.268 1.268 0 016.5 57.971V32.015a23.9 23.9 0 0123.9-23.9z"/></g></g></svg>