<svg xmlns="http://www.w3.org/2000/svg" width="453.02" height="449.374" viewBox="0 0 453.02 449.374">
  <g id="Group_593" data-name="Group 593" transform="matrix(0.848, -0.53, 0.53, 0.848, -536.786, 286.138)" opacity="0.5">
    <path id="Path_1508" data-name="Path 1508" d="M584.641,513.224a71.311,71.311,0,0,0,61.527-107.367c-.23-1.483-.395-2.933-.561-4.416a16.514,16.514,0,0,0,2.209-1.549l30.68-25.737L707.1,398.146a15.581,15.581,0,0,0,7.02,3.427c-.166,1.417-.33,2.867-.527,4.284a71.313,71.313,0,1,0,132.842,36.185c.031-3.229,1.219-78.993-17.336-109.212a64.688,64.688,0,0,0-123.152,22.343l-9.984-8.371V207.634a16.1,16.1,0,1,0-32.2,0V344.5L653.584,353A64.693,64.693,0,0,0,530.629,332.83c-18.521,30.219-17.367,105.982-17.3,109.08A71.4,71.4,0,0,0,584.641,513.224ZM542.326,338.662a51.633,51.633,0,0,1,98.6,21.454c0,1.219-.033,2.406-.1,3.592l-13.709,11.5a16.062,16.062,0,0,0,5.537,27.682c.232,2.076.461,4.185.824,6.262a6.842,6.842,0,0,0,.857,2.373,58.257,58.257,0,1,1-107.959,30.253c-.035-.758-1.187-75.7,15.553-102.358Zm134.49,12.886V207.634a3.049,3.049,0,1,1,6.1,0V352.866l36.48,30.615a3.069,3.069,0,0,1,.395,4.285,3.331,3.331,0,0,1-2.076,1.087,3.108,3.108,0,0,1-2.24-.692L678.5,357.117l-39.084,32.757a3.073,3.073,0,0,1-2.207.692,2.968,2.968,0,0,1-2.076-1.055,3.116,3.116,0,0,1,.361-4.317l37.6-31.5.428-.264Zm41.984,8.568a51.633,51.633,0,0,1,98.6-21.454l.428.758c16.707,26.66,15.555,101.6,15.555,102.489a58.265,58.265,0,1,1-107.992-30.384,6.322,6.322,0,0,0,.889-2.373c.559-3.592.955-7.217,1.285-10.842a15.338,15.338,0,0,0,2.209-2.175,16.1,16.1,0,0,0-2.012-22.673l-8.568-7.184A47.989,47.989,0,0,1,718.8,360.116Z" transform="translate(-0.001 0)" fill="#7d8b94"/>
    <path id="Path_1509" data-name="Path 1509" d="M520.98,247.079a10.342,10.342,0,0,0,9.295,5.7,10.687,10.687,0,0,0,4.744-1.121c8.24-4.218,13.809-10.677,16.148-18.685,4.316-14.8-3.986-29.527-4.943-31.143A10.443,10.443,0,0,0,528.2,212.377c1.584,2.7,4.352,9.886,2.9,14.8-.691,2.439-2.471,4.318-5.568,5.867A10.485,10.485,0,0,0,520.98,247.079Zm8.107-7.052c5.01-2.538,8.205-6.13,9.525-10.612,2.271-7.711-1.385-17.07-3.627-20.959a2.608,2.608,0,0,1,.924-3.559,2.5,2.5,0,0,1,1.318-.363,2.611,2.611,0,0,1,2.24,1.252c.328.561,7.646,13.149,4.184,25.013-1.713,5.866-5.932,10.677-12.191,13.874a2.687,2.687,0,0,1-3.527-1.121A2.659,2.659,0,0,1,529.088,240.026Z" transform="translate(209.617 165.106)" fill="#7d8b94"/>
    <path id="Path_1510" data-name="Path 1510" d="M533.037,251.645a10.8,10.8,0,0,0,4.746,1.121,10.443,10.443,0,0,0,4.744-19.74c-3.1-1.549-4.844-3.428-5.566-5.867-1.451-4.91,1.316-12.094,2.9-14.8a10.443,10.443,0,0,0-18.027-10.546c-.955,1.615-9.26,16.346-4.941,31.143C519.23,240.968,524.8,247.427,533.037,251.645ZM530.83,204.52a2.413,2.413,0,0,1,1.318.363,2.606,2.606,0,0,1,.922,3.559c-2.24,3.889-5.9,13.248-3.625,20.926,1.318,4.515,4.516,8.107,9.523,10.645a2.63,2.63,0,0,1,1.154,3.526,2.667,2.667,0,0,1-3.527,1.121c-6.262-3.2-10.479-8.008-12.193-13.874-3.428-11.864,3.857-24.452,4.186-25.013A2.611,2.611,0,0,1,530.83,204.52Z" transform="translate(75.495 165.12)" fill="#7d8b94"/>
  </g>
</svg>
