<svg xmlns="http://www.w3.org/2000/svg" width="314.816" height="340.454" viewBox="0 0 314.816 340.454">
  <path id="Path_1410" data-name="Path 1410" d="M1025.566,511.917l-87.574-69.483-.371-.232c27.18-40.539,46.152-82.238,41.746-115.82-3.711-22.914-22.543-44.9-47.961-56.079-21.383-9.369-51.766-13.034-79.363-9.555-32.328,4.083-56.68,16.93-68.648,36.227s-13.73,44.3-5.148,74.26c1.113,4.036,8.813,20.038,27.32,57.053l2.691,5.289a7.177,7.177,0,0,0,1.762,2.551,19.435,19.435,0,0,0,7.234,4.545c-34.371,31.727-72.5,64.057-99.027,77.972a8.191,8.191,0,0,0-3.711,10.528c.832,2,21.52,48.751,75.559,70.134a7.605,7.605,0,0,0,3.016.6,8.316,8.316,0,0,0,5.473-2.088c3.293-2.922,37.57-33.629,75.418-75.513l70.23,66.838a8.5,8.5,0,0,0,5.656,2.273,8.094,8.094,0,0,0,2.32-.37c47.727-13.776,74.492-66.794,75.605-69.067A8.213,8.213,0,0,0,1025.566,511.917Zm-234.1,70.133c-33.211-14.75-51.391-40.771-58.395-52.879,63.637-37.662,172.457-151.907,177.23-156.917a14.661,14.661,0,0,0,1.023-1.3c5.887-9.463,13.125-23.518,8.211-36.227-3.48-9.092-12.2-15.538-26.672-19.667-21.105-5.983-55.57-3.9-62.391,19.806-2.922,10.158,16.7,42.4,25.93,54.92-7.977,8.256-25.7,24.629-35.3,34.557-18.414-36.876-26.395-55.477-27.043-57.609-7.234-25.327-6.121-45.875,3.293-61.089,21.2-34.186,91.934-35.854,127.465-20.269,20.129,8.857,35.527,26.392,38.266,43.368C973.848,410.66,818.043,557.651,791.465,582.05ZM867.441,376.1c-4.543-5.474-20.359-30.382-21.012-37.2,3.852-10.9,27.6-12.105,41.93-8.024,6.219,1.762,13.965,4.917,15.867,9.74,1.621,4.268-.559,11.271-6.449,20.92-2.32,2.459-11.547,12.014-24.816,25.372-.789-3.989-3.152-8.534-5.148-10.483ZM952,573.84l-62.895-59.883,44.945-53.665,75.789,60.113C1002.281,533.068,981.824,562.985,952,573.84Z" transform="translate(-713.832 -259.455)" fill="#7d8b94"/>
</svg>
