<svg xmlns="http://www.w3.org/2000/svg" xmlns:xlink="http://www.w3.org/1999/xlink" width="442.894" height="125.012" viewBox="0 0 442.894 125.012">
  <defs>
    <filter id="Exclusion_12" x="0" y="1.349" width="182.154" height="123.664" filterUnits="userSpaceOnUse">
      <feOffset dx="1" dy="1" input="SourceAlpha"/>
      <feGaussianBlur stdDeviation="0.5" result="blur"/>
      <feFlood flood-opacity="0.361"/>
      <feComposite operator="in" in2="blur"/>
      <feComposite in="SourceGraphic"/>
    </filter>
  </defs>
  <g id="Group_4826" data-name="Group 4826" transform="translate(-285.131 -264.938)">
    <g transform="matrix(1, 0, 0, 1, 285.13, 264.94)" filter="url(#Exclusion_12)">
      <path id="Exclusion_12-2" data-name="Exclusion 12" d="M135.489,120.664H40.2a6.45,6.45,0,0,1-1.978-.313,43.405,43.405,0,1,1,36.543-13.107H129.9A36.349,36.349,0,0,0,156.388,95.87a34.224,34.224,0,0,0,9.267-25.9,34.676,34.676,0,0,0-26.579-31.586A48.078,48.078,0,0,1,124.232,84.2a6.366,6.366,0,0,1-4.278,1.643,6.493,6.493,0,0,1-4.439-1.744,6.643,6.643,0,0,1-1.161-1.261l-8.7-12.438a6.664,6.664,0,1,1,10.925-7.636l3.85,5.508a34.926,34.926,0,0,0-39.44-53.141l4.83,6.909a6.346,6.346,0,1,1-10.4,7.273l-8.992-12.86a5.939,5.939,0,0,1-.6-1.092l-.032-.04a6.161,6.161,0,0,1,1.921-8.937A48.365,48.365,0,0,1,130.991,20.1c.891,1.237,1.746,2.559,2.541,3.93a48.356,48.356,0,0,1,1.957,96.4v.234ZM43.394,47.3A29.973,29.973,0,1,0,73.368,77.272,30.007,30.007,0,0,0,43.394,47.3Z" transform="translate(0.5 1.85)" fill="#fff"/>
    </g>
    <path id="Path_2762" data-name="Path 2762" d="M29.186,23.8a28.816,28.816,0,0,1-14-3.4,25.056,25.056,0,0,1-9.795-9.393A26.056,26.056,0,0,1,1.848-2.51,25.851,25.851,0,0,1,5.43-16.033a25.319,25.319,0,0,1,9.831-9.393,28.816,28.816,0,0,1,14-3.4,29.2,29.2,0,0,1,11.476,2.193,23.407,23.407,0,0,1,8.771,6.359L43.366-14.5A17.906,17.906,0,0,0,29.7-20.492a19.166,19.166,0,0,0-9.429,2.3,16.587,16.587,0,0,0-6.506,6.4A18.374,18.374,0,0,0,11.424-2.51a18.374,18.374,0,0,0,2.339,9.283,16.587,16.587,0,0,0,6.506,6.4,19.165,19.165,0,0,0,9.429,2.3A17.809,17.809,0,0,0,43.366,9.4l6.14,5.848A23.345,23.345,0,0,1,40.7,21.611,29.466,29.466,0,0,1,29.186,23.8Zm28.58-54.968H66.9V23.073H57.766ZM96.434,23.585a22.146,22.146,0,0,1-10.672-2.558A18.654,18.654,0,0,1,78.343,13.9,20.126,20.126,0,0,1,75.675,3.556,19.93,19.93,0,0,1,78.343-6.75a18.73,18.73,0,0,1,7.419-7.09A22.146,22.146,0,0,1,96.434-16.4a22.3,22.3,0,0,1,10.745,2.558A18.73,18.73,0,0,1,114.6-6.75a19.93,19.93,0,0,1,2.668,10.307A20.126,20.126,0,0,1,114.6,13.9a18.654,18.654,0,0,1-7.419,7.127A22.3,22.3,0,0,1,96.434,23.585Zm0-7.821a11.163,11.163,0,0,0,8.333-3.362,12.106,12.106,0,0,0,3.289-8.845,12.106,12.106,0,0,0-3.289-8.845,11.163,11.163,0,0,0-8.333-3.362,11.044,11.044,0,0,0-8.3,3.362,12.183,12.183,0,0,0-3.253,8.845A12.183,12.183,0,0,0,88.137,12.4,11.044,11.044,0,0,0,96.434,15.763ZM163.828-15.96V23.073h-8.7V18.1a14.541,14.541,0,0,1-5.482,4.057,17.638,17.638,0,0,1-7.09,1.425q-7.821,0-12.317-4.349t-4.5-12.9V-15.96h9.137V5.091q0,5.263,2.376,7.858a8.7,8.7,0,0,0,6.761,2.595,10.24,10.24,0,0,0,7.785-3.033q2.887-3.033,2.887-8.735V-15.96Zm50.217-15.2V23.073h-8.771V18.029a14.137,14.137,0,0,1-5.592,4.166,18.883,18.883,0,0,1-7.346,1.389A20.57,20.57,0,0,1,182.212,21.1a17.857,17.857,0,0,1-7.054-7.054A21.1,21.1,0,0,1,172.6,3.556,20.9,20.9,0,0,1,175.158-6.9a17.923,17.923,0,0,1,7.054-7.017A20.57,20.57,0,0,1,192.335-16.4a18.555,18.555,0,0,1,7.09,1.316,14.262,14.262,0,0,1,5.482,3.947V-31.164ZM193.432,15.763a11.751,11.751,0,0,0,5.921-1.5,10.829,10.829,0,0,0,4.166-4.276,13.082,13.082,0,0,0,1.535-6.432,13.082,13.082,0,0,0-1.535-6.432,10.829,10.829,0,0,0-4.166-4.276,12.446,12.446,0,0,0-11.842,0,10.83,10.83,0,0,0-4.166,4.276,13.082,13.082,0,0,0-1.535,6.432,13.082,13.082,0,0,0,1.535,6.432,10.829,10.829,0,0,0,4.166,4.276A11.751,11.751,0,0,0,193.432,15.763ZM5.576,42.913h19.51a28.206,28.206,0,0,1,13.028,2.91,21.379,21.379,0,0,1,8.829,8.168A23.074,23.074,0,0,1,50.084,66.06,23.074,23.074,0,0,1,46.943,78.13,21.379,21.379,0,0,1,38.114,86.3a28.206,28.206,0,0,1-13.028,2.91H5.576Zm19.113,40.54a21.418,21.418,0,0,0,9.887-2.182,15.777,15.777,0,0,0,6.58-6.117,17.6,17.6,0,0,0,2.315-9.093,17.6,17.6,0,0,0-2.315-9.093,15.777,15.777,0,0,0-6.58-6.117,21.418,21.418,0,0,0-9.887-2.182h-12.5V83.454Zm49.6,6.15A19.007,19.007,0,0,1,64.9,87.289a16.786,16.786,0,0,1-6.514-6.382,19.3,19.3,0,0,1,0-18.451A16.555,16.555,0,0,1,64.9,56.107a20.4,20.4,0,0,1,18.749,0,16.615,16.615,0,0,1,6.481,6.349,19.3,19.3,0,0,1,0,18.451,16.849,16.849,0,0,1-6.481,6.382A18.821,18.821,0,0,1,74.289,89.6Zm0-5.555a11.835,11.835,0,0,0,6.051-1.554,10.97,10.97,0,0,0,4.2-4.365,14.428,14.428,0,0,0,0-12.9,10.744,10.744,0,0,0-4.2-4.332,12.8,12.8,0,0,0-12.1,0,10.966,10.966,0,0,0-4.233,4.332,14.153,14.153,0,0,0,0,12.9,11.2,11.2,0,0,0,4.233,4.365A11.835,11.835,0,0,0,74.289,84.049Zm42.26,5.555a19.466,19.466,0,0,1-9.556-2.315,16.96,16.96,0,0,1-6.58-6.382,19.065,19.065,0,0,1,0-18.451,16.726,16.726,0,0,1,6.58-6.349,19.693,19.693,0,0,1,9.556-2.282,18.344,18.344,0,0,1,8.5,1.918,13.66,13.66,0,0,1,5.787,5.555l-4.828,3.108a10.786,10.786,0,0,0-4.1-3.77,11.7,11.7,0,0,0-5.423-1.257A12.539,12.539,0,0,0,110.3,60.9a10.839,10.839,0,0,0-4.3,4.332,13.1,13.1,0,0,0-1.554,6.448A13.243,13.243,0,0,0,106,78.2a10.839,10.839,0,0,0,4.3,4.332,12.539,12.539,0,0,0,6.184,1.521,11.7,11.7,0,0,0,5.423-1.257,10.786,10.786,0,0,0,4.1-3.77l4.828,3.042a13.867,13.867,0,0,1-5.787,5.588A18.088,18.088,0,0,1,116.549,89.6Zm42.657-2.447a9.472,9.472,0,0,1-3.439,1.819,14.364,14.364,0,0,1-4.233.628q-5.291,0-8.2-2.844t-2.91-8.135V59.381h-5.952V54.156h5.952V46.485h6.349v7.672h10.052v5.225H146.772V78.361a6.157,6.157,0,0,0,1.422,4.365,5.3,5.3,0,0,0,4.067,1.521,7.651,7.651,0,0,0,4.96-1.653ZM180.7,89.6a19.007,19.007,0,0,1-9.391-2.315,16.786,16.786,0,0,1-6.514-6.382,19.3,19.3,0,0,1,0-18.451,16.555,16.555,0,0,1,6.514-6.349,20.4,20.4,0,0,1,18.749,0,16.615,16.615,0,0,1,6.481,6.349,19.3,19.3,0,0,1,0,18.451,16.849,16.849,0,0,1-6.481,6.382A18.821,18.821,0,0,1,180.7,89.6Zm0-5.555a11.835,11.835,0,0,0,6.051-1.554,10.97,10.97,0,0,0,4.2-4.365,14.428,14.428,0,0,0,0-12.9,10.744,10.744,0,0,0-4.2-4.332,12.8,12.8,0,0,0-12.1,0,10.965,10.965,0,0,0-4.233,4.332,14.153,14.153,0,0,0,0,12.9,11.2,11.2,0,0,0,4.233,4.365A11.835,11.835,0,0,0,180.7,84.049Zm33.067-24.007a10.832,10.832,0,0,1,4.894-4.629,17.762,17.762,0,0,1,7.87-1.587v6.15a12.4,12.4,0,0,0-1.455-.066,10.682,10.682,0,0,0-8.1,3.075q-2.943,3.075-2.943,8.763V89.207h-6.349V54.156h6.084Z" transform="translate(501.494 296.102)" fill="#fff"/>
  </g>
</svg>
