<svg xmlns="http://www.w3.org/2000/svg" width="395.133" height="359.455"><g data-name="Group 3074" opacity=".5" fill="#bfa871"><path data-name="Path 2904" d="M374.153 143.7c-2.207-12.021-8.204-22.251-16.657-30.961-4.508-4.64-9.441-8.839-14.322-13.09-2.577-7.112-5.22-14.195-6.885-21.587a53.95 53.95 0 01-1.125-18.878 1.09 1.09 0 00-1.016-1.151l-17.06.761a57.136 57.136 0 01-3.821-.398 1.077 1.077 0 00-1.113 1.287c.132.63.297 1.264.453 1.898l-6.944 2.11q-1.893.343-3.8.562a1.077 1.077 0 00-.76 1.521 114.986 114.986 0 006.4 10.766l-4.142 2.552q-1.744.813-3.533 1.51a1.077 1.077 0 00-.348 1.663c5.056 5.833 12.024 10.989 17.241 17.16a23.354 23.354 0 01-.1 2.527 24.679 24.679 0 01-8.572 7.919c-.48.211-.973.416-1.484.616a84.82 84.82 0 00-16.182 8.314 78.82 78.82 0 00-2.335 1.317c-6.183 3.638-12.139 7.623-18.267 11.287-11.648 5.431-24.263 8.64-36.656 11.849a142.605 142.605 0 01-16.118 3.318q-3.01.076-6.016.033a142.724 142.724 0 01-17.08-1.4c-12.315-3.244-24.817-6.044-37.144-9.141-14.341-3.604-28.803-7.008-43.495-8.835-13.6-1.689-26.03-.118-39.088 3.872-10.16 3.1-20.547 6.16-30.476 10.157l-.044.012c-3.158.964-6.723 1.637-9.667 3.157-4.516 2.334-5.848 7.745-5.103 12.457 1.99 12.603 15.887 18.231 25.815 23.434 1.603.84 3.211 1.667 4.817 2.503 8.144 4.758 16.527 9.111 25.02 13.317-7.887 4.791-15.857 9.672-23.325 15.144l-.039.024c-2.818 1.713-6.11 3.25-8.587 5.458-3.797 3.384-3.744 8.952-1.86 13.332 5.049 11.717 19.906 13.73 30.814 16.312 1.76.416 3.524.82 5.286 1.231 9.373 2.682 18.885 4.884 28.47 6.909 4.653.984 9.329 1.865 14.013 2.69a122.08 122.08 0 00-3.104 3.103c-7.37 7.648-14.963 15.371-21.7 23.688l-.032.032c-2.292 2.375-5.079 4.699-6.915 7.463-2.811 4.234-1.347 9.61 1.594 13.367 7.864 10.048 22.744 8.21 33.95 7.936 1.809-.044 3.617-.102 5.426-.155 9.746.208 19.505-.082 29.29-.562a366.277 366.277 0 0039.02-3.839 247.408 247.408 0 0011.13-1.657 155.99 155.99 0 0034.59-10.276q6.113-2.362 12.064-5.148a201.775 201.775 0 0022.375-12.442q4.445-2.513 8.847-5.07c12.476-7.23 24.554-15.306 34.633-25.71 9.735-10.05 17.659-21.682 24.84-33.647 12.67-21.117 23.454-45.448 18.827-70.621zm-54.405-47.117c.027-.69.054-1.381.117-2.08.8.647 1.596 1.28 2.374 1.905a31.082 31.082 0 00-.195 4.487 19.897 19.897 0 00-2.095-2.034q-.098-1.14-.198-2.279zm3.224.427c.909.744 1.793 1.493 2.614 2.293a34.17 34.17 0 00-1.075 5.892c-.716-1.468-1.334-2.86-1.627-3.257-.022-.033-.048-.059-.072-.09a57.316 57.316 0 01.163-4.839zm-5.544-.66a24.619 24.619 0 00-.482-4.419c.4.406.813.794 1.224 1.158l-.008.035a24.519 24.519 0 00.505 4.493 18.188 18.188 0 00-1.236-1.267zm9.57 12.787a8.746 8.746 0 01-1.85-2.686c.24-2.192.606-4.358 1.04-6.554a17.375 17.375 0 013.98 6.086 22.448 22.448 0 00-3.17 3.154zm-2.786-13.185c-4.09-3.087-9.927-6.364-10.322-11.886a19.174 19.174 0 001.748-3.53c.884-2.028 1.71-4.087 2.465-6.17.018-.013.034-.028.051-.04 3.448 10.226 11.156 19.433 19.907 25.598-1.95 1.69-4.276 3.242-6.454 4.914-1.149-3.703-4.41-6.635-7.394-8.888zm10.103-9.588a2.769 2.769 0 01.385.651c1.21 2.966 2.617 5.814 3.99 8.668a120.173 120.173 0 01-9.19-9.083c-.186-.207-.361-.42-.543-.626a28.896 28.896 0 01-3.555-7.175 19.125 19.125 0 01.314-11.702c.479-.354.949-.718 1.41-1.071a101.86 101.86 0 005.224-4.257 51.347 51.347 0 001.965 24.595zm-19.013-25.33l2.743-.123a44.847 44.847 0 006.435-.287l7.01-.313c-1.321 1.141-2.647 2.273-4.02 3.354-1.456 1.15-3.617 3.447-5.592 3.508a12.525 12.525 0 01-5.444-1.612 38.678 38.678 0 01-.827-1.062 75.69 75.69 0 01-.999-3.719.883.883 0 00.693.255zm-10.816 5.27l2.623-.798a44.788 44.788 0 006.051-1.83c.16.564.312 1.126.483 1.692.029.045.061.086.092.13s.026.099.038.148c.122.734.234 1.473.367 2.206a2.568 2.568 0 01-1.258 2.23 5.97 5.97 0 01-1.633.724c-1.717.145-4.243-.062-5.182-.689-.079-.052-.15-.12-.227-.18a82.911 82.911 0 01-2.094-3.707.885.885 0 00.74.076zm-2.302 15.74l-.004.02-.024-.026zm3.2 3.162c-.089-.032-.176-.078-.264-.116q-1.166-1.145-2.29-2.336a5.742 5.742 0 011.245-1.568l1.144-.705a44.694 44.694 0 005.484-3.38l.485-.298a17.956 17.956 0 012.456-.908c.69-.198 1.506-.28 2.277-.436a91.385 91.385 0 01-1.127 2.855c-.714 1.712-1.486 4.769-3.183 5.781-1.284.763-4.885 1.574-6.226 1.112zm1.553 1.635a13.343 13.343 0 001.42-.262c.764-.168 1.57-.28 2.348-.462a20.624 20.624 0 00-.144 4.108c-1.211-1.124-2.424-2.246-3.624-3.382zm4.778 4.478a22.785 22.785 0 00-.59-5.313 6.89 6.89 0 00.66-.215 4.407 4.407 0 001.476-.981 6.8 6.8 0 00.376 2.18c-.011 2.068.063 4.131.052 6.2-.648-.63-1.312-1.247-1.975-1.87zm4.021 3.917c-.326-.338-.662-.663-.994-.994a29.096 29.096 0 00-.501-5.855 14.392 14.392 0 002.022 2.818 72.179 72.179 0 00.035 4.645c-.186-.201-.37-.414-.561-.612zM35.324 146.115q2.825-.954 5.653-1.897c1.1-.277 2.17-.531 3.125-.822l10.764-3.274q1.806-.549 3.616-1.106a56.593 56.593 0 00-5.001 3.197c-.21.15 0 .481.218.338 2.188-1.408 4.375-2.787 6.603-4.096q2.208-.68 4.423-1.352a36.595 36.595 0 00-4.25 2.964c-.287.23.017.72.313.488a50.956 50.956 0 016.104-4.1 147.324 147.324 0 0125.255-5.599 40.653 40.653 0 00-5.738 2.173.175.175 0 10.15.315 41.517 41.517 0 017.012-2.637c1.027-.1 2.053-.193 3.086-.254 3.182-.19 6.367-.214 9.544-.107-2.011.676-4 1.434-5.956 2.157-.284.104-.137.556.143.446 2.377-.925 4.807-1.717 7.224-2.54 2.227.104 4.457.277 6.68.502q-.71.264-1.426.527c-.412.152-.2.81.211.652q1.336-.515 2.663-1.03 3.361.367 6.706.88c7.923 1.346 15.781 3.05 23.6 4.91.991.243 1.981.495 2.97.742q-7.374-.049-14.74.318a.16.16 0 00.017.32c5.793-.098 11.58-.064 17.373.024l6.194 1.556a53.473 53.473 0 00-2.838-.005c-2.658.072-6.273-.139-8.48 1.581-.204.161 0 .484.218.339 2.426-1.57 6.212-1.3 9.007-1.312a59.75 59.75 0 015.505.251c.776.195 1.552.392 2.329.585 1.421.377 3.078.794 4.91 1.233a47.575 47.575 0 00-11.535 1.37c-.17.043-.121.33.057.304a79.59 79.59 0 0114.385-.997c10.276 2.343 24.605 5.037 36.073 5.742a685.565 685.565 0 00-7.604 2.227c-.294.086-.148.54.147.453a583.22 583.22 0 008.617-2.61 61.526 61.526 0 009.227-.124 736.326 736.326 0 01-10.577 2.769c-.372.094-.186.652.182.565a243.275 243.275 0 0013.768-3.648 81.649 81.649 0 0016.164-3.325c-5.759 2.592-11.423 5.496-17.066 8.2-.37.176-.065.828.31.654 7.39-3.42 15.072-6.648 22.262-10.543 1.673-.527 3.337-1.058 4.99-1.572 2.137-.663 4.223-1.248 6.274-1.834-4.625 2.405-9.326 4.675-14.032 6.858-.284.132-.14.602.152.472 5.203-2.33 10.225-4.925 15.158-7.697a118.44 118.44 0 003.791-1.16c-1.22 1.299-2.41 2.63-3.618 3.933a.4.4 0 00.588.527c1.398-1.615 2.837-3.209 4.207-4.851a52.399 52.399 0 004.6-1.824q-.779.984-1.556 1.97c-.242.306.217.715.451.402.714-.951 1.437-1.9 2.146-2.857a39.89 39.89 0 002.214-1.157 100.876 100.876 0 0016.394-9.126c2.87-1.96 5.698-4.002 8.6-5.91 1.336-.72 2.691-1.41 4.056-2.082a31.496 31.496 0 00-3.425 4.958c-.14.249.262.45.396.198a31.075 31.075 0 013.732-5.496c.605-.295 1.208-.597 1.822-.879l1.825-.846a45.272 45.272 0 00-4.116 7.005q.404-.323.801-.647c1.114-2.18 2.25-4.326 3.494-6.44 1.634-.759 3.264-1.54 4.86-2.381a170.687 170.687 0 005.866-2.106q.446-.174.895-.364a31.011 31.011 0 01-3.945 4.799c-.412.32-.838.644-1.286.965a84.852 84.852 0 00-13.617 12.06 82.96 82.96 0 00-1.937 1.853c-5.088 5.051-9.876 10.39-14.902 15.458-8.172 6.702-17.36 12.1-26.601 17.246a113.859 113.859 0 01-16.585 2.777 200.057 200.057 0 01-30.41.153c-10.903-.65-21.858-1.498-32.688-2.863-11.221-1.414-21.728-4.654-32.424-8.195a168.81 168.81 0 00-30.165-7.246 155.724 155.724 0 00-33.878-.93c-11.56.952-23.148 4.185-34.802 3.078a.52.52 0 00-.239.036 10.799 10.799 0 00-5.027-3.49c.116-.067.225-.136.344-.2zm-.925 18.016c-3.418-4.72-5.832-12.78-.634-17.012.05-.042.11-.078.164-.119a4.908 4.908 0 01.809.235 8.539 8.539 0 011.877 1.115 19.422 19.422 0 012.31 2.144 4.505 4.505 0 00-1.598 2.08 8.523 8.523 0 00-.545 2.83c-.84 2.847-.985 6.058-2.383 8.727zm11.182 8.92a50.036 50.036 0 01-6.184-3.96c1.896-1.539 2.309-4.058 2.37-6.447a44.845 44.845 0 00-.973-10.532c-.032-.147-.262-.097-.255.049.142 2.674.314 5.34.339 8.02.024 2.824.26 6.468-2.314 8.268a26.169 26.169 0 01-3.05-2.93 11.528 11.528 0 001.171-2.624.459.459 0 00.178-.154 8.48 8.48 0 001.202-5.17c-.006-.567-.017-1.223.007-1.904a13.32 13.32 0 011.71-4.55.615.615 0 00.506-.35c10.29 1.538 20.45-.909 30.653-2.029a153.414 153.414 0 0131.72-.182 155.58 155.58 0 0130.855 6.255c11.246 3.49 22.158 7.604 33.862 9.363 10.56 1.587 21.3 2.322 31.946 3.087a228.495 228.495 0 0031.879.463 124.848 124.848 0 0014.937-1.908l-.915.506q-2.969 1.634-5.956 3.137c-9.17.823-18.413.57-27.573 1.576-.578.062-.534.96.05.904 8.3-.79 16.637-.683 24.95-1.214-2.072.99-4.156 1.944-6.264 2.807q-2.898.823-5.821 1.522a142.982 142.982 0 01-16.897 2.862c-12.735-.094-25.542.292-38.25.342-14.789.06-29.641.34-44.325 2.213a89.252 89.252 0 00-33.365 11.356q-4.247-1.878-8.467-3.797c-6.717-3.073-13.386-6.245-20.039-9.45-6.62-3.19-13.191-6.776-20.092-9.324a.071.071 0 00-.064.127c5.555 3.533 11.642 6.306 17.544 9.21q8.892 4.381 17.86 8.604 5.911 2.77 11.88 5.414-1.086.631-2.17 1.29l-.54.33c-14.089-6.995-27.751-14.786-42.105-21.183zm8.715 45.02q2.5-1.626 5.006-3.239c.998-.538 1.97-1.052 2.825-1.571q4.811-2.916 9.616-5.836 1.615-.98 3.23-1.971a56.693 56.693 0 00-4.054 4.336.202.202 0 00.296.275c1.772-1.907 3.548-3.784 5.383-5.602q1.973-1.205 3.952-2.404a36.595 36.595 0 00-3.39 3.922c-.22.295.196.693.427.398a50.867 50.867 0 014.899-5.484q2.665-1.592 5.36-3.126l.718.35q1.321-1.086 2.67-2.135l-.093-.044a119.402 119.402 0 0114.43-6.73 40.732 40.732 0 00-5.022 3.527.175.175 0 10.223.269 41.46 41.46 0 016.141-4.291 90.48 90.48 0 012.927-1.013 102.39 102.39 0 019.222-2.468c-1.78 1.155-3.521 2.38-5.238 3.565-.25.172.005.573.25.397 2.072-1.487 4.232-2.854 6.37-4.248 2.187-.455 4.387-.835 6.597-1.174l-1.251.865c-.36.25.005.834.363.578q1.164-.828 2.326-1.652 3.346-.477 6.714-.808c8.01-.656 16.047-.953 24.081-1.085 1.025-.01 2.041-.011 3.063-.018q-7.158 1.78-14.205 3.958a.16.16 0 00.096.305c5.588-1.533 11.206-2.933 16.836-4.278l6.387-.026c-.923.212-1.842.44-2.751.697-2.558.728-6.113 1.42-7.826 3.632-.156.202.117.47.296.276 1.962-2.122 5.696-2.8 8.402-3.503a59.682 59.682 0 015.394-1.118c.802-.004 1.603-.004 2.404-.01 1.472.013 3.18.007 5.065-.022a47.566 47.566 0 00-10.835 4.184c-.154.085-.034.35.13.281a79.59 79.59 0 0113.692-4.527c10.536-.275 25.085-1.212 36.372-3.37a610.102 610.102 0 00-6.816 4.04c-.264.157-.01.559.253.403a537.778 537.778 0 007.705-4.664 61.62 61.62 0 008.904-2.405q-4.762 2.682-9.562 5.302c-.338.183-.019.677.316.502 4.194-2.192 8.359-4.5 12.437-6.944a69.064 69.064 0 0010.12-4.55c.16-.025.32-.042.48-.066q1.415-.805 2.83-1.593c-.16.031-.319.058-.484.088q.95-.544 1.89-1.104c-4.938 3.939-9.708 8.157-14.503 12.17-.315.264.141.82.462.558 6.307-5.146 12.957-10.173 18.958-15.729.348-.215.69-.426 1.036-.642.57-.164 1.142-.322 1.71-.495a90.673 90.673 0 005.718-3.718c-.426.16-.857.303-1.282.458.97-.572 1.935-1.13 2.888-1.688-3.885 3.476-7.877 6.84-11.895 10.12-.246.197.013.617.265.42 4.465-3.549 8.686-7.305 12.78-11.212a118.703 118.703 0 003.385-2.062c-.86 1.56-1.684 3.143-2.534 4.706a.4.4 0 00.7.365c.957-1.912 1.955-3.812 2.876-5.742a52.593 52.593 0 004.006-2.907c-.341.764-.68 1.53-1.02 2.294-.16.357.386.638.536.28.46-1.098.92-2.197 1.373-3.3a40.263 40.263 0 001.858-1.67 100.804 100.804 0 0013.622-12.9c2.293-2.611 4.531-5.286 6.87-7.855a127.834 127.834 0 013.414-3.024 31.431 31.431 0 00-2.092 5.654c-.073.274.367.37.433.092a31.072 31.072 0 012.25-6.249c.514-.435 1.022-.876 1.546-1.307s1.038-.847 1.558-1.271a43.927 43.927 0 00-2.41 8.603.2.2 0 00.392.083c.657-2.978 1.324-5.89 2.173-8.813a109.762 109.762 0 004.081-3.473 25.697 25.697 0 002.405-1.825 49.494 49.494 0 00-3.01 8.434c.262-.322.524-.641.783-.964.756-2.66 1.67-5.26 2.669-7.864a29.251 29.251 0 003.323-3.496c-.449 1.66-.81 3.357-1.164 5.046.303-.416.611-.83.911-1.249.334-1.52.643-3.05.86-4.578.151-.2.308-.398.453-.601.51-.71.985-1.448 1.428-2.2-.123 1.34-.25 2.682-.4 4.021.057-.083.117-.164.174-.247a4.28 4.28 0 01.756-.85c.172-1.531.31-3.071.392-4.608.179-.36.358-.72.528-1.087a4.69 4.69 0 01.473-1.023 1.83 1.83 0 011.128-.68 24.74 24.74 0 013.012 8.586c.772 5.203-.945 10.021-3.477 14.428-.318.417-.647.837-.998 1.261a84.79 84.79 0 00-10.101 15.128 1.201 1.201 0 00-.035.058c-2.011 2.288-3.951 4.485-5.687 6.502a141.83 141.83 0 01-23.397 22.136 108.474 108.474 0 01-27.8 14.55 199.924 199.924 0 01-29.437 7.675c-10.719 2.068-21.547 3.96-32.378 5.32-11.221 1.408-22.201.87-33.446.089a168.898 168.898 0 00-31.02.449 155.78 155.78 0 00-33.053 7.486c-10.964 3.785-21.39 9.787-32.957 11.6a.522.522 0 00-.224.094 10.81 10.81 0 00-5.733-2.14c.11-.088.198-.187.297-.269zm-1.262 1.357c.04-.052.09-.102.135-.154a4.852 4.852 0 01.842.027 8.51 8.51 0 012.094.619 19.198 19.198 0 012.768 1.509 4.5 4.5 0 00-1.033 2.41 8.51 8.51 0 00.173 2.876c-.11 2.962.54 6.11-.148 9.044-4.484-3.734-8.817-10.946-4.83-16.334zm67.825 33.118c-16.73-3.38-33.146-8.052-49.955-10.92a50.319 50.319 0 01-6.972-2.308c1.456-1.956 1.232-4.504.7-6.837a44.841 44.841 0 00-3.551-9.965c-.067-.135-.278-.029-.235.108.798 2.557 1.627 5.098 2.314 7.688.723 2.73 1.85 6.202-.196 8.583a26.07 26.07 0 01-3.68-2.083 11.528 11.528 0 00.49-2.833.467.467 0 00.133-.194 8.478 8.478 0 00-.12-5.306c-.147-.548-.32-1.182-.465-1.847a13.326 13.326 0 01.53-4.832.614.614 0 00.405-.462c10.35-1.059 19.588-5.945 29.195-9.556a153.398 153.398 0 0130.682-8.036 155.624 155.624 0 0131.442-1.581c11.76.595 23.352 1.88 35.122.685 10.625-1.078 21.21-3.025 31.713-4.92a228.685 228.685 0 0031.002-7.445 113.603 113.603 0 0027.639-13.16 132.3 132.3 0 0024.201-21.277q1.76-1.937 3.476-3.926c-1.97 3.547-3.899 7.112-5.879 10.64-11.44 11.627-24.503 21.357-40.252 27.079-8.973 3.259-18.33 5.321-27.267 8.68-.543.204-.28 1.066.274.864 8.28-2.974 16.85-4.986 25.185-7.778a94.988 94.988 0 0021.767-10.545 120.774 120.774 0 0017.916-14.436c-7.403 9.943-16.522 18.566-25.472 27.085a142.624 142.624 0 01-12.472 10.738q-2.59 1.533-5.242 2.952a142.9 142.9 0 01-15.605 7.076c-12.34 3.15-24.627 6.78-36.906 10.064-14.285 3.82-28.578 7.873-42.307 13.419a86.211 86.211 0 00-21.964 12.91 630.857 630.857 0 01-25.355-4.075c-7.267-1.315-14.515-2.736-21.755-4.195-7.206-1.451-14.46-3.298-21.775-4.058a.072.072 0 00-.03.14c6.256 2.046 12.842 3.225 19.278 4.579a1007.579 1007.579 0 0019.433 3.91q14.38 2.736 28.88 4.774-1.553 1.29-3.068 2.664a368.494 368.494 0 01-11.253-2.066zm-21.32 39.805q2.004-2.207 4.019-4.406c.827-.773 1.637-1.518 2.332-2.236l7.814-8.091q1.311-1.357 2.624-2.726a56.963 56.963 0 00-2.817 5.228.202.202 0 00.355.191c1.228-2.294 2.47-4.561 3.78-6.79q1.6-1.667 3.209-3.33a36.823 36.823 0 00-2.276 4.656c-.138.341.366.62.512.274a50.879 50.879 0 013.342-6.547 147.108 147.108 0 0119.352-17.176 40.495 40.495 0 00-3.96 4.687.175.175 0 10.282.203 41.628 41.628 0 014.849-5.716 85.193 85.193 0 012.573-1.72c2.69-1.713 5.46-3.282 8.29-4.733-1.43 1.57-2.8 3.198-4.158 4.781-.197.229.15.552.341.32 1.627-1.966 3.371-3.835 5.08-5.729a127.3 127.3 0 016.081-2.813l-.99 1.154c-.288.335.219.806.5.467q.912-1.098 1.827-2.193 3.115-1.313 6.287-2.491c7.58-2.673 15.274-5.005 23.014-7.177.984-.27 1.971-.53 2.956-.796q-6.47 3.541-12.725 7.443a.136.136 0 00-.043.06q.875-.34 1.756-.662 6.77-3.876 13.65-7.548l6.17-1.653c-.838.436-1.669.895-2.484 1.377-2.01 1.19-4.77 2.548-6.152 4.607.25-.054.5-.11.75-.163 1.642-1.853 4.336-3.145 6.347-4.272a59.6 59.6 0 014.934-2.454l2.322-.621a205.08 205.08 0 004.892-1.311 47.51 47.51 0 00-9.413 6.802.13.13 0 00-.039.094l.586-.115a78.314 78.314 0 0111.737-7.602c10.119-2.945 23.95-7.555 34.316-12.513a677.376 677.376 0 00-5.564 5.641c-.214.22.134.545.347.325a582.385 582.385 0 006.264-6.471 61.58 61.58 0 008.003-4.591q-3.923 3.803-7.899 7.559c-.28.262.155.66.433.406a244.538 244.538 0 0010.261-9.88 81.66 81.66 0 0012.511-10.762c-2.686 3.604-5.253 7.32-7.814 11.005.152-.118.312-.227.464-.347.667-.52 1.345-1.036 2.021-1.55 3.225-4.342 6.436-8.726 9.322-13.26 1.205-1.277 2.4-2.546 3.597-3.798 1.545-1.62 3.086-3.142 4.593-4.646-2.873 4.351-5.878 8.62-8.928 12.814-.185.254.17.595.361.339 3.416-4.565 6.542-9.274 9.506-14.094.937-.944 1.856-1.892 2.754-2.855-.434 1.728-.829 3.468-1.25 5.197a.394.394 0 00.768.175c.44-2.091.921-4.184 1.321-6.285a52.26 52.26 0 003.135-3.831q-.204 1.238-.404 2.478c-.063.384.536.522.591.132.165-1.178.331-2.357.487-3.538.474-.676.934-1.367 1.374-2.089a99.188 99.188 0 007.747-11.884q1.913-2.176 3.76-4.413c.205-.794.45-1.587.741-2.376q-1.213 1.467-2.45 2.908c.03-.06.062-.12.093-.185 1.558-3.108 3.038-6.263 4.645-9.344.555-.865 1.127-1.722 1.704-2.575a.76.76 0 00.407-.204c.102-.097.199-.201.3-.298a31.631 31.631 0 00-.463 5.284c-.002.284.448.266.443-.02a30.678 30.678 0 01.429-5.671q1.23-1.229 2.363-2.595a41.724 41.724 0 00.005 7.305.2.2 0 00.397-.018c-.102-2.547-.178-5.053-.158-7.584a47.557 47.557 0 002.354-3.142 88.36 88.36 0 01.157 7.667c.086-.134.175-.264.26-.398-.047-2.442-.193-4.88-.385-7.318a64.277 64.277 0 002.296-3.586 53.384 53.384 0 00-.499 8.635c.168-.276.339-.552.503-.83a82.618 82.618 0 01.46-8.597c.245-.422.486-.842.72-1.26a24.653 24.653 0 001.738-3.846c-.003 2.58.188 5.183.28 7.737l.561-1.197c-.105-2.563-.17-5.164-.465-7.711a24.191 24.191 0 00.65-2.85.654.654 0 00.48-.301c.378 2.266.74 4.533 1.002 6.823q.307-.832.59-1.676c-.308-2.402-.665-4.821-1.164-7.199a18.755 18.755 0 00.115-3.469 16.998 16.998 0 015.06-6.012c1.031-.836 2.07-1.658 3.107-2.487a2.565 2.565 0 01.687.464 5.933 5.933 0 011.086 2.73 29.34 29.34 0 01.632 5.934c.132 3.515-.089 7.027-.112 10.54a105.242 105.242 0 01-2.18 8.112 213.652 213.652 0 01-12.063 29.892 141.815 141.815 0 01-16.994 27.36 108.526 108.526 0 01-23.182 21.145 200.038 200.038 0 01-26.512 14.908c-9.84 4.727-19.83 9.312-29.959 13.384-10.494 4.216-21.25 6.49-32.32 8.595a168.828 168.828 0 00-29.882 8.328 155.76 155.76 0 00-30.06 15.652c-9.641 6.45-18.198 14.908-28.921 19.61a.517.517 0 00-.191.147 10.799 10.799 0 00-6.09-.606c.065-.117.13-.233.203-.345zm-.874 1.635c.025-.062.06-.122.087-.186a4.775 4.775 0 01.821-.187 8.518 8.518 0 012.183.065 19.298 19.298 0 013.06.754 4.492 4.492 0 00-.386 2.592 8.499 8.499 0 00.899 2.738c.648 2.893 2.083 5.773 2.158 8.784-5.281-2.467-11.307-8.339-8.82-14.563zm213.671-34.046c-12.855 10.025-28.983 18.426-43.512 25.854-29.829 15.248-62.968 21.037-96.14 22.962-17.038.989-34.106.646-51.09 2.15a50.126 50.126 0 01-7.33-.457c.91-2.26.046-4.67-1.063-6.79a44.871 44.871 0 00-5.97-8.732c-.1-.113-.277.044-.199.163 1.424 2.268 2.87 4.514 4.193 6.845 1.394 2.455 3.369 5.527 1.995 8.35a25.938 25.938 0 01-4.09-1.074 11.499 11.499 0 00-.247-2.864.458.458 0 00.08-.221 8.48 8.48 0 00-1.47-5.102c-.282-.493-.61-1.061-.92-1.669a13.315 13.315 0 01-.715-4.807.614.614 0 00.275-.555c9.739-3.654 17.43-10.733 25.803-16.67a153.457 153.457 0 0127.633-15.575 155.635 155.635 0 0130.006-9.529c11.525-2.416 23.06-4.124 34.145-8.276 9.997-3.746 19.742-8.32 29.42-12.828a228.755 228.755 0 0028.086-15.085 113.6 113.6 0 0023.382-19.759 132.2 132.2 0 0017.993-26.738 217.418 217.418 0 0014.074-33.468c3.517-10.895 5.61-22.328 3.924-33.727l1.137-.905a1.016 1.016 0 00.15-.153c9.12 7.914 18.412 15.72 24.31 26.318 12.604 22.639 6.317 49.978-4.949 71.645-20.675 39.762-35.882 50.535-48.91 60.693z"/><path data-name="Path 2905" d="M307.876 255.705c-22.104 13.758-43.205 30.075-68.534 37.444-25.158 7.319-51.448 10.464-77.498 12.51-7.363.581-14.732 1.05-22.105 1.48-7.338.43-14.824.489-22.092 1.615a.072.072 0 00.007.144c6.572.387 13.24-.149 19.81-.477q9.899-.494 19.789-1.162c13.162-.913 26.305-2.161 39.369-4.018a336.447 336.447 0 0038.189-7.527 140.707 140.707 0 0035.61-14.829c12.95-7.577 25.523-15.986 37.997-24.324a.509.509 0 00-.542-.856z"/><path data-name="Path 2906" d="M363.574 136.32c-2.638-9.937-6.612-20.113-15.678-25.808-.155-.098-.279.145-.133.247 7.836 5.333 11.843 14.639 14.38 23.435a100.454 100.454 0 014.244 31.263c-.79 22.117-12.25 41.383-25.11 58.69-6.454 8.686-13.276 18.2-23.492 22.689-.657.29-.325 1.37.34 1.075 9.024-4.003 15.232-11.744 21.005-19.458 6.821-9.107 13.46-18.45 18.632-28.613a82.927 82.927 0 009.272-31.429 97.605 97.605 0 00-3.46-32.09z"/><path data-name="Path 2907" d="M343.37 127.053c-11.488 31.822-24.478 65.968-53.422 86.015-7.848 5.434-16.372 9.807-24.162 15.333-.473.336 0 1.098.483.766 7.252-4.981 15.023-9.111 22.378-13.931A94.988 94.988 0 00307.02 199.5c11.468-12.673 19.651-27.9 26.12-43.622 3.889-9.454 7.103-19.11 10.334-28.8.019-.066-.082-.087-.104-.025z"/><path data-name="Path 2908" d="M143.598 277.366c26.885-19.067 61.168-20.065 90.957-32.329a138.783 138.783 0 0026.64-14.488c.33-.23.004-.752-.333-.53a164.604 164.604 0 01-48.268 21.337c-15.38 4.135-31.103 7.293-46.03 12.948a98.435 98.435 0 00-23.435 12.317c-.454.333.004 1.074.47.745z"/><path data-name="Path 2909" d="M353.58 149.771a89.976 89.976 0 00-4.242-21.507.212.212 0 00-.404.127 126.107 126.107 0 014.046 21.407c.04.383.627.362.6-.027z"/><path data-name="Path 2910" d="M348.4 137.513c.846 5.266 2.085 10.315 2.366 15.678a.385.385 0 00.768-.035c-.297-5.136-.936-10.904-3-15.664-.027-.068-.146-.062-.133.021z"/><path data-name="Path 2911" d="M354.23 190.214a.437.437 0 00.851.194 77.29 77.29 0 00.992-29.355c-.045-.295-.501-.29-.476.022a114.946 114.946 0 01.461 14.29 139.508 139.508 0 01-1.828 14.85z"/><path data-name="Path 2912" d="M353.443 172.557a78.257 78.257 0 01-1.233 14.203c-.089.46.626.625.712.162a50.566 50.566 0 00.735-14.374.108.108 0 00-.214.009z"/><path data-name="Path 2913" d="M100.716 214.788c30.85-11.597 64.26-3.84 96.189-8.122a138.806 138.806 0 0029.445-7.23c.377-.14.195-.727-.188-.598a164.58 164.58 0 01-52.108 8.354c-15.927.088-31.935-.863-47.808.81a98.366 98.366 0 00-25.799 5.949c-.518.204-.264 1.037.269.837z"/><path data-name="Path 2914" d="M70.49 227.5q3.282-5.116 6.594-10.211c.011-.019-.017-.034-.029-.017q-3.326 5.093-6.676 10.168c-.043.068.067.126.11.06z"/><path data-name="Path 2915" d="M73.587 226.365a39.063 39.063 0 005.277-8.612.117.117 0 00-.208-.108 46.41 46.41 0 01-5.428 8.388c-.198.239.163.574.359.332z"/><path data-name="Path 2916" d="M75.709 227.87c2.217-3.318 4.687-6.384 7.198-9.478a.023.023 0 00-.033-.03 72.142 72.142 0 00-7.576 9.219.253.253 0 10.41.29z"/><path data-name="Path 2917" d="M85.394 219.795l3.347-3.926c.15-.173-.115-.42-.263-.244l-3.383 3.89c-.176.2.127.48.299.28z"/><path data-name="Path 2918" d="M306.285 128.084a130.478 130.478 0 001.593-7.85s-.027-.028-.032-.007a83.165 83.165 0 01-1.936 8.308c.126-.15.247-.303.375-.451z"/><path data-name="Path 2919" d="M339.747 135.492q-.092-1.547-.126-3.094c-.25.643-.499 1.288-.767 1.929a.848.848 0 00.893 1.165z"/><path data-name="Path 2920" d="M81.111 154.433c32.761-3.596 63.208 12.193 95.203 15.954a138.813 138.813 0 0030.324.285c.4-.041.37-.655-.034-.621a164.57 164.57 0 01-52.553-4.812c-15.452-3.86-30.728-8.74-46.522-11.054a98.388 98.388 0 00-26.467-.62c-.559.064-.517.932.05.868z"/><path data-name="Path 2921" d="M48.677 159.263q4.446-4.143 8.918-8.26c.015-.013-.008-.036-.025-.022q-4.483 4.11-8.985 8.2c-.057.054.033.136.092.082z"/><path data-name="Path 2922" d="M51.959 158.928a39.05 39.05 0 007.247-7.038c.093-.117-.074-.27-.172-.156a46.442 46.442 0 01-7.336 6.783c-.256.186.01.6.26.41z"/><path data-name="Path 2923" d="M53.643 160.917c2.97-2.667 6.122-5.025 9.321-7.401a.023.023 0 00-.024-.04 72.299 72.299 0 00-9.625 7.058.253.253 0 10.328.383z"/><path data-name="Path 2924" d="M65.026 155.487l4.216-2.974c.188-.133-.002-.433-.194-.302l-4.244 2.93c-.219.15.003.504.222.346z"/><path data-name="Path 2925" d="M305.233 114.123a.016.016 0 10-.028-.014 70.21 70.21 0 01-1.526 3.166c.06-.054.116-.11.176-.166q.703-1.485 1.378-2.986z"/></g></svg>