<svg xmlns="http://www.w3.org/2000/svg" width="421.008" height="447.07"><g data-name="Group 3077" opacity=".3" fill="#bfa871"><path data-name="Path 3182" d="M61.379 185.023c3.556-.939 4.738-4.055 5.208-7.423.853-6.12 1.761-12.028 3.872-17.873.081-.224-.291-.384-.39-.163a51.473 51.473 0 00-3.8 11.55c-.8 4.176.056 11.328-5.251 12.588-.856.202-.496 1.544.361 1.321z"/><path data-name="Path 3183" d="M46.645 187.756c3.134-.8 7.886.293 10.13-2.564a.2.2 0 00-.2-.337 26 26 0 01-5.449 1.009 22.036 22.036 0 00-4.822.669.635.635 0 00.341 1.223z"/><path data-name="Path 3184" d="M101.623 188.659a21.4 21.4 0 01-18-7.89c-4.562-5.614-5.754-12.417-5.429-19.469a.156.156 0 00-.305-.041c-3.12 14.667 8.121 30.237 23.732 28.953.989-.081 1.011-1.608.002-1.553z"/><path data-name="Path 3185" d="M139.694 141.402c-.276-.391-.916-.041-.655.383 2.738 4.461 7.865 5.865 11.475 9.405a19.747 19.747 0 015.308 17.841c-.17.955 1.237 1.379 1.476.408a20.207 20.207 0 00-2.958-15.97 19.662 19.662 0 00-5.386-5.33c-3.221-2.143-6.941-3.471-9.26-6.737z"/><path data-name="Path 3186" d="M153.282 173.268a18.522 18.522 0 01-13.281 10.786c-1.088.219-.609 1.808.454 1.643a15.6 15.6 0 0013.015-12.349c.023-.107-.14-.195-.188-.08z"/><path data-name="Path 3187" d="M74.227 146.246c4.98-.91 9.863-2.2 14.875-3 5.088-.808 10.2-1.465 15.25-2.5 8.132-1.673 16.151-4.368 22.7-9.624.494-.4-.176-1.278-.684-.887-7.245 5.576-15.825 8.165-24.72 9.737-9.044 1.6-19.221 1.8-27.646 5.737-.323.149-.082.593.225.537z"/><path data-name="Path 3188" d="M88.105 146.25a.1.1 0 00.025.192c6.757.6 14.593-1.02 21.142-2.628a62.343 62.343 0 0019.679-8.753c6.75-4.432 14.031-6.158 21.934-7.242 6.9-.948 14.22-1.494 20.616-4.45.653-.3.19-1.368-.488-1.158-6.956 2.147-13.863 3.136-21.061 4.122-6.921.95-13.778 2.328-19.821 6-6.544 3.973-12.613 7.559-20.1 9.572-7.155 1.921-14.926 2.058-21.926 4.345z"/><path data-name="Path 3189" d="M177.074 124.156a87.018 87.018 0 0116 2.113c4.939 1.163 10.468 2.461 13.99 6.35.664.734 1.655-.325 1.066-1.066-3.156-3.971-8.592-5.348-13.312-6.5a62.568 62.568 0 00-17.74-1.682.393.393 0 00-.004.785z"/><path data-name="Path 3190" d="M29.441 225.698l-.348.207-.007.007a70.747 70.747 0 00-12.687 9.05c-.311.287.1.851.461.6 4.337-3.084 8.572-6.158 13.146-8.892a.562.562 0 00-.565-.972z"/><path data-name="Path 3191" d="M27.291 229.854a79.322 79.322 0 00-7.014 5.122c-.088.077.023.2.118.153a79.424 79.424 0 007.314-4.56c.455-.288.01-1.024-.418-.715z"/><path data-name="Path 3192" d="M26.538 234.067a25.54 25.54 0 00-3.915 3.235c-.061.068 0 .217.1.174a25.365 25.365 0 004.251-2.664c.464-.316-.001-1.075-.436-.745z"/><path data-name="Path 3193" d="M78.783 210.805c-5.608.872-11.17 1.883-16.817 2.508-.341.038-.35.571 0 .54a134.76 134.76 0 0017.026-2.292c.496-.109.274-.831-.209-.756z"/><path data-name="Path 3194" d="M66.101 215.926c-.476.122-.275.837.2.732 4.219-.914 8.462-1.535 12.731-2.16.6-.09.467-1.147-.145-1.075a98.42 98.42 0 00-12.786 2.503z"/><path data-name="Path 3195" d="M74.329 216.439a31.823 31.823 0 00-5.962 1.98c-.39.172-.111.842.293.695a35.023 35.023 0 015.971-1.587c.705-.122.414-1.248-.302-1.088z"/><path data-name="Path 3196" d="M172.976 180.766c2.26.154 5.269-2.987 7.052-4.21 3.316-2.273 6.721-4.465 9.924-6.894.653-.5.065-1.6-.662-1.133-2.845 1.842-5.558 3.9-8.314 5.878q-2.073 1.481-4.134 2.978c-1.158.842-2.536 2.3-3.969 2.623-.445.099-.314.729.103.758z"/><path data-name="Path 3197" d="M186.895 174.619q-2.087 1.459-4.154 2.948a11.994 11.994 0 00-3.12 2.6c-.059.088.039.189.131.169a12.527 12.527 0 003.734-2.05 552.904 552.904 0 004.027-2.608c.657-.438.025-1.508-.618-1.059z"/><path data-name="Path 3198" d="M185.36 179.934c-.72.621-1.5 1.213-2.156 1.9-.346.359.108 1.009.551.714.828-.551 1.58-1.239 2.354-1.863.526-.427-.23-1.199-.749-.751z"/><path data-name="Path 3199" d="M226.582 159.442c.616-.14.5-1.172-.151-1.12-5.651.46-11.566 1.032-17.15 2-.118.02-.073.18.025.192a53.421 53.421 0 0017.276-1.072z"/><path data-name="Path 3200" d="M223.529 161.532a58.922 58.922 0 01-10.915.616.179.179 0 00-.048.35 29.528 29.528 0 0011.249.068c.678-.115.389-1.147-.286-1.034z"/><path data-name="Path 3201" d="M221.465 164.566a62.956 62.956 0 00-6.339.682c-.3.056-.217.51.07.521a61.491 61.491 0 006.269-.259c.605-.039.605-.993 0-.944z"/><path data-name="Path 3202" d="M218.942 167.313c-.849.149-1.711.269-2.542.5a.347.347 0 00.092.679 25.82 25.82 0 002.578-.232.481.481 0 10-.128-.947z"/><path data-name="Path 3203" d="M120.699 141.366a192.7 192.7 0 00-16.7 20.7c-.244.348.32.664.567.33a259.265 259.265 0 0116.826-20.337c.422-.465-.262-1.154-.693-.693z"/><path data-name="Path 3204" d="M119.197 145.431a127.546 127.546 0 00-8.448 14.579.19.19 0 00.328.192c3.122-4.635 6.021-9.52 8.9-14.311.304-.505-.464-.945-.78-.46z"/><path data-name="Path 3205" d="M117.79 152.105a55.631 55.631 0 00-3.765 7.931c-.138.361.478.625.632.266a82.131 82.131 0 013.858-7.773.42.42 0 00-.725-.424z"/><path data-name="Path 3206" d="M118.757 156.456c.273-.485-.474-.921-.745-.436a52.077 52.077 0 00-3.256 6.967c-.178.469.56.655.743.2a59.665 59.665 0 013.258-6.731z"/><path data-name="Path 3207" d="M117.669 161.013c-.774 1.865-1.472 3.763-2.181 5.653-.174.465.549.643.732.2.781-1.867 1.573-3.73 2.291-5.624.203-.529-.632-.739-.842-.229z"/><path data-name="Path 3208" d="M117.572 165.657l-.731 2.7a.519.519 0 001 .275l.788-2.687a.548.548 0 00-1.057-.288z"/><path data-name="Path 3209" d="M119.309 170.062l-.555 1.19a.413.413 0 10.758.32l.418-1.248c.121-.361-.457-.614-.621-.262z"/><path data-name="Path 3210" d="M121.011 173.273a19.25 19.25 0 00-.67 3.212.438.438 0 00.844.233 19.818 19.818 0 00.878-3.3c.079-.637-.861-.673-1.052-.145z"/><path data-name="Path 3211" d="M122.483 177.355c.052.98.065 1.973.2 2.946a.363.363 0 00.725 0c.131-.973.144-1.966.2-2.946.03-.72-1.164-.72-1.125 0z"/><path data-name="Path 3212" d="M23.396 268.972a43.893 43.893 0 00-2.973 13.36c-.014.337.537.424.6.081a77.779 77.779 0 013.318-13.18c.213-.595-.73-.845-.945-.261z"/><path data-name="Path 3213" d="M25.169 270.472a29.292 29.292 0 00-1.8 6.535c-.013.108.149.117.181.023.736-2.115 1.314-4.247 2.2-6.314a.315.315 0 10-.581-.244z"/><path data-name="Path 3214" d="M26.765 270.583l-1.463 4.793c-.2.646.808.919 1.009.278l1.5-4.782c.205-.662-.844-.949-1.046-.289z"/><path data-name="Path 3215" d="M33.874 296.589a61.315 61.315 0 00.217 26.844.023.023 0 00.045-.011 66.7 66.7 0 01.759-26.551c.155-.667-.88-.948-1.021-.282z"/><path data-name="Path 3216" d="M36.91 298.776a36.194 36.194 0 00-.926 17.284c.009.047.079.034.079-.011a74.71 74.71 0 011.747-17.026.467.467 0 00-.9-.247z"/><path data-name="Path 3217" d="M39.216 301.935a18.659 18.659 0 00-.546 9.527.04.04 0 00.077 0c.255-1.648.251-3.323.5-4.978.224-1.486.634-2.94.792-4.438.059-.499-.668-.526-.823-.111z"/><path data-name="Path 3218" d="M40.913 302.127a15.721 15.721 0 00-.386 6.206.053.053 0 00.1 0 37.525 37.525 0 011.106-5.978c.172-.524-.708-.768-.82-.228z"/><path data-name="Path 3219" d="M42.385 301.134l-.162 2.212c-.072.973 1.418.953 1.508 0l.206-2.212c.094-.989-1.484-.998-1.552 0z"/><path data-name="Path 3220" d="M65.767 337.498c-.17-.361-.8-.1-.652.276a70.11 70.11 0 0018.151 26.589c.564.51 1.377-.291.838-.838a94.812 94.812 0 01-18.337-26.027z"/><path data-name="Path 3221" d="M69.719 340.191a62.046 62.046 0 0011.344 16.8c.515.526 1.267-.253.8-.8a90.507 90.507 0 01-11.586-16.326c-.197-.371-.732-.046-.558.326z"/><path data-name="Path 3222" d="M72.568 338.713c-.26-.479-.964-.057-.725.424a57.66 57.66 0 0011.767 16.41.628.628 0 00.887-.887 74.282 74.282 0 01-11.929-15.947z"/><path data-name="Path 3223" d="M75.162 339.876a68.319 68.319 0 005.486 8.312c.438.541 1.357-.167.966-.745-1.835-2.714-3.842-5.294-5.608-8.06a.489.489 0 00-.844.493z"/><path data-name="Path 3224" d="M78.289 342.196l1.822 2.59c.535.761 1.8.023 1.253-.732q-.932-1.282-1.862-2.567c-.524-.722-1.737-.036-1.213.709z"/><path data-name="Path 3225" d="M82.14 342.098c.515.61 1.4-.275.88-.88q-.557-.638-1.113-1.28c-.519-.6-1.366.268-.863.862z"/><path data-name="Path 3226" d="M122.374 371.97c-5.093-3.328-10.31-6.475-15.046-10.314a82.033 82.033 0 01-11.764-12.177c-.088-.108-.233.031-.181.14 4.978 10.61 16.469 17.925 26.293 23.542a.691.691 0 00.698-1.191z"/><path data-name="Path 3227" d="M100.042 350.464a56.172 56.172 0 0018.747 16.324.553.553 0 00.558-.955 130.084 130.084 0 01-19.044-15.572c-.13-.125-.374.042-.261.203z"/><path data-name="Path 3228" d="M104.256 351.109a58.632 58.632 0 0013.46 11.2c.494.305.939-.467.452-.776a116.58 116.58 0 01-13.791-10.549.087.087 0 00-.121.125z"/><path data-name="Path 3229" d="M107.672 351.199a56.084 56.084 0 008.36 7.3c.587.433 1.219-.6.58-.993a90.874 90.874 0 01-8.809-6.438.093.093 0 00-.131.131z"/><path data-name="Path 3230" d="M110.766 351.766c1.014.833 2.052 1.646 3.037 2.511.4.354.892-.316.44-.569-1.154-.645-2.274-1.352-3.407-2.034-.055-.031-.122.05-.07.092z"/><path data-name="Path 3231" d="M115.245 351.944a.587.587 0 00.592-1.012 13 13 0 01-2.246-1.788c-.526-.547-1.337.275-.829.831a8.6 8.6 0 002.483 1.969z"/><path data-name="Path 3232" d="M251.968 202.576c.144.793 1.354.456 1.21-.334a62.715 62.715 0 00-14.385-29.5c-.151-.176-.4.077-.253.251a63.281 63.281 0 0113.428 29.583z"/><path data-name="Path 3233" d="M239.044 179.103a.185.185 0 00-.289.224 64.248 64.248 0 018.506 18.071.588.588 0 001.133-.312 42.533 42.533 0 00-9.35-17.983z"/><path data-name="Path 3234" d="M242.39 192.629c.257.923 1.731.514 1.433-.393a29.876 29.876 0 00-5.366-9.974c-.325-.384-.969.117-.7.537a35.44 35.44 0 014.633 9.83z"/><path data-name="Path 3235" d="M240.212 192.616c.268.822 1.589.443 1.287-.354a60.587 60.587 0 00-3.747-8.071c-.278-.5-1-.059-.756.442a64.288 64.288 0 013.216 7.983z"/><path data-name="Path 3236" d="M162.344 375.607a101.83 101.83 0 01-17.952-3.018.288.288 0 00-.153.555 93.471 93.471 0 0018.1 3.65c.761.073.765-1.125.005-1.187z"/><path data-name="Path 3237" d="M158.071 378.7c-3.486-.523-6.987-.95-10.482-1.413-.61-.081-.763.993-.147 1.086 3.486.524 6.971 1.081 10.464 1.548.688.091.859-1.119.165-1.221z"/><path data-name="Path 3238" d="M408.594 254.958c17.189-31.393 15.137-71.293 2.33-104.438-.1-6.355 1.267-12.651.522-19.027a19.516 19.516 0 00-.292-1.736 11.523 11.523 0 00-.883-3.608 8.982 8.982 0 00-.785-1.451c-.634-1.456-1.354-2.885-2.1-4.326a143.49 143.49 0 00-4.45-7.944c-3.091-8.457-10-15.9-17.062-20.754-11.909-8.192-26.553-8.852-40.037-12.942-.736-.269-1.486-.5-2.233-.743a99.364 99.364 0 01-2.262-1.285 13.466 13.466 0 01-6.843-8.682 38.19 38.19 0 01-1.021-11.3c.165-.926.352-1.865.565-2.827 1.384-6.28 2.066-13.584 4.919-19.386s7.43-10.362 9.924-16.432c1.429-3.479 3.524-8.326 1.332-11.931-2.129-3.5-7.868-5.142-11.656-5.813-4.039-.716-8.385-.382-11.9 1.9-4.246 2.756-6 7.617-7.649 12.15a32.83 32.83 0 01-3.556 7.657c-1.885 2.718-4.513 4.748-6.885 7.016-4.82 4.6-7.359 10.45-9.915 16.491a74.894 74.894 0 01-4.283 8.9 44.22 44.22 0 01-3.224 4.483 7.153 7.153 0 00-4.057 1.883c-1.248 1.285-1.4 3.1-3.3 3.754q-2.1-.485-4.206-.9a178.796 178.796 0 00-4.788-.86 90.656 90.656 0 00-19.792-1.827c-12.565-2.6-25.628-1.745-37.468 3.953a45.844 45.844 0 00-17.72 14.658c-1.045 1.479-2.038 2.928-3.037 4.359a14.131 14.131 0 00-7.937 3.5c-3.976 3.549-4.912 7.472-4.007 11.193a15.281 15.281 0 002.655 6.712c.061.1.14.19.206.289.149.208.3.418.454.621a18.954 18.954 0 002.158 2.486c-1.589 1.745-3.1 3.553-4.583 5.389-14.575-1.7-28.253 4.291-42.426 6.723-.811.093-1.619.228-2.427.35-.9-.039-1.8-.079-2.707-.142a14.037 14.037 0 01-10.428-4.894 39.821 39.821 0 01-6.222-10.048c-.278-.941-.542-1.9-.793-2.9-1.639-6.495-4.413-13.62-4.463-20.358s2.086-13.119 1.578-19.937c-.293-3.91-.6-9.4-4.328-11.737-3.619-2.271-9.728-1.118-13.572.023-4.095 1.219-7.989 3.556-10.2 7.319-2.669 4.547-2.038 9.9-1.458 14.888a34.191 34.191 0 01.26 8.793c-.488 3.411-1.989 6.531-3.142 9.748-2.341 6.538-1.978 13.17-1.54 19.99a77.9 77.9 0 01.163 10.3 46.051 46.051 0 01-.91 5.682 7.443 7.443 0 00-2.9 3.646c-.564 1.781.138 3.542-1.325 5.037q-2.178.528-4.339 1.126c-1.61.449-3.233.932-4.861 1.433a94.309 94.309 0 00-19.291 7.533c-12.92 3.442-24.691 10.335-33.062 21.167a47.789 47.789 0 00-9.671 21.923c-.284 1.867-.531 3.678-.8 5.479a14.723 14.723 0 00-5.763 6.965c-2.048 5.161-1.088 9.252 1.492 12.3a15.919 15.919 0 005.6 5.012c.1.063.221.113.327.174.237.126.472.251.713.366a19.918 19.918 0 003.172 1.31c-9.023 32.078-4.969 67.532 9.012 97.648 8.3 17.889 20.366 34.274 37 45.187 17.394 11.409 38.57 17.819 58.893 21.431a164.95 164.95 0 0046.5 1.757 23.241 23.241 0 017.012 2.382c.56.3 1.081.625 1.583.961 1.966 1.858 3.777 3.984 5.553 6.019a118.209 118.209 0 0041.237 35.9c19.728 10.419 42.365 15.676 64.676 14.1 25.919-1.829 50-13.351 71.84-26.773 21.433-13.173 36.687-32.515 42.563-57.237 5.012-21.09 2.889-43.266-4.075-63.685a1.326 1.326 0 00-.018-.183 39.238 39.238 0 01.616-25.4 90.287 90.287 0 0013.797-18.56zm.454-15.126c-4.928 14.561-14.078 26.3-25.086 36.434q-.932-1.646-1.912-3.26a135.3 135.3 0 008.159-18.854c.189-.538-.605-.957-.81-.405a137.13 137.13 0 01-8.156 17.959q-1.174-1.89-2.411-3.738c1.436-3.6 2.757-7.253 3.892-10.953.165-.542-.68-.689-.856-.169-1.152 3.37-2.466 6.653-3.856 9.9-.488-.711-.989-1.415-1.49-2.117.285-.811.589-1.626.86-2.434.14-.415-.583-.668-.736-.251-.226.623-.488 1.223-.731 1.835-20.537-28.282-51.9-47.995-85.746-51.19-7.409-6.043-14.9-12.042-22.523-17.815q-1.8-3.134-3.748-6.181c8.825 6.678 17.9 13 26.549 19.948.594.478 1.445-.357.847-.845-8.845-7.215-18.264-14.568-28.2-20.349a157.267 157.267 0 00-3.229-4.707c9.728 7.267 19.629 14.231 29.14 21.815.6.478 1.461-.361.854-.854-9.725-7.944-20.033-15.855-30.9-22.207a158.417 158.417 0 00-21.517-24.02c-3.057-5.874-4.723-12.378-8.392-17.97a20.66 20.66 0 00-1.083-1.483 11.98 11.98 0 00-2.508-2.95 9.339 9.339 0 00-1.407-.984c-1.267-1.061-2.607-2.055-3.973-3.05a145.954 145.954 0 00-7.854-5.325 40.75 40.75 0 00-12.048-7.646 86.066 86.066 0 015.012-.422 72.74 72.74 0 006.007 2.124 56.582 56.582 0 0025.472 1.7 136.559 136.559 0 0019.14 5.757.553.553 0 00.4-.052c4.33 10 13.132 17.979 23.176 22.054 14.854 6.027 32.718 5.353 47.943 1.016a39.68 39.68 0 0016.844-9.421c6.9-.456 13.715-1.887 20.566-2.756.149.056.3.12.447.174 7.495 2.693 15.054 1.775 22.648.851a157.972 157.972 0 0015.52 6.129c13.234 29.262 16.02 64.204 5.699 94.712zm-132.976-27.648a120.1 120.1 0 00-1.845-4.395c1.474 1.44 2.95 2.881 4.44 4.307-.864.014-1.73.05-2.595.088zm-3.224-7.436c-.158-.337-.323-.671-.485-1.007a227.14 227.14 0 0010 8.391c-.434-.009-.867-.033-1.3-.034-2.712-2.481-5.467-4.916-8.212-7.35zm-1.416-2.935q-1.556-3.11-3.276-6.148c6.613 5.709 13.383 11.267 20.182 16.751a98.813 98.813 0 00-3.851-.228c-4.275-3.551-8.62-7.074-13.056-10.375zM214.74 154.66q1.349-.237 2.695-.488 1.632-.3 3.264-.625 1.088-.2 2.172-.429a1.839 1.839 0 001.122-.275q1.182.889 2.345 1.808c-4.94.49-9.944 1.163-14.816 2.1a213.216 213.216 0 013.217-2.091zm-3.976-2.75c.162-3.761.289-7.513.61-11.267.05-.022.1-.022.153-.049.621-.336 1.258-.682 1.9-1.023-.036 1.109.066 2.273.038 3.212-.074 2.416-.158 4.834-.189 7.253q-1.262.937-2.513 1.874zm3.98-13.006a16.922 16.922 0 012.434-.991c-.348 3.217-.6 6.508-.65 9.759-.553.384-1.086.788-1.628 1.183-.036-1.521-.084-3.041-.129-4.562a45.556 45.556 0 00-.028-5.389zm4.791 6.824c-.294.167-.592.323-.876.506-.223.142-.435.294-.654.44.117-2.962.09-5.951-.032-8.89a5.19 5.19 0 011.669.456 95.37 95.37 0 00-.108 7.487zm1.89 5.129a2.852 2.852 0 00.476.434c.18.129.354.266.533.4-1.117.269-2.239.655-3.156.862-.571.129-1.142.255-1.711.382a52.87 52.87 0 013.857-2.079zm-.668-11.922c.158.12.316.224.47.364a9.689 9.689 0 01.722.767c-.084 1.535-.167 3.082-.153 4.614-.3.1-.589.24-.881.366-.064-2.037-.108-4.074-.158-6.112zm2.524 2.93a29.44 29.44 0 011.341 2.465 6.138 6.138 0 00-1.285.014q-.001-1.237-.056-2.48zm-30.292-27.939c1.285-.221 2.573-.289 3.863-.389.42.244.847.474 1.273.705-1.74.2-3.476.5-5.183.837-.323.063-.644.138-.966.206-.372-.091-.743-.183-1.113-.266.171-.241.343-.483.517-.722.533-.133 1.062-.279 1.608-.372zm-.758-.772c.434-.585.865-1.17 1.309-1.749.592.424 1.208.831 1.833 1.226a22.877 22.877 0 00-3.142.522zm7.913 2.142c.867.429 1.731.83 2.587 1.208-1.6.169-3.194.377-4.782.607q-1.68-.622-3.375-1.126c1.856-.236 3.715-.439 5.57-.694zm53.773 4.524c.156.817.345 1.626.558 2.425-1.542-.709-3.835-.794-5.23-1.1-1.969-.436-3.94-.874-5.917-1.291a51.645 51.645 0 003.526-1.194c2.313.538 4.73.831 7.064 1.159zm-5.522-1.77a49.96 49.96 0 004.526-2.167 1.087 1.087 0 00.452-.478c.045.935.122 1.874.255 2.82.022.156.059.309.084.463-1.751-.235-3.536-.49-5.317-.639zm-1.648 3.563c1.775.434 6.664.819 7.9 2.125a.488.488 0 00.337.158c.212.652.447 1.294.695 1.932-5.653-1.549-11.263-3.238-16.895-4.851.955-.2 1.91-.4 2.854-.648 1.699.447 3.406.869 5.113 1.283zm22.941 16.432a40.982 40.982 0 01-2.817-2.68c.978-.413 1.96-1.073 2.7-1.458a48.6 48.6 0 006.646-3.9.771.771 0 00.178-.192c.655.4 1.321.774 1.991 1.142-2.885 2.38-5.793 4.728-8.698 7.087zm10.026-6.38a46.882 46.882 0 003.515 1.6 43.674 43.674 0 00-5.429 4.414c-1.354 1.144-2.763 2.231-4.1 3.4a42.88 42.88 0 01-3.163-2.33 54.4 54.4 0 009.178-7.085zm-9.491.42a37.058 37.058 0 01-4.1 2.486 37.226 37.226 0 01-1.81-2.138c1.58-.5 3.133-1.334 4.63-1.955 1.722-.714 3.47-1.366 5.185-2.095.354.237.713.463 1.07.691-1.688.945-3.307 2.024-4.975 3.01zm-2.009-2.664a33.945 33.945 0 00-4.563 2.151 35.248 35.248 0 01-1.991-2.994 22.842 22.842 0 004.262-1.018 28.865 28.865 0 004.632-1.756 61.57 61.57 0 002.273 1.673c-1.553.609-3.09 1.273-4.613 1.943zm-2.836-2.634c-1.307.483-2.673.855-3.958 1.4a32.291 32.291 0 01-1.508-3 23.579 23.579 0 003.352-.9 26.243 26.243 0 003.748-1.416c.84.745 1.716 1.472 2.607 2.19-1.417.56-2.81 1.195-4.241 1.725zm-2.565-3.1c-1.005.391-2.047.729-3.045 1.153a30.53 30.53 0 01-1.063-2.869c1.808-.357 3.621-.912 5.362-1.406a.463.463 0 00.264-.187q.932.918 1.921 1.82c-1.156.47-2.283 1.039-3.439 1.493zm-4.346-2.535a28.512 28.512 0 01-.635-2.759c1.113-.33 2.223-.675 3.332-1.016a.541.541 0 00.2-.111c.109.126.206.253.321.379q.891.98 1.854 1.957c-1.674.474-3.423.935-5.073 1.552zm-.793-3.739c-.02-.149-.052-.294-.07-.445a27.554 27.554 0 01.176-7.746 13.646 13.646 0 002.844 7.129c-.985.351-1.973.703-2.951 1.064zm85.4 19.282a21.906 21.906 0 01-3.486 3.443 59.309 59.309 0 002.68-8.139 11.786 11.786 0 001.339-1.28c-.005.693.009 1.384-.027 2.075a33.57 33.57 0 01-.51 3.761.52.52 0 00-.001.142zm-6.044 5.247a31.558 31.558 0 01-2.8 1.531 41.52 41.52 0 004.414-9.409 14.079 14.079 0 002.409-1.2 93.952 93.952 0 01-4.028 9.081zm14.2-10.786c.784-.215 1.569-.431 2.348-.661a33.625 33.625 0 001.644 1.583c-.871.221-1.732.483-2.569.722a31.432 31.432 0 00-3.607 1.176 20.189 20.189 0 001.005-2.478c.4-.114.788-.233 1.176-.339zm-.887-.709a19.282 19.282 0 00.58-3.054 34.854 34.854 0 001.8 2.179c-.6.217-1.2.445-1.8.668-.192.075-.388.142-.583.21zm2.345 3.416c1.251-.275 2.549-.436 3.818-.68.5.409 1.027.79 1.551 1.167-1.375.267-2.755.524-4.131.8-2.037.409-4.213.684-6.244 1.276.348-.539.68-1.088.98-1.653 1.351-.212 2.689-.616 4.022-.907zm.984 2.51q3.019-.447 6.028-.934c.862.539 1.75 1.039 2.664 1.492-5.784 1.145-11.651 1.867-17.437 2.993a25.433 25.433 0 002.214-2.7 54.128 54.128 0 006.527-.848zm-9.016-2.406a10.192 10.192 0 00-.486-3.93c.169-.221.337-.443.5-.684a14.018 14.018 0 001.223-2.276 18.69 18.69 0 01-1.242 6.893zm53.549 6.075q1.023.291 2.048.564a1.755 1.755 0 001.083.248c.422.847.831 1.7 1.235 2.558-4.45-1.7-9.033-3.274-13.617-4.563 1.219-.147 2.44-.289 3.662-.413q1.258.377 2.52.74 1.53.441 3.066.869zm-2.422-1.874c1.4-.092 2.8-.142 4.2-.124a2.764 2.764 0 00.221.578c.1.188.192.38.289.569-1.075-.25-2.2-.4-3.079-.617zm-2.438-4.332q-1.484.264-2.96.531c1.756-3.16 3.477-6.323 5.366-9.407a1.487 1.487 0 00.153.023c.677-.02 1.371-.043 2.07-.061-.508.937-.921 1.978-1.35 2.772-1.104 2.047-2.216 4.084-3.282 6.145zm-4.528.811l-.67.12q-1.223.092-2.445.18a70.312 70.312 0 005.711-8.945l.657-.2a55.307 55.307 0 012.51-.716 80.556 80.556 0 00-5.765 9.565zm16.719-.829a5.859 5.859 0 00-1.109-.54 54.3 54.3 0 001.018-2.151c.076.888.093 1.79.088 2.694zm-.752-5.775a9.205 9.205 0 01.289.968c-.732 1.28-1.467 2.574-2.113 3.892-.3-.045-.609-.045-.914-.063q1.236-2.66 2.492-5.312c.08.174.171.33.243.518zm-.9-1.592a91.301 91.301 0 00-3.312 6.38c-.323.018-.644.023-.968.057-.253.027-.5.068-.75.1a105.973 105.973 0 003.793-7.642 4.994 4.994 0 011.229 1.108zm-6.727 6.755c-.641.092-1.271.21-1.907.316.623-1.321 1.235-2.646 1.851-3.969a44.02 44.02 0 002.293-4.635 16.15 16.15 0 012.515.2c-1.688 2.609-3.316 5.325-4.758 8.091zm-98.6-67.665c-1.088.811-2.262 1.5-3.388 2.26-.6-.206-1.215-.4-1.826-.592a37.792 37.792 0 006.552-4.8c.251.013.51.031.754.038.47.014.944.056 1.416.084a40.148 40.148 0 01-3.508 3.01zm4.975-2.926q1.171.091 2.343.176c-2.621 2.02-5.263 4.012-7.879 6.037-.635-.232-1.266-.472-1.9-.7a27.384 27.384 0 007.436-5.513zm-8.4 2.082c-.989.722-2.045 1.384-3.03 2.124-.668-.2-1.334-.4-2.005-.594a55.867 55.867 0 006.375-3.98c.569.009 1.14.043 1.709.075-1.003.808-2.008 1.614-3.049 2.375zm-5.971.531a6.4 6.4 0 014.782-2.844c-.594.389-1.183.781-1.777 1.172-1.029.677-2.109 1.264-3.179 1.862a1.19 1.19 0 00.174-.19zm-95.945 25.346a13.8 13.8 0 012.863-2.6 8.426 8.426 0 001.305-.653c6.92-1.573 14.329 2.407 20.41 5.747 1.6.876 2.863-1.657 1.267-2.53-4.709-2.571-10.879-5.624-16.916-6.493 4.33-3.389 10.461-4.949 15.739-5.612.736-.091.675-1.233-.073-1.158-4.619.469-10.38 1.806-14.5 4.677.307-.44.634-.865.957-1.293 5.03-3.668 10.4-5.143 16.934-5.466a.442.442 0 00-.057-.881c-4.788.169-10.347 1.041-14.618 3.684a42.377 42.377 0 017.019-5.775 26.991 26.991 0 015.544-.883c2.411-.224 4.84-.24 7.26-.314.72-.022.645-1.122-.072-1.115a51.726 51.726 0 00-9.89.853c-.231.048-.483.1-.745.149a48.738 48.738 0 017.813-3.713c.2-.072.395-.127.591-.2 4.378-.784 8.789.1 13.141 1a.575.575 0 00.223-1.127 47.381 47.381 0 00-9.154-1.154 57.338 57.338 0 017.962-1.431.285.285 0 00.242.19 45.655 45.655 0 0111.1 2.987c.664.271 1.167-.743.5-1a43.926 43.926 0 00-9.371-2.409 77.485 77.485 0 018.4-.149c.041 0 .07.022.113.022.327 0 .65.009.975.014.524.025 1.047.07 1.569.1 2.924 1.072 5.852 2.133 8.806 3.126.705.239.924-.9.224-1.138a291.467 291.467 0 00-5.174-1.677c2.738.271 5.454.639 8.141 1.059a83.823 83.823 0 007.482 2.932c.679.226.89-.871.217-1.095-1.264-.424-2.515-.883-3.766-1.339 4.59.691 9.218 1.158 13.85 1.537a37.91 37.91 0 002.246.14c.765.241 1.531.5 2.3.747 3.332.235 6.657.772 10 1.271q5.418.81 10.814 1.72c-1.933-.675-3.854-1.393-5.777-2.106a43.518 43.518 0 008.5-6.107 12.213 12.213 0 001.592.386c.1.016.208.023.312.04a55.277 55.277 0 00-4.475 3.6c-.251.226.1.592.37.435a51.346 51.346 0 005.641-3.851c.725.068 1.452.124 2.178.2-1.165.959-2.345 1.9-3.486 2.887-.2.172.081.452.285.334 1.63-.943 3.2-1.978 4.818-2.932a.673.673 0 00.074-.068c.115.018.23.023.345.045.767.138 1.257-1.065.463-1.357a39.345 39.345 0 00-4.133-1.163c.82-.673 1.641-1.346 2.452-2.03a.7.7 0 10-.91-1.066q-1.516 1.344-3.012 2.713c-.573-.163-1.142-.337-1.7-.548s-1.091-.427-1.619-.641c.07-.032.135-.063.178-.086a27.668 27.668 0 002.416-1.449 34.8 34.8 0 003.822-2.971c.578-.515-.323-1.323-.894-.806a42.387 42.387 0 01-5.592 4.274c-.28.18-.68.365-1.077.576a18.529 18.529 0 00-4.79-1.319 52.366 52.366 0 009.838-6.046c.682-.531-.056-1.666-.736-1.131a62.951 62.951 0 01-11.107 7.007 23.309 23.309 0 00-2.924-.014c6.47-4.822 12.934-9.328 19.867-13.557.806-.492.02-1.616-.784-1.2a88.455 88.455 0 00-18.607 12.769 33.224 33.224 0 002.485-4.238q.469-.948.9-1.908a95.555 95.555 0 0112.122-9.005c.6-.37 0-1.291-.6-.916a87.772 87.772 0 00-10.61 7.8c.515-1.21 1.022-2.423 1.535-3.635a72.5 72.5 0 0111.944-8.649c.691-.395.018-1.4-.669-1.027a48.5 48.5 0 00-10.29 7.4q.994-2.211 2.185-4.325a43.338 43.338 0 019.872-6.152.588.588 0 10-.51-1.056 41.363 41.363 0 00-8.1 5.145 34.853 34.853 0 014.687-5.129c4.874-2.754 10.358-4.145 15.81-5.441.643-.154.316-1.136-.325-.977a68.783 68.783 0 00-13.353 4.4c.1-.1.2-.188.3-.284a31.219 31.219 0 015.091-2.969c5.612-2.564 11.812-3.4 17.536-5.649a.741.741 0 00-.467-1.406c-6.077 1.65-12.441 2.763-18.171 5.45.363-.537.691-1.088 1-1.65a87.679 87.679 0 0113.55-4.9c.811-.219.391-1.416-.407-1.226a62.456 62.456 0 00-12.252 4.35c.458-1 .864-2.027 1.255-3.061.865-.409 1.946-.817 2.219-.944q1.686-.792 3.434-1.429a43.744 43.744 0 017.172-1.889c.785-.14.709-1.391-.081-1.246a42.023 42.023 0 00-8.5 2.486c-.943.39-2.4.89-3.68 1.533.276-.749.555-1.5.842-2.242 1.749-1.494 4.328-2.073 6.483-2.72a60.914 60.914 0 017.2-1.682c.661-.115.591-1.174-.068-1.048a60.159 60.159 0 00-8.491 2.215 13.262 13.262 0 00-4.741 2.309c.219-.542.433-1.084.673-1.616a17.58 17.58 0 011.188-2.165 28.13 28.13 0 0115.546-1.783c.792.133 1.038-1.1.242-1.224a29.538 29.538 0 00-14.683 1.477 11.629 11.629 0 019.827-4.317 22.19 22.19 0 017.312 1.684c3.072 1.231 5.608 2.9 5.4 6.211-.4.494-.806.951-1.111 1.323a33.825 33.825 0 01-2.761 2.933c-.573.553.331 1.316.9.815a18.47 18.47 0 002.481-2.668c-1.456 5.466-4.662 10.392-7.92 14.911a35.431 35.431 0 00-5.992 13.938c-1.377 6.217-3.395 12.644-3.876 19.006a17.853 17.853 0 00.273 4.822 8.218 8.218 0 00-2.8.036c-1.691.318-1.621 2.969.178 2.747a8.512 8.512 0 011.467-.072c-.171.129-.343.253-.514.381a10.277 10.277 0 00-1.858 1.583c-.253.309.032.855.451.69a13.347 13.347 0 002.093-1.219c.5-.312 1-.614 1.492-.932a2.326 2.326 0 01.663.792 31.47 31.47 0 00-2.81 2.262c-.445.4.23 1.2.691.808a29.677 29.677 0 012.556-1.934c.172.582.343 1.244.576 1.939a.483.483 0 00-.4.122c-.424.363-.862.715-1.262 1.1-.307.3.131.776.477.558.474-.3.921-.641 1.375-.969a.459.459 0 00.091-.1 11.917 11.917 0 001.314 2.354c-1.341-.072-2.678-.091-4.014-.162.973.7 1.935 1.379 2.9 1.978a54.07 54.07 0 006.077 3.246l.336.068.1.02c12.67 5.449 27.091 5.411 39.394 11.75.483.248.937.513 1.4.774-.278-.054-.555-.122-.835-.17-.548-.093-.718.763-.167.845 1.09.167 2.152.4 3.206.661a41.674 41.674 0 014.294 3.2 39.333 39.333 0 00-3.946-1.743c-.645-.239-1.133.655-.49.978 2.517 1.266 5.068 2.459 7.576 3.736q1.812 1.882 3.422 3.924c-.6-.352-1.223-.686-1.879-.995a.586.586 0 00-.526 1.047 40.823 40.823 0 014.474 2.7c1.928 2.716 3.705 5.587 5.481 8.547.178 1.3.259 3.378-.463 4.486a21.291 21.291 0 00-5.073.887 1.553 1.553 0 00-.7.442c-2.07.513-4.1 1.264-6.053 1.892-4.93 1.585-9.612 2.8-14.828 2.648a.4.4 0 00-.151.742c5.718 2.251 11.893.449 17.532-1.305-2.056 3.02-4.312 5.861-6.59 8.723a.561.561 0 00-.1.206c-.813.052-1.626.093-2.438.131.614-1.052 1.224-2.1 1.935-3.093a28.47 28.47 0 001.869-2.612.066.066 0 00-.095-.085c-2.018 1.287-3.648 3.705-4.847 5.743a.437.437 0 00-.031.09 70.79 70.79 0 01-3.055.031c1.177-1.357 2.361-2.729 3.635-3.984.061-.061-.038-.149-.1-.09-1.458 1.431-3.066 2.743-4.63 4.061a48.64 48.64 0 01-2.9-.185 12.743 12.743 0 003.266-3.6.083.083 0 00-.118-.106c-1.628 1.151-3.066 2.447-4.729 3.529a24.692 24.692 0 01-3.529-.772 30.609 30.609 0 003.594-2.336.249.249 0 00-.271-.416 50.461 50.461 0 01-4.659 2.321 24.8 24.8 0 01-3.657-1.664 11.224 11.224 0 004.822-1.705c.33-.21.073-.794-.3-.632a15.882 15.882 0 01-6.394 1.2 29.81 29.81 0 01-2.664-2.02 25.089 25.089 0 004.689-.219c.146-.023.183-.246.018-.273-1.957-.323-3.978-.429-5.967-.607a42.068 42.068 0 01-2.752-2.8 16.624 16.624 0 004.055.142.316.316 0 00-.041-.63 19.8 19.8 0 01-5.294-.987 71.075 71.075 0 01-2.669-3.432 13.423 13.423 0 002.289.449c.511.05.687-.722.158-.8a11.167 11.167 0 01-3.6-1.232c-.98-1.39-1.932-2.8-2.862-4.212-.151-.583-.3-1.16-.431-1.718-.068-.282-.149-.549-.219-.828-.1-.53-.214-1.057-.338-1.58a10.918 10.918 0 003.77.669c.594.011.539-.925-.059-.926a21.989 21.989 0 01-3.881-.39 23.261 23.261 0 00-1.433-4.059 12.274 12.274 0 005.77 1.393c.607.005.524-.9-.059-.926a14.813 14.813 0 01-4.45-.871c-.654-.244-1.276-.573-1.915-.853-.057-.1-.1-.208-.162-.311-.023-.038-.057-.045-.086-.065a32.41 32.41 0 00-2.278-3.91 20.221 20.221 0 005.738 2.993.417.417 0 10.269-.786 34.261 34.261 0 01-6.791-3.309 30.444 30.444 0 00-3.034-3.519 1.209 1.209 0 00-.264-.2c3.457 5.395 6.376 11.374 7.586 17.273.031.337.079.668.1 1.009a71.634 71.634 0 00.506 8.685c.054.318.092.628.135.943a14.7 14.7 0 01-3.095 6.123 11.924 11.924 0 01-6.276 3.621 40.442 40.442 0 01-4.106 2.492c-.314.172-.641.339-.961.51a36.9 36.9 0 006.325-1.219c-1.811 3.592-4.113 6.795-6.111 10.272-10.649 4.237-24.846 4.913-36.534 3.422a10.235 10.235 0 01.8-2.142c.328-.634-.641-1.111-.989-.494a12.676 12.676 0 00-1.034 2.47 73.844 73.844 0 01-3.007-.485 26.451 26.451 0 001.14-2.853c.2-.555-.6-.987-.84-.42a21.466 21.466 0 01-1.077 2.231c-.153.271-.332.531-.513.794a59.696 59.696 0 01-2.691-.6c.869-1.1 1.725-2.213 2.589-3.316.37-.47-.3-1.088-.7-.628-1.052 1.2-2.117 2.4-3.156 3.612a49.015 49.015 0 01-2.289-.673 43.884 43.884 0 004.325-5.4c.321-.465-.3-1.072-.673-.605a52.987 52.987 0 01-5.1 5.443c-.016.014-.02.032-.034.047-.713-.262-1.4-.531-2.038-.817.011-.011.025-.014.036-.025 2.025-2.142 4.768-4.531 6.057-7.215a.068.068 0 00-.1-.086c-2.562 1.592-4.718 4.377-6.93 6.429a.531.531 0 00-.174.363 40.107 40.107 0 01-3.474-1.921c1.4-1.149 2.711-2.409 4.027-3.639a27.951 27.951 0 004.624-4.851c6.219 2.494 12.814 3.485 19.248 1.768a.8.8 0 00.452-.32c-1.84-.5-3.7-.919-5.551-1.348-12.584-.251-23.088-6.987-32.314-15.751-2.594-2.467-5.15-5.2-5.483-8.944a12.874 12.874 0 01.625-4.951 15.338 15.338 0 01.79-4.571 58.488 58.488 0 0113.965-22.235.734.734 0 00-.289.135c-8.007 6.15-15.518 14.609-19.227 24.271a10.742 10.742 0 01-12.128 2.235c-3.714-1.517-6.849-4.025-10.764-5.084-1.26-.341-1.591 1.576-.39 1.962 4.705 1.508 8.4 5.321 13.272 6.314a12.606 12.606 0 008.721-1.459 35.382 35.382 0 00-.47 1.993c-.316.506-.654.989-.993 1.47a7.9 7.9 0 01-6.493.036.8.8 0 00-.713 1.424 6.737 6.737 0 005.965.156 19.1 19.1 0 01-3.754 3.555 10.339 10.339 0 01-2.58.366 11.37 11.37 0 01-5.492-1.443c-1.038-.553-1.748.989-.8 1.6a10.352 10.352 0 004.215 1.544 68.923 68.923 0 01-6.515 1.3 15.726 15.726 0 01-8.689-4.883c-.653-.731-1.944.361-1.316 1.124a15.108 15.108 0 005.6 4.237c-1.856.135-3.714.214-5.581.174a15.241 15.241 0 01-9.71-6.612.646.646 0 00-1.082.706 12.9 12.9 0 006.366 5.624 55.7 55.7 0 01-5.9-.881c-.128-.068-.257-.136-.381-.21a.377.377 0 00-.257-.2l-.1-.025c-2.583-1.655-4.37-4.31-5.944-7.353-.384-.741-1.648-.135-1.323.639a20.015 20.015 0 003.61 5.734c-2.682-.851-5.271-2.1-6.872-4.386-1.7-2.422-2.319-5.5-3.529-8.166-.327-.716-1.485-.366-1.185.393 1.131 2.867 1.9 6.244 3.788 8.784-.81-.506-1.619-1.014-2.4-1.529-.521-.343-1.056-.706-1.6-1.075-.267-.49-.521-.986-.754-1.481a17.587 17.587 0 01-1.235-12.455c.179-.67-.919-1.063-1.172-.4-1.6 4.2-.914 8.743.95 12.742a25.793 25.793 0 01-5.852-5.816c-.163-.242-.278-.483-.416-.725a21.369 21.369 0 01.3-3.355 7.581 7.581 0 014.3-5.928c.873-.384.435-1.79-.474-1.425a8.811 8.811 0 00-5.334 7.055c-.011.066-.02.138-.03.206a9.223 9.223 0 012.54-7.365zM84.197 134.73a6.674 6.674 0 013.129-4.879c-.372.639-.738 1.28-1.109 1.923-.643 1.109-1.373 2.16-2.093 3.217a1.264 1.264 0 00.073-.261zm8.9-4.093c-.634 1.264-1.406 2.458-2.1 3.686-.661.092-1.32.2-1.977.3a39.518 39.518 0 003.863-7.533c.239-.1.49-.208.72-.314.445-.207.907-.39 1.359-.583a41.606 41.606 0 01-1.866 4.444zm3.271-5.046l2.264-.93c-1.5 3.1-3.03 6.194-4.524 9.3-.7.081-1.4.153-2.1.241a28.59 28.59 0 004.359-8.611zm-6.856 5.86c-.583 1.135-1.258 2.244-1.831 3.393-.714.124-1.431.248-2.145.382a57.92 57.92 0 004.081-6.682c.535-.258 1.083-.494 1.628-.729-.558 1.22-1.118 2.439-1.734 3.635zm-78.327 82.823c-.264-.149-.485-.321-.727-.481a22.323 22.323 0 01-1.285-3.266 7.907 7.907 0 011.241-7.531c.632-.765-.431-1.869-1.106-1.108a9.182 9.182 0 00-1.678 9.062c.021.068.047.14.07.208a9.606 9.606 0 01-1.057-8.041 14.3 14.3 0 011.456-3.756 8.974 8.974 0 00.91-1.219c5.714-4.694 14.473-4.443 21.7-4.172 1.9.072 1.894-2.88 0-2.946-5.587-.2-12.76-.163-18.79 1.844 2.452-5.179 7.436-9.493 12.044-12.572.643-.429.052-1.465-.609-1.045-4.086 2.592-8.829 6.526-11.33 11.125.081-.553.187-1.1.287-1.65 2.976-5.765 7.294-9.648 13.227-13a.463.463 0 00-.465-.8c-4.384 2.391-9.156 5.8-11.9 10.256a44.178 44.178 0 013.844-8.656 28.008 28.008 0 014.754-3.411c2.14-1.336 4.4-2.485 6.615-3.68.661-.357.077-1.346-.587-1.005a54.082 54.082 0 00-8.816 5.411c-.192.153-.4.314-.623.485a50.739 50.739 0 015.545-7.105c.149-.158.307-.3.458-.458 3.714-2.774 8.236-4.009 12.712-5.2a.6.6 0 00-.32-1.156 49.416 49.416 0 00-9.068 3.2 60.156 60.156 0 016.75-5.05.3.3 0 00.314.067 47.531 47.531 0 0111.733-2.395c.745-.059.74-1.237 0-1.163a45.669 45.669 0 00-9.854 2.127 80.624 80.624 0 017.752-4.057c.039-.016.077-.013.117-.032.305-.149.609-.294.914-.442.5-.221 1.007-.422 1.51-.636 3.226-.366 6.448-.745 9.664-1.2.767-.106.44-1.271-.321-1.165-1.872.264-3.738.553-5.6.853a149.837 149.837 0 018.078-2.811 87.538 87.538 0 008.339-.763c.738-.1.424-1.224-.309-1.12-1.375.194-2.756.352-4.134.51 4.6-1.5 9.129-3.222 13.62-5.03a42.149 42.149 0 002.158-.919c.826-.133 1.659-.25 2.488-.375 3.213-1.336 6.561-2.388 9.906-3.481q5.423-1.772 10.877-3.445c-2.117.275-4.242.5-6.366.734a45.35 45.35 0 005.073-9.658 12.221 12.221 0 001.664-.384c.1-.032.2-.074.309-.108a56.857 56.857 0 00-2.49 5.443c-.127.327.373.5.548.23a53.012 53.012 0 003.456-6.219c.709-.275 1.413-.562 2.122-.835-.637 1.438-1.3 2.863-1.9 4.317-.1.251.285.384.422.178 1.079-1.637 2.056-3.335 3.12-4.98a.584.584 0 00.036-.1c.117-.038.226-.086.343-.12.779-.23.675-1.578-.2-1.481a41.018 41.018 0 00-4.393.846c.451-1.011.9-2.02 1.337-3.036a.734.734 0 10-1.346-.569q-.786 1.96-1.54 3.931c-.609.117-1.221.221-1.842.285s-1.215.111-1.806.16c.048-.063.1-.122.124-.163a29.03 29.03 0 001.576-2.477 36.246 36.246 0 002.174-4.553c.3-.749-.919-1.081-1.21-.334a44.289 44.289 0 01-3.214 6.592c-.178.3-.463.659-.736 1.041a19.25 19.25 0 00-5.077 1.005 54.44 54.44 0 006.342-10.225c.388-.813-.829-1.526-1.212-.709a65.649 65.649 0 01-7.079 11.71 24.571 24.571 0 00-2.73 1.352c3.775-7.511 7.7-14.726 12.18-21.9.522-.835-.734-1.515-1.291-.756a92.035 92.035 0 00-11.376 20.58 34.693 34.693 0 00.334-5.109c0-.734-.02-1.467-.049-2.2a99.677 99.677 0 017.107-14.055c.386-.626-.605-1.2-.984-.576a91.316 91.316 0 00-6.247 12.215c-.084-1.366-.18-2.734-.266-4.1a75.4 75.4 0 017.095-13.618c.46-.691-.636-1.31-1.1-.644a50.5 50.5 0 00-6.132 11.7q-.108-2.523.016-5.048a45.174 45.174 0 016.326-10.339.613.613 0 10-.968-.745 43.051 43.051 0 00-5.145 8.574 36.217 36.217 0 011.973-6.967c3.256-4.84 7.716-8.7 12.191-12.448.526-.442-.235-1.2-.758-.756a71.687 71.687 0 00-10.401 10.33c.049-.135.1-.267.147-.4a32.394 32.394 0 013.357-5.142c4.032-5.007 9.418-8.682 13.7-13.448a.772.772 0 00-1.092-1.092c-4.892 4.373-10.3 8.38-14.385 13.559a21.65 21.65 0 00.16-2.005 91.2 91.2 0 0110.337-10.892c.654-.583-.3-1.5-.951-.953a65.12 65.12 0 00-9.387 9.77 50.248 50.248 0 00-.257-3.436c.614-.786 1.431-1.668 1.625-1.916q1.2-1.524 2.533-2.933a45.43 45.43 0 015.8-5.106c.666-.5.011-1.628-.655-1.124a43.724 43.724 0 00-6.764 6.283c-.695.8-1.819 1.95-2.711 3.147-.091-.828-.183-1.653-.262-2.481.932-2.21 3.065-3.953 4.768-5.562a63.949 63.949 0 015.922-4.926c.562-.415 0-1.368-.553-.944a62.845 62.845 0 00-6.878 6.027 13.843 13.843 0 00-3.339 4.362c-.048-.6-.1-1.21-.126-1.819a18.381 18.381 0 01.1-2.573 29.309 29.309 0 0113.652-8.913c.8-.246.451-1.515-.346-1.255a30.772 30.772 0 00-12.988 8.229 12.122 12.122 0 017.139-8.61 23.171 23.171 0 017.6-1.844c3.434-.285 6.576.084 7.926 3.271-.142.644-.307 1.262-.418 1.75a35.791 35.791 0 01-1.2 4.021c-.276.783.919 1.072 1.221.336a19.147 19.147 0 001.068-3.642c1.194 5.771.506 11.857-.422 17.588a36.92 36.92 0 00.923 15.783c1.619 6.432 2.736 13.362 5.258 19.514a18.6 18.6 0 002.5 4.366 8.475 8.475 0 00-2.592 1.339c-1.427 1.084-.124 3.522 1.447 2.476a8.618 8.618 0 011.334-.75l-.3.594a10.613 10.613 0 00-.994 2.341c-.09.406.431.781.741.431a13.747 13.747 0 001.382-2.111c.316-.522.644-1.039.955-1.564a2.415 2.415 0 01.986.427 32.969 32.969 0 00-1.562 3.418c-.224.585.776 1.014 1.021.431a31.1 31.1 0 011.479-2.994c.432.461.9 1 1.441 1.538a.5.5 0 00-.319.3c-.224.537-.469 1.066-.659 1.616-.147.422.483.661.7.3.3-.5.558-1.029.829-1.546a.506.506 0 00.039-.133 12.305 12.305 0 002.321 1.578c-1.282.558-2.537 1.167-3.813 1.723 1.231.2 2.445.381 3.624.49a56.881 56.881 0 007.177.189l.343-.093.1-.029c14.347-.836 27.763-7.6 42.184-7.437.564.005 1.111.04 1.664.068-.285.079-.574.145-.858.232-.553.167-.312 1.045.239.865a37.634 37.634 0 013.3-.881 43.088 43.088 0 015.492.975 40.468 40.468 0 00-4.49.217c-.711.077-.75 1.138 0 1.14 2.935 0 5.869-.075 8.8-.056q2.566.91 5.019 2.059c-.723-.048-1.46-.07-2.217-.05a.611.611 0 000 1.221 42.464 42.464 0 015.427.431c3.065 1.628 6.061 3.474 9.1 5.4.772 1.129 1.817 3.028 1.662 4.4a22.218 22.218 0 00-4.314 3.194 1.629 1.629 0 00-.447.738c-1.687 1.445-3.231 3.093-4.757 4.587-3.851 3.777-7.644 7.1-12.577 9.387a.411.411 0 00.2.761c6.378-.571 11.29-5.131 15.726-9.4-.506 3.773-1.282 7.472-2.07 11.2a.6.6 0 000 .239q-1.1.643-2.21 1.26c.083-1.267.163-2.524.361-3.784a30.043 30.043 0 00.522-3.3.07.07 0 00-.129-.034c-1.278 2.142-1.668 5.152-1.837 7.612 0 0 .011.065.015.1q-1.4.759-2.833 1.454c.465-1.815.928-3.644 1.529-5.409.029-.084-.1-.12-.133-.036-.693 2.012-1.578 3.987-2.42 5.944-.916.424-1.845.812-2.784 1.178a13.281 13.281 0 001.363-4.878.086.086 0 00-.16-.043c-.98 1.831-1.714 3.711-2.759 5.5a25.4 25.4 0 01-3.648.926 31.964 31.964 0 002.26-3.852.26.26 0 00-.449-.262 52.188 52.188 0 01-3.256 4.339 25.8 25.8 0 01-4.181.154 11.7 11.7 0 003.695-3.838c.21-.35-.3-.774-.578-.447a16.492 16.492 0 01-5.4 4.1 31.881 31.881 0 01-3.423-.635 26.616 26.616 0 004.271-2.4c.124-.09.056-.316-.111-.264-1.975.612-3.906 1.458-5.842 2.219a44.195 44.195 0 01-3.872-1.323 17.232 17.232 0 003.844-1.763.328.328 0 00-.33-.566 20.687 20.687 0 01-5.393 1.549 74.108 74.108 0 01-4.09-1.951 13.882 13.882 0 002.341-.65c.5-.194.305-.994-.226-.822a11.568 11.568 0 01-3.924.531 162.342 162.342 0 01-4.632-2.589 71.56 71.56 0 01-1.2-1.4c-.194-.228-.393-.442-.589-.666q-.512-.673-1.052-1.316a11.394 11.394 0 003.826-1.135c.558-.269.068-1.115-.488-.835a22.963 22.963 0 01-3.8 1.447 24.363 24.363 0 00-3.23-3.113 12.773 12.773 0 006.025-1.395c.567-.278.072-1.079-.487-.835a15.543 15.543 0 01-4.553 1.266c-.723.077-1.456.061-2.183.1-.1-.066-.192-.147-.294-.214a.253.253 0 00-.111-.02 33.492 33.492 0 00-3.946-2.58 21.092 21.092 0 006.741.111.436.436 0 10-.115-.86 35.749 35.749 0 01-7.872.088 31.5 31.5 0 00-4.468-1.863 1.42 1.42 0 00-.341-.065c5.739 3.413 11.249 7.622 15.13 12.554.185.3.386.585.56.894a74.584 74.584 0 004.524 7.856c.2.273.377.544.565.815a15.318 15.318 0 01-.025 7.148 12.429 12.429 0 01-4.158 6.3 42.2 42.2 0 01-2.662 4.237c-.214.309-.44.616-.657.924a38.536 38.536 0 005.323-4.088c-.011 4.192-.661 8.249-.9 12.423-7.946 8.915-20.853 16.169-32.441 20.236a10.71 10.71 0 01-.255-2.366.577.577 0 00-1.153 0 13.266 13.266 0 00.19 2.784 82.011 82.011 0 01-3.027.951 28.285 28.285 0 00-.271-3.188c-.07-.61-1.02-.641-.978 0a22.116 22.116 0 01.038 2.581c-.016.323-.063.65-.108.978-.946.257-1.88.5-2.786.7.3-1.431.576-2.867.865-4.3.126-.612-.783-.876-.942-.26-.418 1.61-.855 3.219-1.253 4.836-.836.169-1.659.321-2.447.442a45.922 45.922 0 001.508-7.05c.083-.583-.781-.86-.91-.251a55 55 0 01-2.215 7.453c-.007.022 0 .04-.009.059-.788.088-1.556.16-2.28.19a.06.06 0 01.016-.025c.894-2.957 2.334-6.461 2.28-9.563a.069.069 0 00-.127-.036c-1.644 2.678-2.354 6.279-3.458 9.222a.56.56 0 00.007.42 41.79 41.79 0 01-4.133-.169c.765-1.722 1.4-3.51 2.054-5.269a28.987 28.987 0 002.043-6.676c6.958-.578 13.566-2.734 18.758-7.333a.842.842 0 00.273-.51c-1.948.393-3.876.871-5.8 1.334-11.841 5.639-24.77 4.265-37.453.4-3.569-1.086-7.227-2.44-9.283-5.772a13.442 13.442 0 01-1.729-4.906 16.027 16.027 0 01-1.4-4.624 60.975 60.975 0 012.634-27.233.749.749 0 00-.2.26c-4.59 9.466-7.64 20.851-6.587 31.585a11.194 11.194 0 01-10.256 7.741c-4.168.319-8.26-.553-12.4.287-1.33.269-.743 2.21.555 2.009 5.088-.792 10.3 1.04 15.311-.312a13.128 13.128 0 007.443-5.429c.147.695.305 1.39.492 2.075a33.31 33.31 0 01-.239 1.835 8.246 8.246 0 01-6.032 3.064.829.829 0 000 1.657 7.024 7.024 0 005.632-2.637 19.939 19.939 0 01-1.84 5.062 10.736 10.736 0 01-2.231 1.546 11.854 11.854 0 01-5.791 1.217c-1.224-.032-1.165 1.738 0 1.865a10.8 10.8 0 004.648-.53 71.66 71.66 0 01-5.465 4.249 16.383 16.383 0 01-10.374-.5c-.95-.377-1.643 1.244-.7 1.662a15.754 15.754 0 007.2 1.33c-1.664.991-3.361 1.933-5.116 2.766a15.876 15.876 0 01-12.132-1.628.674.674 0 00-.68 1.163 13.452 13.452 0 008.556 2.269 57.956 57.956 0 01-5.908 1.93c-.151 0-.3-.005-.453-.016a.391.391 0 00-.334-.066l-.108.025c-3.179-.337-6.082-1.978-8.969-4.077-.7-.514-1.6.643-.935 1.212a20.833 20.833 0 006.041 3.657c-2.9.46-5.892.5-8.45-.88-2.709-1.463-4.727-4.041-7.1-5.96-.637-.515-1.553.352-.919.921 2.391 2.142 4.689 4.926 7.628 6.416-.991-.1-1.982-.192-2.948-.307-.645-.077-1.312-.165-1.989-.259a28.6 28.6 0 01-1.393-1.027 18.334 18.334 0 01-6.964-11.028c-.145-.707-1.352-.56-1.278.174.474 4.662 3.228 8.57 6.831 11.428a26.894 26.894 0 01-8.178-2.671zm199.155-72.971a83.527 83.527 0 00-.9 11.6l-.567.424q-1.1.657-2.2 1.31a73.164 73.164 0 001.145-11c.174-.165.346-.332.517-.5a62.253 62.253 0 012.004-1.835zm-35.459 26.758a32.064 32.064 0 00-2.811 2.779 21.34 21.34 0 00-.214-2.786c.311-.289.619-.582.932-.862.63-.567 1.258-1.133 1.88-1.711.747.266 1.506.5 2.269.707-.709.611-1.386 1.259-2.057 1.871zm3.768-1.441c.657.145 1.323.255 1.989.361-1.158.892-2.323 1.776-3.474 2.675-1.709 1.332-3.607 2.6-5.222 4.1a23.76 23.76 0 00.142-2c1.161-.833 2.221-1.835 3.325-2.727 1.037-.838 2.169-1.592 3.242-2.411zm-6.572-.138c-.145.156-.3.311-.445.465a20.421 20.421 0 00-.885-3.116c.88.438 1.783.826 2.7 1.188-.464.482-.915.972-1.371 1.461zm-.266 8.274a56.785 56.785 0 005.685-3.842q2.6-1.826 5.181-3.684 1.581.151 3.178.147c-4.854 3.766-9.983 7.175-14.848 10.926a26.764 26.764 0 00.803-3.549zm-6.123-5.31c.054-.285.106-.571.144-.867a14.668 14.668 0 00.077-2.693 19.529 19.529 0 012.066 6.994 10.661 10.661 0 00-2.288-3.436zm2.084 6.714a22.7 22.7 0 01-1.643 4.835 61.359 61.359 0 00-1.3-8.834 11.878 11.878 0 00.652-1.817c.32.646.655 1.285.944 1.946a35.241 35.241 0 011.28 3.741.589.589 0 00.066.127zm-5.35-.386a14.723 14.723 0 001.686-2.237 97.2 97.2 0 01.481 10.331 33.957 33.957 0 01-1.888 2.732 43.248 43.248 0 00-.28-10.828zm-86.6 24.914c.093.135.2.258.294.393-1.741.6-3.524 1.192-5.253 1.885a52.278 52.278 0 003.206-4.132 1.129 1.129 0 00.2-.655c.482.848.992 1.688 1.557 2.507zm-.334-10.322a14.2 14.2 0 005.974 5.314c-.752.786-1.506 1.573-2.251 2.366-.088-.129-.187-.25-.273-.381a28.694 28.694 0 01-3.446-7.302zm1.345 11.672a34.919 34.919 0 001.652 2c-1.766.059-3.942 1.048-5.388 1.413-2.038.513-4.079 1.025-6.113 1.558.937-.887 1.853-1.8 2.729-2.758 2.411-.576 4.797-1.433 7.124-2.215zm-5.842 5.018c1.858-.426 6.59-2.348 8.351-1.707a.518.518 0 00.39-.009c.5.508 1.018 1 1.547 1.474-5.991 1.2-12 2.239-18 3.364.8-.629 1.6-1.26 2.357-1.933 1.792-.382 3.579-.783 5.359-1.192zm8.825-8.17c.883-.826 1.756-1.666 2.63-2.5a.586.586 0 00.135-.2c.16.066.312.138.476.2.858.33 1.741.65 2.641.959-1.339 1.219-2.752 2.467-4 3.809a29.622 29.622 0 01-1.878-2.271zm6.824-.887a.493.493 0 00.16-.3q1.3.42 2.639.8c-.86.973-1.644 2.03-2.511 2.991-.752.835-1.565 1.635-2.3 2.5a31.732 31.732 0 01-2.328-2.176c1.522-1.182 2.951-2.545 4.344-3.818zm.986 3.838a27.267 27.267 0 002.829-3.068c1.131.3 2.287.573 3.452.824-1.057 1.185-2.059 2.427-3.143 3.587-.993 1.061-2.091 2.045-3.037 3.151a33.529 33.529 0 01-2.8-2.09 24.411 24.411 0 002.703-2.407zm4.005 1.808a30.181 30.181 0 003.5-3.8c.959.189 1.926.35 2.9.5-1.163 1.291-2.282 2.628-3.389 3.962a35.341 35.341 0 00-3.248 4.133 36.683 36.683 0 01-3.253-1.86 23.743 23.743 0 003.494-2.938zm4.177 1.309c1.269-1.468 2.6-2.892 3.853-4.369.44.055.88.1 1.321.145-1.135 1.67-2.14 3.43-3.233 5.127a38.98 38.98 0 01-2.657 4.228 40.265 40.265 0 01-2.686-1.147c1.245-1.208 2.302-2.709 3.406-3.987zm2.187 2.9a50.512 50.512 0 004.373-6.73.762.762 0 00.077-.262c.8.065 1.592.1 2.388.135-1.583 3.563-3.2 7.107-4.8 10.66a44.013 44.013 0 01-3.876-1.181c.723-.843 1.328-1.918 1.842-2.624zm8.4-6.82c1.348.013 2.689-.05 4.019-.151a45.849 45.849 0 00-3 6.648c-.729 1.7-1.533 3.368-2.231 5.078a43.411 43.411 0 01-4.036-.695 56.678 56.678 0 005.253-10.882zM17.32 224.978c1.093-.806 2.262-1.468 3.416-2.165.5.032 1.011.047 1.515.065-1.528 1-3 2.086-4.439 3.2q-1.056.819-2.084 1.67c.09-.557.172-1.113.266-1.668.441-.376.867-.761 1.332-1.104zm-1.068-.364c.133-.747.262-1.494.4-2.24a40.2 40.2 0 002.28.289 23.812 23.812 0 00-2.674 1.949zm.686 3.5c2.5-1.828 5.132-3.454 7.687-5.2 1.007 0 2-.034 2.973-.079a101.332 101.332 0 00-12.482 9.215c.118-.881.215-1.763.348-2.643.62-.533 1.169-1.066 1.479-1.294zm117.1 153.906c-18.045-1.54-36.33-5.472-52.872-12.676a48.311 48.311 0 01-16.147-27.353c-.174-.847-1.438-.483-1.289.354a46 46 0 0014.119 25.494c-17.943-8.421-33.612-20.882-44.347-38.593a132.709 132.709 0 01-3.307-5.806c-2.357-9.624-1.167-19.6.619-29.479.171-.944-1.266-1.357-1.454-.4-1.632 8.3-2.777 17.071-1.463 25.422a137.425 137.425 0 01-11.391-33.863c.465-7.1 2.772-13.783 5.3-20.489.266-.7-.86-1-1.12-.309-2.127 5.637-4.1 11.417-4.826 17.372a152.265 152.265 0 01-1.933-16.275c1.449-4.653 3.447-9.233 5.181-13.66.258-.662-.878-1.149-1.158-.488-1.58 3.734-2.937 7.558-4.167 11.421-.122-2.558-.2-5.122-.2-7.687a96.609 96.609 0 012.528-5.4c.253-.5-.5-.933-.745-.436a94.753 94.753 0 00-1.783 3.845 172.12 172.12 0 011.38-19.776 129.521 129.521 0 0115.41-10.585 76.322 76.322 0 006.587-.822 58.982 58.982 0 0024.524-10.306 142 142 0 0020.517-3.569.567.567 0 00.346-.233c8.7 7.292 20.623 10.624 31.883 9.732 16.651-1.318 32.98-10.281 45.14-21.426a41.368 41.368 0 0011.3-16.638c6.213-3.644 11.9-8.159 17.873-12.166.165-.016.332-.025.5-.043 8.24-.991 14.855-5.373 21.5-9.779a164.492 164.492 0 0017.318-1.531 140.863 140.863 0 0141.83 56.793q-1.675.18-3.35.417a4.861 4.861 0 00-2.188-2.829.236.236 0 00-.239.408 5.8 5.8 0 011.756 2.511 100.792 100.792 0 00-13.681 3.005 205.741 205.741 0 00-40.913 16.624c-.339-2.379-.758-4.745-1.167-7.111-.084-.494-.942-.384-.881.118.307 2.533.6 5.072.989 7.594-.5.278-.993.56-1.487.842q-.867-5.216-2.039-10.378c-.14-.625-1.081-.359-.953.262.727 3.574 1.33 7.159 1.865 10.757-.641.374-1.266.758-1.9 1.138q-1.836-7.979-4.2-15.826a.288.288 0 00-.555.152 286.971 286.971 0 013.705 16.313c-.731.449-1.458.9-2.174 1.359a92.076 92.076 0 00-8.5-24.675c-.316-.609-1.172-.074-.9.53a111.194 111.194 0 017.847 25.156c-25.551 16.783-42.692 39.776-46.548 69.681-2.131 16.516.56 34.741 6.055 51.625a29.009 29.009 0 01-4.768-1.441c-.481-.194-.822.614-.355.842a24.931 24.931 0 005.551 1.923c.319.951.655 1.894.993 2.837a64.983 64.983 0 01-13.161-3.851c-.567-.235-.991.758-.422 1a65.41 65.41 0 0014.062 4.185q.813 2.208 1.686 4.368a68.467 68.467 0 01-25.07-8.145.628.628 0 00-.634 1.083 69.478 69.478 0 0026.519 9.071c.1.251.216.494.321.743a103.028 103.028 0 01-22.086-3.87.387.387 0 00-.2.745 102.417 102.417 0 0022.812 4.319 149.07 149.07 0 003.154 6.807 148.669 148.669 0 01-34.596 1.065zm71.634-138.785a381.421 381.421 0 011.477 8.945.639.639 0 00.081.221l-.544.526c-.829.8-1.7 1.558-2.589 2.294a98.875 98.875 0 00-.727-10.29q1.149-.865 2.303-1.697zm158.567 163.889c-18.911 15.017-43.875 27.3-67.532 32.07-20.254 4.082-41.457 1.781-60.755-5.38a115.034 115.034 0 01-49.664-35.633c-15.67-19.63-23.693-45.139-26.3-69.871-2.854-27.054 8.506-51.788 28.034-70.221 4.727-4.461 9.209-8.4 13.749-11.929a102.44 102.44 0 01.627 10.441c-4.255 3.318-8.811 6.276-12.3 10.441a.276.276 0 00.391.39c3.856-3.176 7.973-6.01 11.917-9.071a104.5 104.5 0 01-.619 10.531c-.113 1.036 1.488 1.014 1.612 0a97.393 97.393 0 00.707-11.87c4.619-3.786 8.351-8.461 13.389-11.76 9.615-6.3 21.176-9.01 32.07-12.222 5.949-1.752 11.9-3.5 17.821-5.334 6.165-1.9 12.714-3.741 19.23-3.17 6.276.551 11.443 3.626 16.981 6.319 4.811 2.341 9.714 3.348 14.956 4.26 6.44 1.122 12.033 3.19 16.846 7.752 4.5 4.264 7.522 9.644 10.667 14.909.427.718 1.565.056 1.122-.657-4.989-8-10.913-17.042-19.894-20.914-5.795-2.5-12.215-2.578-18.166-4.529-5.544-1.815-10.428-5.192-15.986-6.974-11.861-3.807-25.013 1.42-36.367 4.765-11.787 3.47-24.286 6.235-35.276 11.886-5.093 2.619-9.048 6.055-13.071 9.9a204.808 204.808 0 00-1.582-8.85c.479-.336.957-.67 1.438-1 .057.454.12.906.176 1.363.1.779 1.328.8 1.242 0-.075-.713-.176-1.422-.264-2.133 12.687-8.416 26.987-14.3 48.8-19.826 46.022-9.141 92.381 13.414 117.317 52.757 25.673 40.505 29.517 101.132-11.315 133.559z"/><path data-name="Path 3239" d="M247.964 98.572c3.456.723 5.807-1.443 7.66-4.131 3.362-4.885 6.68-9.565 11-13.672.167-.158-.083-.454-.262-.309a49.443 49.443 0 00-8.229 8.278c-2.479 3.24-4.822 9.744-9.917 8.545-.819-.194-1.085 1.117-.252 1.289z"/><path data-name="Path 3240" d="M234.147 94.587c3.034.661 6.641 3.641 9.793 2.154a.2.2 0 00-.023-.373 24.909 24.909 0 01-5.109-1.476 21.047 21.047 0 00-4.425-1.5.609.609 0 00-.236 1.195z"/><path data-name="Path 3241" d="M280.938 118.995a20.542 20.542 0 01-12.055-14.507c-1.5-6.777.4-13.128 3.711-19.038.081-.145-.138-.3-.244-.167-8.981 11.243-6.028 29.436 7.92 35.046.877.353 1.553-.95.668-1.334z"/><path data-name="Path 3242" d="M333.188 94.855c.431 5 4.228 8.412 5.8 13a18.945 18.945 0 01-3.115 17.591c-.555.745.47 1.714 1.091.984a19.4 19.4 0 004.326-14.976 18.9 18.9 0 00-2.33-6.89c-1.844-3.221-4.463-5.958-5.05-9.759-.065-.455-.763-.426-.722.05z"/><path data-name="Path 3243" d="M331.878 127.991a17.782 17.782 0 01-16.031 3.547c-1.029-.28-1.3 1.289-.318 1.6a14.974 14.974 0 0016.478-5c.065-.081-.038-.224-.129-.147z"/><path data-name="Path 3244" d="M275.659 70.823c4.666 1.361 9.409 2.35 14.053 3.822 4.712 1.494 9.384 3.129 14.162 4.407 7.7 2.061 15.735 3.2 23.612 1.5.6-.127.4-1.17-.2-1.054-8.613 1.67-17.087.2-25.4-2.269-8.448-2.515-17.27-6.716-26.19-6.96-.344-.012-.328.471-.037.554z"/><path data-name="Path 3245" d="M308.246 82.486c-6.967-1.425-13.694-4.648-20.682-5.694a.094.094 0 00-.061.176c5.544 3.416 12.961 5.4 19.271 6.833a59.828 59.828 0 0020.65.946c7.7-.9 14.685.749 21.932 3.213 6.33 2.154 12.845 4.833 19.6 5.043.691.022.752-1.091.079-1.2-6.894-1.147-13.243-3.267-19.844-5.515-6.346-2.161-12.823-3.924-19.586-3.373-7.323.591-14.069 1.061-21.359-.429z"/><path data-name="Path 3246" d="M386.219 104.763c3.739 3.12 7.926 6.612 9.278 11.461.255.917 1.56.434 1.373-.456-1-4.764-5.075-8.281-8.631-11.3a60.083 60.083 0 00-14.5-9.069.376.376 0 00-.336.671 83.5 83.5 0 0112.816 8.693z"/><path data-name="Path 3247" d="M251.668 128.911c.476.124.6-.592.145-.736-5.188-1.662-10.394-3.186-15.509-5.079-.309-.113-.546.341-.233.465a129.216 129.216 0 0015.597 5.35z"/><path data-name="Path 3248" d="M250.785 130.469a94.283 94.283 0 00-12.049-3.348.364.364 0 00-.142.714c4.014 1.031 7.922 2.321 11.854 3.619.556.184.893-.782.337-.985z"/><path data-name="Path 3249" d="M245.573 131.1a30.412 30.412 0 00-5.967-.863c-.409-.02-.458.673-.047.722a33.524 33.524 0 015.8 1.2c.663.201.898-.889.214-1.059z"/><path data-name="Path 3250" d="M364.811 139.401c-3.233.357-6.447.962-9.66 1.47q-2.415.38-4.827.777c-1.355.226-3.167.887-4.533.546-.424-.106-.582.492-.237.695 1.872 1.1 5.8-.3 7.861-.582 3.822-.526 7.685-.943 11.477-1.65.773-.143.742-1.347-.081-1.256z"/><path data-name="Path 3251" d="M360.137 143.596c-1.612.235-3.222.486-4.833.743a11.493 11.493 0 00-3.792.887.112.112 0 00.038.2 12.047 12.047 0 004.086-.154 412.81 412.81 0 004.576-.508c.755-.085.673-1.275-.075-1.168z"/><path data-name="Path 3252" d="M356.538 147.497c-.883.224-1.8.4-2.664.7-.452.16-.343.912.165.849.946-.117 1.889-.382 2.82-.585.634-.137.318-1.126-.321-.964z"/><path data-name="Path 3253" d="M401.07 146.607c-5.046-2.036-10.369-4.086-15.577-5.655-.11-.032-.14.124-.059.176a51.17 51.17 0 0015.284 6.5c.589.149.929-.788.352-1.021z"/><path data-name="Path 3254" d="M397.2 148.115a56.64 56.64 0 01-9.631-4.165c-.169-.088-.343.156-.19.28a28.3 28.3 0 009.622 4.892c.631.194.827-.815.199-1.007z"/><path data-name="Path 3255" d="M394.125 149.832a59.648 59.648 0 00-5.732-2.14c-.284-.083-.4.343-.163.476a59.245 59.245 0 005.49 2.474c.536.225.944-.593.405-.81z"/><path data-name="Path 3256" d="M390.779 151.103a24.669 24.669 0 00-2.4-.661.332.332 0 00-.212.621c.743.363 1.537.623 2.31.91a.462.462 0 10.302-.87z"/><path data-name="Path 3257" d="M317.629 86.611a185.033 185.033 0 00-23.228 10.588c-.361.194-.011.707.345.528a248.444 248.444 0 0123.18-10.224c.566-.217.273-1.103-.297-.892z"/><path data-name="Path 3258" d="M314.59 89.451a123.085 123.085 0 00-13.514 8.879.183.183 0 00.2.307c4.671-2.637 9.258-5.583 13.793-8.454.476-.303.004-1.01-.479-.732z"/><path data-name="Path 3259" d="M310.518 94.576a53.358 53.358 0 00-6.639 5.188c-.275.25.14.741.427.5a79.179 79.179 0 016.651-5.012.403.403 0 00-.439-.676z"/><path data-name="Path 3260" d="M309.023 98.031a50.239 50.239 0 00-5.788 4.578c-.354.325.2.8.551.5a57.109 57.109 0 015.689-4.379c.448-.304-.008-.999-.452-.699z"/><path data-name="Path 3261" d="M306.585 102.166c-1.465 1.269-2.88 2.6-4.3 3.915-.348.323.2.786.542.488 1.472-1.267 2.953-2.526 4.382-3.842.403-.369-.226-.907-.624-.561z"/><path data-name="Path 3262" d="M304.506 106.111l-1.79 2.005a.5.5 0 00.74.666l1.829-1.965c.461-.5-.328-1.211-.779-.706z"/><path data-name="Path 3263" d="M303.63 112.019l.9-.891c.257-.257-.129-.724-.42-.492l-.989.783a.4.4 0 10.509.6z"/><path data-name="Path 3264" d="M304.185 114.125a18.458 18.458 0 00-1.955 2.468.42.42 0 00.623.562 19.028 19.028 0 002.172-2.456c.341-.511-.449-.946-.84-.574z"/><path data-name="Path 3265" d="M303.693 118.259c-.377.863-.792 1.722-1.1 2.614a.348.348 0 00.623.311c.53-.779.968-1.625 1.434-2.445.343-.6-.68-1.114-.957-.48z"/><path data-name="Path 3266" d="M403.963 195.557c-.217.741.964.973 1.181.233a60.208 60.208 0 00.334-31.493c-.052-.216-.375-.106-.325.108a60.718 60.718 0 01-1.19 31.152z"/><path data-name="Path 3267" d="M402.618 169.929a61.7 61.7 0 01-.469 19.162.564.564 0 001.106.219 40.808 40.808 0 00-.293-19.447.178.178 0 00-.344.066z"/><path data-name="Path 3268" d="M401.417 183.182a28.692 28.692 0 00-.316-10.865c-.115-.47-.881-.318-.829.162a33.958 33.958 0 01-.253 10.425c-.176.903 1.265 1.184 1.398.278z"/><path data-name="Path 3269" d="M398.832 173.726a61.709 61.709 0 01-.673 8.233c-.122.82 1.174 1.063 1.258.248a58.162 58.162 0 00.253-8.534c-.025-.548-.831-.481-.838.053z"/><path data-name="Path 3270" d="M403.901 241.991a77.8 77.8 0 006.271-19.1 81.312 81.312 0 001.411-10.218c.12-1.688.659-3.879-.47-5.3a.227.227 0 00-.381.248c1.108 1.94-.133 6.529-.458 8.719a90.71 90.71 0 01-1.616 8.218 111.863 111.863 0 01-5.913 16.848c-.319.765.781 1.338 1.156.585z"/><path data-name="Path 3271" d="M403.266 236.551a80.3 80.3 0 005.116-25.25c.02-.4-.672-.452-.711-.047a117.6 117.6 0 01-5.472 24.932c-.195.605.834.958 1.067.365z"/><path data-name="Path 3272" d="M403.582 216.191a120.419 120.419 0 01-3.711 15.618c-.169.571.72.729.9.178a86.47 86.47 0 003.386-15.683c.048-.37-.516-.489-.575-.113z"/><path data-name="Path 3273" d="M401.052 217.661c-1.065 3.068-1.986 6.249-2.782 9.4-.153.6.772.774.944.187.906-3.081 1.729-6.253 2.366-9.4.061-.306-.419-.494-.528-.187z"/><path data-name="Path 3274" d="M397.978 218.854a7.014 7.014 0 00-1.379 3.885.394.394 0 00.776.05c.187-.582.232-1.2.4-1.79a8.988 8.988 0 01.792-1.849c.213-.38-.363-.646-.589-.296z"/><path data-name="Path 3275" d="M116.186 299.475a.731.731 0 00.738-1.262c-6.477-4.506-12.642-8.866-17.977-14.76a84.488 84.488 0 01-12.938-19.361c-.228-.46-.869-.056-.677.395 5.954 13.941 17.225 27.896 30.854 34.988z"/><path data-name="Path 3276" d="M105.33 297.865c.508.463 1.267-.291.758-.756a129.077 129.077 0 01-10.258-10.414c-3.533-4.046-7.946-8.62-9.739-13.758a.179.179 0 00-.343.1c.916 4.619 4.8 8.719 7.7 12.3a115.652 115.652 0 0011.882 12.528z"/><path data-name="Path 3277" d="M99.266 294.727a206.5 206.5 0 01-14.4-15.85c-.124-.149-.382.049-.271.21a100.326 100.326 0 0014.087 16.227c.387.365.967-.215.584-.587z"/><path data-name="Path 3278" d="M85.667 284.001c-.167-.287-.573-.036-.438.255a23.469 23.469 0 005.982 7.845c.479.416 1.178-.3.693-.691a26.062 26.062 0 01-6.237-7.409z"/><path data-name="Path 3279" d="M88.832 292.114a6.22 6.22 0 01-2.522-3.01c-.154-.388-.774-.242-.643.178a6.63 6.63 0 002.723 3.587c.467.311.923-.461.442-.755z"/><path data-name="Path 3280" d="M213.518 227.657a.309.309 0 00-.242-.334v-.036a.15.15 0 00-.3 0v.052a.368.368 0 00-.244.318 9.472 9.472 0 00.372 3.422c.147.5.928.283.777-.214a8.816 8.816 0 01-.363-3.208z"/><path data-name="Path 3281" d="M217.167 329.436a142.631 142.631 0 0020.219.6c5.176-.151 11.1.341 16.1-1.127 7.461-2.2 9.409-10.084 7.524-16.932-3.046-11.071-12.315-20.682-19.02-29.712-3.036-4.084-6.393-9.981-10.744-13.825-10.958-16.121-33.7 13.593-37.642 22.894-3.4 8.021-4.931 18.665-1.011 26.853 4.316 9.01 15.726 10.247 24.574 11.249zm-19.388-33.875c3.44-9.624 14.559-25.018 26.366-25.8 6.554 2.544 11.464 12.473 15.1 17.4 4.188 5.669 8.694 11.222 12.414 17.216 1.9 3.057 4.005 6.476 4.653 10.059 1.488 8.218-4.3 9.82-10.811 10.238a183.973 183.973 0 01-21.636.239c-6.906-.375-19.543-.635-24.794-6.163-5.414-5.699-3.651-16.587-1.292-23.189z"/><path data-name="Path 3282" d="M263.078 299.924c1.35 3.966 2.745 8.129 5.775 11.173 6.086 6.116 13.7 4.6 18.765-1.74 4.194-5.249 7.391-11.554 10.922-17.261 3.558-5.754 7.579-11.432 10.292-17.652 3.576-8.2 3.434-16.823-3.169-23.454-7.635-7.669-19.688-10.482-30.181-9.96A57.464 57.464 0 00265 242.452c-6.459.82-12.7 4.018-16.063 9.732-5.682 9.651 1.3 19.3 5.861 27.711a127.6 127.6 0 018.28 20.029zm-11-42.1a10.767 10.767 0 011.98-4.35c.059-.075.122-.147.183-.221.206-.257.427-.5.655-.736 4.973-4.951 15.5-5.693 21.81-5.847 8.27-.2 17.311 1.56 23.83 6.974 14.667 12.188-4.535 33.54-11.717 45.329-1.617 2.651-3.518 7.382-6.078 9.226-7.884 5.68-12.437-1.82-14.6-8.432a145.414 145.414 0 00-6.729-17.963c-3.322-6.939-11.083-15.829-9.334-23.979z"/><path data-name="Path 3283" d="M299.708 305.574c-2.4 3.072-5.1 6.12-6.15 9.974-2.073 7.579 2.059 13.951 9.8 14.539 13.776 1.047 28.384-.881 42.187-1.366 9.323-.327 16.623-.953 19.117-11.229 3.048-12.57-3.791-22.548-10.66-32.321-5.479-7.795-11.269-17.541-21.573-19.135-5.937-.918-10.978 1.709-13.2 6.335-3.765 4.569-6.019 11.053-8.436 16.058a94.857 94.857 0 01-11.085 17.145zm19.8-25.154c2.316-5.308 6.6-8.877 9.951-9.156a13.441 13.441 0 017.278 2.086c3.51 2.1 6.134 5.54 8.5 8.782 4.037 5.534 8.651 11.256 11.751 17.385 4.294 8.486 5.525 23.232-7.123 23.95-8.15.463-16.326.637-24.481.982q-5.763.245-11.522.5c-2.818.122-7.861 1.373-10.505.42-3.09-1.111-6.129-5.3-5.229-8.558a18.2 18.2 0 012.678-5c1.626-2.406 3.7-4.542 5.448-6.861a83.29 83.29 0 0010.096-17.527c1.059-2.481 2.053-4.822 3.159-7.003z"/><path data-name="Path 3284" d="M210.881 383.254c2.831 3.664 5.6 7.395 9.586 9.891 19.966 12.509 29.28-18.939 38.362-30.055 4.935-6.041 8.908-13.48 3.556-20.8-4.167-5.7-12.728-4.334-19.88-3.125-8.15-.063-16.417.368-24.325.47-8.068.106-17.157 1.772-21.338 9.585-3.668 6.852-1.657 15.11 2.718 21.09 3.379 4.62 7.807 8.395 11.321 12.944zm.167-39.117c7.865-1.718 16.5 1.138 24.388-.2 24.25-4.107 26.714 4.486 25.246 8.92-3.258 6.556-9.085 11.9-12.132 16.595-3.734 5.763-5.985 12.721-10.994 17.573-9.716 9.412-18.473-.533-24.542-8.159-3.644-4.578-8.732-8.4-11.631-13.507-5.392-9.489-.723-18.955 9.664-21.222z"/><path data-name="Path 3285" d="M295.668 418.291c6.992-4.468 12.356-12.417 12.543-20.878.232-10.534-8.161-19.011-12.689-27.881-3.375-6.612-7.655-16.536-15.507-19.056-7.22-2.319-11.446 5.6-13.708 11.12-5 12.195-15.376 22.115-18.774 34.9a25.877 25.877 0 00-.672 3.531 20.991 20.991 0 00.819 10.8c6.079 16.957 35.666 15.342 47.988 7.464zm-37.933-33.608c4.91-7.5 9.265-14.46 12.931-22.627 3.326-7.412 8.913-9.152 14.336-2.49a54.168 54.168 0 016.039 10.2c4.228 8.425 13.166 17.913 12.838 27.646-.413 12.225-11.958 19.932-22.948 21.564-6.983 1.036-18.239 1.223-25.165-3.174-9.478-8.436-4.147-21.775 1.97-31.119z"/><path data-name="Path 3286" d="M359.881 346.804c-3.752-8.99-18.465-8.037-26.289-9.132-7.3-1.02-14.635-1.81-21.916-2.969-4.339-.691-9.682-2.4-13.927-.409-4.088 1.917-5.456 5.436-5.452 9.276a12.5 12.5 0 00-.163 2.26c.258 11.166 12.965 19.031 17.936 28.014 4.641 8.387 9.637 17.652 20.562 17.593 10.188-.056 17.97-5.556 22.032-14.484 3.581-7.87 10.908-21.297 7.217-30.149zm-9.094 24.338c-3.569 8.03-6.759 13.654-16.038 16.01-9.231 2.343-15.047-2.928-19.487-10.577-3.133-5.395-5.781-10.434-10.039-15.047-2.551-2.768-5.515-5.249-7.515-8.488a12.911 12.911 0 01-1.014-2.077 20.989 20.989 0 01-1.127-5.2 8.347 8.347 0 01-.014-.316 8.029 8.029 0 011.3-4.89c3.021-4.459 10.12-2.546 14.317-2.083 7.328.81 14.608 1.989 21.919 2.941 5.822.756 13.5.32 18.907 2.9 10.796 5.141 1.857 19.935-1.21 26.827z"/><path data-name="Path 3287" d="M214.835 276.94c6.9-9.588 17.322 3.849 20.537 9.834.056.106.212.013.158-.093-2.49-4.843-6.237-11.143-11.575-13.261-3.6-1.427-8.13-.61-9.945 3.039a.478.478 0 00.825.481z"/><path data-name="Path 3288" d="M245.223 302.28c2.883 3.775 8.646 8.139 6.786 13.381-.106.3.388.44.478.131 1.223-4.138-1.384-7.752-3.775-10.92-3.789-5.016-7.589-10.007-11.23-15.136-.282-.4-.933-.039-.666.388q3.929 6.272 8.407 12.156z"/><path data-name="Path 3289" d="M203.115 317.052c5.964 5.091 13.942 6.045 21.5 5.506.776-.056.8-1.232 0-1.221-6.624.1-13.809-.219-19.453-4.141a12.436 12.436 0 01-5.734-9.928c-.226-3.186.023-6.4.048-9.594a.173.173 0 00-.339-.045c-1.668 7.054-1.896 14.407 3.978 19.423z"/><path data-name="Path 3290" d="M249.835 319.747c-2.756 2.013-6.637 1.266-9.836 1.151-3.405-.124-6.816-.248-10.222-.079a.305.305 0 000 .61c4.6.465 9.251.433 13.873.478 2.5.025 4.68.108 6.694-1.5.369-.296-.123-.942-.509-.66z"/><path data-name="Path 3291" d="M263.655 275.506c-2.488-4.431-7.886-10.909-7.152-16.159.917-6.558 7.894-8.7 13.457-9.762.2-.04.138-.327-.045-.339-5.845-.39-12.4 1.738-14.561 7.762a9.707 9.707 0 00.535 7.45c1.8 4.052 4.343 7.917 6.534 11.769a.714.714 0 001.232-.721z"/><path data-name="Path 3292" d="M265.085 279.472c1.427 3.73 2.668 7.581 3.779 11.419 1.038 3.587 1.53 7.409 2.757 10.924 1.14 3.262 4.773 6.5 8.023 3.677.415-.359-.126-1.05-.587-.759-6.355 4.014-7.816-9.33-8.84-12.825a85.582 85.582 0 00-4.9-12.534c-.059-.128-.282-.037-.232.098z"/><path data-name="Path 3293" d="M290.965 285.033c-2.8 4.614-4.782 9.574-7.019 14.468-.027.059.059.113.09.052a106.285 106.285 0 0111.6-18.927c2.955-3.763 6-7.581 6.5-12.521 1.014-10.021-7.635-17.977-17.464-16.968-.727.075-.741 1.219 0 1.151a14.479 14.479 0 0113.992 21.783c-2.176 3.891-5.382 7.146-7.699 10.962z"/><path data-name="Path 3294" d="M301.901 316.087a.364.364 0 00-.662-.278c-1 1.695 1.179 3.758 2.44 4.689a13.233 13.233 0 008.177 2.23c4.556-.083 9.05-1.276 13.6-1.562 4.827-.3 9.682-.3 14.5-.722a.587.587 0 000-1.174 153.053 153.053 0 00-19.158.966c-2.98.371-5.933 1.081-8.944 1.169a13.863 13.863 0 01-4.806-.587c-1.38-.462-5.615-2.548-5.147-4.731z"/><path data-name="Path 3295" d="M346.225 290.66a34.774 34.774 0 005.389 8.324c2.809 3.52 4.511 7.75 3.567 12.3a10.517 10.517 0 01-10.075 8.364.162.162 0 000 .323c8 .67 13.161-6.633 11.726-14.153-.986-5.158-4.781-8.039-7.425-12.292-2.614-4.2-3.425-9.3-6.725-13.094-.513-.589-1.555.2-1.093.845 2.074 2.931 3.25 6.108 4.636 9.383z"/><path data-name="Path 3296" d="M318.709 290.223c2.029-2.982 2.661-6.551 4.411-9.665 3.172-5.644 9.856-4.834 14.518-1.562.065.047.14-.054.084-.108-3.425-3.242-8.509-5.411-12.8-2.321-4.138 2.98-4.775 8.9-7.364 12.983-.466.732.672 1.379 1.151.673z"/><path data-name="Path 3297" d="M306.892 356.944c-3.549-3.754-8.035-7.163-7.628-12.9a.382.382 0 00-.747-.1c-.763 3.939 1.081 7.059 3.68 9.913a115.98 115.98 0 0111.351 13.773c.5.754 1.725.05 1.223-.716a72.033 72.033 0 00-7.879-9.97z"/><path data-name="Path 3298" d="M346.612 369.922c-2.311 6.168-6.741 12.606-14.179 12.356-5.869-.2-11.759-5.641-15.166-10.03-.023-.031-.075.009-.054.041 3.818 5.477 9.617 11.841 16.961 11.172 7.091-.644 11.9-6.754 13.9-13.135.3-.945-1.125-1.304-1.462-.404z"/><path data-name="Path 3299" d="M351.07 346.907c-2.484-1.948-5.865-2.055-8.868-2.353-5.17-.515-10.339-1.111-15.514-1.56-1.029-.088-1 1.472 0 1.589 6.018.709 12.1 1.047 18.1 1.914 4.441.643 7.727 2.472 7 7.615a27.627 27.627 0 01-3.395 9.278c-.226.415.37.939.686.531 3.245-4.205 7.303-12.845 1.991-17.014z"/><path data-name="Path 3300" d="M321.498 343.988a.173.173 0 000-.345c-4.24-.519-8.452-1.206-12.66-1.933-.919-.16-1.318 1.242-.39 1.409a60.916 60.916 0 0013.05.869z"/><path data-name="Path 3301" d="M265.382 383.85c4.738-7.3 7.522-14.812 9.664-23.2a.104.104 0 00-.2-.056 94.979 94.979 0 01-10.917 22.408c-.585.914.866 1.753 1.453.848z"/><path data-name="Path 3302" d="M271.764 415.835c.944-.065.961-1.533 0-1.485-6.807.346-14.841-1.389-16.286-9.261-1.079-5.872 2.276-11.927 5.386-16.7.05-.077-.066-.138-.119-.07-4.269 5.58-8.965 12.1-6.012 19.48 2.7 6.745 10.518 8.48 17.031 8.036z"/><path data-name="Path 3303" d="M277.681 414.687c7.109-.836 16.507-2.765 19.67-10.075 2.978-6.885.106-14.676-4.642-19.984-.54-.6-1.637.212-1.14.878 4.111 5.5 7.622 12.155 4.4 19-3.147 6.685-11.909 8.019-18.336 9.805-.2.061-.171.403.048.376z"/><path data-name="Path 3304" d="M288.053 377.583c.181.242.585.029.417-.244-3.493-5.642-3.35-13.329-8.811-17.722-.6-.481-1.451.375-.847.847 5.365 4.194 5.301 11.867 9.241 17.119z"/><path data-name="Path 3305" d="M248.255 361.483a53.641 53.641 0 00-6.651 8.186c-3.077 4.628-9.13 23.313-17.367 15.783a.167.167 0 00-.237.235c2.169 2.669 5.887 2.65 8.667.871 4.068-2.6 5.357-8.059 7.486-12.071 3.014-5.682 7.107-10.211 11.768-14.556 3.583-3.339 5.49-7.208 3.935-12.128a.628.628 0 00-1.21.334c1.618 6.244-2.461 9.406-6.391 13.346z"/><path data-name="Path 3306" d="M209.598 369.553a.4.4 0 00.4-.686c-5.115-3.282-7.109-9.784-3.831-15.119 3.2-5.213 9.244-5.664 14.755-5.181 4.289.375 8.486 1.038 12.8.517 5.149-.621 10.1-2.07 15.32-2.183.294-.007.379-.465.072-.531-6.673-1.434-13.148 1.592-19.844 1.408-5.978-.164-12.347-2.142-18.182-.013-9.874 3.601-10.477 16.824-1.49 21.788z"/><path data-name="Path 3307" d="M213.879 372.522a.318.318 0 00-.5.382 55.782 55.782 0 006.436 8.762c.4.463 1.194-.146.849-.655a55.8 55.8 0 00-6.785-8.489z"/><path data-name="Path 3308" d="M204.088 291.907c2.844-3.563 5.506-7.251 8.511-10.689.526-.6-.363-1.488-.88-.88a67.408 67.408 0 00-8.084 11.22c-.148.273.241.621.453.349z"/><path data-name="Path 3309" d="M357.262 263.331c-.524-.677-1.7-.021-1.174.686 4.962 6.691 10.082 13.259 15.022 19.964a43.082 43.082 0 015.515 9.105c1.648 4.027 2.2 8.3 2.716 12.591.885 7.3 3.145 13.685 5.357 20.65 2.61 8.224 2.011 16.309.005 24.589-3.555 14.677-7.892 30.653-18.7 41.749-5.1 5.233-11.035 9.737-16.778 14.234a101.767 101.767 0 01-19.133 12.275c-6.771 3.188-14.028 4.292-21.128 6.445a39.849 39.849 0 00-8.148 3.413c-3.847 2.186-7.292 4.68-11.874 4.951-8.127.479-16.966-1.436-24.964-2.637-7.59-1.14-15.329-2.237-22.7-4.429-7.983-2.375-14.706-6.879-21.67-11.279-6.389-4.039-12.809-8.455-17.36-14.6-4.134-5.583-6.624-12.177-10.5-17.93-3.608-5.359-7.859-10.242-11.708-15.421-4.28-5.759-8.258-12.067-9.407-19.277-1.314-8.245 1.526-16.476.381-24.754-.63-4.556-2.013-9.085-1.817-13.722.2-4.668 2.061-9.052 4.2-13.136 4.186-8.007 8.669-15.873 12.9-23.86a.26.26 0 00-.447-.262c-4.479 7.368-9.107 14.643-13.2 22.239-3.409 6.328-5.452 12.588-4.506 19.842.569 4.37 1.763 8.646 1.855 13.075.088 4.237-.655 8.43-.953 12.646a34.723 34.723 0 003.657 18.411c2.962 5.917 7.163 11.1 11.208 16.3a135.076 135.076 0 0112.426 19.177 50.168 50.168 0 0013.34 16.25c6.028 4.739 12.753 8.6 19.429 12.34 14.448 8.091 31.874 9.714 48.061 11.635 7.762.921 14.313 1.772 21.3-2.255a51.9 51.9 0 0110.938-5.108c3.774-1.145 7.651-1.892 11.457-2.921 14.583-3.937 26.379-13.647 37.868-23.018 6.168-5.028 11.708-10.412 15.67-17.377 3.628-6.377 6-13.572 8.062-20.58 2.513-8.536 5.368-17.261 5.492-26.242.122-8.947-4.276-16.728-5.876-25.346s-1.489-16.934-6.647-24.416c-5.669-8.226-12.063-16.087-18.169-23.997z"/><path data-name="Path 3310" d="M183.023 286.854c.007-.056-.074-.057-.09-.013-2.046 5.42-6.622 9.635-8.157 15.247-1.463 5.341.413 10.787 1.725 15.945.906 3.565 1.617 7.19.951 10.866-.6 3.3-2.126 6.337-2.951 9.57a25.6 25.6 0 001.709 16.931c.043.1.216.029.178-.075-2.594-7.269-1.535-14.182.9-21.288a25.318 25.318 0 00.707-15.166c-1.56-6.477-4.089-12.886-1.014-19.345 2.071-4.341 5.392-7.759 6.042-12.672z"/><path data-name="Path 3311" d="M184.423 366.834c10.583 10.15 12.283 26.538 23.562 36.168 5.486 4.684 12.841 6.032 17.974 11.243 5.109 5.186 9.655 10.066 17.169 11.423a.57.57 0 00.3-1.1 28.832 28.832 0 01-10.987-5.66c-2.752-2.388-4.838-5.443-7.646-7.773-5.346-4.439-12.391-5.8-17.41-10.8-9.789-9.76-12.471-24.235-22.869-33.6-.06-.053-.157.041-.093.099z"/><path data-name="Path 3312" d="M378.327 350.728a45.661 45.661 0 00-2.442 9.789c-1.005 6.271-1.975 12.565-7.073 16.945-.447.384.19.98.634.635 4.242-3.3 5.885-8.412 6.806-13.531.6-3.344.878-6.75 1.743-10.042.908-3.458 2.822-6.389 4.079-9.689a25.893 25.893 0 00-.1-18.144 97.576 97.576 0 01-3.413-9.59 111.3 111.3 0 01-2.124-12.8h-.011c-2.192 13.52 8.466 24.876 4.976 38.318a69.738 69.738 0 01-3.075 8.109z"/><path data-name="Path 3313" d="M294.209 428.373c2.948-.539 4.917-2.506 7.506-3.867 3.149-1.655 6.682-2.068 10.107-2.845a68.729 68.729 0 0018.807-7.434 187.141 187.141 0 0017.584-11.5c4.174-3.032 9.933-6.084 11.5-11.351a.6.6 0 00-1.083-.458c-3.307 5.612-8.951 9.253-14.117 13.028a114.325 114.325 0 01-16.117 10.214 69.383 69.383 0 01-18.74 6.506 27.8 27.8 0 00-7.086 1.844c-3.064 1.454-5.3 4.034-8.534 5.228a.33.33 0 00.173.635z"/><path data-name="Path 3314" d="M284.787 315.79a6.536 6.536 0 00-3.646 1.655c-2.581 2.034-4.944 3.484-8.3 1.9-.212-.1-.4.2-.187.318 1.9 1.054 3.908 1.718 6.044.919 2.332-.872 3.707-3.1 6.249-3.57a.625.625 0 00-.16-1.222z"/><path data-name="Path 3315" d="M287.245 317.957c-1.741 5.789 5.235 9.242 4.795 14.85-.066.849 1.222.824 1.312 0 .625-5.729-5.992-8.987-5.247-14.735.06-.503-.724-.574-.86-.115z"/><path data-name="Path 3316" d="M271.056 343.548c-.365-.32-.894.2-.537.537 2.253 2.138 4.732 1.612 7.632 1.566a12.168 12.168 0 0111.55 8.06.15.15 0 00.287-.081 11.369 11.369 0 00-5.589-7.342c-4.117-2.239-9.771.388-13.343-2.74z"/><path data-name="Path 3317" d="M261.869 332.945a7.337 7.337 0 00-4.581-.558c-.14.023-.11.266.032.248a6.466 6.466 0 015.91 2.535 7.534 7.534 0 003.237 2.558c.671.23.975-.856.294-1.066-2.031-.625-3.02-2.785-4.892-3.717z"/><path data-name="Path 3318" d="M265.743 329.692a8.838 8.838 0 006.42 6.6c.646.174.856-.738.269-.977-9.6-3.906-2.858-13.078-5.845-20.135-.1-.233-.494-.066-.411.172 1.676 4.842-1.513 9.491-.433 14.34z"/><path data-name="Path 3319" d="M283.612 340.972c.4.235.768-.413.359-.616a7.133 7.133 0 00-3.361-.761.242.242 0 000 .483 6.491 6.491 0 013.002.894z"/><path data-name="Path 3320" d="M203.438 334.279a.582.582 0 00.587-1.005c-2.257-1.293-5.019-1.51-7.114-3.065-2.343-1.738-4.106-4.727-5.919-7-.171-.214-.533.066-.38.293 1.666 2.488 3.213 5.68 5.59 7.581 2.087 1.672 4.958 1.865 7.236 3.196z"/><path data-name="Path 3321" d="M248.816 239.412c5.759 1.075 10.333-2.5 15.024-5.267 6.858-4.045 14.755-3.393 22.415-3.614.3-.009.393-.488.074-.544-6-1.05-12.179-1.47-18.031.6-6.6 2.337-11.7 8.955-19.234 7.924-.579-.078-.848.789-.248.901z"/><path data-name="Path 3322" d="M230.564 243.862a44.584 44.584 0 0111.493-2.858.25.25 0 000-.5 20.535 20.535 0 00-11.7 2.86c-.25.158-.092.611.207.498z"/><path data-name="Path 3323" d="M340.904 260.48c5.091 5.023 12.471 7 16.97 12.708.309.391.948-.115.688-.531-4.143-6.63-12.482-8.29-17.589-13.979-5.36-5.969-8.622-14.166-16.794-16.862-.232-.075-.4.3-.169.4 8.081 3.671 10.905 12.358 16.894 18.264z"/><path data-name="Path 3324" d="M368.402 289.464a35.564 35.564 0 00-6.075-11.136c-.183-.235-.592.077-.416.322a47.535 47.535 0 015.714 11.028c.18.473.933.288.777-.214z"/><path data-name="Path 3325" d="M258.15 179.262c-.251-.16-.478.235-.232.4q9.907 6.511 19.832 13c.384.251.745-.368.359-.616q-9.973-6.409-19.959-12.784z"/><path data-name="Path 3326" d="M272.092 184.299c-6.123-4.4-12.324-8.795-18.789-12.683-.144-.084-.255.126-.127.219 6.066 4.542 12.3 8.865 18.376 13.389.551.405 1.098-.525.54-.925z"/><path data-name="Path 3327" d="M266.044 177.872a205.31 205.31 0 00-17.008-11.66c-.2-.126-.384.19-.187.318a177.467 177.467 0 0116.561 12.166.522.522 0 10.634-.824z"/><path data-name="Path 3328" d="M260.951 170.411c-4.973-3.082-9.906-6.256-14.985-9.163a.219.219 0 00-.221.377c4.788 3.379 9.757 6.511 14.66 9.719.583.383 1.14-.565.546-.933z"/><path data-name="Path 3329" d="M257.978 164.927c-5.062-2.879-10.078-5.917-15.274-8.551a.109.109 0 00-.109.188c4.806 3.292 9.879 6.238 14.836 9.3a.542.542 0 00.547-.937z"/><path data-name="Path 3330" d="M247.155 156.324c-1.86-.948-3.7-1.953-5.6-2.826a.104.104 0 00-.106.18c1.766 1.1 3.615 2.091 5.425 3.124.313.178.597-.316.281-.478z"/><path data-name="Path 3331" d="M235.732 147.855a.264.264 0 00-.266.456l2.583 1.465a.254.254 0 00.257-.438z"/><path data-name="Path 3332" d="M307.12 208.868a.052.052 0 00-.1 0v.368a.052.052 0 00.1 0z"/><path data-name="Path 3333" d="M318.775 216.101a62.177 62.177 0 00-12.505-6.384l.452-.452a.04.04 0 00-.056-.057l-.479.479a50.2 50.2 0 00-5.865-1.8.372.372 0 00-.417.54c.486.758.316.659 1.224.862a.081.081 0 00.061-.147c2.224 1.447 5.54 2.165 8.048 3.362 3.03 1.447 5.946 3.095 8.892 4.7a.639.639 0 00.645-1.103z"/><path data-name="Path 3334" d="M303.879 204.358c-.547-.212-.781.666-.241.876 11.547 4.5 22.142 10.473 32.727 16.848.72.432 1.33-.65.652-1.113-10.202-6.952-21.652-12.183-33.138-16.611z"/><path data-name="Path 3335" d="M333.326 217.426c.556.334 1.038-.51.5-.865a258.982 258.982 0 00-23.341-13.4c-.237-.122-.443.226-.21.359 7.812 4.441 15.352 9.289 23.051 13.906z"/><path data-name="Path 3336" d="M325.413 209.03c.447.3.853-.415.418-.716a94.382 94.382 0 00-13.15-7.337c-.185-.088-.348.185-.162.278a123.041 123.041 0 0112.894 7.775z"/><path data-name="Path 3337" d="M315.256 200.145a32.108 32.108 0 016.145 3.968c.56.458 1.368-.323.806-.806a29.388 29.388 0 00-6.382-4.136c-.65-.313-1.223.653-.569.974z"/><path data-name="Path 3338" d="M376.949 179.985c-.208-.312-.715-.022-.508.3a63.4 63.4 0 015.447 10.258.344.344 0 10.632-.266 64.035 64.035 0 00-5.571-10.292z"/></g></svg>