<svg xmlns="http://www.w3.org/2000/svg" width="405.781" height="282.238"><g data-name="Group 3076" opacity=".3" fill="#bfa871"><path data-name="Path 3009" d="M42.548 178.23a20.7 20.7 0 00-4.421-11.423c-.1-.114-.266.034-.2.155a28.043 28.043 0 013.891 13.962c-.025 4.313-1.37 8.634.169 12.829.158.429.833.246.69-.2-1.583-4.946.376-10.238-.129-15.323z"/><path data-name="Path 3010" d="M37.065 169.206c-.043-.094-.208-.024-.168.073 1.62 3.932 2.87 7.93 2.546 12.236-.28 3.7-1.353 7.453-.383 11.132.115.438.851.347.8-.123-.447-4.291.609-8.4.521-12.673-.077-3.853-1.735-7.222-3.316-10.645z"/><path data-name="Path 3011" d="M36.239 172.825a24.866 24.866 0 01.528 14.456.344.344 0 00.666.169 21.3 21.3 0 00-.975-14.719c-.055-.123-.262-.032-.219.094z"/><path data-name="Path 3012" d="M35.079 175.657a23.569 23.569 0 01-1.289 7.815c-.158.413.525.594.674.171a15.53 15.53 0 00.886-8.028c-.032-.162-.265-.108-.271.042z"/><path data-name="Path 3013" d="M28.279 155.975C10.248 149.62 2.674 130.304 5.53 112.31c.032-.206-.27-.3-.32-.088-2.339 9.771-1.667 19.827 3.224 28.759 4.135 7.552 11.183 13.772 19.5 16.229.802.241 1.111-.964.345-1.235z"/><path data-name="Path 3014" d="M87.222 115.194a36.72 36.72 0 00-9.269 2.481.602.602 0 10.467 1.109 57.118 57.118 0 018.913-3.188c.267-.068.147-.439-.111-.402z"/><path data-name="Path 3015" d="M50.667 191.771a20.629 20.629 0 019.529-8.388c.543-.228.313-1.127-.248-.9a17.876 17.876 0 00-9.728 9.027.259.259 0 00.447.261z"/><path data-name="Path 3016" d="M53.803 191.321a.244.244 0 00.42.246 17.632 17.632 0 018.651-7.07c.476-.181.278-.948-.214-.774a15.881 15.881 0 00-8.857 7.598z"/><path data-name="Path 3017" d="M60.615 187.014a8.588 8.588 0 00-3.833 3.82.248.248 0 00.428.249 12.581 12.581 0 013.752-3.476.344.344 0 00-.347-.593z"/><path data-name="Path 3018" d="M60.894 189.54a4.319 4.319 0 00-1.866 2.625.204.204 0 00.394.109 4.16 4.16 0 011.772-2.222c.329-.197.02-.724-.3-.512z"/><path data-name="Path 3019" d="M125.157 182.249c8.173-2.537 16.207-5.568 24.281-8.4s16.213-5.566 24.286-8.442c.555-.2.326-1.081-.247-.893-8.143 2.661-16.219 5.548-24.3 8.4s-16.23 5.613-24.141 8.907c-.255.104-.162.515.121.428z"/><path data-name="Path 3020" d="M140.032 179.423a1657.8 1657.8 0 0036.05-11.144.363.363 0 00-.194-.7c-12.073 3.353-24.158 7.348-35.867 11.807a.02.02 0 00.011.037z"/><path data-name="Path 3021" d="M161.45 173.914c-4.46 2.141-9.047 3.6-13.641 5.366a.031.031 0 00.017.06 52.308 52.308 0 0013.908-4.94c.324-.158.039-.642-.284-.486z"/><path data-name="Path 3022" d="M161.949 175.67c-3.668 1.714-7.424 3.076-11.2 4.514a.043.043 0 00.023.082 57.994 57.994 0 0011.474-4.089c.346-.158.049-.666-.297-.507z"/><path data-name="Path 3023" d="M118.179 185.337c.514-.182.306-.989-.227-.828a95 95 0 01-44.854 2.469.052.052 0 00-.026.1 76.5 76.5 0 0045.107-1.741z"/><path data-name="Path 3024" d="M111.803 189.687a80.789 80.789 0 01-15.02 2.065c-4.837.147-9.688-.165-14.519.094-.009 0-.012.013 0 .016 9.411 1.527 20.65 1.82 29.748-1.423a.39.39 0 00-.209-.752z"/><path data-name="Path 3025" d="M103.231 193.763a39.345 39.345 0 01-10.57 1.32.128.128 0 000 .255 33.562 33.562 0 0010.692-1.136.228.228 0 00-.122-.439z"/><path data-name="Path 3026" d="M100.974 196.61a35.68 35.68 0 01-4.9.9c-.222.033-.151.36.049.372a16.371 16.371 0 005.028-.64.328.328 0 00-.177-.632z"/><path data-name="Path 3027" d="M177.003 16.892a88.288 88.288 0 00-34.83 10.54 123.711 123.711 0 00-15.67 10.621 79.475 79.475 0 01-18.638 10.382c-.354.143-.221.712.161.588a58.977 58.977 0 0016.864-8.507c5.151-3.753 10.075-7.722 15.612-10.916a93.671 93.671 0 0136.5-11.664c.654-.075.678-1.097.001-1.044z"/><path data-name="Path 3028" d="M169.003 19.781c-14.194 2.058-27.016 11.979-37.587 21.038-.168.144.056.441.239.309 5.79-4.157 11.4-8.578 17.5-12.284a69.026 69.026 0 0120.09-8.193c.578-.138.319-.951-.242-.87z"/><path data-name="Path 3029" d="M163.514 25.126c-6.457 2.434-13.228 5.85-18.369 10.522a.2.2 0 00.238.31c6.038-3.712 11.76-7.32 18.346-10.05.471-.196.28-.969-.215-.782z"/><path data-name="Path 3030" d="M198.158 15.802c11.86-.086 23.819-1.53 35.643-2.41.558-.042.56-.918 0-.873-11.848.931-23.911 1.33-35.674 3.048-.136.021-.1.236.031.235z"/><path data-name="Path 3031" d="M251.581 15.366a99.765 99.765 0 00-20.315.1c-6.393.55-13.054 1.371-19.16 3.4a.1.1 0 00.051.187c6.7-.9 13.291-2.227 20.052-2.724 6.49-.477 12.885-.167 19.372-.067.593.008.556-.829 0-.896z"/><path data-name="Path 3032" d="M249.09 18.269c-2.624-.124-5.28-.369-7.906-.3-.066 0-.088.11-.016.122 2.608.423 5.289.542 7.922.775.377.032.384-.579 0-.597z"/><path data-name="Path 3033" d="M103.325 55.555c-2.67 3.188-6.086 5.471-9.443 7.868a97.981 97.981 0 00-8.289 6.638 99.777 99.777 0 00-14.927 16.695c-.3.417.384.8.68.4a108.857 108.857 0 0115.466-17.063c5.455-4.834 12.19-8.531 16.807-14.239.167-.207-.12-.507-.294-.299z"/><path data-name="Path 3034" d="M90.598 69.982a77.688 77.688 0 00-21.593 26.5c-.27.53.523 1 .8.467a100.2 100.2 0 0120.909-26.813c.08-.076-.027-.221-.116-.154z"/><path data-name="Path 3035" d="M78.164 90.223c.671-1.479 1.315-2.969 1.96-4.458.038-.089-.093-.169-.134-.078-.672 1.478-1.347 2.952-1.994 4.439-.048.112.115.212.168.097z"/><path data-name="Path 3036" d="M106.167 118.216a98.069 98.069 0 00-30.612 21.826c-.037.04.022.1.06.06a99.871 99.871 0 0130.789-21.48c.276-.122.037-.53-.237-.406z"/><path data-name="Path 3037" d="M109.54 118.553c-5.148 2.836-10.146 5.965-14.995 9.285q-3.45 2.363-6.782 4.892c-1.446 1.1-2.838 2.116-3.482 3.866-.023.061.072.084.1.026 1.114-2.646 4.281-4.252 6.537-5.824q3.046-2.12 6.161-4.14c4.163-2.69 8.438-5.176 12.768-7.586.336-.188.031-.707-.307-.519z"/><path data-name="Path 3038" d="M110.103 121.631c-3.776 2.492-7.592 4.936-11.325 7.493a.042.042 0 00.043.072c3.868-2.336 7.669-4.8 11.5-7.2.229-.143.013-.516-.218-.365z"/><path data-name="Path 3039" d="M175.975 118.476q2.237-.739 4.457-1.516a11.608 11.608 0 011.078-.867c.148-.106.3-.2.454-.306q-3.058 1.1-6.135 2.16c-.334.117-.194.643.146.529z"/><path data-name="Path 3040" d="M190.847 108.737a33.044 33.044 0 007.425-3.092c.213-.123.026-.435-.19-.326a40.09 40.09 0 01-7.386 2.877.28.28 0 00.151.541z"/><path data-name="Path 3041" d="M223.867 29.286a185.915 185.915 0 00-48.709 26.952c-.219.17.075.558.3.389a198.723 198.723 0 0148.494-27.035c.187-.073.106-.377-.085-.306z"/><path data-name="Path 3042" d="M203.262 42.461c.293-.138.037-.567-.253-.434-5.228 2.4-10.342 5.04-15.36 7.854q-3.662 2.052-7.241 4.246c-1.233.754-2.642 1.358-2.666 2.944a.151.151 0 00.3 0c.059-2.186 5.359-4.3 6.98-5.217q2.842-1.608 5.722-3.148c4.116-2.188 8.303-4.245 12.518-6.245z"/><path data-name="Path 3043" d="M202.938 46.347c-4.126 2.12-8.292 4.179-12.358 6.408-.248.136-.03.491.218.373 4.2-1.976 8.323-4.132 12.468-6.221.371-.187.043-.751-.328-.56z"/><path data-name="Path 3044" d="M175.941 232.313a61.458 61.458 0 0045.357-20 .047.047 0 00-.066-.066 67.656 67.656 0 01-45.29 19.149.46.46 0 00-.001.917z"/><path data-name="Path 3045" d="M160.116 227.73c-.051 0-.048.072 0 .078a49.05 49.05 0 0027.744-5.441c.431-.239.053-.838-.378-.647a68.953 68.953 0 01-13.292 4.714 64.585 64.585 0 01-14.074 1.296z"/><path data-name="Path 3046" d="M169.275 221.75c-.2 0-.319.32-.111.41 3.877 1.666 8.724-.232 11.677-2.866.467-.418-.224-1.108-.687-.689-3.296 2.981-6.687 3.164-10.879 3.145z"/><path data-name="Path 3047" d="M174.626 217.328c.377.02.378-.606 0-.587-.88.046-1.758.1-2.636.154a.139.139 0 000 .278c.878.061 1.756.11 2.636.155z"/><path data-name="Path 3048" d="M130.648 229.41c-4.764-1.178-9.59-2-14.271-3.51a59.488 59.488 0 01-13.025-6.238c-7.261-4.5-14.136-9.744-22.333-12.457-.039-.012-.054.047-.017.06 8.709 2.966 15.648 9.08 23.321 13.923 7.9 4.983 16.9 7.645 26.081 9.109.569.085.83-.743.244-.887z"/><path data-name="Path 3049" d="M106.943 216.115a48.1 48.1 0 0018.8 9.894.4.4 0 00.212-.767 59.252 59.252 0 01-18.893-9.285c-.09-.064-.203.084-.119.158z"/><path data-name="Path 3050" d="M121.41 220.051c-1.981-1.079-3.94-2.25-5.982-3.209a.135.135 0 00-.137.233c1.855 1.285 3.849 2.393 5.776 3.563.374.227.727-.378.343-.587z"/><path data-name="Path 3051" d="M118.523 214.039q1.644.674 3.289 1.345c.365.149.535-.453.164-.595l-3.309-1.272c-.329-.125-.461.393-.144.522z"/><path data-name="Path 3052" d="M149.659 229.992l-3.956-.647c-.466-.076-.667.638-.2.715l3.956.646c.471.076.671-.638.2-.714z"/><path data-name="Path 3053" d="M61.638 68.675c.053-2.322.27-4.608.487-6.919.011-.124-.181-.145-.213-.029a31.62 31.62 0 00-1 6.948c-.02.465.715.468.726 0z"/><path data-name="Path 3054" d="M60.051 69.911a42.052 42.052 0 00-.166-4.449.093.093 0 00-.185 0 42.447 42.447 0 00-.166 4.449.259.259 0 00.517 0z"/><path data-name="Path 3055" d="M57.571 70.898l.016-.988a.266.266 0 00-.532 0c0 .329.01.659.016.988a.251.251 0 00.5 0z"/><path data-name="Path 3056" d="M238.334 183.962c.335-.293-.115-.892-.482-.624a31.69 31.69 0 00-9.76 12.452c-.182.4.4.748.594.347a38.053 38.053 0 019.648-12.175z"/><path data-name="Path 3057" d="M242.396 184.067c.432-.317.034-1.042-.429-.734a38.994 38.994 0 00-11.8 12.83.24.24 0 00.414.242 44.617 44.617 0 0111.815-12.338z"/><path data-name="Path 3058" d="M239.665 188.581c.442-.366-.189-.986-.628-.627a20.394 20.394 0 00-6.041 8.079c-.137.342.424.572.592.251a24.423 24.423 0 016.077-7.703z"/><path data-name="Path 3059" d="M238.892 190.444a23.513 23.513 0 00-4.922 5.893c-.136.252.208.552.412.318 1.682-1.927 3.223-3.865 5.089-5.631.384-.366-.19-.932-.579-.58z"/><path data-name="Path 3060" d="M237.909 194.732a38.663 38.663 0 00-2.967 3.74c-.246.352.328.679.574.335a32.137 32.137 0 012.944-3.524c.349-.363-.215-.923-.551-.551z"/><path data-name="Path 3061" d="M237.529 150.619l-.164.007a.066.066 0 000 .131l.164.008c.096.004.096-.151 0-.146z"/><path data-name="Path 3062" d="M236.433 102.77a36.791 36.791 0 013.568 2.45.238.238 0 10.29-.376 31.191 31.191 0 00-3.672-2.394.186.186 0 00-.186.32z"/><path data-name="Path 3063" d="M234.732 103.383c-.054-.018-.076.057-.036.084a20.5 20.5 0 012.377 1.88c.174.171.444-.1.267-.267a7.561 7.561 0 00-2.608-1.697z"/><path data-name="Path 3064" d="M232.705 103.874c-.3-.136-.573.308-.265.453a12.479 12.479 0 012.155 1.292c.292.219.586-.279.288-.493a12.339 12.339 0 00-2.178-1.252z"/><path data-name="Path 3065" d="M232.732 105.958l-1-.647c-.26-.17-.495.242-.241.413l.984.667c.274.183.532-.256.257-.433z"/><path data-name="Path 3066" d="M228.634 105.795a.085.085 0 000 .17.085.085 0 000-.17z"/><path data-name="Path 3067" d="M249.591 94.123a.081.081 0 00-.082.14 32.383 32.383 0 016.308 5.855c.19.225.594-.081.412-.318a22.131 22.131 0 00-6.638-5.677z"/><path data-name="Path 3068" d="M254.979 96.838c.262.289.68-.136.426-.426a21.931 21.931 0 00-5.369-4.35c-.018-.011-.041.017-.024.03a41.493 41.493 0 014.967 4.746z"/><path data-name="Path 3069" d="M255.061 93.459c.322.288.8-.194.474-.475a27.547 27.547 0 00-4.091-3.041.1.1 0 00-.121.159c1.185 1.169 2.496 2.246 3.738 3.357z"/><path data-name="Path 3070" d="M255.232 90.978c.337.335.87-.2.519-.518a32.291 32.291 0 00-3.766-2.912c-.27-.178-.5.242-.249.426a31.351 31.351 0 013.496 3.004z"/><path data-name="Path 3071" d="M252.95 85.805a.074.074 0 00-.088.116c.945 1.06 2.054 2.042 3.076 3.034a.267.267 0 00.377-.377 16.88 16.88 0 00-3.365-2.773z"/><path data-name="Path 3072" d="M255.351 86.12c.223.384.837.022.593-.347a5.989 5.989 0 00-1.965-1.88c-.3-.176-.55.27-.268.46a5.29 5.29 0 011.64 1.767z"/><path data-name="Path 3073" d="M255.12 83.676a.283.283 0 00.4-.4 8.509 8.509 0 00-1.026-.95.247.247 0 00-.349.349 8.4 8.4 0 00.975 1.001z"/><path data-name="Path 3074" d="M255.324 81.652a.321.321 0 000-.641.321.321 0 000 .641z"/><path data-name="Path 3075" d="M357.035 93.301c.34.313.849-.2.507-.508q-1.637-1.5-3.3-2.966c-.3-.265-.736.164-.442.443q1.61 1.525 3.235 3.031z"/><path data-name="Path 3076" d="M359.749 91.717a.369.369 0 10.285-.678 14.105 14.105 0 00-1.681-.537.244.244 0 00-.188.444 14.229 14.229 0 001.584.771z"/><path data-name="Path 3077" d="M361.763 90.33c.544.34 1.086.679 1.638 1.006a.329.329 0 00.331-.567c-.547-.333-1.1-.652-1.657-.971a.309.309 0 00-.312.532z"/><path data-name="Path 3078" d="M340.271 226.752c-6.067-2.324-12.243-4.8-16.857-9.555-4.811-4.961-7.363-12.077-10.844-17.967-.161-.273-.552-.034-.421.246 1.7 3.614 3.576 7.153 5.422 10.693a31.025 31.025 0 005.707 8.247c4.6 4.469 10.73 7.223 16.756 9.192.551.181.761-.655.237-.856z"/><path data-name="Path 3079" d="M330.093 220.225c.419.269.761-.368.382-.654a50.072 50.072 0 01-12.9-13.932.186.186 0 00-.321.187 37.115 37.115 0 0012.839 14.399z"/><path data-name="Path 3080" d="M326.857 213.954a12.092 12.092 0 01-4.367-5.024.256.256 0 00-.466.2 11.059 11.059 0 004.474 5.441c.383.246.747-.373.359-.617z"/><path data-name="Path 3081" d="M405.347 97.59a4.986 4.986 0 00.424-2.253c-.152-1.894-1.421-2.764-3-3.168a3.236 3.236 0 00-1.394-.246 17.875 17.875 0 00-1.178-.081c-12.442-3.417-25.3-7.351-38.257-7.147-3.689.058-7.753.467-11.919.784-8.682-.012-17.677-.866-24.442-5.474a25.711 25.711 0 01-1.3-8.2c.234-4.688 1.182-9.445.008-14.088-1.093-4.316-3.79-7.965-6.8-11.15a122.586 122.586 0 00-9-8.5 59.258 59.258 0 01-1.095-7.135c-.36-4.1.353-8.065.28-12.122a9.058 9.058 0 00-.4-2.387c-.373-3-1.444-6.367-4.1-4.842a8.662 8.662 0 00-2.715 3.144 132.6 132.6 0 00-10.277 9.095 141.075 141.075 0 00-19.527-12.258 92.291 92.291 0 00-32.029-10.264 1.191 1.191 0 00-.751-.365c-2.416-.242-4.852-.4-7.3-.512a158.229 158.229 0 00-19.569-.223c-23.021 1.095-46.1 5.751-67.4 14.642-5.872 2.452-11.63 5.255-17.284 8.3-1.732.588-3.46 1.187-5.189 1.78C95.79 30.251 71.104 42.43 49.67 56.285c-11.92 7.706-23.623 16.405-33.7 26.441-5.031 5.013-9.532 10.636-12.388 17.186-1.9 4.367-3.8 10.347-3.477 15.611-.012.077-.03.15-.042.226a1.552 1.552 0 00.158.991c.014.106.023.215.039.319-.165 2.46-.254 4.926-.245 7.389.031 7.526.495 15.721 3.571 22.706 3.632 8.248 11.052 12.023 19.236 14.8a38.267 38.267 0 004.075 1.166 16.261 16.261 0 00-5.288 5.418c-2.648 4.807-2.988 10.753-5.24 15.8-1.714 3.839-5.617 7.887-5.985 12.182-.741 8.631 10.562 7.236 15.772 7.243a71.829 71.829 0 0117.961 2.424c3.821.991 7.564 2.925 11.344 1.159 6.256 4.935 13.148 9.285 19.769 13.559a308.385 308.385 0 0027.855 16.2c9.171 4.64 18.8 8.635 28.879 10.784 9.655 2.057 19.561 2.247 29.384 1.722a208.124 208.124 0 0029.454-3.184c9.863-1.963 19.108-5.92 28.334-9.808q3.378-1.423 6.738-2.906c.182.785.367 1.57.57 2.351a142.342 142.342 0 013.318 13.879c.721 4.669.235 8.75-.316 13.418-.422 3.579.789 5.52 3.287 7.961 3.749 3.663 7.865 7.036 11.81 10.486a1.6 1.6 0 001.785.259c1.677-.112 2.052-1.643 2.772-3.017a53.939 53.939 0 016.427-9.513c9.095-10.887 21.089-18.712 31.824-27.814 10.228-8.671 19.339-18.649 23.661-31.424 4.939 12.422 16.629 19.893 28.816 25.115 7.943 3.4 16.184 6.144 23.89 10.085 7.452 3.811 13.614 9.863 21.452 12.868 1.339.513 2.345-1.186 1.752-2.278-8.286-15.286-8-34.284-10.352-51.1a96.852 96.852 0 00-5.914-23.673c-2.354-5.706-5.422-11.047-7.484-16.792a1.9 1.9 0 00.787-.76c3.249-5.543 8.871-8.2 13.772-12.03a31.353 31.353 0 009.7-13.306c2.577-6.2 4.492-12.668 7.038-18.889 1.654-4.042 3.434-8.028 5.287-11.979 1.847-2.732 4.116-5.26 5.24-8.276.042-.113.07-.232.106-.349.109-.123.22-.25.331-.372l-.215-.02a6.651 6.651 0 00.129-.953zm-68.529-8.987l4.786 3.982c.3.253.744-.187.437-.437l-4.193-3.414c1.068.122 2.145.2 3.224.259a45.083 45.083 0 005.125 3.765c.354.217.643-.313.321-.547-1.449-1.051-2.9-2.088-4.319-3.168.8.03 1.589.038 2.381.046a34.561 34.561 0 005.979 4.211.313.313 0 00.315-.541 44.929 44.929 0 01-5.379-3.66c.944 0 1.883-.012 2.809-.039 1.987.032 3.916.017 5.72-.016 3.307-.06 6.62-.181 9.935-.33a71.318 71.318 0 0112.91 1.4c3.379.708 6.739 1.511 10.1 2.33-2.583.327-5.157.748-7.734 1.208a73.652 73.652 0 01-7.687.637c-5.455.167-10.893-.1-16.327-.452-.009-.008-.005-.022-.016-.03a28.538 28.538 0 01-4.7-4.522c-.125-.155-.4.055-.279.215a24.023 24.023 0 004.138 4.281c-5.288-.351-10.574-.763-15.871-.922a54.972 54.972 0 01-4.679-4.784c.98.22 1.987.387 3.003.527zm-4.058-.764a55.348 55.348 0 004.628 5c-.64-.016-1.281-.042-1.922-.048a34.871 34.871 0 01-5.11-5.661c.782.271 1.586.505 2.403.705zm-3.5-1.131a31.62 31.62 0 004.973 6.068q-1.239 0-2.48.027a32.58 32.58 0 01-5.141-7.373c.173.1.355.185.531.279l.182.331c-.024-.091-.052-.184-.076-.276.654.344 1.322.663 2.011.944zm1.285 6.13c-.7.024-1.4.048-2.1.087a46.69 46.69 0 00-.809-3.683 33.549 33.549 0 002.909 3.593zm-17.584-40.1c.3.4.6.794.88 1.2a32.689 32.689 0 014.472 9.04 41.741 41.741 0 011.042 4.952c-2.205-5.033-4.437-10.061-6.393-15.195zm6.129 2.3c1.976 3.686 1.982 7.594 1.7 11.566a39.154 39.154 0 00-1.216-4.792 35.426 35.426 0 00-3.945-7.991 42.692 42.692 0 00-4.236-5.408c-.351-1.03-.691-2.065-1.01-3.107-.032-.1-.06-.2-.091-.3 3.252 2.984 6.69 6.095 8.798 10.029zm-27.526-28.791c.738-.815 1.46-1.644 2.207-2.452-1.237 1.484-2.445 3-3.636 4.543.447-.7.909-1.386 1.407-2.063zm-146.431-7.082a116.615 116.615 0 0118.4-6.525 300.149 300.149 0 0166.572-9.338c16.184 1.257 31.973 5.472 45.529 14.965a1.4 1.4 0 00.677.259c3.227 2.154 6.455 4.308 9.605 6.565.574.412 1.138.841 1.7 1.265q-1.306 1.329-2.589 2.683l-1.89-1.2c-6.488-4.166-12.69-9-19.415-12.759-.39-.218-.841.318-.492.637 5.265 4.794 11.577 8.621 17.528 12.506 1.045.682 2.1 1.346 3.152 2.012q-1.2 1.29-2.375 2.6l-.348-.171c-8.308-4.115-15.709-9.846-22.926-15.616-.075-.06-.185.041-.109.11 6.6 5.964 13.08 11.682 21.034 15.818.505.263 1.014.518 1.526.773q-1.1 1.234-2.186 2.481a68.264 68.264 0 01-11.519-8.771.012.012 0 00-.017.016 50.516 50.516 0 009.941 8.715c.346.229.7.442 1.064.654q-.864 1-1.716 2a83.494 83.494 0 01-5.1-3.709.02.02 0 00-.026.028 31 31 0 004.633 4.258c-2.882 3.395-5.7 6.832-8.491 10.254-5.077 6.23-9.875 12.622-13.384 19.89a78.709 78.709 0 00-3.382 8.282 221.662 221.662 0 00-29.274 4.558 29.787 29.787 0 003.3-5.433c.355-.707-.714-1.329-1.061-.62a31.05 31.05 0 01-2.849 5.059 10.107 10.107 0 01-1.273 1.4c-9.419 2.093-18.779 4.549-28.032 6.93a9.016 9.016 0 001.037-2.44c.135-.529-.7-.752-.812-.224a7.305 7.305 0 01-1.06 2.609c-.077.118-.166.225-.252.335-6.523 1.677-12.994 3.308-19.387 4.738-2.229.5-4.482.961-6.73 1.43 1-1.639 1.943-3.3 2.869-4.99.344-.629-.63-1.195-.961-.561-.991 1.9-1.956 3.8-2.843 5.75-10.169 2.1-20.505 3.973-30.786 6.107a34.885 34.885 0 005.222-4.476c.37-.383-.222-.973-.585-.584a39.828 39.828 0 01-6.347 5.42c-9.064 1.91-18.069 4.051-26.849 6.78 6.106-2.92 12.143-6 18.008-9.379a.492.492 0 00-.5-.847c-6.886 3.7-13.795 7.337-20.867 10.664-2.448 1.151-4.941 2.223-7.441 3.283a130 130 0 00-24.752 12.423 70.053 70.053 0 00-14 12.04c-1.758 1.734-3.437 3.547-5.077 5.393-.167-4.237-3.255-8.059-2.222-12.574a.255.255 0 00-.491-.136c-1.7 4.863 1.849 8.962 1.847 13.7-.526.607-1.073 1.2-1.586 1.815-.606-2.183-1.985-4.037-2.631-6.225-1.534-5.194.2-10.7 3.068-15.082.343-.526-.5-1.015-.841-.491a20.744 20.744 0 00-3.709 12.637 14.467 14.467 0 001.551 5.531 22.262 22.262 0 011.859 4.5c-.649.854-1.2 1.727-1.8 2.452a19.918 19.918 0 01-3.969-12.013c.023-6.052 2.5-11.809 4.936-17.23.277-.616-.635-1.155-.914-.534-2.642 5.865-5.307 12.1-5.073 18.664a18.924 18.924 0 004.565 11.627 3.616 3.616 0 01-1.782 1.084 27.577 27.577 0 01-3.916-7.4c-1.525-5.357-.771-11.1.689-16.376 3.084-11.153 9.134-21.835 15.458-31.45a153.219 153.219 0 0151.577-48.473c11.173-6.465 22.805-12.256 32.813-20.48a54.389 54.389 0 018.891-4.463c8.182-3.172 16.931-4.983 25.457-6.967 18.559-4.317 37.547-7.674 56.676-6.727a113.5 113.5 0 0130.925 5.955c1.178.4 1.635-1.408.507-1.839-17.291-6.6-36.651-7.247-54.867-5.317a258.111 258.111 0 00-28.221 4.776c-8.824 1.939-17.763 3.872-26.381 6.6a60.747 60.747 0 00-10.715 4.459q2.069-2.071 4.205-4.071zm140.882 13.352a37.76 37.76 0 00-1.567 3.585c-.928 1.34-1.829 2.7-2.722 4.053.482-1.492 1-2.962 1.569-4.418.911-1.072 1.804-2.159 2.721-3.221zm-7.6 9.18c.006-.041.011-.1.017-.143 1.092-1.314 2.182-2.63 3.279-3.936a32.313 32.313 0 00-1.733 5.27q-1.17 1.842-2.289 3.7c.052-.355.1-.712.156-1.067.189-1.278.384-2.551.567-3.825zm-4.219 6.686c-.023-.34-.547-.346-.533 0a34.632 34.632 0 01-.259 5.6c-.284.514-.577 1.029-.853 1.54-.6 1.12-1.179 2.25-1.74 3.387a7.854 7.854 0 00-1.049-3.767c0-.007-.02-.009-.02-.009a23.287 23.287 0 00.177 3.944c.016.575 0 1.148-.021 1.72-6.375 13.53-10.051 28.139-13.836 42.6a29.117 29.117 0 00-7.966-6.563.244.244 0 00-.246.42 41.139 41.139 0 017.874 7.429l-.431 1.642a66.114 66.114 0 00-9.37-5.973.139.139 0 00-.14.24c2.513 1.837 4.982 3.759 7.49 5.616q-.869-.076-1.738-.119c-2.966-2.419-6.763-3.781-10.207-5.357a.139.139 0 00-.14.24c2.894 1.952 6.182 3.1 9 5.071a54.917 54.917 0 00-4.236.085 24.963 24.963 0 00-6.785-4.629c-.338-.16-.637.339-.3.507a29.147 29.147 0 016.158 4.18 95.842 95.842 0 00-20.158 4.008c-5.664 1.213-11.254 2.719-16.784 4.452-.2.1-.408.2-.61.3a126.414 126.414 0 01-20.068 5.018c4.275-2.11 8.378-4.549 12.546-6.856a73.865 73.865 0 0114.44-6.495c5.349-1.605 10.9-2.274 16.367-3.36 4.333-.861 9.8-1.727 13.4-4.508 2.829-2.185 4.1-5.873 5.443-9.048 2.584-6.12 4.833-12.379 7.274-18.555 3.83-7.751 9.169-14.441 14.589-21.127q2.977-3.674 5.984-7.293c-.06.379-.121.76-.184 1.136-.275 1.608-.57 3.214-.842 4.824q-1.1 1.864-2.153 3.728a40.021 40.021 0 00-.076-4.029zm-97.548 87.015c.172.124.344.244.516.365.135.176.284.342.423.514-.111.029-.22.06-.331.088-.207-.33-.405-.638-.61-.968zm7.234 10.953a52.6 52.6 0 0014.113 8.055c.582.6 1.171 1.192 1.754 1.791a72.5 72.5 0 01-10.414-4.643.224.224 0 00-.225.388 70.228 70.228 0 0011.718 5.357q1.131 1.16 2.266 2.316c-3.2-1.327-6.447-2.561-9.6-4-.361-.165-.682.364-.315.541a126.942 126.942 0 0011.683 5.253q1.571 1.563 3.248 3.106-3.734-1.631-7.481-3.238c-.367-.159-.692.374-.319.547 3.237 1.485 6.472 2.981 9.728 4.425a92.786 92.786 0 002.91 2.428q-2.573-.921-5.171-1.757c-.385-.124-.544.473-.166.6 2.488.857 4.938 1.793 7.385 2.748a77.25 77.25 0 002.481 1.779 47.333 47.333 0 01-14.332-4.238 68.111 68.111 0 01-11.714-10.479 108.958 108.958 0 01-9.258-13.262l1.012-.171-.016-.018a87.595 87.595 0 003.176 2.307 54.959 54.959 0 008.3 4.787c.475.481.943.966 1.415 1.449a99.6 99.6 0 01-12-6.295c-.14-.084-.309.119-.178.223zm43.648 40.2c.016-.4.032-.8.045-1.2.184-1.552.777-3.535.521-5.044a1.3 1.3 0 00-.076-.2l.363.065c1.213.2 2.443.4 3.682.579a28.037 28.037 0 00-4.537 5.798zm6.079-5.595c.391.049.785.09 1.178.131a34.692 34.692 0 00-7.431 9.7c.026-.608.054-1.215.079-1.824a37.242 37.242 0 016.172-8.009zm-6.007-2.9c-3.7-.63-7.408-1.288-11.017-2.28a95.56 95.56 0 01-2-1 37.348 37.348 0 009.237 1.1 45.66 45.66 0 005.6 2.489q-.909-.15-1.822-.306zm-46.749-36.06c.216.188.438.366.657.55l-.278.043c-.128-.194-.25-.393-.381-.59zm-116.411 28.26c7.867.919 15.473-.319 23.116-2.153 7.853-1.886 15.671-3.933 23.513-5.865 7.871-1.94 15.8-3.8 23.4-6.648 7.352-2.755 14.348-5.826 22.09-7.39 7.422-1.5 14.958-2.426 22.437-3.61 2.41 3.892 4.742 7.966 7.457 11.708-13.657 3.2-27.216 6.552-40.358 11.949-10.224 4.2-20.357 8.683-31.159 11.211a107.148 107.148 0 01-31.222 2.527 106.046 106.046 0 01-18.562-2.882c-4.965-1.226-14.225-2.652-17.066-7.289a14.422 14.422 0 01-1.667-4.641c.016-.418.048-.833.073-1.25a82.719 82.719 0 0017.948 4.333zm-17.865-5.591a48.984 48.984 0 011.066-6.962 13.592 13.592 0 002.4 1.507 46.6 46.6 0 0011.948 3.825 76.373 76.373 0 0024.91.164c18.32-2.572 35.988-9.169 53.618-14.525 11.488-3.489 23.019-6.855 34.63-9.91 1 1.479 1.989 2.919 2.9 4.321-12.556 1.894-25.215 3.422-37.058 8.186-14.76 5.938-30.136 9.417-45.576 13.115-8.809 2.108-17.68 4.762-26.828 4.428-7.55-.279-14.746-2.341-22.01-4.149zm2.323 20.6a17.079 17.079 0 011.365-1.924 17.912 17.912 0 013.737-3.324c.535.182 1.072.353 1.608.516a26.685 26.685 0 00-6.663 6.249 4.079 4.079 0 00-.137.2c.031-.572.063-1.147.09-1.712zm-.168-4.858l.117-.1c.679-.515 1.373-1.014 2.064-1.514.56.255 1.131.5 1.716.724a17.907 17.907 0 00-3.681 3.768 19.056 19.056 0 00-.107-2.08c-.03-.256-.075-.526-.11-.793zm1.216-2.079c-.455.355-.912.709-1.35 1.088q-.159-1.037-.36-2.085a17.172 17.172 0 001.709 1.004zm-1.216 10.265a9.52 9.52 0 01.217-.346 22.736 22.736 0 013.159-3.584 30.741 30.741 0 014.9-3.719c1.08.311 2.139.6 3.131.888a109.967 109.967 0 0018.122 3.584c22.925 2.6 43.721-2.922 64.725-11.649a233.237 233.237 0 0134.8-11.632 642.21 642.21 0 0111.247-2.577c.4.469.8.938 1.225 1.387a69.883 69.883 0 004.1 3.993c-3.63.765-7.252 1.6-10.816 2.57-.318.087-.179.535.134.484 3.863-.621 7.723-1.411 11.557-2.269.468.409.947.813 1.427 1.214-1.823.421-3.647.842-5.452 1.339a.232.232 0 00.124.447c1.87-.476 3.72-1.031 5.569-1.584q1.048.867 2.129 1.708c-1.607.235-3.236.473-4.805.866a.07.07 0 00.019.137c1.774-.071 3.568-.342 5.329-.589a91.334 91.334 0 0023.305 12.832 5.576 5.576 0 01.655.8 10.146 10.146 0 011.239 4.9 130.993 130.993 0 00-.781 35.237c-18.236 9.652-37.5 17.391-58.216 19.224a96.442 96.442 0 01-42.239-5.846 271.561 271.561 0 01-37.4-17.649 317.391 317.391 0 01-36.754-23.775 17.748 17.748 0 01-.651-6.386zm162.8-15.468a91.466 91.466 0 01-3.988-2.368 36.1 36.1 0 0011.848 2.551q1.269.811 2.572 1.555a50.138 50.138 0 01-10.438-1.728zm-24.738-27.707a89.943 89.943 0 01-7.939-6.513c-.2-.315-.406-.649-.607-.969.113-.029.227-.061.342-.09-.193-.3-.4-.585-.583-.886a6.09 6.09 0 01-.3-.551 43.152 43.152 0 0012.758 10.389c.645.627 1.279 1.266 1.917 1.9a56.69 56.69 0 01-5.594-3.274zm-17.185-16.173a49.9 49.9 0 004.5 7.958q-9.781 2.573-19.495 5.392c-17.4 5.062-34.566 11.078-52.114 15.594-9.545 2.457-19.357 4.309-29.251 4.186a61.2 61.2 0 01-14.115-1.762 52.752 52.752 0 01-7.24-2.375 16.533 16.533 0 01-3.873-2.044 38.484 38.484 0 014.981-11.24c4.8-7.321 11.655-13.049 18.982-17.717 14.285-9.106 30.42-14.638 46.762-18.748 16.429-4.132 33.129-6.961 49.677-10.541 16.838-3.642 33.408-8.434 50.24-12.09l-.285.285a.109.109 0 00.154.153l.329-.33a.1.1 0 000-.151c1.327-.287 2.652-.583 3.981-.855a207.643 207.643 0 0126.58-3.758c-.012.037-.026.073-.036.111q-1.2 2.69-2.368 5.4c-1.044 2.425-1.775 5.4-3.3 7.517-2.36 3.284-6.682 4.186-10.411 5.07-5.425 1.289-10.987 1.887-16.418 3.143-9.917 2.294-18.416 7.615-27.283 12.374a75.3 75.3 0 01-15.242 6.227 16.509 16.509 0 00-2.075.717c-1.705.285-3.385.9-4.176 2.519-1.053 2.144.02 3.688 1.496 4.965zM129.182 27.082l.2-.057a1.834 1.834 0 00.9-.536c4.238-2.268 8.512-4.44 12.857-6.433q-1.761 1.728-3.432 3.544a.945.945 0 00-.609.238c-9.832 8.566-21.516 14.438-32.766 20.868a160.112 160.112 0 00-29.507 21.312c-17.051 15.769-31.348 36.105-38.549 58.326-1.743 5.376-2.87 11.177-1.991 16.825a20.765 20.765 0 003.008 8.059c.375.583.781 1.148 1.195 1.709a6.5 6.5 0 01-1-.272c-2.516-.919-4.68-3.073-6.619-5-.042-.128-.088-.247-.128-.379-2.918-9.973 1.893-22.337 5.808-31.362 9.032-20.826 23.652-41.367 41.256-55.751 2.7-2.208 5.485-4.326 8.3-6.412a.391.391 0 00.712.074c.184-.344.38-.681.566-1.023 4.227-3.1 8.527-6.113 12.84-9.089 9.088-4.588 17.953-9.788 26.959-14.641zM38.006 156.211c-.206.238-.417.488-.635.741-.354.188-.7.388-1.051.579a16.994 16.994 0 00.247-2.071c.476.252.959.5 1.439.751zm-2.2-1.165a24.02 24.02 0 01-.49 3.036c-.4.222-.8.435-1.2.66-.162-.106-.326-.207-.49-.311a30.732 30.732 0 00.329-4.069c.431.128.862.259 1.3.383.181.102.37.201.554.301zM81.588 46.302c.945-.442 1.883-.9 2.83-1.336a87.8 87.8 0 00-4.412 8.726 125.77 125.77 0 00-2.739 2.207c1.484-3.121 2.967-6.248 4.323-9.422a.218.218 0 00.001-.175zm15.764-5.133c-1.367.943-2.711 1.9-4.064 2.857q1.277-2.081 2.629-4.116c1.234-.517 2.468-1.038 3.7-1.549zm2.556-2.845a.076.076 0 000-.084q2.238-.923 4.48-1.843-3.116 2.061-6.184 4.176zM91.616 45.2q-2.482 1.764-4.939 3.537 1.733-3.306 3.7-6.468 2.1-.918 4.217-1.809-1.539 2.337-2.975 4.741zm-6.634 4.773c-.784.57-1.574 1.139-2.352 1.713-.385.283-.759.584-1.142.872 1.252-2.645 2.517-5.288 3.713-7.955.564-.259 1.126-.524 1.69-.782.672-.307 1.35-.6 2.024-.9a74.682 74.682 0 00-3.933 7.053zm13.548-13.85c2.537-.879 5.084-1.7 7.641-2.494a362.5 362.5 0 00-8.576 3.83c.314-.445.622-.894.938-1.335zm-1.257.45c-.367.513-.738 1.023-1.1 1.543q-2.234 1.031-4.462 2.063.681-1.039 1.389-2.068 2.082-.792 4.175-1.537zm-86.691 64.562a24.81 24.81 0 015.336-13.04c5.081-5.954 12.347-10.592 18.294-15.238 3.516-2.749 6.639-5.932 9.874-8.989q5.558-3.844 11.323-7.361c3.792-2.3 7.676-4.48 11.618-6.555l2.158-.845a.542.542 0 00.348-.455c7.009-3.58 14.2-6.821 21.476-9.728.295-.118.59-.226.885-.342q-.824 1.115-1.6 2.262l-1.014.469c-7.939 3.657-15.852 7.367-23.662 11.294a107.152 107.152 0 00-11.09 5.968 42 42 0 00-8.047 7.309 80.181 80.181 0 01-7.888 8.248 65.087 65.087 0 01-8.6 5.8c-5.647 3.378-12.416 7.016-15.2 13.345a.321.321 0 00.554.324c3.914-5.594 9.14-9.043 14.923-12.489a61.334 61.334 0 0015.145-12.236 63.907 63.907 0 017.433-7.606c3.265-2.635 7.114-4.442 10.842-6.308q8.649-4.33 17.416-8.425c-1.776 3.417-3.41 6.914-5.059 10.4-.635.538-1.257 1.093-1.882 1.644a239.634 239.634 0 003.1-7.663c.1-.264-.338-.45-.459-.193-1.4 2.978-2.711 6.006-3.984 9.044-.772.7-1.532 1.41-2.288 2.127q1.664-4.856 3.314-9.717c.088-.257-.31-.36-.4-.111q-2.007 5.43-3.992 10.866c-.9.873-1.788 1.763-2.667 2.66a79.823 79.823 0 003.2-10.428.232.232 0 00-.447-.124 108.726 108.726 0 01-3.952 11.547.316.316 0 000 .255c-.452.474-.881.971-1.327 1.45a85.626 85.626 0 00.968-9 .159.159 0 00-.311-.042 75.764 75.764 0 00-1.473 9.919v.008a165.5 165.5 0 00-25.435 37.216c-4.477 8.911-8.907 19.25-9.686 29.48-1.184-.258-2.364-.534-3.55-.776a.2.2 0 00-.107.386c1.191.43 2.4.825 3.591 1.243-.042.74-.066 1.48-.067 2.218a37.184 37.184 0 00-7.467-3.259c-.053-.016-.1.058-.057.1a38.838 38.838 0 007.544 4.665c.032.747.1 1.5.184 2.243-5.27-2.106-10.676-4.812-10.856-11.372a.208.208 0 00-.416 0c-.357 6.712 5.578 11.108 11.5 12.918a21.4 21.4 0 00.8 3.172 67.215 67.215 0 01-7.636-3.359c-6.248-3.722-6.721-11.1-7.326-17.605-.054-.583-.947-.606-.926 0 .194 5.777.926 12.416 5.343 16.636 3 2.864 7.105 3.7 10.861 5.2a15.227 15.227 0 002.227 3.886c.107.135.231.26.352.388a41.5 41.5 0 01-12.467-6.872 22.312 22.312 0 01-6.532-8.714c-1.463-3.728-1.652-7.793-1.88-11.745-.467-7.9-1.642-16.206-.859-24.093zm14.39 57.75c-8.735-2.664-16.317-6.706-19.306-15.839-2.935-8.965-3.265-19.19-2.127-29.144a94.285 94.285 0 016.592-19.008 26.421 26.421 0 00-1.049 4.172c-.718 4.375-.36 8.829-.122 13.228.256 4.769.495 9.54.795 14.307.5 8.022 2.483 15 8.868 20.3 4.331 3.6 9.362 5.641 14.595 7.239-.1 1.29-.246 2.563-.446 3.829a5.76 5.76 0 00-1.8-.478c-.222-.023-.262.285-.106.388.587.387 1.161.765 1.732 1.151-.041.222-.088.443-.131.664-.145.083-.29.165-.434.25a18.947 18.947 0 01-7.065-1.061zm-7.019 30.59a51.429 51.429 0 003.8-8.918c1.372-4.321 1.5-9.352 4.839-12.757.041-.042.084-.082.125-.122-.083.213-.178.419-.243.647-1.028 3.541-.595 7.408-1.586 11.014-1.2 4.362-3.7 7.3-6.779 10.47q-.681.7-1.307 1.438a19.328 19.328 0 001.148-1.774zm2.776 10.894c-2.743-1.927-2.263-6.208.012-8.793.238-.271-.155-.662-.4-.395-1.69 1.823-2.839 4.345-2.063 6.849a5.216 5.216 0 001.46 2.318 7.661 7.661 0 01-1.679-.271 4.509 4.509 0 01-.743-3.549c.1-.461-.614-.642-.712-.18a4.388 4.388 0 00.7 3.47 4.2 4.2 0 01-1.325-.85c-.279-.76-.621-1.612-.867-2.471 0-.043.011-.087.014-.13 1-3.022 3.253-5.265 5.448-7.639a21.507 21.507 0 004.743-7.554 35.138 35.138 0 001.688-9.24c.158-2.2.361-3.968 1.635-5.784a11.081 11.081 0 013.326-1.63 12.653 12.653 0 00-3.208 9.134.356.356 0 00.711-.016 14.814 14.814 0 014.35-9.5 9.672 9.672 0 011.743-.051 14.32 14.32 0 00-4.427 6.089c-1.01 2.694-.93 5.562-1.466 8.353-.62 3.224-2.355 5.785-4.394 8.287-2.348 2.879-6.619 6.694-4.892 10.82a6.163 6.163 0 002.2 2.713c-.624.012-1.241.015-1.858.017zm20.7 1.191a78.647 78.647 0 00-9.761-1.213c-2.206-.152-4.387-.112-6.57-.055-3.078-1.114-5.4-3.144-3.457-7.073 1.821-3.68 5.31-6.361 7.308-9.967 1.937-3.495 1.7-7.216 2.6-10.992a13.485 13.485 0 015.5-7.951 7.615 7.615 0 012.168.885 8.681 8.681 0 012.637 2.687c1.634 5.182 3.32 10.35 3.426 15.863.079 4.113-.891 8.261.385 12.276.054.171.125.332.187.5a35.491 35.491 0 00-.1 1.6 8.976 8.976 0 001.274 5.021c-1.932-.573-3.834-1.235-5.605-1.583zm7.1 2a8.24 8.24 0 01-1.048-1.588 7.933 7.933 0 01-.7-3.439 21.446 21.446 0 004.58 5.424c.067.059.137.115.2.173a19.477 19.477 0 01-3.037-.569zm172.848 27.879c-8.4 3.618-16.88 7.391-25.717 9.823-8.862 2.44-18.07 3.218-27.2 3.94-9.475.75-19.051 1.214-28.511.057a99.564 99.564 0 01-29.792-9.057c-17.117-7.969-33.331-18.337-48.609-29.382-3.995-2.887-9.191-5.94-11.584-10.459-.018-.032-.029-.066-.046-.1 21.045 16.324 44.074 30.195 68.82 40.164 13.625 5.489 27.723 8.549 42.458 7.9 14.149-.626 28.039-4.125 41.19-9.274a214.568 214.568 0 0021.848-10.146c.23 1.635.493 3.266.8 4.887-1.215.557-2.426 1.116-3.663 1.649zm21.175 44.316q-2.885-2.526-5.766-5.054a20.6 20.6 0 005.873 2.487c-.044.727-.104 1.622-.113 2.569zm-4.409-5.43a30.422 30.422 0 01-4.34-2.67 6.237 6.237 0 01-.379-.624.349.349 0 00-.148-.292l-.011-.028a24.81 24.81 0 008.264 4.047.467.467 0 00.248-.9 63.963 63.963 0 01-8.89-4.3 6.619 6.619 0 01-.093-.6 17.7 17.7 0 005.627 3.257.43.43 0 00.33-.783 51 51 0 01-6.009-3.551 12.438 12.438 0 01.169-1.783c.18-1.1.35-2.176.464-3.277 1.464.535 2.919 1.082 4.38 1.655.413.163.688-.508.3-.713a19.412 19.412 0 00-4.6-1.687c.031-.438.049-.875.061-1.313.725.349 1.493.633 2.222.948a.3.3 0 10.233-.55c-.8-.279-1.62-.611-2.447-.848.1-7.185-2.13-14.231-3.906-21.12-3.681-14.288-2.995-28.127-2.348-42.345a39.06 39.06 0 018.973-11.639 23.449 23.449 0 0010.129-1.143c.122-.021.242-.036.364-.059a69.46 69.46 0 00-1.431 7.49c-.9 4.117-1.71 8.279-2.449 12.45a170.816 170.816 0 00-3.342 23.269c-.969 13.54 1.958 26.672 2.9 40a27.449 27.449 0 00-3.394-.429c-.313-.018-.39.495-.076.554 1.183.219 2.355.459 3.526.714.019.3.043.594.06.891a52.29 52.29 0 00-5.879-1.607.348.348 0 00-.184.671c2.064.632 4.1 1.3 6.127 2.028.1 2.012.137 4.03.1 6.055a28.04 28.04 0 01-4.557-1.766zm160.96-169.848c-.841 1.325-1.7 2.637-2.506 3.976-.043.066-.1.131-.139.2-4.4 6.9-6.967 14.794-9.807 22.414-2.94 7.887-6.268 16.051-12.482 21.956a27.685 27.685 0 01-4.857 2.913c-1.8.841-3.708 1.545-5.544 2.371a46.861 46.861 0 01-8.373 1c-.489.013-.957.617-.617 1.073a65.892 65.892 0 014.174 6.578c1.619 5.939 4.492 11.351 7.122 17.021a98.027 98.027 0 017.439 25.86c2.489 15.4 3.678 30.395 8.352 45.141l-.023-.029a.489.489 0 00-.084-.147c-.088-.106-.184-.2-.274-.308-.489-.585-1-1.154-1.5-1.721-2.1-4.666-3-9.8-3.855-14.9-.112-.673-1.124-.383-1.02.281a57.958 57.958 0 003.265 13.341 58.809 58.809 0 00-11.385-6.852c-6.368-3.137-12.839-6.106-19.3-9.042-.3-.136-.562.294-.261.447 11.013 5.571 22.614 10.155 32.179 18.028a23.975 23.975 0 001.52 2.437c-.343-.2-.681-.416-1.026-.614-4.365-2.9-8.474-6.213-13.1-8.719-6.513-3.527-13.482-6.108-20.335-8.876-10.557-4.262-22.079-9.772-29.623-18.644-1.967-4.331-4.044-8.613-6.036-12.932a31.54 31.54 0 01-.715 2.9 25.579 25.579 0 01-2.65 5.771v.014c-10.171 26.056-40.76 37.918-56.925 59.958.337-.671.68-1.332 1.049-1.962a79.622 79.622 0 0121.97-24.419c.669-.5.04-1.632-.667-1.14a75.411 75.411 0 00-16.785 16 73.877 73.877 0 00-6.228 9.482 38.694 38.694 0 00-3.613 7.824c.371-3.185 1.661-6.363 2.147-9.48a61.324 61.324 0 00.5-11.92c-.341-8.565-1.633-17.082-.732-25.657.059-.555-.8-.544-.865 0-1.034 8.868.3 17.7.581 26.571a54.8 54.8 0 01-.979 13.411 51.616 51.616 0 00-1.5 7.318c-.336-1.462.189-4.174.211-4.977a95.364 95.364 0 00-.723-13.271c-.994-8.846-2.563-17.606-2.653-26.532-.179-17.589 4.525-34.209 7.6-51.3.062-1.755.14-3.508.2-5.258a1.618 1.618 0 00-1.019-.049c-18.17 4.639-33.047-7.714-44.867-19.915-2.47-2.549-4.924-5.1-7.422-7.6a95.774 95.774 0 00-9.574-10.478q-3.159-2.964-6.554-5.664c-1.89-1.507-7.12-5.087-4.662-7.329.219.007.367.014.412.018a36.724 36.724 0 005.411-.02 55.144 55.144 0 009.37-1.615c4.48-1.136 8.848-2.664 13.222-4.17 2.407-.636 4.807-1.3 7.2-2.035 3.5-1.072 6.966-2.146 10.428-3.138 4.4-1.042 8.836-1.936 13.3-2.64 4.213-.662 8.436-1.109 12.678-1.526.684-.068 1.362-.123 2.033-.185a55.67 55.67 0 019.158 1.08 1.791 1.791 0 002-2.6 12.894 12.894 0 01-1.194-7.181c4.152-15.265 8.024-30.6 15.5-44.675a191.671 191.671 0 0113.3-21.123c4.8-6.746 10.258-13.134 14.663-20.15 1.992 2.7.622 10 .648 12.345a60.872 60.872 0 00.853 9.189 96.132 96.132 0 005.752 19.7c2.206 5.569 4.7 11.019 7.057 16.521a.364.364 0 00.005.1 18.294 18.294 0 002.3 5.615c.046.122.086.246.131.368a.367.367 0 00-.068.472c.163.26.335.508.506.755 1.805 5.01 3.345 10.068 5.009 15.179a1.662 1.662 0 00.086.188c.171 1.555.287 3.111.338 4.656a.719.719 0 001.214.5 18.687 18.687 0 015.064-3.937c13.59-.266 27.168 1.729 40.761.848a71.168 71.168 0 009.869-1.315l.969-.07c4.633-.332 9.673-1.342 14.313-.807.239.028.56.036.906.057.575.133 1.147.274 1.721.4a1.192 1.192 0 01.578.759c.085.41-2.159 3.306-2.527 3.888z"/><path data-name="Path 3082" d="M307.137 205.697a32.322 32.322 0 01-6.7 11.69c-.247.273.162.68.405.4a28.7 28.7 0 006.437-12.056.073.073 0 00-.142-.034z"/><path data-name="Path 3083" d="M254.928 168.092l-5.474 17.5c-.033.1.13.149.164.046l5.729-17.428c.086-.268-.336-.388-.419-.118z"/><path data-name="Path 3084" d="M256.735 165.808a115.483 115.483 0 01-4.289 19.04c-.143.462.572.654.723.2a86.654 86.654 0 003.983-19.182c.022-.238-.385-.296-.417-.058z"/><path data-name="Path 3085" d="M258.87 171.715c-.59 2.393-1.31 4.794-1.755 7.217-.088.483.615.694.744.206.633-2.386 1.006-4.87 1.495-7.291.063-.315-.407-.449-.484-.132z"/><path data-name="Path 3086" d="M261.606 174.472c.137-.656.241-1.313.341-1.974.044-.3-.406-.435-.463-.128a36.756 36.756 0 00-.326 2.042c-.031.254.396.309.448.06z"/><path data-name="Path 3087" d="M265.688 117a44.365 44.365 0 01-1.188-23.28.109.109 0 00-.209-.057 41.181 41.181 0 00.661 23.541c.151.464.889.265.736-.204z"/><path data-name="Path 3088" d="M268.286 116.919a15.681 15.681 0 01-1.516-9.03c.036-.263-.355-.387-.409-.113a14.472 14.472 0 001.272 9.525c.229.436.855.053.653-.382z"/><path data-name="Path 3089" d="M268.972 116.192a.383.383 0 00.737-.2l-1.037-3.612a.333.333 0 00-.641.177q.472 1.816.941 3.635z"/><path data-name="Path 3090" d="M275.631 126.808c.219.429.872.049.646-.378q-2.57-4.888-5.16-9.767c-.173-.326-.659-.039-.494.288q2.494 4.935 5.008 9.857z"/><path data-name="Path 3091" d="M324.915 107.876c-.2-13.666-9.341-25.054-11.346-38.349-.039-.26-.492-.2-.462.063 1.491 13.346 10.154 24.752 10.681 38.286a.564.564 0 001.127 0z"/><path data-name="Path 3092" d="M321.579 108.186a39.639 39.639 0 00-4.236-16.945c-.173-.349-.66-.042-.513.3a49.979 49.979 0 013.815 16.644.467.467 0 00.934.001z"/><path data-name="Path 3093" d="M319.791 110.159a20.493 20.493 0 00-1.38-6.684c-.117-.3-.6-.179-.492.135a19.918 19.918 0 011.088 6.549.392.392 0 00.784 0z"/><path data-name="Path 3094" d="M317.766 109.504a24.04 24.04 0 01-.965 6.506.317.317 0 00.611.169 18.549 18.549 0 001.012-6.674.329.329 0 00-.658-.001z"/><path data-name="Path 3095" d="M400.228 97.377c-5.083-.192-10.61 1.077-15.6 1.974q-8.371 1.5-16.583 3.745a.584.584 0 00.311 1.125 182.215 182.215 0 0116.58-3.749c2.766-.488 5.543-.906 8.328-1.273 1.456-.193 3.015-.287 4.494-.6-6.52 5.687-10.726 13.087-14.5 20.825-3.89 7.976-7.752 16.378-15.13 21.749-.552.4-.026 1.33.542.927 6.989-4.958 10.942-12.544 14.627-20.061 4.338-8.849 9.034-17.1 16.328-23.9a.448.448 0 00.11-.158c.2-.084.393-.167.583-.267a.183.183 0 00-.09-.337z"/><path data-name="Path 3096" d="M344.781 102.372a94.222 94.222 0 0011.863-.289c.24-.021.247-.388 0-.379-3.955.137-7.911.088-11.863-.088-.487-.023-.487.736 0 .756z"/><path data-name="Path 3097" d="M333.562 101.316c1.815.518 3.689.871 5.536 1.248.392.079.554-.527.165-.6-1.879-.329-3.773-.687-5.671-.873-.128-.007-.148.193-.03.225z"/><path data-name="Path 3098" d="M374.114 129.469c.29-.442-.417-.85-.707-.413-3.325 5-9.018 12.062-15.447 12.6a.193.193 0 000 .385c3.39.133 6.186-2.045 8.676-4.113a38.054 38.054 0 007.478-8.459z"/><path data-name="Path 3099" d="M369.014 130.769a62.511 62.511 0 01-8.289 7.052c-.426.3-.006 1.01.41.7a57.287 57.287 0 008.186-7.446c.184-.206-.109-.506-.307-.306z"/><path data-name="Path 3100" d="M343.157 150.554a.1.1 0 00-.1.167c9.964 6.946 14.156 18.382 18.445 29.217.235.593 1.19.358.975-.269-3.79-11.104-8.658-22.985-19.32-29.115z"/><path data-name="Path 3101" d="M362.667 192.096a100.625 100.625 0 00-13.843-31.44c-.185-.279-.631-.025-.454.265a121.368 121.368 0 0113.485 31.4.421.421 0 00.812-.225z"/><path data-name="Path 3102" d="M362.292 184.707c1.757 7.533 3.193 15.144 4.476 22.771.083.491.82.281.744-.2a223.958 223.958 0 00-4.833-22.672.2.2 0 00-.387.101z"/><path data-name="Path 3103" d="M371.029 220.815q-.629-3.468-1.267-6.933c-.071-.385-.663-.223-.588.163.444 2.3.9 4.606 1.356 6.908.065.325.558.187.499-.138z"/><path data-name="Path 3104" d="M328.172 149.84c.182.17.458-.108.274-.273q-3.667-3.251-7.326-6.513c-.082-.072-.2.046-.12.12q3.598 3.323 7.172 6.666z"/><path data-name="Path 3105" d="M328.787 147.703c.35.256.678-.324.338-.581-2.554-1.923-5.113-3.879-7.757-5.679-.258-.176-.584.237-.337.436 2.514 2.024 5.149 3.921 7.756 5.824z"/><path data-name="Path 3106" d="M321.29 122.051a87.156 87.156 0 009.727 17.59c.215.3.718.011.5-.293a100.344 100.344 0 01-10.031-17.38c-.048-.11-.243-.03-.196.083z"/><path data-name="Path 3107" d="M272.613 139.95c-1.708 2.92-3.353 5.877-5 8.834a65.773 65.773 0 00-4.307 8.147c-.033.087.1.169.162.094a66.052 66.052 0 004.754-7.884c1.687-2.932 3.371-5.867 4.993-8.837a.351.351 0 00-.602-.354z"/><path data-name="Path 3108" d="M273.897 143.61a11.4 11.4 0 001.335-5.11c.01-.373-.562-.371-.579 0a10.675 10.675 0 01-1.343 4.768c-.213.383.384.728.587.342z"/><path data-name="Path 3109" d="M242.276 130.047a.124.124 0 00.065-.239 33.14 33.14 0 01-6.564-2.611c-.146-.076-.275.143-.129.221a33.461 33.461 0 006.628 2.629z"/><path data-name="Path 3110" d="M279.509 155.996c8.1 2.375 14.347 7.957 20.549 13.413.208.183.514-.118.306-.306-6.142-5.54-12.684-11.036-20.8-13.316a.108.108 0 00-.055.209z"/><path data-name="Path 3111" d="M302.1 165.489c.327.233.644-.31.315-.54a91.777 91.777 0 00-9.207-5.635c-.228-.123-.429.219-.2.347a106 106 0 019.092 5.828z"/><path data-name="Path 3112" d="M283.214 120.409a68.52 68.52 0 006.526-17.079c.1-.406-.524-.578-.625-.172a93.542 93.542 0 01-6.088 17.142c-.059.123.118.233.187.109z"/><path data-name="Path 3113" d="M284.573 109.528a100.873 100.873 0 017.409-20.968c.159-.331-.342-.62-.494-.288a110.738 110.738 0 00-7.072 21.212c-.023.1.134.147.157.044z"/><path data-name="Path 3114" d="M285.957 94.39q2-6.089 4.005-12.177c.083-.25-.314-.36-.394-.109q-1.953 6.1-3.9 12.207c-.062.184.229.262.289.079z"/><path data-name="Path 3115" d="M286.49 84.797q2.543-6.568 5.033-13.158c.076-.2-.247-.288-.319-.088q-2.422 6.6-4.8 13.222c-.024.055.059.08.086.024z"/><path data-name="Path 3116" d="M287.852 74.27c1.364-3.282 2.731-6.562 4.078-9.85.079-.193-.236-.279-.312-.087-1.3 3.3-2.574 6.606-3.855 9.911-.022.057.067.079.089.026z"/><path data-name="Path 3117" d="M288.431 66.829l.087-.1c.043-.053-.027-.126-.077-.076a2.751 2.751 0 01.356-1.678q.271-.652.543-1.3a73.03 73.03 0 013.196-6.474c.118-.213-.208-.4-.326-.19a59.12 59.12 0 00-3 6.218c-.335.825-1.673 2.807-.867 3.6a.061.061 0 00.088 0z"/><path data-name="Path 3118" d="M302.677 101.227c-.037-.081-.156-.011-.119.07a119.156 119.156 0 006.818 12.909c.114.185.409.014.294-.172a124.173 124.173 0 01-6.993-12.807z"/><path data-name="Path 3119" d="M303.983 101.559c-.029-.053-.107-.006-.079.046a93.766 93.766 0 006.4 10.333c.132.185.443 0 .307-.18a88.936 88.936 0 01-6.628-10.199z"/><path data-name="Path 3120" d="M299.607 86.129a90.808 90.808 0 016.108 12.226c.09.218.449.122.358-.1a80.059 80.059 0 00-6.359-12.188c-.041-.069-.147-.007-.107.062z"/><path data-name="Path 3121" d="M299.286 88.104c1.149 2.337 2.293 4.679 3.462 7.007.081.16.321.019.239-.14-1.185-2.317-2.4-4.62-3.6-6.926-.039-.066-.133-.007-.101.059z"/><path data-name="Path 3122" d="M288.166 111.077c-.951 3.81-2.127 7.556-3.453 11.252-.044.126.167.218.219.093a80.489 80.489 0 003.77-11.2.278.278 0 00-.536-.145z"/><path data-name="Path 3123" d="M296.782 73.996a95.164 95.164 0 007.041 13.818.2.2 0 00.347-.2 130.334 130.334 0 01-7.176-13.7c-.052-.127-.262-.04-.212.082z"/><path data-name="Path 3124" d="M296.972 68.413a61.7 61.7 0 004.146 11.538c.127.262.5.034.386-.225a82.761 82.761 0 01-4.167-11.413.19.19 0 00-.365.1z"/><path data-name="Path 3125" d="M299.069 70.572l-1.667-3.284c-.046-.088-.177-.011-.134.078q.815 1.653 1.628 3.307c.057.115.232.013.173-.101z"/><path data-name="Path 3126" d="M294.812 59.872a118.772 118.772 0 014.744 11.2c.144.411.8.235.655-.181a55.421 55.421 0 00-5.193-11.14.12.12 0 00-.206.121z"/><path data-name="Path 3127" d="M297.451 60.201c.148.27.57.025.413-.241-1.014-1.738-1.993-3.513-3.091-5.2a.103.103 0 00-.181.1c.881 1.819 1.897 3.574 2.859 5.341z"/><path data-name="Path 3128" d="M294.041 46.86a.039.039 0 000 .077.039.039 0 000-.077z"/><path data-name="Path 3129" d="M275.411 182.988a84.261 84.261 0 00-1.789-15.819c0-.025-.049-.02-.045.006a129.435 129.435 0 011.116 15.813.359.359 0 00.718 0z"/><path data-name="Path 3130" d="M271.719 173.09a102.572 102.572 0 011.039 14.18.159.159 0 00.317 0 85.965 85.965 0 00-1.312-14.192c-.006-.033-.049-.02-.044.012z"/><path data-name="Path 3131" d="M269.963 189.245q-.029 7.764-.809 15.487c-.023.22.33.222.348 0q.637-7.733.508-15.487a.024.024 0 00-.047 0z"/><path data-name="Path 3132" d="M266.641 206.378a128.028 128.028 0 00-.377-15.163c-.012-.166-.269-.17-.262 0 .206 5.057.125 10.105.021 15.163a.309.309 0 00.618 0z"/><path data-name="Path 3133" d="M263.577 198.47c.239 4.941.449 9.9.847 14.827.031.4.647.406.625 0-.27-4.946-.727-9.892-1.155-14.827-.017-.2-.327-.206-.317 0z"/><path data-name="Path 3134" d="M261.909 207.051c.027 4.28.3 8.571.56 12.843.021.336.546.338.526 0-.264-4.281-.526-8.582-1.024-12.843-.005-.042-.062-.045-.062 0z"/><path data-name="Path 3135" d="M259.067 216.595c.313 5.38.526 10.754.477 16.145a.228.228 0 00.456 0 150.833 150.833 0 00-.841-16.145c-.005-.059-.096-.062-.092 0z"/><path data-name="Path 3136" d="M257.223 230.107a78.247 78.247 0 00.02 15.163c.008.071.114.077.115 0 .074-5.076 0-10.1.435-15.163.032-.365-.54-.365-.57 0z"/><path data-name="Path 3137" d="M268.495 233.877a51.571 51.571 0 00-7.388 10.874.105.105 0 00.181.106c2.518-3.561 4.839-7.182 7.649-10.538.256-.306-.184-.752-.442-.442z"/><path data-name="Path 3138" d="M275.132 223.062c-3.533 3.635-7.3 6.967-11.131 10.282-.043.037.015.113.061.079a100.585 100.585 0 0011.333-10.1c.166-.173-.095-.437-.263-.261z"/><path data-name="Path 3139" d="M284.387 210.233c-4.726 4.8-9.658 9.5-14.109 14.56a.054.054 0 00.076.076c4.986-4.531 9.6-9.539 14.329-14.34.187-.192-.108-.487-.296-.296z"/><path data-name="Path 3140" d="M286.61 204.552a69.069 69.069 0 01-10 8.786c-.051.037 0 .123.051.087a61.52 61.52 0 0010.273-8.55c.203-.211-.123-.536-.324-.323z"/><path data-name="Path 3141" d="M293.271 194.737c-3.427 3.382-6.984 6.638-10.5 9.923-.033.03.016.079.049.049 3.547-3.259 7.068-6.561 10.7-9.721.173-.149-.085-.413-.249-.251z"/><path data-name="Path 3142" d="M294.332 188.877l-7.9 8.573c-.04.043.025.11.065.065l7.915-8.561c.044-.052-.033-.128-.08-.077z"/><path data-name="Path 3143" d="M300.927 181.633l-4.619 3.949c-.053.046.024.122.076.077l4.607-3.96c.05-.04-.019-.105-.064-.066z"/><path data-name="Path 3144" d="M325.476 183.418a51.3 51.3 0 00-13.569-7.251c-.085-.03-.12.1-.037.135a50.9 50.9 0 0113.32 7.486.235.235 0 10.286-.37z"/><path data-name="Path 3145" d="M324.162 185.386c-2.712-1.608-5.3-3.525-8.084-4.991-.064-.033-.138.052-.08.1a56.49 56.49 0 007.883 5.367c.305.192.59-.294.281-.476z"/><path data-name="Path 3146" d="M340.395 196.446a186.154 186.154 0 00-18.56-10.018c-.351-.169-.66.347-.308.527 6.265 3.208 12.348 6.708 18.49 10.138a.375.375 0 00.378-.647z"/><path data-name="Path 3147" d="M342.077 201.838c.1.085.239-.056.142-.142a36.709 36.709 0 00-5.306-3.947c-.081-.049-.154.076-.075.127a40.638 40.638 0 015.239 3.962z"/><path data-name="Path 3148" d="M339.466 204.153a58.631 58.631 0 0112.124 10.252c.174.194.453-.089.284-.283a47.726 47.726 0 00-12.338-10.089.07.07 0 00-.07.12z"/><path data-name="Path 3149" d="M346.734 213.679a.066.066 0 00-.066.113c5.111 3.708 10.2 7.154 15 11.3.286.248.7-.155.42-.42a61.837 61.837 0 00-15.354-10.993z"/><path data-name="Path 3150" d="M361.165 216.086c-.671-3.22-.917-6.464-1.29-9.722-.048-.414-.664-.44-.665 0a46.165 46.165 0 002.246 13.377c.225.738 1.424 6.277 2.772 5.49.058-.035.019-.141-.047-.113-.894.368-2.843-8.199-3.016-9.032z"/><path data-name="Path 3151" d="M354.082 196.567a81.512 81.512 0 004.45 17.09c.022.059.118.035.1-.027a97.785 97.785 0 01-4-17.213c-.056-.357-.603-.208-.55.15z"/><path data-name="Path 3152" d="M346.853 178.437c1.52 5.936 3.085 11.86 4.653 17.782a.236.236 0 00.454-.125 2274.246 2274.246 0 00-4.572-17.8.278.278 0 00-.535.143z"/><path data-name="Path 3153" d="M341.452 171.131c.768 3.406 1.507 6.819 2.254 10.229.025.117.206.068.178-.049-.791-3.4-1.59-6.8-2.358-10.2-.011-.049-.085-.028-.074.02z"/><path data-name="Path 3154" d="M339.693 174.787l.666 1.645c.07.172.353.1.283-.078l-.651-1.65c-.073-.183-.373-.101-.298.083z"/><path data-name="Path 3155" d="M337.909 168.381c-1.482-4.484-2.922-9-4.574-13.427a.131.131 0 00-.252.07c1.25 4.549 2.725 9.048 4.148 13.543.136.432.82.245.678-.186z"/><path data-name="Path 3156" d="M339.621 142.305a72.942 72.942 0 015.475-9.369c.053-.078-.075-.153-.128-.074a73.127 73.127 0 00-5.4 9.413c-.018.034.036.065.053.03z"/><path data-name="Path 3157" d="M348.861 130.251c.1-.14-.133-.277-.234-.136a118.528 118.528 0 00-5.636 8.677.027.027 0 00.047.027 131.268 131.268 0 015.823-8.568z"/><path data-name="Path 3158" d="M355.268 126.58a41.341 41.341 0 00-6.839 8.608.212.212 0 00.366.214 42.9 42.9 0 016.816-8.479c.226-.218-.118-.561-.343-.343z"/><path data-name="Path 3159" d="M364.188 121.17c.173-.156-.087-.418-.257-.256a62.037 62.037 0 00-7.818 9c-.018.024.023.047.04.023a65.406 65.406 0 018.035-8.767z"/><path data-name="Path 3160" d="M370.05 117.14q-2.535 2.442-5.017 4.939c-.949.958-2.142 1.962-1.823 3.431.036.165.285.123.289-.039.035-1.852 2.249-3.307 3.464-4.493q1.752-1.711 3.486-3.439a.282.282 0 00-.399-.399z"/><path data-name="Path 3161" d="M371.076 120.382l3.961-4.434c.1-.108-.065-.268-.158-.159l-3.859 4.539c-.031.042.022.092.056.054z"/><path data-name="Path 3162" d="M377.369 115.332c-.03.046.043.088.074.043l1.482-2.224c.03-.046-.043-.088-.073-.044z"/><path data-name="Path 3163" d="M340.085 122.713c.221.028.221-.319 0-.347a39.251 39.251 0 01-8.838-2.234c-.089-.034-.154.116-.066.155a31.71 31.71 0 008.904 2.426z"/><path data-name="Path 3164" d="M343.797 120.585a45.35 45.35 0 01-8.9-2.046c-.065-.022-.112.083-.048.113a26.682 26.682 0 008.943 2.311c.251.021.242-.351.005-.378z"/><path data-name="Path 3165" d="M349.975 119.544c.288.015.287-.432 0-.448a29.75 29.75 0 01-6.622-1.177c-.065-.018-.113.084-.048.113a19.334 19.334 0 006.67 1.512z"/><path data-name="Path 3166" d="M349.973 116.911c-.182-.006-.231.3-.043.326 1.813.275 3.654.43 5.479.6.312.029.308-.456 0-.487-1.803-.179-3.623-.37-5.436-.439z"/><path data-name="Path 3167" d="M358.122 115.735c2.481-.184 4.956-.538 7.425-.836.331-.041.333-.567 0-.525-2.49.311-5 .565-7.474.989-.21.034-.162.386.049.372z"/><path data-name="Path 3168" d="M379.54 109.508a24.247 24.247 0 01-5.594 1.912c-.045.01-.025.074.019.066a23.408 23.408 0 005.739-1.7c.188-.078.025-.366-.164-.278z"/><path data-name="Path 3169" d="M202.273 138.25c-.089-.076-.22.051-.13.131 3.081 2.764 6.115 5.594 9.254 8.291.277.239.683-.16.4-.4-3.113-2.739-6.348-5.352-9.524-8.022z"/><path data-name="Path 3170" d="M207.659 141.246c-.06-.036-.112.056-.054.093 4.956 3.211 10.005 6.3 15.243 9.032.229.119.429-.219.2-.347-5.135-2.913-10.305-5.767-15.389-8.778z"/><path data-name="Path 3171" d="M229.475 151.517a139.939 139.939 0 01-12.172-7.311c-.049-.034-.113.046-.065.084a70.456 70.456 0 0011.972 7.68c.3.155.566-.298.265-.453z"/><path data-name="Path 3172" d="M229.702 149.012c-.049-.019-.081.06-.035.084 3.637 1.92 7.474 3.545 11.241 5.2.188.082.354-.191.164-.281-3.741-1.736-7.512-3.54-11.37-5.003z"/><path data-name="Path 3173" d="M247.799 153.166a104.715 104.715 0 00-10.944-5.211c-.354-.144-.508.43-.159.573a117.122 117.122 0 0110.834 5.1c.307.159.575-.3.269-.462z"/><path data-name="Path 3174" d="M251.739 151.223q-1.472-.881-2.957-1.744a.232.232 0 00-.234.4q1.479.871 2.969 1.724a.22.22 0 00.222-.38z"/><path data-name="Path 3175" d="M219.422 127.71c-7.038 1.51-13.368 5.1-20.744 4.779-.06 0-.076.1-.014.106 7.193 1.037 14.066-2.772 20.915-4.318.369-.085.211-.646-.157-.567z"/><path data-name="Path 3176" d="M211.382 134.05q6.571-1.763 13.087-3.728c.308-.092.177-.578-.134-.483q-6.514 1.974-12.977 4.122a.046.046 0 00.024.089z"/><path data-name="Path 3177" d="M226.689 133.516c3.219-.8 6.44-1.6 9.641-2.464a.182.182 0 00-.1-.35c-3.218.806-6.417 1.683-9.616 2.553a.136.136 0 00.075.261z"/><path data-name="Path 3178" d="M255.312 130.587c.117-.011.122-.19 0-.185a26.419 26.419 0 00-8.875 2.023c-.031.012-.018.064.014.052a35.6 35.6 0 018.861-1.89z"/><path data-name="Path 3179" d="M251.918 133.346a35.085 35.085 0 017.357-1.692c.328-.041.34-.56 0-.525a29.861 29.861 0 00-7.474 1.793c-.262.098-.152.519.117.424z"/><path data-name="Path 3180" d="M268.537 133.34c.313-.135.043-.62-.273-.466a8.7 8.7 0 01-3.808.806.023.023 0 00-.006.045 6.087 6.087 0 004.087-.385z"/><path data-name="Path 3181" d="M294.617 143.22a.189.189 0 000-.378.189.189 0 000 .378z"/></g></svg>