<svg xmlns="http://www.w3.org/2000/svg" width="529.501" height="561.177"><g data-name="Group 3075" opacity=".5" fill="#bfa871"><path data-name="Path 2926" d="M264.902 276.884a.606.606 0 00.539 1.084 18.015 18.015 0 0111.625-1.397c.16.043.248-.195.086-.247-4.301-1.386-8.082-1.485-12.25.56z"/><path data-name="Path 2927" d="M254.78 290.862a15.092 15.092 0 016.33-9.184c.164-.102.037-.375-.138-.279a13.238 13.238 0 00-6.998 9.29c-.08.464.688.628.807.173z"/><path data-name="Path 2928" d="M255.392 292.561a9.711 9.711 0 00-1.035 4.777c.013.343.532.4.546.04a10.237 10.237 0 011.188-4.467.392.392 0 10-.699-.35z"/><path data-name="Path 2929" d="M322.304 226.684c1.044 6.418-6.725 10.606-5.127 16.928a.229.229 0 00.451-.026c.281-6.167 6.382-10.746 5.292-17.022a.314.314 0 00-.616.12z"/><path data-name="Path 2930" d="M318.594 224.089a.404.404 0 10.806-.047 5.651 5.651 0 00-2.44-4.224c-.167-.116-.396.13-.241.271a5.736 5.736 0 011.875 4z"/><path data-name="Path 2931" d="M365.826 251.654a.617.617 0 001.104-.548c-3.619-8.465-8.976-16.236-17.9-19.551-.277-.105-.397.296-.147.42 8.18 4.05 13.094 11.694 16.943 19.679z"/><path data-name="Path 2932" d="M379.751 286.546c-.057.578.828.642.9.067a31.979 31.979 0 00-2.204-16.666c-2.399-5.64-5.94-10.764-8.476-16.354a.2.2 0 00-.365.124c1 5.17 4.278 9.151 6.63 13.743a33.972 33.972 0 013.515 19.086z"/><path data-name="Path 2933" d="M378.025 290.984c.453 3.302.842 6.629 1.184 9.947.036.328.54.228.505-.098a87.123 87.123 0 00-1.622-9.862.035.035 0 00-.067.013z"/><path data-name="Path 2934" d="M357.451 286.747c.053-1.558-1.235-2.93-1.946-4.197a27.888 27.888 0 01-2.495-5.542.204.204 0 00-.401.078 20.407 20.407 0 001.114 4.623 16.751 16.751 0 001.038 2.073c.027.047 2.814 4.698.271 3.828-.797-.273-1.171.88-.426 1.216a2.108 2.108 0 002.845-2.08z"/><path data-name="Path 2935" d="M329.305 331.66c-3.38 1.828-6.326-2.508-9.389-3.37a.394.394 0 00-.263.744c3.118 1.458 6.346 6.237 10.223 3.782.687-.436.175-1.56-.571-1.156z"/><path data-name="Path 2936" d="M285.264 342.277c-11.833-4.194-18.742-13.573-25.968-23.25-.01-.014-.036.008-.027.02 6.293 9.76 14.032 20.576 25.696 24.09a.456.456 0 00.3-.86z"/><path data-name="Path 2937" d="M305.904 348.97a18.6 18.6 0 01-4.674-.947c-.02-.007-.032.024-.01.032a20.548 20.548 0 004.659 1.243c.21.033.238-.317.025-.328z"/><path data-name="Path 2938" d="M248.237 336.407c.157.397.743.1.594-.293-3.646-9.6-12.772-15.344-22.408-17.639a.126.126 0 00-.083.237c8.962 3.852 18.094 8.028 21.897 17.695z"/><path data-name="Path 2939" d="M255.874 374.124c-.258.804.99 1.24 1.238.432 3.088-10 2.463-22.637-4.405-31.047a.057.057 0 00-.09.06c4.46 10.016 6.695 19.795 3.257 30.555z"/><path data-name="Path 2940" d="M176.2 311.554c-9.578-1.494-14.635 6.498-21.93 11.03-6.436 3.996-13.779 6.925-16.893 14.378-.175.416.474.631.656.23 3.408-7.477 11.163-10.368 17.708-14.418a57.159 57.159 0 006.99-5.49 20.273 20.273 0 0113.435-5.297.217.217 0 00.034-.433z"/><path data-name="Path 2941" d="M132.054 362.363c-.583-6.272 1.109-12.588 3.458-18.373l-.01-.003c-2.922 5.928-5.254 11.754-3.825 18.45a.194.194 0 00.377-.074z"/><path data-name="Path 2942" d="M158.487 374.123c-2.622 2.532-3.55-2.5-3.574-3.636-.016-.608.014-1.215-.014-1.826a23.519 23.519 0 00-.865-5.139c-.094-.342-.628-.248-.548.106a34.07 34.07 0 01.704 6.803 6.457 6.457 0 00.741 3.524 2.616 2.616 0 003.992.664c.307-.296-.127-.791-.436-.496z"/><path data-name="Path 2943" d="M230.852 389.16a21.4 21.4 0 00-2.531 6.685c-.766 3.642-2.377 9.668-7.512 8.235-.862-.24-1.335 1.074-.464 1.324 3.029.857 5.818-.652 7.394-3.282 2.358-3.936 1.192-8.905 3.236-12.88.043-.083-.075-.166-.123-.081z"/><path data-name="Path 2944" d="M150.02 406.015c-4.979-1.801-6.035-8.162-8.544-12.253-2.543-4.143-5.513-7.878-7.07-12.55-.04-.123-.239-.09-.197.037 1.6 5.482 5.054 10.004 7.475 15.109 2.003 4.223 3.063 9.116 7.907 10.891a.656.656 0 00.43-1.234z"/><path data-name="Path 2945" d="M207.12 334.836a11.679 11.679 0 00-4.164-3.969c-2.196-1.006-4.426-.992-6.246-2.816-.19-.189-.504.077-.317.28a9.853 9.853 0 004.307 2.77 10.966 10.966 0 015.56 4.495c.433.597 1.304-.165.86-.76z"/><path data-name="Path 2946" d="M438.033 220.845c-.498-23.358-15.31-48.548-35.687-59.783-14.22-7.84-35.36-10.54-50.798-2.903-.316.023-.635.036-.951.054a15.335 15.335 0 01-10.591.607 24.157 24.157 0 01-6.557-2.928q-.428-.355-.838-.703a52.065 52.065 0 00-4.286-3.241c-.422-.39-.84-.782-1.249-1.184-7.998-5.243-16.683-8.757-26.74-9.353-11.292-.67-25.387.801-36.556 4.83a8.841 8.841 0 01-3.978-1.852 334.75 334.75 0 00-27.993-53.182c-1.091-9.136-2.64-20.393-9.1-27.423-1.8-2.892-3.885-5.605-5.303-7.851-2.718-4.308-5.834-14.341-12.167-10.476-10.258 6.26-1.484 13.508.038 21.54.751 3.959.986 8.123 2.488 11.375a3.63 3.63 0 00.51 1.376l.094-.042a14.552 14.552 0 00.892 7.322c1.38 3.196 4.266 5.46 7.744 5.25 5.81 16.466 10.708 33.416 9.34 51.067a157.167 157.167 0 01-2.548 17.951c-8.61-10.374-26.115-13.235-38.365-10.029-16.682 4.364-32.65 13.152-43.562 26.723-10.144 12.617-15.266 28.608-13.134 44.738.932 7.052 2.685 17.12 6.717 25.123a23.92 23.92 0 00-7.12-1.855c-7.025-2.302-16.096-1.75-22.712-2.112a47.435 47.435 0 00-28.054 7.037c-16.76 10.458-25.843 29.483-27.73 48.7-2.092 21.313 6.826 38.564 19.433 54.615 1.416 4.435.647 10.378-1.088 14.844a51.736 51.736 0 00-5.596 15.19 60.135 60.135 0 003.668 34.803c8.766 21.217 30.865 35.678 53.491 29.156a39.834 39.834 0 00-.337 4.555c-.198 18.509 7.161 38.938 19.571 52.7 12.287 13.622 28.818 19.393 46.935 18.815 16.134-.513 35.076-4.095 42.177-20.108 12.634 11.02 29.98 17.559 46.074 18.98 39.102 3.452 76.14-27.467 71.498-66.33.294.355.595.704.866 1.079 22.037 30.61 83.074 25.81 99.078 5.113 12.537-16.211 23.174-35.538 24.205-56.282 1.008-20.353-7.838-39.88-22.96-53.383-1.454-1.297-3.052-2.541-4.717-3.758-.175-.614-.359-1.231-.53-1.848 6.037-1.487 15.463-5.979 15.543-5.94 21.32-10.576 35.628-37.626 33.935-60.768-2.219-30.204-24.417-54.821-53.05-60.209zm-81.914-59.542a49.522 49.522 0 0116.467-3.252 55.07 55.07 0 0130.035 8.234c19.623 12.317 26.537 32.228 29.866 53.759a64.386 64.386 0 00-9.405-.236c-13.772.67-31.625 6.225-41.888 17.269.236-.698.468-1.403.714-2.09a.502.502 0 00-.947-.333c-.527 1.528-1.094 3.065-1.662 4.61a30.806 30.806 0 00-3.533 5.61l-.01-.019q1.558-5.478 3.589-10.802c.208-.543-.651-.844-.85-.298q-1.849 5.083-3.263 10.29c-.355-.557-.738-1.079-1.103-1.63.87-3.553 1.863-7.068 2.877-10.59.18-.647-.776-.99-.991-.346-1.067 3.2-1.93 6.461-2.69 9.747-.541-.788-1.099-1.559-1.653-2.327.52-2.477 1.154-4.91 1.81-7.375a.5.5 0 00-.935-.327 34.626 34.626 0 00-1.774 6.469 85.516 85.516 0 00-1.68-2.156c.17-1.026.341-2.052.495-3.08.115-.762-1.051-.832-1.183-.091-.113.649-.213 1.298-.321 1.95a59.627 59.627 0 00-2.48-2.718c.097-.647.197-1.295.275-1.947.07-.575-.766-.603-.875-.067-.079.388-.142.781-.215 1.17a70.529 70.529 0 00-12.678-10.046c6.287-8.057 5.77-20.25 4.514-29.885a41.243 41.243 0 00-1.429-6.608c.309-4.705 2.063-9.202 3.956-13.636.341-.8-.928-1.234-1.27-.444a41.21 41.21 0 00-3.554 11.555 45.159 45.159 0 00-1.516-3.556 38 38 0 013.282-16.565.441.441 0 00.025-.239zm-39.95 217.082c-1.155 1.447-2.516 2.832-3.559 4.374a44.432 44.432 0 00-2.852-1.514A116.446 116.446 0 00324 365.913c.395-.514-.396-1.224-.86-.755a217.427 217.427 0 00-14.082 15.748 48.949 48.949 0 00-2.967-1.257c4.687-4.406 9.132-9.13 13.552-13.799.498-.527-.237-1.385-.753-.856-4.561 4.668-9.17 9.364-13.449 14.294-.032.037-.023.077-.033.117-.658-.24-1.311-.493-1.982-.707 2.379-2.258 4.694-4.58 7.116-6.798a.445.445 0 00-.586-.669 50.691 50.691 0 00-7.224 7.245 58.82 58.82 0 00-2.276-.647 60.345 60.345 0 001.8-1.91c.551-.602-.296-1.572-.842-.956-.742.828-1.51 1.664-2.186 2.549q-1.293-.308-2.604-.562a9.612 9.612 0 011.28-1.316c.46-.38-.184-1.111-.61-.696a9.084 9.084 0 00-1.44 1.857q-1.434-.259-2.878-.459l.291-.283q.805-.767 1.574-1.578c.628-.658-.307-1.735-.942-1.071a60.6 60.6 0 00-1.593 1.76 9.539 9.539 0 00-.801.977 78.246 78.246 0 00-2.96-.303c1.307-1.134 2.55-2.341 3.797-3.525.5-.474-.219-1.29-.708-.805-1.398 1.393-2.835 2.771-4.144 4.252q-1.87-.125-3.722-.172l-.11-.002c1.247-1.159 2.478-2.331 3.711-3.493.588-.554-.243-1.503-.828-.944-1.514 1.453-3.05 2.901-4.535 4.395-1.659-.044-3.605-.082-5.635-.008.935-.734 1.786-1.597 2.652-2.398 1.382-1.276 2.774-2.55 4.13-3.86.672-.65-.265-1.737-.963-1.097-1.39 1.273-2.747 2.58-4.109 3.885a23.418 23.418 0 00-3.398 3.562 34.7 34.7 0 00-3.945.484c.871-.756 1.673-1.533 2.296-2.047 2.739-2.251 5.353-4.651 7.877-7.14.588-.58-.263-1.556-.852-.968a168.397 168.397 0 01-6.415 6.12c-1.693 1.525-4.107 3.044-5.792 4.793a12.789 12.789 0 00-2.643 1.213c.018-.112.029-.224.046-.337 4.024-4.398 8.04-8.805 12.003-13.26.604-.678-.318-1.767-.95-1.08-3.606 3.93-7.169 7.899-10.725 11.875.096-.825.175-1.65.242-2.478 4.294-5.482 8.6-10.982 12.64-16.643.476-.667-.538-1.321-1.04-.702-3.945 4.865-7.705 9.9-11.438 14.94.082-1.49.126-2.978.15-4.473 3.456-4.162 6.75-8.49 10.11-12.712.59-.74-.621-1.536-1.21-.817-3.014 3.693-6.063 7.45-8.895 11.329 0-.896-.023-1.783-.036-2.675a77.506 77.506 0 009.118-11.229c.434-.652-.514-1.261-.994-.67a377.055 377.055 0 00-8.147 10.39 366.252 366.252 0 00-.162-5.335c2.248-2.585 4.387-5.267 6.568-7.898a.491.491 0 00.08-.152 71.881 71.881 0 008.299 4.937c15.51 7.783 32.992 8.997 50.023 7.39a68.784 68.784 0 00-10.315 14.406.751.751 0 00-.349.226c-1.448 1.671-2.68 3.543-4.059 5.27zm1.744.14c-.189.456-.393.909-.57 1.373a44.815 44.815 0 00-1.564 4.9c-.741-.54-1.524-1.023-2.3-1.502a29.078 29.078 0 003.383-3.555c.346-.395.702-.803 1.052-1.212zm-52.337-28.634a24.853 24.853 0 012.762-3.083c.58-.535-.257-1.478-.807-.918a20.329 20.329 0 00-2.124 2.561 60.963 60.963 0 00-.573-3.51c.933-.793 1.78-1.721 2.643-2.58q2.06 1.69 4.244 3.232a.544.544 0 00-.124.103c-1.914 2.423-3.878 4.83-5.76 7.284a64.207 64.207 0 00-.26-3.084zm-2.39-11.328a71.793 71.793 0 003.4 3.054c-.643.762-1.326 1.522-1.949 2.314a46.7 46.7 0 00-1.45-5.368zM284.1 348.72a68.763 68.763 0 01-34.173-35.4c-6.615-16.074-8.782-36.152 2.415-50.59 6.062-7.815 13.172-14.581 20.25-21.356a127.31 127.31 0 0020.924 34.039c-2.606-.512-5.219-.915-7.543.636-.631.418-.411 1.55.46 1.358 2.323-.512 5.023.618 7.342 1.018a57.817 57.817 0 007.475.825c3.708.15 7.842-.099 10.857-2.518 2.908-2.332 3.757-5.969 3.798-9.541.029-2.399-.313-4.808-.075-7.202.331-3.325 1.963-5.99 3.656-8.781.955-1.575-1.373-3.172-2.383-1.608-2.15 3.333-3.978 6.735-4.224 10.765-.015.242-.02.49-.025.738-11.638-9.317-20.823-19.817-26.653-33.455.278-.308.562-.607.84-.92a87.152 87.152 0 0137.015-10.499c16.454-.985 34.682 11.475 44.091 24.33 19.293 26.356 27.783 66.826 6.569 94.355a79.038 79.038 0 00-40.432 20.155c-17.025 1.19-34.416 1.038-50.183-6.348zm-51.233-61.305q3.929-5.42 7.761-10.91c-.05.33-.097.661-.15.992a53.527 53.527 0 00-.85 11.807 57.653 57.653 0 001.759 10.572.6.6 0 00-.528.374 272.754 272.754 0 00-4.417 10.924 94.995 94.995 0 00-3.03-1.285 122.6 122.6 0 005.704-12.416c.268-.67-.782-1.032-1.055-.37-1.733 4.191-3.545 8.354-5.26 12.55-.882-.346-1.76-.668-2.65-.994 1.72-3.38 3.077-7 4.54-10.482.322-.763-.905-1.194-1.217-.424-1.413 3.48-3.008 6.996-4.167 10.59-.672-.24-1.35-.457-2.025-.687a17.48 17.48 0 011.808-4.105c.437-.718-.664-1.451-1.079-.728a17.158 17.158 0 00-1.777 4.48c-.356-.116-.708-.248-1.065-.36-.485-.156-.979-.32-1.473-.482a7.954 7.954 0 01.84-1.83c.407-.626-.589-1.282-.955-.642a7.57 7.57 0 00-.81 2.167 81.894 81.894 0 00-2.693-.851c.348-.577.652-1.184.959-1.786a.5.5 0 10-.89-.447c-.307.665-.62 1.324-.87 2.012a17.929 17.929 0 00-7.578-.73 5.439 5.439 0 01-2.412-.59 4.969 4.969 0 01-2.06-2.257c.066-16.284 3.576-32.737 6.481-48.572q5.016-27.347 12.036-54.269a77.084 77.084 0 00-.527 8.558c-.067 15.279 2.207 40.348 16.608 50.102a15.992 15.992 0 00-4.333 2.036c-5.49 3.594-10.691 6.79-16.49 9.884a.61.61 0 00.222 1.145 19.628 19.628 0 002.134.033 40.812 40.812 0 00-1.846 5.131.36.36 0 00.679.238c.77-1.8 1.53-3.613 2.269-5.432a20.987 20.987 0 002.872-.489c-1.907 3.245-3.63 6.608-5.228 10.011-.177.377.464.703.656.329 1.879-3.649 3.93-7.182 6.017-10.713a27.963 27.963 0 003.704-1.423c.047-.021.092-.052.146-.075q-4.31 7.14-8.614 14.28c-.215.356.317.72.54.364l9.668-15.488c1.805-1.044 3.641-2.324 5.546-3.29a.375.375 0 01.017.038c-.168.33-.346.644-.527.957a.53.53 0 00-.417.237c-4.199 5.924-8.28 12.014-12.219 18.115-.26.4.315.772.605.408a179.976 179.976 0 0012.55-17.891.536.536 0 00.017-.562l.319-.487a20.747 20.747 0 01.912 4.63c-2.044 2.46-3.87 5.133-5.78 7.693-1.706 2.293-3.812 4.553-4.858 7.24-.199.51.59.78.795.28 1.176-2.862 3.647-5.345 5.517-7.78 1.47-1.915 3.017-3.793 4.439-5.752l.003.172c-.016 1.038-.1 2.07-.213 3.097a.533.533 0 00-.223.185 651.016 651.016 0 00-8.42 12.583.35.35 0 00.583.386zm11.03 20.267c.41 1.06.832 2.11 1.283 3.128a76.284 76.284 0 001.607 4.074c.461 1.069.95 2.122 1.46 3.163-.403-.308-.792-.621-1.211-.921a54.615 54.615 0 00-5.581-3.488q1.228-2.974 2.44-5.96zm-3.232 5.54a67.316 67.316 0 00-3.226-1.586q2.27-5.127 4.334-10.357a72.034 72.034 0 001.607 5.019 62.072 62.072 0 00-2.716 6.922zm-9.97-205.899a288.693 288.693 0 0118.85 43.031 14.02 14.02 0 01-1.885 5.503 51.058 51.058 0 01-4.207 4.811c-.158.168-.302.35-.458.52a46.72 46.72 0 00-11.025 15.08c2.916-10.43 5.365-20.973 5.254-31.838-.12-12.587-2.808-25.039-6.53-37.11zm21.276 50.283a319.7 319.7 0 018.697 33.393c3.147 15.46 4.79 31.133 10.21 46.038-2.231 2.193-4.406 4.422-6.543 6.596-4.122 4.2-8.513 8.582-12.379 13.285a2.591 2.591 0 00-.647-.358c-10.95-4.12-15.501-10.814-18.45-21.996-2.662-10.094-4.288-20.56-3.789-31.02.898-18.96 9.244-33.492 22.901-45.942zm102.83 4.199a31.174 31.174 0 00-3.168 13.975c-.184-.336-.388-.66-.58-.99a26.91 26.91 0 01.492-10.763.616.616 0 00-.331-.709 80.762 80.762 0 013.588-1.516zm-4.4 1.874a23.82 23.82 0 00-.756 8.799c-.496-.767-1.034-1.508-1.57-2.25a36.73 36.73 0 01.547-5.687c.593-.282 1.185-.593 1.78-.863zm-2.983 1.446a28.761 28.761 0 00-.292 3.8 58.776 58.776 0 00-2.117-2.632c.805-.412 1.608-.777 2.41-1.169zm-79.682-15.017a27.252 27.252 0 001.887-.33 1.019 1.019 0 00.469-.246c5.787-.627 11.999-2.592 16.64-3.084 13.123-1.392 25.704.013 36.927 7.44 10.17 6.729 20.345 15.337 25.722 26.512 4.754 9.88 7.021 29.026-1.304 37.96-7.737-4.08-16.192-6.549-24.25-6.072-12.333.731-28.866 3.299-38.956 12.045-.132-.354-.272-.696-.4-1.051-6.4-17.917-9.438-36.93-15.58-55-1.478-4.35-3.084-8.679-4.744-12.996a6.363 6.363 0 013.59-5.178zM207.643 49.502c-1.618 1.507-2.714 4.582-3.223 6.592-.908-4.202.424-7.391 3.223-6.592zm5.287 35.03a20.63 20.63 0 01-.362-8.679c.296-1.868.828-3.774 1.018-5.679a11.528 11.528 0 00.92-1.918c.33-.922-.995-1.328-1.4-.49-1.067 2.209-2.54 4.003-3.502 5.956a24.538 24.538 0 01-.913-4.734c-.383-3.97-1.623-6.014-3.092-9.417a11.639 11.639 0 01.73-3.777c.383-1.019 2.01-4.937 3.445-5.085l.01-.002a12.456 12.456 0 01.99.899 25.32 25.32 0 013.495 5.29 4.581 4.581 0 00-4.402-.111c-1.24.59-.308 2.387.94 1.888 2.57-1.025 6.024 2.655 8.118 5.17.608.911 1.204 1.86 1.753 2.827-.992 4.75-4.842 8.91-6.474 13.492a25.425 25.425 0 00-1.274 4.37zm2.882 2.172c-2.139-2.476 4.402-13.84 5.025-15.088a13.7 13.7 0 00.994-2.55 18.41 18.41 0 01.996 3.881c.199 1.62-.106 3.155.016 4.772a11.24 11.24 0 00.891 3.152c0 .101.004.213.007.321-2.301-1.158-4.817.835-6.324 2.758a9.228 9.228 0 00-1.61 2.755zm13.64 50.36c.2-17.213-5.364-33.696-11.142-49.733a13.63 13.63 0 01.84-1.247c.728-.972 2.46-3.33 3.812-2.296a1.146 1.146 0 00.487.22c8.119 13.962 17.263 27.301 24.59 41.759a285.469 285.469 0 0121.544 55.006c3.595 13.461 5.443 27.713 9.966 40.97 9.18 25.06 20.434 35.796 32.757 43.893a2.117 2.117 0 00.726.306c.104 3.096-.12 6.19-2.436 8.285-2.813 2.55-7.383 2.454-11.297 2.05a1.989 1.989 0 00-.482-.994 133.167 133.167 0 01-23.036-36.975l.014-.014a38.728 38.728 0 01-2.84-7.471c-5.257-15.685-7.016-32.314-10.781-48.383-7.406-31.6-20.133-60.86-36.188-88.976-.75-1.308-3.165-.722-2.677.907 5.487 18.384 11.983 36.877 10.62 56.381-1.289 18.428-8.605 36.646-13.014 54.5q-6.477 26.232-11.127 52.866c-2.916 16.7-7.424 35.009-3.934 51.925.954 2.863 1.813 5.76 2.726 8.638a1.051 1.051 0 00.688-1.318c-.55-2.115-1.012-4.72.162-6.727a14.65 14.65 0 011.213-1.748c4.562-1.958 13.5 2.286 17.581 3.789a75.18 75.18 0 0117.288 8.68c12.417 8.714 15.987 20.246 16.409 34.871.325 11.284.583 23.65-4.83 33.909-5.601 10.618-16.335 19.53-25.464 27.087-11.233 9.297-24.68 16.977-39.679 16.867-12.081-.09-23.275-5.28-32.933-12.199-9.64-6.906-20.26-16.082-25.278-27.074-5.301-11.602-6.826-27.518-5.71-40.079 1.387-15.619 8.864-28.78 22.905-36.134 5.93-3.108 11.982-6.006 17.978-8.984 6.736-3.346 14.118-6.8 21.563-4.414-.123.805-.222 1.61-.332 2.414-.183.353-.372.707-.531 1.071a21.964 21.964 0 00-1.369 4.583c-1.852-2.025-3.983-3.43-7.116-2.763-.294.057-.366.534-.044.613 7.254 1.801 8.607 11.224 16.213 12.897 3.134.689 6.044-.095 8.882-1.435 3.724-1.76 6.921-3.125 10.664-3.455a24.418 24.418 0 014.748-1.144.633.633 0 00-.491-.43 18.634 18.634 0 00-10.249.595c-4.655 1.647-8.776 5.313-14.03 3.616-2.91-.94-4.83-3.747-6.813-6.354a1.2 1.2 0 00.11-.28c.046-.24.088-.484.132-.724 7.473-19.461 10.503-41.35 15.24-61.627q7.087-30.345 13.98-60.739c4.04-17.926 9.769-36.475 9.986-54.981zm-39.934 158.985c-.303 1.146-.662 2.274-.997 3.41a19.653 19.653 0 01-2.25-.221 42.56 42.56 0 003.156-9.23c.181-.72-.916-1.1-1.086-.382-.755 3.186-1.835 6.33-2.528 9.533a11.541 11.541 0 01-1.996-.582c1.337-4.078 2.976-8.277 3.658-12.474.099-.603-.78-.716-.995-.21-1.63 3.838-2.476 8.224-3.501 12.321a17.446 17.446 0 01-2.158-1.142.4.4 0 00.033-.057c1.41-4.387 2.95-8.771 4.17-13.219a28.169 28.169 0 0010.039-.757c-1.341 5.478-2.59 10.978-3.612 16.484-.604-.01-1.192-.017-1.778-.028.388-.997.742-2.012 1.077-3.017.262-.8-1.02-1.23-1.233-.428zm-9.338-.044c-.29-.53-.569-1.058-.835-1.554a28.67 28.67 0 00-.414-1.66c.912-3.17 1.813-6.345 2.643-9.534.73.156 1.464.277 2.2.388-1.34 4.064-2.434 8.236-3.595 12.36zm-1.84-5.118a35.161 35.161 0 00-1.738-4.145 430.895 430.895 0 001.586-4.374q1.098.352 2.205.628a339.836 339.836 0 00-2.054 7.892zm-2.268-5.162a47.379 47.379 0 00-3.599-5.702 41.556 41.556 0 004.779 2.015c-.395 1.227-.797 2.454-1.18 3.686zm-43.345-65.01a54.288 54.288 0 0112.043-39.455c9.366-11.669 22.725-19.706 36.877-24.218 7.108-2.266 14.236-3.87 21.595-1.736 6.49 1.885 14.7 5.048 19.303 10.164a1.615 1.615 0 00.328.275c-2.546 11.825-5.904 23.569-8.568 35.182q-6.488 28.257-12.933 56.527c-1.512 6.693-3.276 13.461-4.992 20.266a2.683 2.683 0 00-.843.14c-11.42 3.943-22.503-1.14-31.66-7.876-.978-.721-1.925-1.487-2.88-2.234a142.644 142.644 0 00-4.633-3.926 91.966 91.966 0 00-12.289-11.024 32.952 32.952 0 01-6.886-12 95.893 95.893 0 01-4.462-20.086zM53.79 301.303c1.692-18.163 9.84-36.558 25.632-46.648 8.27-5.286 17.356-7.309 27.102-7.114 6.274.128 13.584-.02 20.156 1.232 4.27 2.1 8.722 3.778 12.818 6.385 4.665 2.965 8.685 6.666 12.915 10.157a2.057 2.057 0 00.532.692c12.18 10.376 20.568 20.594 23.52 36.293-6.843 2.043-13.618 6.38-19.412 9.225-12.82 6.297-23.386 12.807-28.968 26.597-4.393 10.851-4.748 22.692-3.363 34.24-9.335 2.319-18.916 1.454-28.164-1.055-9.795-2.657-16.328-8.313-22.71-15.968-13.052-15.653-22.004-33.14-20.058-54.036zM69.222 414.03a55.535 55.535 0 01-2.157-28.818 46.159 46.159 0 014.049-11.768c.474-.646.944-1.27 1.37-1.86 1.913-2.648 3.813-4.732 6.856-6.052.02-.004.027-.021.043-.03a40.229 40.229 0 0016.07 8.959 71.768 71.768 0 0014.6 2.733 31.22 31.22 0 0113.24 11.373c.326.506 1.171.119.857-.425a25.484 25.484 0 00-12.09-10.838 47.527 47.527 0 0013.163-1.286 153.88 153.88 0 001.246 7.093 55.715 55.715 0 0011.762 24.947 2.073 2.073 0 00-.162.948 9.6 9.6 0 01-1.736 6.271 74.013 74.013 0 00-10.16 14.41 54.334 54.334 0 00-5.477 13.423.422.422 0 00-.074.019c-22.697 8.3-44.15-8.03-51.4-29.103zm109.659 105.82a52.612 52.612 0 01-40.062-21.552c-9.672-12.898-15.883-31.504-14.777-47.694a42.6 42.6 0 013.762-14.431c3.106-4.288 7.17-7.635 12.913-7.754.643-.013.74-.997.079-1.013a14.217 14.217 0 00-11.275 5.188 79.124 79.124 0 013.158-5.437c2.104-3.325 4.85-6.535 7.147-9.923a9.1 9.1 0 001.223-1.369 10.383 10.383 0 00.972-1.754 6.888 6.888 0 011.135-.567l.01-.002a105.387 105.387 0 005.607 5.293c10.029 8.783 21.891 16.323 35.151 18.896a48.931 48.931 0 0023.219-1.308 127.392 127.392 0 01.19 20.37 1.606 1.606 0 00.176.818c.404 12.937 4.026 25.954 10.954 35.96a55.8 55.8 0 006.14 7.338c-6.352 17.708-29.541 19.8-45.728 18.933zm148.67-20.083c-13.843 14.682-34.366 21.18-54.217 19.137-19.23-1.978-40.365-11.611-51.602-27.84-11.97-17.293-9.749-36.962-8.782-56.665a71.4 71.4 0 0012.272-6.505 128.983 128.983 0 0020.167-17.074c5.039-5.055 10.567-10.102 14.236-16.302a42.584 42.584 0 004.578-11.432c16.605-5.908 35.636-2.975 50.454 6.53.056.033.113.054.167.084-.44 17.768 10.844 38.427 17.176 48.1 2.716 4.147 5.5 8.258 8.427 12.264.58 1.619 1.153 3.24 1.732 4.85a55.148 55.148 0 01-14.61 44.844zm137.369-92.254c-1.085 17.967-9.727 35.02-20.776 48.905-6.915 8.686-15.006 12.697-25.754 16.757-10.648 4.027-51.496 6.139-73.547-25.401-1.32-1.889-2.578-3.83-3.851-5.771a148.948 148.948 0 01-12.35-17.77c-3.487-5.88-7.853-22.138-8.329-23.872-.975-5.016-1.36-10.947.061-15.694 7.348-24.561 31.832-41.255 56.29-45.093.342.092 17.312-1.242 25.53-.335 14.44 2.706 28.553 7.12 40.068 17.053 14.789 12.755 23.843 31.523 22.655 51.213zm14.166-93.256c-12.24 25.034-40.307 28.864-47.092 29.127-12.418-6.167-29.151-10.037-51.982-9.241a57.684 57.684 0 002.448-4.118 7.208 7.208 0 002.104 3.244.374.374 0 10.492-.56 6.555 6.555 0 01-2.17-3.525c.489-.934.982-1.863 1.424-2.815a15.949 15.949 0 003.017 5.885c.326.4.918-.126.601-.524a19.08 19.08 0 01-3.262-6.106q.72-1.6 1.35-3.231a26.9 26.9 0 004.577 9.284c.408.524 1.165-.152.771-.677a31.952 31.952 0 01-4.997-9.573 66.67 66.67 0 001.975-6.285c.667 5.465 2.285 10.71 6.303 14.82a.639.639 0 00.957-.842c-4.042-4.837-5.719-10.722-6.592-16.796 4.459-20.63-.143-43.652-10.353-62.463a2.336 2.336 0 00.148-.335c6.558-19.815 35.554-26.537 53.783-24.759 1.531.15 3.043.374 4.545.634-4.234-.05-8.53 1.185-13.088 3.073-.398.166-.174.855.243.73a61.269 61.269 0 0110.311-2.507c5.145-.593 9.223 1.091 13.43 3.915 6.708 4.503 13.074 10.167 14.98 18.342a.525.525 0 001.03-.2c-1.783-8.706-8.556-14.924-15.658-19.702a23.859 23.859 0 00-2.455-1.438 58.483 58.483 0 0133.788 28.848c9.355 18.176 8.416 39.28-.636 57.786z"/><path data-name="Path 2947" d="M129.96 273.753a15.112 15.112 0 003.878 7.503 11.691 11.691 0 006.905 2.816 129.993 129.993 0 0013.465.648.965.965 0 00.148-1.923c-4.293-.339-8.631-.214-12.917-.634-4.997-.491-7.952-3.172-9.497-7.866-1.562-4.744-1.188-13.216-8.088-13.144-.26.002-.4.422-.101.487 5.448 1.188 5.132 7.833 6.206 12.113z"/><path data-name="Path 2948" d="M145.376 280.745c.506.034.706-.748.188-.895-3.912-1.092-7.775-3.03-9.505-6.94a7.46 7.46 0 01-.734-3.358c.173-1.42 2.644-3.554 4.042-3.415 1.282.13 2.24 1.041 3.636 1.048a.8.8 0 00.124-1.593c-2.442-.424-4.822-2.714-7.326-1.196-1.914 1.16-2.365 3.708-2.224 5.749.43 6.198 5.94 10.222 11.799 10.6z"/><path data-name="Path 2949" d="M151.76 277.676a.778.778 0 00.118-1.551c-1.786-.366-2.565-2.15-3.452-3.546a42.45 42.45 0 00-2.774-3.908c-.32-.398-.9.042-.713.479a35.747 35.747 0 003.305 6.17c.836 1.226 1.939 2.359 3.515 2.356z"/><path data-name="Path 2950" d="M170.05 298.702c.32.974 1.9.709 1.601-.311-1.823-6.236-4.268-11.687-10.558-14.226-.084-.032-.124.093-.045.13 5.465 2.618 7.277 9.162 9.002 14.407z"/><path data-name="Path 2951" d="M67.907 275.16c4.723-8.19 10.943-15.817 19.598-20.045a29.084 29.084 0 0115.044-2.985c4.48.342 8.835 2.154 13.238 2.975l.002-.012c-5.063-2.08-9.247-4.476-14.946-4.487a31.228 31.228 0 00-13.305 3.197c-9.032 4.32-15.436 12.386-20.335 20.884-.266.471.432.946.704.473z"/><path data-name="Path 2952" d="M65.445 279.32a30.4 30.4 0 00-7.74 15.412c-.121.605.9.818 1.063.223a57.23 57.23 0 017.015-15.335c.133-.212-.15-.494-.338-.3z"/><path data-name="Path 2953" d="M103.31 257.586a.577.577 0 00.22 1.131c5.002-.579 9.34 1.815 13.526 4.269.02.012.05-.015.03-.034-3.761-3.42-8.337-7.077-13.776-5.366z"/><path data-name="Path 2954" d="M90.578 303.601q-2.866.772-3.114-1.56a9.017 9.017 0 01-.038-2.196 22 22 0 00.04-2.703 10.138 10.138 0 00-1.771-4.789c-.056-.084-.205-.007-.177.087a20.046 20.046 0 01.562 7.298 7.266 7.266 0 00.493 4.047c1.016 1.886 3.425 2.62 5.005.954.673-.705-.346-1.856-1-1.138z"/><path data-name="Path 2955" d="M74.15 338.384c-.803-6.758-.564-13.657-5.034-19.235-.06-.075-.168.021-.111.098 5.013 6.926 2.83 16.183 4.913 24.033 1.858 7.006 8.427 11.848 14.475 15.28.428.243 1.03-.312.614-.696-3.13-2.892-7.082-4.793-10.11-7.82-3.16-3.161-4.236-7.35-4.746-11.66z"/><path data-name="Path 2956" d="M100.102 364.808a5 5 0 01-3.506-.927c-.03-.021-.072.024-.044.05a5.142 5.142 0 003.578 1.397.261.261 0 10-.028-.52z"/><path data-name="Path 2957" d="M71.85 387.68c-1.452 8.252.165 17.563 2.145 25.597a.468.468 0 00.92-.178c-1.192-6.654-2.94-13.12-2.553-19.945.35-6.234 1.907-16.917 9.825-17.666a.075.075 0 00-.007-.147c-6.729-.268-9.34 6.741-10.33 12.34z"/><path data-name="Path 2958" d="M90.889 429.54a4.245 4.245 0 00-1.941.564c-.843.42-.812.622-1.82.23s-1.143-.973-1.675-1.887c-1.503-2.589-3.233-5.022-4.788-7.577-.008-.013-.029-.003-.022.01.933 1.856 1.717 3.792 2.642 5.657a22.255 22.255 0 002.442 4.584c1.643 1.893 3.356-.118 5.226-.49.588-.114.574-1.117-.064-1.09z"/><path data-name="Path 2959" d="M108.162 441.41a10.623 10.623 0 01-3.11-1.448c-.037-.026-.071.028-.04.056 1.6 1.278 4.047 2.881 6.193 2.7.401-.035.423-.665.055-.768-1.002-.292-2.077-.255-3.098-.54z"/><path data-name="Path 2960" d="M179.39 451.919q-.34.874-.622 1.77-5.212 3.356-5.61-1.19c-.355-1.213-.591-2.46-.967-3.666a16.493 16.493 0 00-2.78-5.454c-2.947-3.716-7.198-5.644-11.331-7.715-.016-.009-.033.022-.015.03a31.48 31.48 0 019.952 7.423c3.069 3.71 2.844 8.304 5.114 12.255 2.653 4.617 6.766.302 7.463-3.198.142-.71-.964-.892-1.204-.255z"/><path data-name="Path 2961" d="M198.746 474.848c-.419-2.378-.256-4.788-.937-7.132a10.674 10.674 0 00-5.742-6.757c-.014-.006-.03.017-.018.03 4.496 4.096 4.418 8.55 5.457 14.101.704 3.76 2.568 6.135 5.468 8.508.356.291.845-.273.532-.604-2.317-2.426-4.164-4.751-4.76-8.146z"/><path data-name="Path 2962" d="M212.74 493.05a13.723 13.723 0 012.879 5.372c.15.538 1.015.363.85-.166a10.974 10.974 0 00-3.615-5.334c-.08-.062-.175.057-.113.127z"/><path data-name="Path 2963" d="M128.977 452.453a.018.018 0 00-.034-.008c-3.444 13.83 3.426 27.96 13.518 37.247.465.428 1.216-.194.753-.663-9.851-9.985-16.889-22.056-14.237-36.576z"/><path data-name="Path 2964" d="M265.563 397.115c.04-.068-.05-.165-.112-.098-4.523 5.029-9.022 9.884-14.02 14.452-4.91 4.489-9.996 8.803-14.626 13.587-7.768 8.03-14.655 17.64-15.844 29.047-.079.765 1.08.84 1.184.09 1.765-12.525 9.453-22.582 18.35-31.126 8.511-8.174 19.079-15.557 25.068-25.952z"/><path data-name="Path 2965" d="M220.21 460.15a.08.08 0 00-.156-.033c-4.26 15.294 4.049 34.102 17.868 41.77.664.37 1.32-.55.67-.992-13.82-9.49-20.135-24.14-18.382-40.745z"/><path data-name="Path 2966" d="M267.595 509.26c-5.232 1.486-9.43-1.094-13.828-3.613a39 39 0 00-10.314-4.124c-.357-.089-.551.424-.192.546 5.173 1.792 9.347 5.05 14.23 7.37 3.367 1.601 6.931 2.337 10.48.933a.6.6 0 00-.376-1.113z"/><path data-name="Path 2967" d="M311.458 417.783c.705.363 1.419-.614.707-1.054-4.17-2.56-4.76-8.468-8.2-11.885-3.408-3.382-7.732-4.848-12.142-6.431a.092.092 0 00-.06.172c5.289 1.995 11.126 5.33 13.893 10.464 1.715 3.19 2.329 6.946 5.802 8.734z"/><path data-name="Path 2968" d="M319.714 426.151a.064.064 0 00-.125.006c-.054 5.347 2.295 9.756 5.356 14 2.026 2.81 4.35 5.416 6.11 8.411 1.14 1.942 5.376 9.462 1.805 10.856-.933.364-.236 1.734.691 1.393 5.05-1.88-.2-10.097-1.795-12.589-4.525-7.083-10.617-13.516-12.042-22.077z"/><path data-name="Path 2969" d="M324.133 473.105c-5.552 5.452 3.433 17.053-5.119 20.116-.572.204-.148 1.102.428.858a6.83 6.83 0 004.05-5.756c.69-5.179-1.935-10.093.878-15.008.084-.15-.1-.346-.237-.21z"/><path data-name="Path 2970" d="M296.054 441.565c-3.901 3.73-6.955-3.945-9.04-6.099-.056-.056-.15.03-.095.084 2.006 2.097 2.348 5.459 4.724 7.24 1.582 1.185 4.056 1.25 5.244-.493.351-.514-.367-1.179-.833-.732z"/><path data-name="Path 2971" d="M326.99 377.43c.007-.072-.105-.081-.114-.008-.505 3.834-2.927 6.952-3.952 10.637a23.6 23.6 0 00-.548 9.343c1.023 7.92 5.345 14.8 9.545 21.402.373.589 1.36.109.981-.486-4.133-6.497-8.53-13.31-9.7-21.076a22.693 22.693 0 011.18-11.752c1.06-2.684 2.29-5.159 2.608-8.06z"/><path data-name="Path 2972" d="M377.227 462.788c-6.17 7.892-18.2-7.02-21.45-11.703-3.801-5.476-7.257-11.018-12.459-15.31-.11-.09-.227.09-.12.18 7.48 6.407 10.873 16.148 17.834 23.034 3.936 3.891 12.304 10.621 17.141 4.438.454-.58-.493-1.21-.946-.64z"/><path data-name="Path 2973" d="M353.426 360.158c1.535.297 2.86 1.215 4.48 1.064 2.006-.186 3.476-1.614 3.187-3.651-.12-.848-1.447-.596-1.31.255.668 4.115-6.418 1.275-8.358 1.365-2.652.125-4.905 1.675-7.066 3.056-.085.054-.018.195.071.142 2.834-1.678 5.623-2.885 8.996-2.231z"/><path data-name="Path 2974" d="M402.056 350.315l-4.086 2.124q-.704-.645-1.42-1.274c-.433-.374-.859-.75-1.312-1.092a14.9 14.9 0 00-3.94-2.12 17.17 17.17 0 00-8.21-.705c-.192.027-.129.307.058.295a16.454 16.454 0 0110.137 2.507c1.609 1.006 3.139 3.29 5.013 3.915a3.787 3.787 0 004.886-3.559.565.565 0 00-1.126-.091z"/><path data-name="Path 2975" d="M445.171 377.112a28.711 28.711 0 00-4.438-6.541 79.678 79.678 0 00-13.238-12.734c-.19-.145-.378.155-.204.302a92.639 92.639 0 0112.758 13.032c2.097 2.643 4.024 5.261 4.862 8.577.64 2.534.798 4.906 2.024 7.266a.582.582 0 001.041-.519c-1.57-2.957-1.482-6.345-2.805-9.383z"/><path data-name="Path 2976" d="M456.805 411.734c.082.862 1.403.6 1.322-.256-.442-4.631-2.79-8.485-4.644-12.658-2.466-5.556-1.689-10.47-1.85-16.283 0 0-.057-.042-.057-.004-.012 5.072-1.696 9.351-.02 14.368 1.69 5.07 4.729 9.389 5.25 14.833z"/><path data-name="Path 2977" d="M450.519 431.352a.38.38 0 10.241.717 4.136 4.136 0 002.26-2 3.888 3.888 0 00.31-2.762l-.044.003a4.253 4.253 0 01-2.767 4.042z"/><path data-name="Path 2978" d="M401.803 390.543a7.472 7.472 0 01-.04 1.365c-.212.847-1.779 2.688-2.752 2.715-1.135.028-2.81-1.944-3.585-2.605-2.215-1.881-4.545-3.623-6.75-5.514-.106-.093-.265.089-.167.187 2.089 2.03 4.028 4.203 6.114 6.239 1.28 1.247 2.815 2.955 4.703 3.233 3.311.49 4.158-3.16 3.911-5.701-.081-.818-1.399-.725-1.434.08z"/><path data-name="Path 2979" d="M371.087 349.91c-5.784 9.843 5.725 23.69-6.752 30.507-4.408 2.41-8.483 1.135-12.886.832a6.874 6.874 0 002.007-2.349c2.234-4.153 1.989-8.555 7.591-9.925 1.23-.302.86-2.242-.377-1.937a10.023 10.023 0 00-6.856 5.228c-1.771 3.555-1.636 6.927-4.963 8.957-.138.007-.273.01-.413.02-3.774.301-7.156 2.38-7.728 6.306a1.146 1.146 0 002.215.465c2.015-6.755 11.057-3.006 15.86-3.308a15.453 15.453 0 0010.435-5.042c8.125-8.983-1.571-19.67 2.47-29.45.147-.356-.411-.642-.603-.305z"/><path data-name="Path 2980" d="M364.994 376.065c2.802-2.32 4.35-7.252 1.923-10.357-.107-.138-.288-.007-.28.136.296 3.48-.067 6.468-2.79 8.917a.869.869 0 001.147 1.304z"/><path data-name="Path 2981" d="M286.532 388.943c-4.23 2.223-5.965 6.477-7.667 10.697-3.02 7.477-7.451 12.806-16.301 10.859a1.056 1.056 0 00-.698 1.99c5.889 2.642 12.898-.399 16.057-5.732 3.323-5.611 3.413-13.193 8.893-17.39a.258.258 0 00-.284-.424z"/><path data-name="Path 2982" d="M263.964 405.562a.178.178 0 00.313.158c3.88-5.288 8.307-8.42 14.767-9.714a.992.992 0 00-.378-1.947c-6.396.67-12.684 5.349-14.702 11.503z"/><path data-name="Path 2983" d="M418.656 230.911c-2.47 2.961-2.156 7.022-2.436 10.763a8.1 8.1 0 00-4.76-3.746c-.203-.056-.406-.096-.61-.137a14.666 14.666 0 005.625-4.714.228.228 0 00-.34-.297c-6.005 4.606-19.692 6.41-18.588 16.588a.946.946 0 00.888.824c1.727 2.07 5.659.69 7.188-1.106.623-.732-.61-1.83-1.274-1.122a4.931 4.931 0 01-2.887 1.573 6.962 6.962 0 01-1.824-.01.839.839 0 00.047-.284c-.198-5.1 3.598-7.47 7.753-9.652a8 8 0 012.698-.005 5.933 5.933 0 015.085 6.631l.006.03a7.293 7.293 0 01-3.384 3.554c-6.002 3.187-13.973 1.3-17.928 7.974-.342.576.49 1.152.87.587 4.6-6.86 15.287-2.844 20.892-8.586 4.616-4.731 1.74-12.197 4.793-17.638a1.1 1.1 0 00-1.814-1.227z"/><path data-name="Path 2984" d="M388.21 248.312c.802-6.647 6.636-10.508 11.056-14.851a.034.034 0 00-.038-.056c-6.023 2.854-11.736 7.83-12.576 14.786-.12 1 1.439 1.114 1.557.12z"/><path data-name="Path 2985" d="M448.502 249.714l-.008.009c4.19 3.325 8.24 9.196 3.644 13.97-.562.582.227 1.523.842.957 5.57-5.081.888-12.089-4.478-14.936z"/><path data-name="Path 2986" d="M474.829 273.75a88.516 88.516 0 01-5.449-12.707c-.037-.094-.192-.04-.172.06a53.183 53.183 0 002.709 9.79c1.431 3.484 3.661 6.529 5.359 9.876a27.389 27.389 0 01.78 23.11c-.208.502.586.777.795.28a29.2 29.2 0 00.9-21.09c-1.186-3.35-3.183-6.241-4.922-9.319z"/><path data-name="Path 2987" d="M428.199 333.425c-8.103-1.627-15.594-3.972-20.944-10.67-4.614-5.78-7.16-13.02-9.419-19.97-.144-.445-.867-.321-.728.141 2.25 7.538 4.842 15.265 10.03 21.347 5.464 6.406 12.988 8.645 20.974 10.264.704.146.784-.972.087-1.112z"/><path data-name="Path 2988" d="M446.462 331.203a10.532 10.532 0 00-.417 2.201c-.058.503.021 1.411-.264 1.824l-2.307 1.237a24.338 24.338 0 01-.879-.42c-2.125-1.032-4.274-2.021-6.417-3.013-.205-.095-.372.24-.178.354 1.912 1.14 3.812 2.315 5.756 3.406a5.214 5.214 0 002.708 1.049c3-.223 2.586-4.272 3.104-6.254.178-.715-.868-1.104-1.106-.384z"/><path data-name="Path 2989" d="M398.718 169.189c3.422 2.103 6.155 5.11 8.934 7.966 3.002 3.084 7.313 5.953 8.5 10.24a.668.668 0 001.31-.255c-.384-4.244-4.443-6.471-7.303-9.092-3.167-2.897-5.896-6.282-9.416-8.787s-7.59-3.491-11.77-4.297c-5.218-1.006-10.486-2.06-15.764-2.707-.327-.039-.451.495-.12.574 8.265 1.982 18.26 1.83 25.63 6.358z"/><path data-name="Path 2990" d="M405.856 194.666a.207.207 0 00-.372.184 33.862 33.862 0 001.922 3.45c.361.54.773 1.031 1.152 1.555a5.987 5.987 0 011.144 1.958q.277 1.511-1.303 1.45c-.744-.294-1.16.89-.412 1.174a2.073 2.073 0 002.703-2.194c-.05-1.111-.946-2.045-1.577-2.872a40.941 40.941 0 01-3.257-4.705z"/><path data-name="Path 2991" d="M320.407 159.873a10.2 10.2 0 012.788 3.294l.55.989q-1.17 3.309-3.296 1.75c-.692-.303-1.026.766-.38 1.087 1.516.758 3.965 1.53 4.949-.51.843-1.759-.966-4.002-1.964-5.264-4.864-6.16-12.438-5.702-19.095-8.485-.028-.013-.04.03-.016.043 3.466 1.729 7.159 2.488 10.77 3.806a17 17 0 015.694 3.29z"/><path data-name="Path 2992" d="M283.882 192.695c.256 1.842.161 4.018 1.291 5.598 1.538 2.146 4.76 2.232 5.445-.626.223-.949-1.213-1.462-1.443-.506q-3.91 1.21-3.837-2.26c-.103-.81-.22-1.615-.351-2.421a35.279 35.279 0 00-.9-3.946 47.091 47.091 0 00-3.126-7.56.16.16 0 00-.286.14 43.563 43.563 0 013.207 11.581z"/><path data-name="Path 2993" d="M337.2 182.728c-.137-.222-.5-.05-.367.181.474.825.89 1.668 1.332 2.51.228.435.86.037.572-.385-.517-.769-1.049-1.52-1.537-2.306z"/><path data-name="Path 2994" d="M342.058 178.883c-1.527-6.152-7.535-9.012-10.967-13.93-.16-.227-.539.03-.404.27 2.884 5.124 8.626 8.103 10.543 13.82.169.499.965.382.828-.16z"/><path data-name="Path 2995" d="M345.07 207.547a10.433 10.433 0 001.767-8.307.023.023 0 00-.044.004 13.741 13.741 0 01-2.631 7.69c-.398.59.484 1.172.909.613z"/><path data-name="Path 2996" d="M291.858 211.03c3.006 3.234 8.279 2.596 11.988 1.002a.224.224 0 00-.082-.42c-3.65-.388-7.822 1.433-10.775-1.574-.68-.69-1.803.274-1.131.992z"/><path data-name="Path 2997" d="M272.25 163.366q-1.205-2.932-2.116-5.97c-.02-.061-.112-.048-.099.02a34.878 34.878 0 001.84 6.137c.099.25.48.063.376-.187z"/><path data-name="Path 2998" d="M253.512 249.717c.4.08.533-.584.147-.697a22.56 22.56 0 01-16.519-18.776c-.088-.548-.872-.368-.83.161a21.485 21.485 0 0017.202 19.312z"/><path data-name="Path 2999" d="M235.864 219.144a7.37 7.37 0 00.277 2.178c.684 1.747 3.064 2.294 3.71.242.226-.723-.908-1.113-1.111-.387q-1.937.13-1.825-1.37a28.867 28.867 0 00-.107-1.443 8.959 8.959 0 00-.382-1.513c-.697-2.015-2.006-3.652-1.85-5.904a.143.143 0 00-.286-.022 8.561 8.561 0 00.564 4.27 16.44 16.44 0 011.01 3.949z"/><path data-name="Path 3000" d="M250.952 185.402c-.275-2.279 1.917-3.968 1.824-6.278-.088-2.154-1.429-4.344-2.121-6.34-.07-.199-.413-.083-.354.12.737 2.558 2.09 5.89.832 8.4-.74 1.483-1.553 2.618-1.398 4.335.066.787 1.312.56 1.217-.237z"/><path data-name="Path 3001" d="M225.762 260.84c2.925-2.731 3.476-6.59 2.742-10.392a45.813 45.813 0 00-2.669-7.719 43.464 43.464 0 01-2.804-12.011s-.032-.017-.035.001a31.02 31.02 0 002.326 13.015c2.012 5.247 4.45 11.665-.302 16.266-.51.498.211 1.335.742.84z"/><path data-name="Path 3002" d="M145.734 245.73a.639.639 0 00.422-1.203c-5.211-1.884-3.29-9.169-3.774-13.48-.468-4.158-1.568-8.21-2.372-12.305-1.812-9.238-.012-17.356 3.064-26.091.042-.12-.136-.177-.183-.066-2.01 4.572-4.07 9.037-4.794 14.031-.728 5.032.137 10.033 1.153 14.962.577 2.8 1.218 5.595 1.588 8.432.378 2.902.158 5.72.315 8.612.172 3.136 1.265 6.257 4.58 7.108z"/><path data-name="Path 3003" d="M150.933 238.239c-.076.795.06 3.362-1.19 3.35-.132-.002-.199.208-.054.243.921.217 1.448-.572 1.684-1.381a25.216 25.216 0 00.625-5.215.348.348 0 00-.694-.054 48.736 48.736 0 00-.371 3.057z"/><path data-name="Path 3004" d="M172.67 268.087c.472.627 1.32-.168.9-.786-3.159-4.69-8.289-7.912-10.83-13.035-1.579-3.18-1.447-6.568-1.852-10.003a58.635 58.635 0 00-2.164-9.934c-.042-.145-.27-.107-.234.045a65.827 65.827 0 011.695 11.962c.154 2.925.182 5.772 1.48 8.464 2.501 5.184 7.59 8.738 11.006 13.287z"/><path data-name="Path 3005" d="M178.147 268.905c-.147-.135-.386.06-.24.21a8.216 8.216 0 004.204 2.447c2.084.428 4.13-.453 6.166.318.5.191.9-.57.426-.848a5.687 5.687 0 00-3.672-.502c-2.58.263-4.832.212-6.884-1.625z"/><path data-name="Path 3006" d="M178.498 264.218c.352.148.519-.39.193-.547-3.725-1.834-6.32-5.341-8.665-8.65-.398-.564-1.236.156-.815.715 2.615 3.46 5.195 6.74 9.287 8.482z"/><path data-name="Path 3007" d="M203.096 166.833c.27.6 1.149.148.908-.452a11.035 11.035 0 00-6.955-6.557.058.058 0 00-.05.102 16.075 16.075 0 016.097 6.907z"/><path data-name="Path 3008" d="M179.82 180.789a28.345 28.345 0 0110.53-1.781 54.546 54.546 0 006.855.243c3.522-.315 6.75-1.816 8.262-5.129.455-.996-1.143-1.787-1.709-.856a7.5 7.5 0 01-2.965 2.836c-4.617-1.632-7.268-5.946-12.655-6.2a12.737 12.737 0 00-6.606 1.488c-2.83 1.52-4.863 4.167-8.114 4.902a1.079 1.079 0 00.412 2.117 10.945 10.945 0 003.648-1.25 16.191 16.191 0 013.944.94 56.08 56.08 0 00-2.135.687c-1.165.401-2.332.91-3.521 1.236a10.166 10.166 0 01-2.907.49q-3.584.072-3.044-4.622c.127-.197-.148-.472-.32-.284a3.612 3.612 0 00.315 5.53c2.93 2.478 6.914.704 10.01-.347zm-.381-4.797a23.27 23.27 0 015.917-3.282 15.931 15.931 0 012.809.954c.75.338 1.209-.917.427-1.215-.11-.041-.217-.067-.326-.104.237.01.467-.002.718.027 3.856.445 6.33 3.615 9.725 4.493-3.452.782-7.575-.147-11.11.054-.707.036-1.404.12-2.096.226-2.058-.149-4.057-.914-6.07-1.152z"/></g></svg>