<svg id="google" xmlns="http://www.w3.org/2000/svg" width="26.667" height="26.667" viewBox="0 0 26.667 26.667">
  <path id="Path_2667" data-name="Path 2667" d="M6.25,108.329a7.04,7.04,0,0,1,1-3.619v-4.5h-4.5a13.34,13.34,0,0,0,0,16.228h4.5v-4.5A7.04,7.04,0,0,1,6.25,108.329Z" transform="translate(0 -94.995)" fill="#f0de9f"/>
  <path id="Path_2668" data-name="Path 2668" d="M199.125,373.953,196,377.078l3.125,3.125a13.232,13.232,0,0,0,8.114-2.751v-4.49h-4.49A7.082,7.082,0,0,1,199.125,373.953Z" transform="translate(-185.792 -353.536)" fill="#f0de9f"/>
  <path id="Path_2669" data-name="Path 2669" d="M57.318,325.477l-4.5,4.5a13.542,13.542,0,0,0,1.154,1.314,13.246,13.246,0,0,0,9.428,3.905v-6.25A7.086,7.086,0,0,1,57.318,325.477Z" transform="translate(-50.072 -308.525)" fill="#f0de9f"/>
  <path id="Path_2670" data-name="Path 2670" d="M269.333,200.38a13.447,13.447,0,0,0-.218-2.415l-.117-.641H256v6.25h6.326a7.052,7.052,0,0,1-2.7,2.9l4.49,4.49a13.554,13.554,0,0,0,1.314-1.154A13.246,13.246,0,0,0,269.333,200.38Z" transform="translate(-242.667 -187.047)" fill="#f0de9f"/>
  <path id="Path_2671" data-name="Path 2671" d="M204.134,8.325l.552.552,4.419-4.419-.552-.552A13.246,13.246,0,0,0,199.125,0L196,3.125l3.125,3.125A7.037,7.037,0,0,1,204.134,8.325Z" transform="translate(-185.792 0)" fill="#f0de9f"/>
  <path id="Path_2672" data-name="Path 2672" d="M63.4,6.25V0a13.246,13.246,0,0,0-9.428,3.905A13.533,13.533,0,0,0,52.822,5.22l4.5,4.5A7.086,7.086,0,0,1,63.4,6.25Z" transform="translate(-50.071 0)" fill="#f0de9f"/>
</svg>
