<svg xmlns="http://www.w3.org/2000/svg" width="395.133" height="359.455" viewBox="0 0 395.133 359.455">
  <g id="Group_3074" data-name="Group 3074" transform="matrix(0.978, 0.208, -0.208, 0.978, -263.415, -634.476)" opacity="0.5">
    <path id="Path_2904" data-name="Path 2904" d="M785.6,628.6c-4.66-11.3-12.655-20.06-22.736-26.822-5.375-3.6-11.075-6.682-16.734-9.825-4-6.421-8.059-12.8-11.226-19.685a53.957,53.957,0,0,1-5.028-18.233,1.09,1.09,0,0,0-1.234-.915l-16.53,4.294c-1.27.177-2.545.315-3.821.406a1.077,1.077,0,0,0-.821,1.49c.26.589.553,1.175.838,1.763l-6.354,3.509q-1.781.729-3.6,1.34a1.077,1.077,0,0,0-.427,1.646,115,115,0,0,0,8.5,9.2l-3.521,3.358q-1.537,1.158-3.142,2.212a1.077,1.077,0,0,0,.006,1.7c6.159,4.654,14.048,8.248,20.436,13.2a23.357,23.357,0,0,1,.427,2.492,24.682,24.682,0,0,1-6.737,9.53c-.426.307-.865.61-1.324.912a84.83,84.83,0,0,0-14.1,11.5c-.678.58-1.351,1.169-2.01,1.774-5.292,4.845-10.289,9.982-15.521,14.842-10.265,7.736-21.938,13.5-33.394,19.217a142.623,142.623,0,0,1-15.077,6.6q-2.928.7-5.878,1.283a142.742,142.742,0,0,1-17,2.184c-12.722-.611-25.535-.749-38.238-1.214-14.779-.542-29.634-.863-44.387.407-13.656,1.177-25.487,5.3-37.432,11.92-9.294,5.147-18.818,10.3-27.7,16.276l-.04.021c-2.889,1.6-6.236,3-8.8,5.1-3.932,3.223-4.11,8.793-2.4,13.247,4.569,11.915,19.334,14.53,30.129,17.554,1.742.488,3.488.963,5.232,1.446,8.957,2.96,18.064,5.475,27.247,7.822-6.719,6.328-13.5,12.761-19.667,19.668l-.033.031c-2.4,2.262-5.3,4.451-7.265,7.126-3.01,4.1-1.8,9.536.954,13.429,7.377,10.412,22.33,9.29,33.538,9.546,1.809.041,3.618.07,5.427.105,9.727.673,19.49.848,29.288.835,4.757-.006,9.514-.116,14.268-.284-.81,1.2-1.608,2.426-2.391,3.681-5.619,9.015-11.439,18.15-16.3,27.688l-.024.038c-1.748,2.8-3.991,5.653-5.212,8.739-1.869,4.727.682,9.682,4.34,12.745,9.784,8.193,23.958,3.3,34.863.7,1.76-.42,3.517-.853,5.276-1.281,9.577-1.824,19.063-4.138,28.536-6.644A366.323,366.323,0,0,0,656.173,824.4c3.543-1.238,7.062-2.54,10.543-3.937a156.01,156.01,0,0,0,31.7-17.249q5.488-3.582,10.73-7.546a201.8,201.8,0,0,0,19.3-16.826q3.825-3.383,7.6-6.8c10.7-9.669,20.835-20.082,28.53-32.356,7.433-11.857,12.764-24.885,17.3-38.084C789.877,678.308,795.364,652.263,785.6,628.6Zm-63.024-34.773c-.118-.681-.235-1.362-.318-2.058.917.466,1.827.919,2.718,1.369a31.086,31.086,0,0,0,.743,4.43,19.9,19.9,0,0,0-2.473-1.554Q722.913,594.919,722.579,593.826Zm3.242-.253c1.044.539,2.065,1.088,3.035,1.7a34.174,34.174,0,0,0,.174,5.987c-1.006-1.287-1.9-2.521-2.269-2.848-.029-.027-.06-.047-.089-.072C726.322,596.766,726.036,595.185,725.821,593.573Zm-5.56.509a24.622,24.622,0,0,0-1.391-4.223c.476.313.96.607,1.438.878,0,.013,0,.022,0,.036a24.522,24.522,0,0,0,1.428,4.29C721.255,594.711,720.763,594.382,720.261,594.082ZM732.279,604.6a8.747,8.747,0,0,1-2.367-2.243c-.221-2.194-.315-4.389-.347-6.627a17.377,17.377,0,0,1,5.16,5.125A22.451,22.451,0,0,0,732.279,604.6Zm-5.468-12.318c-4.643-2.169-11.035-4.161-12.57-9.481a19.176,19.176,0,0,0,.976-3.816c.442-2.168.823-4.354,1.127-6.549.015-.016.028-.035.042-.05,5.5,9.287,14.956,16.69,24.8,20.9-1.557,2.059-3.509,4.061-5.292,6.15C734,596.052,730.2,593.862,726.812,592.279ZM734.7,580.8a2.769,2.769,0,0,1,.512.557c1.8,2.65,3.77,5.143,5.706,7.649a120.188,120.188,0,0,1-10.88-6.973c-.224-.164-.44-.336-.661-.5a28.9,28.9,0,0,1-4.97-6.279,19.127,19.127,0,0,1-2.128-11.513c.395-.446.779-.9,1.156-1.341,1.461-1.7,2.877-3.453,4.226-5.251A51.353,51.353,0,0,0,734.7,580.8Zm-23.87-20.823,2.658-.691a44.853,44.853,0,0,0,6.235-1.62l6.793-1.764c-1.055,1.391-2.117,2.774-3.234,4.117-1.186,1.428-2.822,4.124-4.741,4.595a12.527,12.527,0,0,1-5.661-.444c-.349-.282-.691-.573-1.03-.867-.608-1.13-1.2-2.268-1.751-3.43A.883.883,0,0,0,710.83,559.978Zm-9.484,7.406,2.4-1.327a44.794,44.794,0,0,0,5.539-3.05c.273.519.539,1.038.824,1.556.038.038.078.071.117.108s.046.091.068.137c.272.692.536,1.392.818,2.081a2.568,2.568,0,0,1-.766,2.444,5.97,5.97,0,0,1-1.447,1.047c-1.65.5-4.164.823-5.213.405-.088-.035-.172-.087-.259-.129-.963-1.042-1.911-2.1-2.82-3.191A.885.885,0,0,0,701.346,567.384Zm1.023,15.875,0,.021-.029-.02Zm3.789,2.428c-.094-.012-.189-.039-.283-.058q-1.379-.878-2.726-1.809a5.743,5.743,0,0,1,.891-1.793l.973-.928a44.7,44.7,0,0,0,4.661-4.446l.413-.393a17.958,17.958,0,0,1,2.213-1.4c.635-.337,1.415-.587,2.137-.9-.155,1.011-.319,2.02-.508,3.027-.343,1.824-.462,4.975-1.911,6.318C710.92,584.318,707.566,585.86,706.158,585.687Zm1.859,1.277a13.345,13.345,0,0,0,1.335-.552c.712-.323,1.477-.6,2.2-.94a20.627,20.627,0,0,0,.714,4.048C710.847,588.672,709.427,587.826,708.017,586.965Zm5.605,3.386a22.788,22.788,0,0,0-1.682-5.074,6.891,6.891,0,0,0,.6-.348,4.408,4.408,0,0,0,1.24-1.267,6.8,6.8,0,0,0,.822,2.054c.419,2.026.921,4.029,1.341,6.055C715.178,591.287,714.4,590.822,713.622,590.351Zm4.749,2.995c-.389-.262-.786-.51-1.179-.765a29.1,29.1,0,0,0-1.709-5.623,14.394,14.394,0,0,0,2.565,2.335c.277,1.513.624,3.038,1,4.537C718.824,593.67,718.6,593.5,718.372,593.346ZM454.644,701.457q2.565-1.521,5.136-3.032c1.018-.5,2.011-.971,2.886-1.454l9.848-5.442q1.653-.913,3.307-1.835a56.6,56.6,0,0,0-4.227,4.168c-.174.191.1.471.284.286,1.847-1.833,3.7-3.637,5.607-5.381q2.019-1.125,4.046-2.243a36.6,36.6,0,0,0-3.542,3.784c-.232.285.167.7.408.412a50.962,50.962,0,0,1,5.119-5.281,147.343,147.343,0,0,1,23.541-10.731,40.658,40.658,0,0,0-5.162,3.319.175.175,0,1,0,.212.277,41.522,41.522,0,0,1,6.312-4.038c.983-.311,1.968-.616,2.965-.891,3.074-.848,6.184-1.534,9.315-2.09-1.827,1.08-3.615,2.235-5.378,3.349-.256.161-.018.573.233.407,2.132-1.4,4.345-2.68,6.538-3.987,2.2-.363,4.418-.657,6.64-.9q-.641.406-1.286.813c-.372.234-.027.834.342.593q1.2-.781,2.391-1.561,3.364-.34,6.743-.535c8.031-.331,16.072-.3,24.109-.106,1.019.031,2.04.072,3.059.108q-7.224,1.486-14.354,3.377a.16.16,0,0,0,.084.309c5.646-1.3,11.315-2.471,17-3.59q3.192.116,6.383.233c-.93.173-1.858.364-2.777.586-2.586.623-6.166,1.169-7.967,3.311-.166.2.1.473.284.286,2.046-2.04,5.806-2.565,8.538-3.157,1.8-.391,3.614-.677,5.437-.9.8.029,1.6.06,2.4.088,1.469.073,3.177.136,5.061.184a47.581,47.581,0,0,0-11,3.74c-.157.078-.05.348.119.286a79.6,79.6,0,0,1,13.865-3.968c10.54.154,25.117-.192,36.483-1.888-2.336,1.236-4.659,2.5-6.976,3.76-.269.146-.032.559.238.413,2.633-1.432,5.272-2.872,7.887-4.347a61.534,61.534,0,0,0,9-2.04c-3.245,1.657-6.5,3.3-9.77,4.909-.345.17-.047.677.295.515,4.281-2.02,8.537-4.156,12.71-6.433a81.659,81.659,0,0,0,15.12-6.616c-5.094,3.734-10.031,7.753-14.988,11.572-.325.25.108.824.439.576,6.517-4.884,13.361-9.639,19.584-14.946,1.527-.863,3.044-1.729,4.554-2.575,1.953-1.094,3.872-2.1,5.757-3.1-4.025,3.315-8.151,6.514-12.3,9.628-.251.189-.013.618.246.43,4.606-3.361,8.978-6.945,13.227-10.683,1.173-.628,2.33-1.264,3.468-1.923-.923,1.524-1.811,3.073-2.721,4.6a.4.4,0,0,0,.684.393c1.032-1.871,2.108-3.729,3.107-5.621,1.408-.845,2.781-1.754,4.121-2.741q-.558,1.125-1.113,2.25c-.173.35.361.655.525.3.5-1.079,1.01-2.158,1.505-3.241.65-.508,1.294-1.033,1.925-1.593a100.889,100.889,0,0,0,14.138-12.338c2.4-2.514,4.742-5.1,7.184-7.57,1.157-.982,2.339-1.939,3.534-2.881a31.5,31.5,0,0,0-2.319,5.563c-.085.272.35.386.429.111a31.079,31.079,0,0,1,2.507-6.153c.531-.414,1.058-.835,1.6-1.239l1.609-1.207a45.278,45.278,0,0,0-2.569,7.709q.328-.4.649-.8c.636-2.364,1.3-4.7,2.078-7.027,1.441-1.082,2.872-2.186,4.259-3.34,1.784-1.069,3.56-2.15,5.3-3.281q.4-.263.8-.542a31.015,31.015,0,0,1-2.861,5.515c-.336.4-.686.805-1.057,1.212a84.863,84.863,0,0,0-10.812,14.63c-.513.73-1.018,1.467-1.509,2.216-3.926,6-7.5,12.219-11.362,18.223-6.6,8.256-14.465,15.448-22.434,22.405a113.873,113.873,0,0,1-15.646,6.167A200.082,200.082,0,0,1,623.97,685.7c-10.8,1.631-21.693,3.082-32.572,4-11.271.951-22.223-.033-33.423-1.271a168.832,168.832,0,0,0-31.017-.813,155.744,155.744,0,0,0-33.334,6.138c-11.111,3.337-21.774,8.911-33.405,10.253a.52.52,0,0,0-.226.084,10.8,10.8,0,0,0-5.644-2.367C454.449,701.634,454.541,701.543,454.644,701.457Zm2.844,17.817c-4.326-3.906-8.364-11.289-4.16-16.51.041-.052.092-.1.136-.151a4.909,4.909,0,0,1,.84.062,8.54,8.54,0,0,1,2.068.7,19.424,19.424,0,0,1,2.706,1.617,4.506,4.506,0,0,0-1.131,2.366,8.524,8.524,0,0,0,.056,2.882C457.774,713.2,458.3,716.372,457.488,719.274Zm12.794,6.4a50.042,50.042,0,0,1-6.873-2.588c1.534-1.9,1.414-4.45.977-6.8a44.851,44.851,0,0,0-3.143-10.1c-.062-.138-.277-.041-.239.1.695,2.587,1.418,5.159,2,7.776.611,2.757,1.6,6.273-.544,8.569a26.172,26.172,0,0,1-3.593-2.231,11.529,11.529,0,0,0,.6-2.811.459.459,0,0,0,.142-.188,8.481,8.481,0,0,0,.1-5.307c-.124-.554-.271-1.193-.389-1.865a13.322,13.322,0,0,1,.726-4.807.615.615,0,0,0,.422-.447c10.386-.636,19.817-5.144,29.564-8.362a153.433,153.433,0,0,1,30.992-6.778,155.6,155.6,0,0,1,31.485-.3c11.728,1.074,23.258,2.828,35.074,2.114,10.661-.645,21.319-2.16,31.893-3.627a228.524,228.524,0,0,0,31.282-6.179,124.864,124.864,0,0,0,14.215-4.974l-.79.685q-2.564,2.216-5.173,4.308c-8.8,2.713-17.894,4.389-26.646,7.278-.552.181-.323,1.05.237.874,7.955-2.5,16.133-4.129,24.154-6.378-1.82,1.4-3.66,2.766-5.543,4.049q-2.664,1.408-5.378,2.7A143,143,0,0,1,629.9,696.7c-12.477,2.558-24.925,5.6-37.347,8.293-14.454,3.135-28.925,6.5-42.9,11.387a89.263,89.263,0,0,0-30.276,18.05q-4.546-.953-9.073-1.953c-7.21-1.608-14.394-3.324-21.569-5.075-7.141-1.744-14.314-3.884-21.595-4.941a.071.071,0,0,0-.036.138c6.169,2.3,12.7,3.746,19.078,5.36q9.61,2.435,19.261,4.7,6.36,1.48,12.749,2.825-.931.843-1.854,1.714l-.461.434C500.64,733.721,485.654,728.942,470.282,725.67ZM488.174,767.9q2.107-2.11,4.223-4.209c.865-.734,1.709-1.44,2.437-2.125q4.1-3.854,8.193-7.71,1.376-1.294,2.749-2.6a56.7,56.7,0,0,0-3.063,5.085.2.2,0,0,0,.347.208c1.336-2.234,2.683-4.44,4.1-6.6q1.679-1.59,3.366-3.174a36.6,36.6,0,0,0-2.5,4.542c-.154.334.335.637.5.3a50.873,50.873,0,0,1,3.651-6.384q2.276-2.112,4.594-4.173l.775.193q1.066-1.337,2.167-2.644l-.1-.024A119.417,119.417,0,0,1,532.329,729a40.737,40.737,0,0,0-4.179,4.495.175.175,0,1,0,.274.216,41.465,41.465,0,0,1,5.115-5.475c.875-.544,1.755-1.084,2.652-1.6,2.769-1.583,5.611-3.018,8.508-4.333-1.5,1.5-2.949,3.061-4.382,4.577-.208.221.124.56.328.337,1.717-1.886,3.545-3.673,5.347-5.481,2.045-.9,4.118-1.73,6.209-2.521l-1.044,1.106c-.3.32.179.815.476.49q.966-1.052,1.931-2.1,3.174-1.162,6.4-2.187c7.7-2.308,15.5-4.271,23.332-6.072,1-.223,1.994-.435,2.992-.654q-6.632,3.23-13.072,6.827a.16.16,0,0,0,.157.278c5.148-2.662,10.352-5.2,15.58-7.687l6.242-1.355c-.858.4-1.71.813-2.546,1.255-2.351,1.244-5.684,2.66-6.9,5.181-.11.23.212.435.347.208,1.478-2.484,4.99-3.924,7.491-5.175,1.648-.824,3.334-1.55,5.044-2.216.783-.17,1.567-.337,2.349-.509,1.443-.294,3.113-.655,4.95-1.076a47.572,47.572,0,0,0-9.728,6.347c-.133.115.039.349.186.248a79.6,79.6,0,0,1,12.452-7.277c10.249-2.461,24.287-6.405,34.879-10.864-1.957,1.776-3.9,3.575-5.827,5.37-.225.209.107.549.331.342,2.2-2.04,4.4-4.088,6.567-6.166A61.627,61.627,0,0,0,653,689.324q-4.1,3.614-8.25,7.176c-.293.249.122.666.413.425,3.647-3.017,7.241-6.141,10.722-9.38a69.073,69.073,0,0,0,8.952-6.557c.152-.057.305-.107.457-.164q1.217-1.082,2.437-2.147c-.151.064-.3.123-.455.187q.815-.73,1.619-1.474c-4.011,4.881-7.8,10-11.656,14.923-.253.324.309.772.568.45,5.1-6.346,10.559-12.648,15.274-19.331.295-.283.586-.561.879-.844.524-.279,1.051-.552,1.57-.84,1.655-1.546,3.268-3.142,4.82-4.827-.383.246-.775.475-1.159.715.831-.761,1.658-1.508,2.475-2.252-3.078,4.209-6.283,8.33-9.531,12.375-.2.244.141.6.346.355,3.63-4.4,6.978-8.953,10.169-13.626.981-.9,1.943-1.8,2.883-2.722-.517,1.706-.993,3.425-1.5,5.131a.4.4,0,0,0,.761.211c.538-2.069,1.119-4.135,1.619-6.215,1.155-1.169,2.26-2.388,3.314-3.677-.175.818-.347,1.638-.521,2.456-.082.382.511.544.583.162.222-1.17.443-2.34.656-3.514.5-.652,1-1.32,1.471-2.02a100.817,100.817,0,0,0,10.641-15.454c1.7-3.031,3.333-6.113,5.087-9.113.878-1.239,1.786-2.458,2.71-3.668a31.435,31.435,0,0,0-.87,5.966c-.014.283.436.286.443,0a31.076,31.076,0,0,1,.9-6.581c.413-.533.818-1.07,1.241-1.6s.839-1.045,1.26-1.568a43.933,43.933,0,0,0-.567,8.917.2.2,0,0,0,.4,0c.023-3.05.07-6.038.292-9.073,1.117-1.391,2.22-2.8,3.27-4.247a25.7,25.7,0,0,0,1.973-2.286,49.5,49.5,0,0,0-1.19,8.877c.189-.369.379-.736.565-1.106.186-2.76.54-5.493.975-8.248a29.255,29.255,0,0,0,2.524-4.111c-.094,1.717-.094,3.452-.089,5.178.21-.47.425-.939.631-1.411.01-1.557-.005-3.117-.111-4.658.106-.227.218-.453.318-.682.352-.8.662-1.621.939-2.45.159,1.338.314,2.677.446,4.018.038-.093.08-.185.118-.278a4.28,4.28,0,0,1,.563-.988c-.15-1.535-.336-3.07-.575-4.59.1-.389.2-.78.29-1.173a4.69,4.69,0,0,1,.25-1.1,1.83,1.83,0,0,1,.962-.9,24.744,24.744,0,0,1,4.733,7.773c1.837,4.929,1.16,10-.4,14.838-.224.474-.459.953-.714,1.441a84.8,84.8,0,0,0-6.734,16.9c-.008.021-.015.042-.022.064-1.491,2.657-2.932,5.21-4.21,7.544a141.847,141.847,0,0,1-18.283,26.522,108.488,108.488,0,0,1-24.168,20.018,199.949,199.949,0,0,1-27.2,13.632c-10.055,4.253-20.254,8.357-30.567,11.941-10.684,3.712-21.537,5.47-32.7,7.045a168.919,168.919,0,0,0-30.252,6.893,155.8,155.8,0,0,0-30.776,14.2c-9.938,5.984-18.888,14.025-29.826,18.205a.522.522,0,0,0-.2.138,10.811,10.811,0,0,0-6.054-.9C488.028,768.116,488.094,768,488.174,767.9Zm-.952,1.591c.028-.06.066-.119.1-.179a4.853,4.853,0,0,1,.829-.149,8.512,8.512,0,0,1,2.177.17,19.2,19.2,0,0,1,3.022.9,4.5,4.5,0,0,0-.509,2.572,8.511,8.511,0,0,0,.768,2.778c.509,2.921,1.8,5.865,1.737,8.878C490.182,781.741,484.443,775.588,487.222,769.488Zm73.24,18.286c-17.069.175-34.1-.981-51.141-.29a50.325,50.325,0,0,1-7.3-.806c1.017-2.217.268-4.663-.738-6.834a44.847,44.847,0,0,0-5.547-9.01c-.093-.118-.278.03-.207.155,1.313,2.335,2.652,4.648,3.863,7.039,1.275,2.521,3.1,5.682,1.594,8.437a26.073,26.073,0,0,1-4.033-1.272,11.529,11.529,0,0,0-.111-2.873.467.467,0,0,0,.09-.218,8.479,8.479,0,0,0-1.221-5.165c-.258-.506-.558-1.09-.839-1.71a13.328,13.328,0,0,1-.487-4.837.614.614,0,0,0,.3-.537c9.905-3.189,17.925-9.891,26.572-15.422A153.417,153.417,0,0,1,549.6,740.189a155.644,155.644,0,0,1,30.429-8.088c11.628-1.864,23.235-3.019,34.5-6.637,10.17-3.265,20.12-7.372,30-11.411a228.714,228.714,0,0,0,28.778-13.733,113.617,113.617,0,0,0,24.3-18.623,132.316,132.316,0,0,0,19.248-25.85q1.319-2.261,2.584-4.564c-1.19,3.88-2.335,7.768-3.538,11.631-8.772,13.755-19.527,25.991-33.742,34.865-8.1,5.055-16.824,9.019-24.868,14.165-.489.312-.052,1.1.447.788,7.481-4.632,15.446-8.384,23.019-12.849a95,95,0,0,0,19.1-14.844,120.789,120.789,0,0,0,14.523-17.85c-5.174,11.267-12.3,21.6-19.283,31.795a142.642,142.642,0,0,1-9.967,13.1q-2.215,2.038-4.514,3.978a142.918,142.918,0,0,1-13.793,10.169c-11.416,5.649-22.681,11.756-34.009,17.523-13.18,6.71-26.318,13.648-38.595,21.929a86.222,86.222,0,0,0-18.8,17.2c-8.554.612-17.118,1.026-25.652,1.288-7.382.226-14.768.344-22.154.423-7.351.079-14.831-.218-22.146.56a.072.072,0,0,0,0,.143c6.546.7,13.234.483,19.811.469,6.609-.014,13.217-.074,19.824-.218q14.637-.316,29.246-1.339-1.252,1.586-2.448,3.245C568.1,787.612,564.279,787.734,560.462,787.774Zm-12.574,43.375q1.5-2.576,3.014-5.146c.648-.929,1.286-1.826,1.816-2.673l5.961-9.541q1-1.6,2-3.212a56.97,56.97,0,0,0-1.669,5.7.2.2,0,0,0,.388.113c.723-2.5,1.466-4.976,2.284-7.428q1.219-1.964,2.447-3.926a36.828,36.828,0,0,0-1.258,5.028c-.064.363.487.53.558.162a50.885,50.885,0,0,1,1.907-7.1A147.127,147.127,0,0,1,580.694,782.3a40.5,40.5,0,0,0-2.9,5.409.175.175,0,1,0,.319.14,41.633,41.633,0,0,1,3.554-6.6c.709-.749,1.422-1.495,2.159-2.219,2.275-2.235,4.658-4.346,7.126-6.354-1.073,1.833-2.074,3.711-3.073,5.542-.145.265.262.509.4.242,1.182-2.262,2.5-4.453,3.777-6.661,1.749-1.389,3.543-2.721,5.364-4.017l-.729,1.335c-.212.387.382.743.587.353q.664-1.264,1.331-2.526,2.774-1.932,5.632-3.745c6.858-4.191,13.9-8.074,21.02-11.809.906-.468,1.818-.928,2.726-1.393q-5.592,4.81-10.9,9.928a.136.136,0,0,0-.029.068q.785-.514,1.58-1.013,5.816-5.2,11.783-10.224,2.847-1.45,5.691-2.9c-.729.6-1.446,1.222-2.143,1.863-1.719,1.582-4.136,3.485-5.06,5.787.233-.105.467-.211.7-.315,1.221-2.155,3.587-3.979,5.32-5.5,1.384-1.216,2.83-2.347,4.316-3.427q1.071-.546,2.142-1.091c1.32-.65,2.843-1.425,4.513-2.3a47.516,47.516,0,0,0-7.793,8.612.13.13,0,0,0-.018.1q.275-.116.549-.234a78.324,78.324,0,0,1,9.9-9.878c9.286-4.987,21.858-12.374,30.966-19.381-1.441,2.216-2.857,4.448-4.269,6.676-.164.26.244.505.407.246,1.605-2.532,3.212-5.072,4.781-7.634a61.587,61.587,0,0,0,6.874-6.156q-3.046,4.537-6.154,9.038c-.219.315.288.613.508.307,2.759-3.846,5.44-7.781,7.982-11.8a81.671,81.671,0,0,0,10-13.131c-1.878,4.085-3.616,8.254-5.355,12.392.125-.147.258-.287.382-.436.544-.648,1.1-1.293,1.655-1.937,2.251-4.918,4.48-9.875,6.36-14.911.913-1.5,1.819-2.99,2.729-4.464,1.174-1.905,2.365-3.715,3.526-5.5-1.905,4.854-3.957,9.655-6.068,14.393-.128.286.29.546.424.256,2.392-5.176,4.47-10.433,6.367-15.765.72-1.119,1.422-2.237,2.1-3.366-.065,1.781-.089,3.565-.142,5.344a.394.394,0,0,0,.788.011c-.005-2.137.031-4.284-.015-6.423.819-1.424,1.578-2.883,2.269-4.4q.059,1.254.121,2.508c.018.389.633.4.606.007-.084-1.187-.167-2.375-.26-3.563.323-.76.629-1.531.909-2.329a99.2,99.2,0,0,0,5.106-13.237q1.419-2.527,2.76-5.1c.036-.819.111-1.646.231-2.478q-.882,1.687-1.792,3.354c.017-.065.036-.129.053-.2.877-3.364,1.668-6.759,2.6-10.107.362-.962.744-1.919,1.131-2.874a.76.76,0,0,0,.355-.284c.08-.116.153-.238.231-.354a31.635,31.635,0,0,0,.647,5.266c.058.278.494.167.43-.112a30.682,30.682,0,0,1-.761-5.637q.948-1.458,1.772-3.03a41.729,41.729,0,0,0,1.525,7.145.2.2,0,0,0,.385-.1c-.63-2.471-1.226-4.906-1.733-7.386.6-1.161,1.145-2.353,1.649-3.564.7,2.465,1.266,4.957,1.749,7.468.056-.149.116-.295.172-.444-.555-2.379-1.205-4.734-1.9-7.078.548-1.32,1.048-2.654,1.5-3.986a53.391,53.391,0,0,0,1.309,8.551c.107-.305.216-.611.319-.917a82.628,82.628,0,0,1-1.338-8.506c.151-.463.3-.924.441-1.382a24.656,24.656,0,0,0,.9-4.124c.534,2.524,1.263,5.031,1.884,7.511.1-.429.2-.858.3-1.288-.636-2.485-1.24-5.017-2.059-7.447a24.194,24.194,0,0,0,.042-2.922.654.654,0,0,0,.407-.395c.842,2.138,1.668,4.28,2.4,6.466q.127-.878.228-1.762c-.8-2.286-1.653-4.578-2.636-6.8a18.757,18.757,0,0,0-.609-3.418,17,17,0,0,1,3.7-6.934c.834-1.032,1.68-2.053,2.521-3.079a2.565,2.565,0,0,1,.769.311,5.934,5.934,0,0,1,1.63,2.444A29.343,29.343,0,0,1,744.2,608.7c.86,3.411,1.375,6.892,2.083,10.334-.034,2.8-.188,5.606-.445,8.389a213.679,213.679,0,0,1-5.581,31.751,141.833,141.833,0,0,1-10.932,30.3,108.54,108.54,0,0,1-18.279,25.509,200.063,200.063,0,0,1-22.833,20.1c-8.642,6.671-17.461,13.235-26.523,19.325-9.388,6.308-19.437,10.771-29.828,15.133a168.849,168.849,0,0,0-27.5,14.364,155.78,155.78,0,0,0-26.15,21.565c-8.089,8.316-14.7,18.37-24.212,25.2a.517.517,0,0,0-.156.184,10.8,10.8,0,0,0-6.083.674C547.8,831.4,547.839,831.273,547.888,831.149Zm-.516,1.781c.012-.066.033-.132.047-.2a4.776,4.776,0,0,1,.764-.354,8.519,8.519,0,0,1,2.149-.39,19.3,19.3,0,0,1,3.151.1,4.493,4.493,0,0,0,.161,2.617,8.5,8.5,0,0,0,1.449,2.491c1.236,2.695,3.239,5.214,3.939,8.144C553.352,844.026,546.236,839.536,547.373,832.93Zm201.94-77.76c-10.49,12.481-24.519,24.055-37.187,34.344-26.007,21.123-57.221,33.68-89.27,42.465-16.463,4.512-33.231,7.728-49.532,12.732a50.132,50.132,0,0,1-7.266,1.079c.42-2.4-.927-4.579-2.452-6.421a44.877,44.877,0,0,0-7.658-7.3c-.12-.09-.261.1-.16.2,1.865,1.923,3.747,3.819,5.526,5.824,1.874,2.112,4.445,4.706,3.689,7.753a25.941,25.941,0,0,1-4.224-.2,11.5,11.5,0,0,0-.838-2.75.458.458,0,0,0,.032-.233,8.482,8.482,0,0,0-2.5-4.685c-.378-.423-.817-.911-1.246-1.441a13.317,13.317,0,0,1-1.7-4.554.614.614,0,0,0,.153-.6c8.767-5.6,14.818-14.126,21.774-21.675a153.476,153.476,0,0,1,23.791-20.986,155.655,155.655,0,0,1,27.371-15.564c10.771-4.762,21.7-8.832,31.68-15.2,9-5.745,17.582-12.247,26.112-18.67a228.784,228.784,0,0,0,24.336-20.6,113.614,113.614,0,0,0,18.763-24.194,132.216,132.216,0,0,0,12.038-29.9,217.445,217.445,0,0,0,6.805-35.668c1.174-11.39.842-23.01-3.179-33.81l.924-1.122a1.016,1.016,0,0,0,.115-.18c10.569,5.844,21.283,11.547,29.258,20.687,17.039,19.524,16.577,47.577,10.064,71.116C772.578,728.819,759.943,742.521,749.312,755.169Z" transform="translate(0 0)" fill="#bfa871"/>
    <path id="Path_2905" data-name="Path 2905" d="M737.219,740.56c-18.761,18.057-36.008,38.41-59.253,50.888-23.088,12.394-48.152,20.94-73.209,28.362-7.082,2.1-14.194,4.091-21.317,6.047-7.089,1.946-14.4,3.562-21.275,6.176a.072.072,0,0,0,.037.139c6.509-.989,12.921-2.9,19.279-4.588q9.581-2.543,19.117-5.254c12.686-3.632,25.283-7.587,37.677-12.121A336.489,336.489,0,0,0,674.067,794.9a140.725,140.725,0,0,0,31.75-21.915c11.092-10.107,21.642-20.949,32.11-31.7A.509.509,0,0,0,737.219,740.56Z" transform="translate(6.849 11.398)" fill="#bfa871"/>
    <path id="Path_2906" data-name="Path 2906" d="M756.388,620.8c-4.648-9.172-10.653-18.3-20.707-21.985-.172-.063-.242.2-.078.269,8.775,3.587,14.631,11.857,18.942,19.934a100.467,100.467,0,0,1,10.657,29.7c3.829,21.8-3.375,43.031-12.354,62.637-4.506,9.84-9.2,20.567-18.26,27.083-.583.42-.033,1.408.556.981,7.995-5.793,12.458-14.657,16.5-23.405,4.778-10.328,9.329-20.849,12.274-31.867a82.937,82.937,0,0,0,2.531-32.674A97.617,97.617,0,0,0,756.388,620.8Z" transform="translate(17.328 2.782)" fill="#bfa871"/>
    <path id="Path_2907" data-name="Path 2907" d="M737.825,614.959c-4.617,33.52-10.22,69.626-34.364,95.258-6.547,6.949-13.976,13-20.446,20.027-.393.427.229,1.074.632.649,6.057-6.382,12.8-12.039,18.992-18.284a95,95,0,0,0,14.7-19.216c8.582-14.784,13.419-31.381,16.476-48.108,1.837-10.057,2.972-20.172,4.117-30.323C737.937,614.893,737.834,614.894,737.825,614.959Z" transform="translate(14.198 3.761)" fill="#bfa871"/>
    <path id="Path_2908" data-name="Path 2908" d="M579.979,796.805c22.333-24.245,55.663-32.354,82.252-50.549a138.8,138.8,0,0,0,23.047-19.716c.274-.293-.153-.736-.437-.449a164.625,164.625,0,0,1-42.778,30.915c-14.186,7.245-28.909,13.606-42.336,22.243a98.447,98.447,0,0,0-20.362,16.925C578.99,796.594,579.593,797.224,579.979,796.805Z" transform="translate(7.891 10.521)" fill="#bfa871"/>
    <path id="Path_2909" data-name="Path 2909" d="M749.061,635.065a89.987,89.987,0,0,0-8.624-20.157.212.212,0,0,0-.368.208,126.123,126.123,0,0,1,8.411,20.1C748.6,635.582,749.169,635.44,749.061,635.065Z" transform="translate(17.676 3.755)" fill="#bfa871"/>
    <path id="Path_2910" data-name="Path 2910" d="M741.365,623.62c1.922,4.975,4.185,9.657,5.576,14.845a.385.385,0,0,0,.744-.194c-1.36-4.963-3.185-10.472-6.194-14.7C741.45,623.511,741.335,623.541,741.365,623.62Z" transform="translate(17.756 4.286)" fill="#bfa871"/>
    <path id="Path_2911" data-name="Path 2911" d="M757.348,672.737a.437.437,0,0,0,.873.012,77.3,77.3,0,0,0-5.137-28.923c-.106-.279-.551-.179-.461.121a114.96,114.96,0,0,1,3.424,13.883A139.526,139.526,0,0,1,757.348,672.737Z" transform="translate(18.44 5.511)" fill="#bfa871"/>
    <path id="Path_2912" data-name="Path 2912" d="M752.887,654.948a78.267,78.267,0,0,1,1.749,14.151c.009.469.743.481.73.01a50.572,50.572,0,0,0-2.271-14.214A.108.108,0,0,0,752.887,654.948Z" transform="translate(18.457 6.19)" fill="#bfa871"/>
    <path id="Path_2913" data-name="Path 2913" d="M528.157,745.843c27.767-17.763,62.064-17.125,92.407-27.957a138.823,138.823,0,0,0,27.3-13.2c.34-.214.04-.751-.308-.545a164.6,164.6,0,0,1-49.236,19.013c-15.563,3.4-31.42,5.8-46.6,10.74a98.378,98.378,0,0,0-24,11.186C527.256,745.388,527.678,746.15,528.157,745.843Z" transform="translate(4.744 9.188)" fill="#bfa871"/>
    <path id="Path_2914" data-name="Path 2914" d="M502.748,761.751q2.147-5.687,4.327-11.361c.007-.02-.024-.029-.032-.01q-2.194,5.674-4.415,11.336C502.6,761.791,502.719,761.825,502.748,761.751Z" transform="translate(3.229 12.004)" fill="#bfa871"/>
    <path id="Path_2915" data-name="Path 2915" d="M505.4,760a39.068,39.068,0,0,0,3.371-9.523.117.117,0,0,0-.226-.062,46.415,46.415,0,0,1-3.565,9.334C504.836,760.024,505.259,760.277,505.4,760Z" transform="translate(3.371 12.001)" fill="#bfa871"/>
    <path id="Path_2916" data-name="Path 2916" d="M507.655,761.037c1.478-3.708,3.257-7.221,5.07-10.77a.023.023,0,0,0-.039-.023,72.151,72.151,0,0,0-5.493,10.595A.253.253,0,1,0,507.655,761.037Z" transform="translate(3.505 11.995)" fill="#bfa871"/>
    <path id="Path_2917" data-name="Path 2917" d="M514.995,751.346l2.458-4.537c.11-.2-.2-.386-.308-.184l-2.5,4.51C514.514,751.366,514.869,751.578,514.995,751.346Z" transform="translate(3.959 11.771)" fill="#bfa871"/>
    <path id="Path_2918" data-name="Path 2918" d="M700.694,623.639c.063-2.669.027-5.341-.074-8.011,0,0-.033-.021-.033,0a83.175,83.175,0,0,1-.166,8.53C700.514,623.986,700.6,623.811,700.694,623.639Z" transform="translate(15.265 3.805)" fill="#bfa871"/>
    <path id="Path_2919" data-name="Path 2919" d="M733.054,623.62q-.412-1.494-.767-3c-.11.681-.22,1.363-.349,2.046A.848.848,0,0,0,733.054,623.62Z" transform="translate(17.181 4.109)" fill="#bfa871"/>
    <path id="Path_2920" data-name="Path 2920" d="M498.236,692.26c31.3-10.334,64.37-1.223,96.451-4.2a138.83,138.83,0,0,0,29.724-6.031c.382-.123.225-.717-.163-.6a164.59,164.59,0,0,1-52.411,6.227c-15.919-.562-31.878-2.158-47.81-1.135a98.4,98.4,0,0,0-26.02,4.9C497.474,691.6,497.695,692.44,498.236,692.26Z" transform="translate(2.93 7.808)" fill="#bfa871"/>
    <path id="Path_2921" data-name="Path 2921" d="M469.251,703.024q3.488-4.978,7.006-9.935c.012-.017-.016-.034-.029-.017q-3.531,4.954-7.084,9.89C469.1,703.027,469.205,703.089,469.251,703.024Z" transform="translate(1.191 8.517)" fill="#bfa871"/>
    <path id="Path_2922" data-name="Path 2922" d="M472.228,701.991a39.054,39.054,0,0,0,5.625-8.392c.067-.134-.128-.249-.2-.117a46.448,46.448,0,0,1-5.766,8.162C471.676,701.879,472.023,702.229,472.228,701.991Z" transform="translate(1.355 8.539)" fill="#bfa871"/>
    <path id="Path_2923" data-name="Path 2923" d="M474.174,703.533c2.35-3.227,4.944-6.19,7.579-9.18a.023.023,0,0,0-.032-.033,72.308,72.308,0,0,0-7.947,8.906A.253.253,0,1,0,474.174,703.533Z" transform="translate(1.47 8.593)" fill="#bfa871"/>
    <path id="Path_2924" data-name="Path 2924" d="M483.6,696l3.506-3.787c.156-.169-.093-.423-.253-.255l-3.542,3.75C483.128,695.9,483.419,696.2,483.6,696Z" transform="translate(2.05 8.446)" fill="#bfa871"/>
    <path id="Path_2925" data-name="Path 2925" d="M697.021,610.513a.016.016,0,1,0-.031-.008c-.248,1.148-.53,2.285-.834,3.415.047-.066.091-.133.138-.2Q696.673,612.121,697.021,610.513Z" transform="translate(15.005 3.493)" fill="#bfa871"/>
  </g>
</svg>
