<svg xmlns="http://www.w3.org/2000/svg" width="405.781" height="282.238" viewBox="0 0 405.781 282.238">
  <g id="Group_3076" data-name="Group 3076" transform="translate(-822.918 -556.765)" opacity="0.3">
    <path id="Path_3009" data-name="Path 3009" d="M859.035,706.707a20.7,20.7,0,0,0-4.421-11.423c-.1-.114-.266.034-.2.155a28.043,28.043,0,0,1,3.891,13.962c-.025,4.313-1.37,8.634.169,12.829.158.429.833.246.69-.2C857.581,717.084,859.54,711.792,859.035,706.707Z" transform="translate(6.431 28.288)" fill="#bfa871"/>
    <path id="Path_3010" data-name="Path 3010" d="M853.725,697.277c-.043-.094-.208-.024-.168.073,1.62,3.932,2.87,7.93,2.546,12.236-.28,3.7-1.353,7.453-.383,11.132.115.438.851.347.8-.123-.447-4.291.609-8.4.521-12.673C856.964,704.069,855.306,700.7,853.725,697.277Z" transform="translate(6.258 28.694)" fill="#bfa871"/>
    <path id="Path_3011" data-name="Path 3011" d="M853.011,700.3a24.866,24.866,0,0,1,.528,14.456.344.344,0,0,0,.666.169,21.3,21.3,0,0,0-.975-14.719C853.175,700.083,852.968,700.174,853.011,700.3Z" transform="translate(6.146 29.29)" fill="#bfa871"/>
    <path id="Path_3012" data-name="Path 3012" d="M852.269,702.65a23.569,23.569,0,0,1-1.289,7.815c-.158.413.525.594.674.171a15.53,15.53,0,0,0,.886-8.028C852.508,702.446,852.275,702.5,852.269,702.65Z" transform="translate(5.728 29.772)" fill="#bfa871"/>
    <path id="Path_3013" data-name="Path 3013" d="M850.534,693.724c-18.031-6.355-25.605-25.671-22.749-43.665.032-.206-.27-.3-.32-.088-2.339,9.771-1.667,19.827,3.224,28.759,4.135,7.552,11.183,13.772,19.5,16.229C850.991,695.2,851.3,693.995,850.534,693.724Z" transform="translate(0.663 19.016)" fill="#bfa871"/>
    <path id="Path_3014" data-name="Path 3014" d="M896.988,652.419a36.72,36.72,0,0,0-9.269,2.481.6.6,0,1,0,.467,1.109,57.118,57.118,0,0,1,8.913-3.188C897.366,652.753,897.246,652.382,896.988,652.419Z" transform="translate(13.152 19.54)" fill="#bfa871"/>
    <path id="Path_3015" data-name="Path 3015" d="M865.071,717.588A20.629,20.629,0,0,1,874.6,709.2c.543-.228.313-1.127-.248-.9a17.876,17.876,0,0,0-9.728,9.027A.259.259,0,0,0,865.071,717.588Z" transform="translate(8.514 30.948)" fill="#bfa871"/>
    <path id="Path_3016" data-name="Path 3016" d="M867.6,716.926a.244.244,0,0,0,.42.246,17.632,17.632,0,0,1,8.651-7.07c.476-.181.278-.948-.214-.774A15.881,15.881,0,0,0,867.6,716.926Z" transform="translate(9.121 31.16)" fill="#bfa871"/>
    <path id="Path_3017" data-name="Path 3017" d="M873.906,712.063a8.588,8.588,0,0,0-3.833,3.82.248.248,0,0,0,.428.249,12.581,12.581,0,0,1,3.752-3.476A.344.344,0,0,0,873.906,712.063Z" transform="translate(9.627 31.716)" fill="#bfa871"/>
    <path id="Path_3018" data-name="Path 3018" d="M873.8,714.162a4.319,4.319,0,0,0-1.866,2.625.2.2,0,0,0,.394.109,4.16,4.16,0,0,1,1.772-2.222C874.429,714.477,874.12,713.95,873.8,714.162Z" transform="translate(10.012 32.143)" fill="#bfa871"/>
    <path id="Path_3019" data-name="Path 3019" d="M926.891,711.113c8.173-2.537,16.207-5.568,24.281-8.4s16.213-5.566,24.286-8.442c.555-.2.326-1.081-.247-.893-8.143,2.661-16.219,5.548-24.3,8.4s-16.23,5.613-24.141,8.907C926.515,710.789,926.608,711.2,926.891,711.113Z" transform="translate(21.184 27.901)" fill="#bfa871"/>
    <path id="Path_3020" data-name="Path 3020" d="M939.2,707.765c12.039-3.579,24.094-7.291,36.05-11.144a.363.363,0,0,0-.194-.7c-12.073,3.353-24.158,7.348-35.867,11.807A.019.019,0,0,0,939.2,707.765Z" transform="translate(23.75 28.423)" fill="#bfa871"/>
    <path id="Path_3021" data-name="Path 3021" d="M959.3,701.184c-4.46,2.141-9.047,3.6-13.641,5.366a.031.031,0,0,0,.017.06,52.308,52.308,0,0,0,13.908-4.94C959.908,701.512,959.623,701.028,959.3,701.184Z" transform="translate(25.068 29.495)" fill="#bfa871"/>
    <path id="Path_3022" data-name="Path 3022" d="M959.3,702.642c-3.668,1.714-7.424,3.076-11.2,4.514a.043.043,0,0,0,.023.082,57.994,57.994,0,0,0,11.474-4.089C959.943,702.991,959.646,702.483,959.3,702.642Z" transform="translate(25.567 29.793)" fill="#bfa871"/>
    <path id="Path_3023" data-name="Path 3023" d="M928.708,710.808c.514-.182.306-.989-.227-.828a95,95,0,0,1-44.854,2.469.049.049,0,0,0-.026.1A76.5,76.5,0,0,0,928.708,710.808Z" transform="translate(12.389 31.294)" fill="#bfa871"/>
    <path id="Path_3024" data-name="Path 3024" d="M920.768,714.278a80.789,80.789,0,0,1-15.02,2.065c-4.837.147-9.688-.165-14.519.094-.009,0-.012.013,0,.016,9.411,1.527,20.65,1.82,29.748-1.423A.39.39,0,0,0,920.768,714.278Z" transform="translate(13.953 32.174)" fill="#bfa871"/>
    <path id="Path_3025" data-name="Path 3025" d="M910.452,717.662a39.345,39.345,0,0,1-10.57,1.32.128.128,0,0,0,0,.255,33.562,33.562,0,0,0,10.692-1.136A.228.228,0,0,0,910.452,717.662Z" transform="translate(15.697 32.866)" fill="#bfa871"/>
    <path id="Path_3026" data-name="Path 3026" d="M907.619,720.027a35.68,35.68,0,0,1-4.9.9c-.222.033-.151.36.049.372a16.371,16.371,0,0,0,5.028-.64A.328.328,0,0,0,907.619,720.027Z" transform="translate(16.273 33.348)" fill="#bfa871"/>
    <path id="Path_3027" data-name="Path 3027" d="M981.659,570.792a88.288,88.288,0,0,0-34.83,10.54,123.711,123.711,0,0,0-15.67,10.621,79.475,79.475,0,0,1-18.638,10.382c-.354.143-.221.712.161.588a58.977,58.977,0,0,0,16.864-8.507c5.151-3.753,10.075-7.722,15.612-10.916a93.671,93.671,0,0,1,36.5-11.664C982.312,571.761,982.336,570.739,981.659,570.792Z" transform="translate(18.262 2.865)" fill="#bfa871"/>
    <path id="Path_3028" data-name="Path 3028" d="M969.639,573.191c-14.194,2.058-27.016,11.979-37.587,21.038-.168.144.056.441.239.309,5.79-4.157,11.4-8.578,17.5-12.284a69.026,69.026,0,0,1,20.09-8.193C970.459,573.923,970.2,573.11,969.639,573.191Z" transform="translate(22.282 3.355)" fill="#bfa871"/>
    <path id="Path_3029" data-name="Path 3029" d="M961.822,577.634c-6.457,2.434-13.228,5.85-18.369,10.522a.2.2,0,0,0,.238.31c6.038-3.712,11.76-7.32,18.346-10.05C962.508,578.22,962.317,577.447,961.822,577.634Z" transform="translate(24.61 4.257)" fill="#bfa871"/>
    <path id="Path_3030" data-name="Path 3030" d="M987.483,570.444c11.86-.086,23.819-1.53,35.643-2.41.558-.042.56-.918,0-.873-11.848.931-23.911,1.33-35.674,3.048C987.316,570.23,987.352,570.445,987.483,570.444Z" transform="translate(33.593 2.123)" fill="#bfa871"/>
    <path id="Path_3031" data-name="Path 3031" d="M1038.532,569.606a99.765,99.765,0,0,0-20.315.1c-6.393.55-13.054,1.371-19.16,3.4a.1.1,0,0,0,.051.187c6.7-.9,13.291-2.227,20.052-2.724,6.49-.477,12.885-.167,19.372-.067C1039.125,570.51,1039.088,569.673,1038.532,569.606Z" transform="translate(35.967 2.525)" fill="#bfa871"/>
    <path id="Path_3032" data-name="Path 3032" d="M1031.107,571.988c-2.624-.124-5.28-.369-7.906-.3-.066,0-.088.11-.016.122,2.608.423,5.289.542,7.922.775C1031.484,572.617,1031.491,572.006,1031.107,571.988Z" transform="translate(40.901 3.046)" fill="#bfa871"/>
    <path id="Path_3033" data-name="Path 3033" d="M914.269,602.908c-2.67,3.188-6.086,5.471-9.443,7.868a97.981,97.981,0,0,0-8.289,6.638,99.777,99.777,0,0,0-14.927,16.695c-.3.417.384.8.68.4a108.857,108.857,0,0,1,15.466-17.063c5.455-4.834,12.19-8.531,16.807-14.239C914.73,603,914.443,602.7,914.269,602.908Z" transform="translate(11.974 9.412)" fill="#bfa871"/>
    <path id="Path_3034" data-name="Path 3034" d="M901.82,614.879a77.688,77.688,0,0,0-21.593,26.5c-.27.53.523,1,.8.467a100.2,100.2,0,0,1,20.909-26.813C902.016,614.957,901.909,614.812,901.82,614.879Z" transform="translate(11.696 11.868)" fill="#bfa871"/>
    <path id="Path_3035" data-name="Path 3035" d="M887.853,632.46c.671-1.479,1.315-2.969,1.96-4.458.038-.089-.093-.169-.134-.078-.672,1.478-1.347,2.952-1.994,4.439C887.637,632.475,887.8,632.575,887.853,632.46Z" transform="translate(13.229 14.528)" fill="#bfa871"/>
    <path id="Path_3036" data-name="Path 3036" d="M916.271,654.932a98.069,98.069,0,0,0-30.612,21.826c-.037.04.022.1.06.06a99.871,99.871,0,0,1,30.789-21.48C916.784,655.216,916.545,654.808,916.271,654.932Z" transform="translate(12.814 20.049)" fill="#bfa871"/>
    <path id="Path_3037" data-name="Path 3037" d="M918.162,655.215c-5.148,2.836-10.146,5.965-14.995,9.285q-3.45,2.363-6.782,4.892c-1.446,1.1-2.838,2.116-3.482,3.866-.023.061.072.084.1.026,1.114-2.646,4.281-4.252,6.537-5.824q3.046-2.12,6.161-4.14c4.163-2.69,8.438-5.176,12.768-7.586C918.805,655.546,918.5,655.027,918.162,655.215Z" transform="translate(14.296 20.103)" fill="#bfa871"/>
    <path id="Path_3038" data-name="Path 3038" d="M916.269,657.77c-3.776,2.492-7.592,4.936-11.325,7.493a.042.042,0,0,0,.043.072c3.868-2.336,7.669-4.8,11.5-7.2C916.716,657.992,916.5,657.619,916.269,657.77Z" transform="translate(16.752 20.626)" fill="#bfa871"/>
    <path id="Path_3039" data-name="Path 3039" d="M969.1,655.6q2.237-.739,4.457-1.516a11.608,11.608,0,0,1,1.078-.867c.148-.106.3-.2.454-.306q-3.058,1.1-6.135,2.16C968.62,655.188,968.76,655.714,969.1,655.6Z" transform="translate(29.793 19.641)" fill="#bfa871"/>
    <path id="Path_3040" data-name="Path 3040" d="M981.451,647.641a33.044,33.044,0,0,0,7.425-3.092c.213-.123.026-.435-.19-.326A40.09,40.09,0,0,1,981.3,647.1.278.278,0,0,0,981.451,647.641Z" transform="translate(32.314 17.861)" fill="#bfa871"/>
    <path id="Path_3041" data-name="Path 3041" d="M1017.087,581.085a185.915,185.915,0,0,0-48.709,26.952c-.219.17.075.558.3.389a198.723,198.723,0,0,1,48.494-27.035C1017.359,581.318,1017.278,581.014,1017.087,581.085Z" transform="translate(29.698 4.966)" fill="#bfa871"/>
    <path id="Path_3042" data-name="Path 3042" d="M996.03,592.1c.293-.138.037-.567-.253-.434-5.228,2.4-10.342,5.04-15.36,7.854q-3.662,2.052-7.241,4.246c-1.233.754-2.642,1.358-2.666,2.944a.151.151,0,0,0,.3,0c.059-2.186,5.359-4.3,6.98-5.217q2.842-1.608,5.722-3.148C987.628,596.157,991.815,594.1,996.03,592.1Z" transform="translate(30.15 7.126)" fill="#bfa871"/>
    <path id="Path_3043" data-name="Path 3043" d="M993.547,595.257c-4.126,2.12-8.292,4.179-12.358,6.408-.248.136-.03.491.218.373,4.2-1.976,8.323-4.132,12.468-6.221C994.246,595.63,993.918,595.066,993.547,595.257Z" transform="translate(32.309 7.855)" fill="#bfa871"/>
    <path id="Path_3044" data-name="Path 3044" d="M969.09,753.078a61.458,61.458,0,0,0,45.357-20,.047.047,0,0,0-.066-.066,67.656,67.656,0,0,1-45.29,19.149A.46.46,0,0,0,969.09,753.078Z" transform="translate(29.769 36)" fill="#bfa871"/>
    <path id="Path_3045" data-name="Path 3045" d="M955.88,746.891c-.051,0-.048.072,0,.078a49.05,49.05,0,0,0,27.744-5.441c.431-.239.053-.838-.378-.647a68.953,68.953,0,0,1-13.292,4.714A64.585,64.585,0,0,1,955.88,746.891Z" transform="translate(27.154 37.604)" fill="#bfa871"/>
    <path id="Path_3046" data-name="Path 3046" d="M963.517,741.456c-.2,0-.319.32-.111.41,3.877,1.666,8.724-.232,11.677-2.866.467-.418-.224-1.108-.687-.689C971.1,741.292,967.709,741.475,963.517,741.456Z" transform="translate(28.676 37.059)" fill="#bfa871"/>
    <path id="Path_3047" data-name="Path 3047" d="M968.393,737.328c.377.02.378-.606,0-.587-.88.046-1.758.1-2.636.154a.139.139,0,0,0,0,.278C966.635,737.234,967.513,737.283,968.393,737.328Z" transform="translate(29.151 36.765)" fill="#bfa871"/>
    <path id="Path_3048" data-name="Path 3048" d="M939.83,751.028c-4.764-1.178-9.59-2-14.271-3.51a59.488,59.488,0,0,1-13.025-6.238c-7.261-4.5-14.136-9.744-22.333-12.457-.039-.012-.054.047-.017.06,8.709,2.966,15.648,9.08,23.321,13.923,7.9,4.983,16.9,7.645,26.081,9.109C940.155,752,940.416,751.172,939.83,751.028Z" transform="translate(13.736 35.147)" fill="#bfa871"/>
    <path id="Path_3049" data-name="Path 3049" d="M911.726,736.25a48.1,48.1,0,0,0,18.8,9.894.4.4,0,0,0,.212-.767,59.252,59.252,0,0,1-18.893-9.285C911.755,736.028,911.642,736.176,911.726,736.25Z" transform="translate(18.135 36.63)" fill="#bfa871"/>
    <path id="Path_3050" data-name="Path 3050" d="M924.782,740.036c-1.981-1.079-3.94-2.25-5.982-3.209a.135.135,0,0,0-.137.233c1.855,1.285,3.849,2.393,5.776,3.563C924.813,740.85,925.166,740.245,924.782,740.036Z" transform="translate(19.546 36.78)" fill="#bfa871"/>
    <path id="Path_3051" data-name="Path 3051" d="M921.367,734.589q1.644.674,3.289,1.345c.365.149.535-.453.164-.595l-3.309-1.272C921.182,733.942,921.05,734.46,921.367,734.589Z" transform="translate(20.074 36.215)" fill="#bfa871"/>
    <path id="Path_3052" data-name="Path 3052" d="M947.941,747.855l-3.956-.647c-.466-.076-.667.638-.2.715l3.956.646C948.212,748.645,948.412,747.931,947.941,747.855Z" transform="translate(24.636 38.902)" fill="#bfa871"/>
    <path id="Path_3053" data-name="Path 3053" d="M874.224,614.982c.053-2.322.27-4.608.487-6.919.011-.124-.181-.145-.213-.029a31.62,31.62,0,0,0-1,6.948C873.478,615.447,874.213,615.45,874.224,614.982Z" transform="translate(10.332 10.458)" fill="#bfa871"/>
    <path id="Path_3054" data-name="Path 3054" d="M872.871,615.587a42.052,42.052,0,0,0-.166-4.449.093.093,0,0,0-.185,0,42.447,42.447,0,0,0-.166,4.449A.259.259,0,0,0,872.871,615.587Z" transform="translate(10.098 11.089)" fill="#bfa871"/>
    <path id="Path_3055" data-name="Path 3055" d="M870.811,615.848c.006-.329.011-.659.016-.988a.266.266,0,0,0-.532,0c0,.329.01.659.016.988A.251.251,0,0,0,870.811,615.848Z" transform="translate(9.678 11.815)" fill="#bfa871"/>
    <path id="Path_3056" data-name="Path 3056" d="M1022.568,709.639c.335-.293-.115-.892-.482-.624a31.69,31.69,0,0,0-9.76,12.452c-.182.4.4.748.594.347A38.053,38.053,0,0,1,1022.568,709.639Z" transform="translate(38.684 31.088)" fill="#bfa871"/>
    <path id="Path_3057" data-name="Path 3057" d="M1026.278,709.746c.432-.317.034-1.042-.429-.734a38.994,38.994,0,0,0-11.8,12.83.24.24,0,0,0,.414.242A44.617,44.617,0,0,1,1026.278,709.746Z" transform="translate(39.036 31.086)" fill="#bfa871"/>
    <path id="Path_3058" data-name="Path 3058" d="M1023.064,713.482c.442-.366-.189-.986-.628-.627a20.394,20.394,0,0,0-6.041,8.079c-.137.342.424.572.592.251A24.423,24.423,0,0,1,1023.064,713.482Z" transform="translate(39.519 31.864)" fill="#bfa871"/>
    <path id="Path_3059" data-name="Path 3059" d="M1022.128,714.923a23.513,23.513,0,0,0-4.922,5.893c-.136.252.208.552.412.318,1.682-1.927,3.223-3.865,5.089-5.631C1023.091,715.137,1022.517,714.571,1022.128,714.923Z" transform="translate(39.682 32.286)" fill="#bfa871"/>
    <path id="Path_3060" data-name="Path 3060" d="M1020.985,718.486a38.663,38.663,0,0,0-2.967,3.74c-.246.352.328.679.574.335a32.137,32.137,0,0,1,2.944-3.524C1021.885,718.674,1021.321,718.114,1020.985,718.486Z" transform="translate(39.842 33.011)" fill="#bfa871"/>
    <path id="Path_3061" data-name="Path 3061" d="M1020.194,681.835l-.164.007a.066.066,0,0,0,0,.131l.164.008C1020.29,681.985,1020.29,681.83,1020.194,681.835Z" transform="translate(40.253 25.549)" fill="#bfa871"/>
    <path id="Path_3062" data-name="Path 3062" d="M1019.261,642.161a36.791,36.791,0,0,1,3.568,2.45.238.238,0,1,0,.29-.376,31.191,31.191,0,0,0-3.672-2.394A.186.186,0,0,0,1019.261,642.161Z" transform="translate(40.09 17.374)" fill="#bfa871"/>
    <path id="Path_3063" data-name="Path 3063" d="M1017.843,642.612c-.054-.018-.076.057-.036.084a20.5,20.5,0,0,1,2.377,1.88c.174.171.444-.1.267-.267A7.561,7.561,0,0,0,1017.843,642.612Z" transform="translate(39.807 17.536)" fill="#bfa871"/>
    <path id="Path_3064" data-name="Path 3064" d="M1016.218,643.023c-.3-.136-.573.308-.265.453a12.479,12.479,0,0,1,2.155,1.292c.292.219.586-.279.288-.493A12.339,12.339,0,0,0,1016.218,643.023Z" transform="translate(39.405 17.616)" fill="#bfa871"/>
    <path id="Path_3065" data-name="Path 3065" d="M1016.4,644.866l-1-.647c-.26-.17-.495.242-.241.413l.984.667C1016.417,645.482,1016.675,645.043,1016.4,644.866Z" transform="translate(39.25 17.857)" fill="#bfa871"/>
    <path id="Path_3066" data-name="Path 3066" d="M1012.783,644.614a.085.085,0,0,0,0,.17A.085.085,0,0,0,1012.783,644.614Z" transform="translate(38.769 17.946)" fill="#bfa871"/>
    <path id="Path_3067" data-name="Path 3067" d="M1030.192,634.924a.081.081,0,0,0-.082.14,32.383,32.383,0,0,1,6.308,5.855c.19.225.594-.081.412-.318A22.131,22.131,0,0,0,1030.192,634.924Z" transform="translate(42.317 15.964)" fill="#bfa871"/>
    <path id="Path_3068" data-name="Path 3068" d="M1035.489,637.987c.262.289.68-.136.426-.426a21.931,21.931,0,0,0-5.369-4.35c-.018-.011-.041.017-.024.03A41.493,41.493,0,0,1,1035.489,637.987Z" transform="translate(42.408 15.616)" fill="#bfa871"/>
    <path id="Path_3069" data-name="Path 3069" d="M1035.353,634.97c.322.288.8-.194.474-.475a27.547,27.547,0,0,0-4.091-3.041.1.1,0,0,0-.121.159C1032.8,632.782,1034.111,633.859,1035.353,634.97Z" transform="translate(42.626 15.254)" fill="#bfa871"/>
    <path id="Path_3070" data-name="Path 3070" d="M1035.467,632.9c.337.335.87-.2.519-.518a32.291,32.291,0,0,0-3.766-2.912c-.27-.178-.5.242-.249.426A31.351,31.351,0,0,1,1035.467,632.9Z" transform="translate(42.683 14.843)" fill="#bfa871"/>
    <path id="Path_3071" data-name="Path 3071" d="M1032.979,628.017a.074.074,0,0,0-.088.116c.945,1.06,2.054,2.042,3.076,3.034a.267.267,0,0,0,.377-.377A16.88,16.88,0,0,0,1032.979,628.017Z" transform="translate(42.889 14.553)" fill="#bfa871"/>
    <path id="Path_3072" data-name="Path 3072" d="M1035.254,628.661c.223.384.837.022.593-.347a5.989,5.989,0,0,0-1.965-1.88c-.3-.176-.55.27-.268.46A5.29,5.29,0,0,1,1035.254,628.661Z" transform="translate(43.015 14.224)" fill="#bfa871"/>
    <path id="Path_3073" data-name="Path 3073" d="M1034.94,626.487a.282.282,0,0,0,.4-.4,8.509,8.509,0,0,0-1.026-.95.247.247,0,0,0-.349.349A8.4,8.4,0,0,0,1034.94,626.487Z" transform="translate(43.098 13.954)" fill="#bfa871"/>
    <path id="Path_3074" data-name="Path 3074" d="M1034.985,624.675a.321.321,0,0,0,0-.641A.321.321,0,0,0,1034.985,624.675Z" transform="translate(43.257 13.742)" fill="#bfa871"/>
    <path id="Path_3075" data-name="Path 3075" d="M1119.955,634.843c.34.313.849-.2.507-.508q-1.637-1.5-3.3-2.966c-.3-.265-.736.164-.442.443Q1118.33,633.337,1119.955,634.843Z" transform="translate(59.998 15.223)" fill="#bfa871"/>
    <path id="Path_3076" data-name="Path 3076" d="M1121.933,633.131a.369.369,0,1,0,.285-.678,14.105,14.105,0,0,0-1.681-.537.244.244,0,0,0-.188.444A14.229,14.229,0,0,0,1121.933,633.131Z" transform="translate(60.734 15.351)" fill="#bfa871"/>
    <path id="Path_3077" data-name="Path 3077" d="M1123.341,631.87c.544.34,1.086.679,1.638,1.006a.329.329,0,0,0,.331-.567c-.547-.333-1.1-.652-1.657-.971A.309.309,0,0,0,1123.341,631.87Z" transform="translate(61.34 15.225)" fill="#bfa871"/>
    <path id="Path_3078" data-name="Path 3078" d="M1110.245,749.742c-6.067-2.324-12.243-4.8-16.857-9.555-4.811-4.961-7.363-12.077-10.844-17.967-.161-.273-.552-.034-.421.246,1.7,3.614,3.576,7.153,5.422,10.693a31.025,31.025,0,0,0,5.707,8.247c4.6,4.469,10.73,7.223,16.756,9.192C1110.559,750.779,1110.769,749.943,1110.245,749.742Z" transform="translate(52.944 33.775)" fill="#bfa871"/>
    <path id="Path_3079" data-name="Path 3079" d="M1099.2,742.123c.419.269.761-.368.382-.654a50.072,50.072,0,0,1-12.9-13.932.186.186,0,0,0-.321.187A37.115,37.115,0,0,0,1099.2,742.123Z" transform="translate(53.811 34.867)" fill="#bfa871"/>
    <path id="Path_3080" data-name="Path 3080" d="M1095.153,735.3a12.092,12.092,0,0,1-4.367-5.024.256.256,0,0,0-.466.2,11.059,11.059,0,0,0,4.474,5.441C1095.177,736.163,1095.541,735.544,1095.153,735.3Z" transform="translate(54.622 35.419)" fill="#bfa871"/>
    <path id="Path_3081" data-name="Path 3081" d="M1228.265,654.355a4.986,4.986,0,0,0,.424-2.253c-.152-1.894-1.421-2.764-3-3.168a3.236,3.236,0,0,0-1.394-.246c-.391-.042-.786-.065-1.178-.081-12.442-3.417-25.3-7.351-38.257-7.147-3.689.058-7.753.467-11.919.784-8.682-.012-17.677-.866-24.442-5.474a25.711,25.711,0,0,1-1.3-8.2c.234-4.688,1.182-9.445.008-14.088-1.093-4.316-3.79-7.965-6.8-11.15a122.586,122.586,0,0,0-9-8.5,59.258,59.258,0,0,1-1.095-7.135c-.36-4.1.353-8.065.28-12.122a9.058,9.058,0,0,0-.4-2.387c-.373-3-1.444-6.367-4.1-4.842a8.662,8.662,0,0,0-2.715,3.144,132.6,132.6,0,0,0-10.277,9.095,141.075,141.075,0,0,0-19.527-12.258,92.291,92.291,0,0,0-32.029-10.264,1.191,1.191,0,0,0-.751-.365c-2.416-.242-4.852-.4-7.3-.512a158.229,158.229,0,0,0-19.569-.223c-23.021,1.095-46.1,5.751-67.4,14.642-5.872,2.452-11.63,5.255-17.284,8.3-1.732.588-3.46,1.187-5.189,1.78-25.343,5.331-50.029,17.51-71.463,31.365-11.92,7.706-23.623,16.405-33.7,26.441-5.031,5.013-9.532,10.636-12.388,17.186-1.9,4.367-3.8,10.347-3.477,15.611-.012.077-.03.15-.042.226a1.552,1.552,0,0,0,.158.991c.014.106.023.215.039.319-.165,2.46-.254,4.926-.245,7.389.031,7.526.495,15.721,3.571,22.706,3.632,8.248,11.052,12.023,19.236,14.8a38.267,38.267,0,0,0,4.075,1.166,16.261,16.261,0,0,0-5.288,5.418c-2.648,4.807-2.988,10.753-5.24,15.8-1.714,3.839-5.617,7.887-5.985,12.182-.741,8.631,10.562,7.236,15.772,7.243a71.829,71.829,0,0,1,17.961,2.424c3.821.991,7.564,2.925,11.344,1.159,6.256,4.935,13.148,9.285,19.769,13.559a308.385,308.385,0,0,0,27.855,16.2c9.171,4.64,18.8,8.635,28.879,10.784,9.655,2.057,19.561,2.247,29.384,1.722a208.124,208.124,0,0,0,29.454-3.184c9.863-1.963,19.108-5.92,28.334-9.808q3.378-1.423,6.738-2.906c.182.785.367,1.57.57,2.351a142.342,142.342,0,0,1,3.318,13.879c.721,4.669.235,8.75-.316,13.418-.422,3.579.789,5.52,3.287,7.961,3.749,3.663,7.865,7.036,11.81,10.486a1.6,1.6,0,0,0,1.785.259c1.677-.112,2.052-1.643,2.772-3.017a53.939,53.939,0,0,1,6.427-9.513c9.095-10.887,21.089-18.712,31.824-27.814,10.228-8.671,19.339-18.649,23.661-31.424,4.939,12.422,16.629,19.893,28.816,25.115,7.943,3.4,16.184,6.144,23.89,10.085,7.452,3.811,13.614,9.863,21.452,12.868,1.339.513,2.345-1.186,1.752-2.278-8.286-15.286-8-34.284-10.352-51.1a96.852,96.852,0,0,0-5.914-23.673c-2.354-5.706-5.422-11.047-7.484-16.792a1.9,1.9,0,0,0,.787-.76c3.249-5.543,8.871-8.2,13.772-12.03a31.353,31.353,0,0,0,9.7-13.306c2.577-6.2,4.492-12.668,7.038-18.889,1.654-4.042,3.434-8.028,5.287-11.979,1.847-2.732,4.116-5.26,5.24-8.276.042-.113.07-.232.106-.349.109-.123.22-.25.331-.372l-.215-.02A6.651,6.651,0,0,0,1228.265,654.355Zm-68.529-8.987,4.786,3.982c.3.253.744-.187.437-.437l-4.193-3.414c1.068.122,2.145.2,3.224.259a45.083,45.083,0,0,0,5.125,3.765c.354.217.643-.313.321-.547-1.449-1.051-2.9-2.088-4.319-3.168.8.03,1.589.038,2.381.046a34.561,34.561,0,0,0,5.979,4.211.313.313,0,0,0,.315-.541,44.929,44.929,0,0,1-5.379-3.66c.944,0,1.883-.012,2.809-.039,1.987.032,3.916.017,5.72-.016,3.307-.06,6.62-.181,9.935-.33a71.318,71.318,0,0,1,12.91,1.4c3.379.708,6.739,1.511,10.1,2.33-2.583.327-5.157.748-7.734,1.208a73.652,73.652,0,0,1-7.687.637c-5.455.167-10.893-.1-16.327-.452-.009-.008-.005-.022-.016-.03a28.538,28.538,0,0,1-4.7-4.522c-.125-.155-.4.055-.279.215a24.023,24.023,0,0,0,4.138,4.281c-5.288-.351-10.574-.763-15.871-.922a54.972,54.972,0,0,1-4.679-4.784C1157.712,645.06,1158.719,645.227,1159.735,645.367Zm-4.058-.764a55.348,55.348,0,0,0,4.628,5c-.64-.016-1.281-.042-1.922-.048a34.871,34.871,0,0,1-5.11-5.661C1154.056,644.166,1154.86,644.4,1155.677,644.6Zm-3.5-1.131a31.62,31.62,0,0,0,4.973,6.068q-1.239,0-2.48.027a32.58,32.58,0,0,1-5.141-7.373c.173.1.355.185.531.279.06.111.122.22.182.331-.024-.091-.052-.184-.076-.276C1150.821,642.873,1151.489,643.192,1152.178,643.473Zm1.285,6.13c-.7.024-1.4.048-2.1.087-.216-1.232-.491-2.46-.809-3.683A33.549,33.549,0,0,0,1153.463,649.6Zm-17.584-40.1c.3.4.6.794.88,1.2a32.689,32.689,0,0,1,4.472,9.04,41.741,41.741,0,0,1,1.042,4.952C1140.068,619.662,1137.836,614.634,1135.88,609.5Zm6.129,2.3c1.976,3.686,1.982,7.594,1.7,11.566a39.154,39.154,0,0,0-1.216-4.792,35.426,35.426,0,0,0-3.945-7.991,42.692,42.692,0,0,0-4.236-5.408c-.351-1.03-.691-2.065-1.01-3.107-.032-.1-.06-.2-.091-.3C1136.462,604.755,1139.9,607.866,1142.008,611.8Zm-27.526-28.791c.738-.815,1.46-1.644,2.207-2.452-1.237,1.484-2.445,3-3.636,4.543.447-.7.909-1.386,1.407-2.063Zm-146.431-7.082a116.615,116.615,0,0,1,18.4-6.525,300.149,300.149,0,0,1,66.572-9.338c16.184,1.257,31.973,5.472,45.529,14.965a1.4,1.4,0,0,0,.677.259c3.227,2.154,6.455,4.308,9.605,6.565.574.412,1.138.841,1.7,1.265q-1.306,1.329-2.589,2.683-.946-.6-1.89-1.2c-6.488-4.166-12.69-9-19.415-12.759-.39-.218-.841.318-.492.637,5.265,4.794,11.577,8.621,17.528,12.506,1.045.682,2.1,1.346,3.152,2.012q-1.2,1.29-2.375,2.6l-.348-.171c-8.308-4.115-15.709-9.846-22.926-15.616-.075-.06-.185.041-.109.11,6.6,5.964,13.08,11.682,21.034,15.818.505.263,1.014.518,1.526.773q-1.1,1.234-2.186,2.481a68.264,68.264,0,0,1-11.519-8.771.012.012,0,0,0-.017.016,50.516,50.516,0,0,0,9.941,8.715c.346.229.7.442,1.064.654q-.864,1-1.716,2c-1.726-1.159-3.413-2.382-5.1-3.709a.019.019,0,0,0-.026.028,31,31,0,0,0,4.633,4.258c-2.882,3.395-5.7,6.832-8.491,10.254-5.077,6.23-9.875,12.622-13.384,19.89a78.709,78.709,0,0,0-3.382,8.282,221.662,221.662,0,0,0-29.274,4.558,29.787,29.787,0,0,0,3.3-5.433c.355-.707-.714-1.329-1.061-.62a31.05,31.05,0,0,1-2.849,5.059,10.107,10.107,0,0,1-1.273,1.4c-9.419,2.093-18.779,4.549-28.032,6.93a9.016,9.016,0,0,0,1.037-2.44c.135-.529-.7-.752-.812-.224a7.305,7.305,0,0,1-1.06,2.609c-.077.118-.166.225-.252.335-6.523,1.677-12.994,3.308-19.387,4.738-2.229.5-4.482.961-6.73,1.43,1-1.639,1.943-3.3,2.869-4.99.344-.629-.63-1.195-.961-.561-.991,1.9-1.956,3.8-2.843,5.75-10.169,2.1-20.505,3.973-30.786,6.107a34.885,34.885,0,0,0,5.222-4.476c.37-.383-.222-.973-.585-.584a39.828,39.828,0,0,1-6.347,5.42c-9.064,1.91-18.069,4.051-26.849,6.78,6.106-2.92,12.143-6,18.008-9.379a.491.491,0,0,0-.5-.847c-6.886,3.7-13.795,7.337-20.867,10.664-2.448,1.151-4.941,2.223-7.441,3.283a130,130,0,0,0-24.752,12.423,70.053,70.053,0,0,0-14,12.04c-1.758,1.734-3.437,3.547-5.077,5.393-.167-4.237-3.255-8.059-2.222-12.574a.255.255,0,0,0-.491-.136c-1.7,4.863,1.849,8.962,1.847,13.7-.526.607-1.073,1.2-1.586,1.815-.606-2.183-1.985-4.037-2.631-6.225-1.534-5.194.2-10.7,3.068-15.082.343-.526-.5-1.015-.841-.491a20.744,20.744,0,0,0-3.709,12.637,14.467,14.467,0,0,0,1.551,5.531,22.262,22.262,0,0,1,1.859,4.5c-.649.854-1.2,1.727-1.8,2.452a19.918,19.918,0,0,1-3.969-12.013c.023-6.052,2.5-11.809,4.936-17.23.277-.616-.635-1.155-.914-.534-2.642,5.865-5.307,12.1-5.073,18.664a18.924,18.924,0,0,0,4.565,11.627,3.616,3.616,0,0,1-1.782,1.084,27.577,27.577,0,0,1-3.916-7.4c-1.525-5.357-.771-11.1.689-16.376,3.084-11.153,9.134-21.835,15.458-31.45a153.219,153.219,0,0,1,51.577-48.473c11.173-6.465,22.805-12.256,32.813-20.48a54.389,54.389,0,0,1,8.891-4.463c8.182-3.172,16.931-4.983,25.457-6.967,18.559-4.317,37.547-7.674,56.676-6.727a113.5,113.5,0,0,1,30.925,5.955c1.178.4,1.635-1.408.507-1.839-17.291-6.6-36.651-7.247-54.867-5.317a258.111,258.111,0,0,0-28.221,4.776c-8.824,1.939-17.763,3.872-26.381,6.6A60.747,60.747,0,0,0,963.846,580Q965.915,577.929,968.051,575.929Zm140.882,13.352a37.76,37.76,0,0,0-1.567,3.585c-.928,1.34-1.829,2.7-2.722,4.053.482-1.492,1-2.962,1.569-4.418C1107.124,591.43,1108.017,590.343,1108.934,589.281Zm-7.6,9.18c.006-.041.011-.1.017-.143,1.092-1.314,2.182-2.63,3.279-3.936a32.313,32.313,0,0,0-1.733,5.27q-1.17,1.842-2.289,3.7c.052-.355.1-.712.156-1.067C1100.952,601.008,1101.147,599.735,1101.33,598.461Zm-4.219,6.686c-.023-.34-.547-.346-.533,0a34.632,34.632,0,0,1-.259,5.6c-.284.514-.577,1.029-.853,1.54-.6,1.12-1.179,2.25-1.74,3.387a7.854,7.854,0,0,0-1.049-3.767c0-.007-.02-.009-.02-.009a23.287,23.287,0,0,0,.177,3.944c.016.575,0,1.148-.021,1.72-6.375,13.53-10.051,28.139-13.836,42.6a29.117,29.117,0,0,0-7.966-6.563.244.244,0,0,0-.246.42,41.139,41.139,0,0,1,7.874,7.429q-.215.82-.431,1.642a66.114,66.114,0,0,0-9.37-5.973.139.139,0,0,0-.14.24c2.513,1.837,4.982,3.759,7.49,5.616q-.869-.076-1.738-.119c-2.966-2.419-6.763-3.781-10.207-5.357a.139.139,0,0,0-.14.24c2.894,1.952,6.182,3.1,9,5.071-1.413-.034-2.824.01-4.236.085a24.963,24.963,0,0,0-6.785-4.629c-.338-.16-.637.339-.3.507a29.147,29.147,0,0,1,6.158,4.18,95.842,95.842,0,0,0-20.158,4.008c-5.664,1.213-11.254,2.719-16.784,4.452-.2.1-.408.2-.61.3a126.414,126.414,0,0,1-20.068,5.018c4.275-2.11,8.378-4.549,12.546-6.856a73.865,73.865,0,0,1,14.44-6.495c5.349-1.605,10.9-2.274,16.367-3.36,4.333-.861,9.8-1.727,13.4-4.508,2.829-2.185,4.1-5.873,5.443-9.048,2.584-6.12,4.833-12.379,7.274-18.555,3.83-7.751,9.169-14.441,14.589-21.127q2.977-3.674,5.984-7.293c-.06.379-.121.76-.184,1.136-.275,1.608-.57,3.214-.842,4.824q-1.1,1.864-2.153,3.728C1097.233,607.829,1097.2,606.475,1097.111,605.147Zm-97.548,87.015c.172.124.344.244.516.365.135.176.284.342.423.514-.111.029-.22.06-.331.088C999.967,692.8,999.769,692.492,999.564,692.162Zm7.234,10.953a52.6,52.6,0,0,0,14.113,8.055c.582.6,1.171,1.192,1.754,1.791a72.5,72.5,0,0,1-10.414-4.643.224.224,0,0,0-.225.388,70.228,70.228,0,0,0,11.718,5.357q1.131,1.16,2.266,2.316c-3.2-1.327-6.447-2.561-9.6-4-.361-.165-.682.364-.315.541a126.942,126.942,0,0,0,11.683,5.253q1.571,1.563,3.248,3.106-3.734-1.631-7.481-3.238c-.367-.159-.692.374-.319.547,3.237,1.485,6.472,2.981,9.728,4.425.947.828,1.922,1.633,2.91,2.428q-2.573-.921-5.171-1.757c-.385-.124-.544.473-.166.6,2.488.857,4.938,1.793,7.385,2.748.814.612,1.644,1.2,2.481,1.779a47.333,47.333,0,0,1-14.332-4.238,68.111,68.111,0,0,1-11.714-10.479,108.958,108.958,0,0,1-9.258-13.262l1.012-.171-.016-.018c1.061.812,2.135,1.582,3.176,2.307a54.959,54.959,0,0,0,8.3,4.787c.475.481.943.966,1.415,1.449a99.6,99.6,0,0,1-12-6.295C1006.838,702.808,1006.669,703.011,1006.8,703.115Zm43.648,40.2c.016-.4.032-.8.045-1.2.184-1.552.777-3.535.521-5.044a1.3,1.3,0,0,0-.076-.2c.122.021.241.044.363.065,1.213.2,2.443.4,3.682.579A28.037,28.037,0,0,0,1050.446,743.314Zm6.079-5.595c.391.049.785.09,1.178.131a34.692,34.692,0,0,0-7.431,9.7c.026-.608.054-1.215.079-1.824A37.242,37.242,0,0,1,1056.525,737.719Zm-6.007-2.9c-3.7-.63-7.408-1.288-11.017-2.28-.667-.321-1.332-.659-2-1a37.348,37.348,0,0,0,9.237,1.1,45.66,45.66,0,0,0,5.6,2.489Q1051.431,734.98,1050.518,734.824Zm-46.749-36.06c.216.188.438.366.657.55l-.278.043C1004.022,699.16,1003.9,698.961,1003.769,698.764ZM887.36,727.021c7.867.919,15.473-.319,23.116-2.153,7.853-1.886,15.671-3.933,23.513-5.865,7.871-1.94,15.8-3.8,23.4-6.648,7.352-2.755,14.348-5.826,22.09-7.39,7.422-1.5,14.958-2.426,22.437-3.61,2.41,3.892,4.742,7.966,7.457,11.708-13.657,3.2-27.216,6.552-40.358,11.949-10.224,4.2-20.357,8.683-31.159,11.211a107.148,107.148,0,0,1-31.222,2.527,106.046,106.046,0,0,1-18.562-2.882c-4.965-1.226-14.225-2.652-17.066-7.289a14.422,14.422,0,0,1-1.667-4.641c.016-.418.048-.833.073-1.25A82.719,82.719,0,0,0,887.36,727.021Zm-17.865-5.591a48.984,48.984,0,0,1,1.066-6.962,13.592,13.592,0,0,0,2.4,1.507,46.6,46.6,0,0,0,11.948,3.825,76.373,76.373,0,0,0,24.91.164c18.32-2.572,35.988-9.169,53.618-14.525,11.488-3.489,23.019-6.855,34.63-9.91,1,1.479,1.989,2.919,2.9,4.321-12.556,1.894-25.215,3.422-37.058,8.186-14.76,5.938-30.136,9.417-45.576,13.115-8.809,2.108-17.68,4.762-26.828,4.428C883.955,725.3,876.759,723.238,869.495,721.43Zm2.323,20.6a17.079,17.079,0,0,1,1.365-1.924,17.912,17.912,0,0,1,3.737-3.324c.535.182,1.072.353,1.608.516a26.685,26.685,0,0,0-6.663,6.249c-.034.046-.082.115-.137.2C871.759,743.175,871.791,742.6,871.818,742.035Zm-.168-4.858c.04-.033.079-.068.117-.1.679-.515,1.373-1.014,2.064-1.514.56.255,1.131.5,1.716.724a17.907,17.907,0,0,0-3.681,3.768,19.056,19.056,0,0,0-.107-2.08C871.729,737.714,871.684,737.444,871.649,737.177Zm1.216-2.079c-.455.355-.912.709-1.35,1.088q-.159-1.037-.36-2.085A17.172,17.172,0,0,0,872.865,735.1Zm-1.216,10.265c.093-.154.17-.276.217-.346a22.736,22.736,0,0,1,3.159-3.584,30.741,30.741,0,0,1,4.9-3.719c1.08.311,2.139.6,3.131.888a109.967,109.967,0,0,0,18.122,3.584c22.925,2.6,43.721-2.922,64.725-11.649a233.237,233.237,0,0,1,34.8-11.632c3.738-.9,7.492-1.744,11.247-2.577.4.469.8.938,1.225,1.387,1.289,1.368,2.664,2.7,4.1,3.993-3.63.765-7.252,1.6-10.816,2.57-.318.087-.179.535.134.484,3.863-.621,7.723-1.411,11.557-2.269.468.409.947.813,1.427,1.214-1.823.421-3.647.842-5.452,1.339a.232.232,0,0,0,.124.447c1.87-.476,3.72-1.031,5.569-1.584q1.048.867,2.129,1.708c-1.607.235-3.236.473-4.805.866a.07.07,0,0,0,.019.137c1.774-.071,3.568-.342,5.329-.589a91.334,91.334,0,0,0,23.305,12.832,5.576,5.576,0,0,1,.655.8,10.146,10.146,0,0,1,1.239,4.9,130.993,130.993,0,0,0-.781,35.237c-18.236,9.652-37.5,17.391-58.216,19.224a96.442,96.442,0,0,1-42.239-5.846,271.561,271.561,0,0,1-37.4-17.649A317.391,317.391,0,0,1,872.3,751.749,17.748,17.748,0,0,1,871.649,745.363Zm162.8-15.468c-1.344-.755-2.678-1.542-3.988-2.368a36.1,36.1,0,0,0,11.848,2.551q1.269.811,2.572,1.555A50.138,50.138,0,0,1,1034.444,729.9Zm-24.738-27.707a89.943,89.943,0,0,1-7.939-6.513c-.2-.315-.406-.649-.607-.969.113-.029.227-.061.342-.09-.193-.3-.4-.585-.583-.886-.115-.183-.209-.367-.3-.551a43.152,43.152,0,0,0,12.758,10.389c.645.627,1.279,1.266,1.917,1.9A56.69,56.69,0,0,1,1009.706,702.189ZM992.527,686.01a49.9,49.9,0,0,0,4.5,7.958q-9.781,2.573-19.495,5.392c-17.4,5.062-34.566,11.078-52.114,15.594-9.545,2.457-19.357,4.309-29.251,4.186a61.2,61.2,0,0,1-14.115-1.762,52.752,52.752,0,0,1-7.24-2.375,16.533,16.533,0,0,1-3.873-2.044,38.484,38.484,0,0,1,4.981-11.24c4.8-7.321,11.655-13.049,18.982-17.717,14.285-9.106,30.42-14.638,46.762-18.748,16.429-4.132,33.129-6.961,49.677-10.541,16.838-3.642,33.408-8.434,50.24-12.09l-.285.285a.109.109,0,0,0,.154.153l.329-.33a.1.1,0,0,0,0-.151c1.327-.287,2.652-.583,3.981-.855a207.643,207.643,0,0,1,26.58-3.758c-.012.037-.026.073-.036.111q-1.2,2.69-2.368,5.4c-1.044,2.425-1.775,5.4-3.3,7.517-2.36,3.284-6.682,4.186-10.411,5.07-5.425,1.289-10.987,1.887-16.418,3.143-9.917,2.294-18.416,7.615-27.283,12.374a75.3,75.3,0,0,1-15.242,6.227,16.509,16.509,0,0,0-2.075.717c-1.705.285-3.385.9-4.176,2.519C989.978,683.189,991.051,684.733,992.527,686.01ZM952.1,583.847l.2-.057a1.834,1.834,0,0,0,.9-.536c4.238-2.268,8.512-4.44,12.857-6.433q-1.761,1.728-3.432,3.544a.945.945,0,0,0-.609.238c-9.832,8.566-21.516,14.438-32.766,20.868a160.112,160.112,0,0,0-29.507,21.312c-17.051,15.769-31.348,36.105-38.549,58.326-1.743,5.376-2.87,11.177-1.991,16.825a20.765,20.765,0,0,0,3.008,8.059c.375.583.781,1.148,1.195,1.709a6.5,6.5,0,0,1-1-.272c-2.516-.919-4.68-3.073-6.619-5-.042-.128-.088-.247-.128-.379-2.918-9.973,1.893-22.337,5.808-31.362,9.032-20.826,23.652-41.367,41.256-55.751,2.7-2.208,5.485-4.326,8.3-6.412a.391.391,0,0,0,.712.074c.184-.344.38-.681.566-1.023,4.227-3.1,8.527-6.113,12.84-9.089C934.229,593.9,943.094,588.7,952.1,583.847ZM860.924,712.976c-.206.238-.417.488-.635.741-.354.188-.7.388-1.051.579a16.994,16.994,0,0,0,.247-2.071C859.961,712.477,860.444,712.725,860.924,712.976Zm-2.2-1.165a24.02,24.02,0,0,1-.49,3.036c-.4.222-.8.435-1.2.66-.162-.106-.326-.207-.49-.311a30.732,30.732,0,0,0,.329-4.069c.431.128.862.259,1.3.383C858.354,711.612,858.543,711.711,858.727,711.811Zm45.782-108.744c.945-.442,1.883-.9,2.83-1.336a87.8,87.8,0,0,0-4.412,8.726c-.925.72-1.834,1.461-2.739,2.207,1.484-3.121,2.967-6.248,4.323-9.422A.218.218,0,0,0,904.509,603.067Zm15.764-5.133c-1.367.943-2.711,1.9-4.064,2.857q1.277-2.081,2.629-4.116c1.234-.517,2.468-1.038,3.7-1.549Zm2.556-2.845a.076.076,0,0,0,0-.084q2.238-.923,4.48-1.843-3.116,2.061-6.184,4.176Zm-8.292,6.876q-2.482,1.764-4.939,3.537,1.733-3.306,3.7-6.468,2.1-.918,4.217-1.809Q915.973,599.562,914.537,601.966Zm-6.634,4.773c-.784.57-1.574,1.139-2.352,1.713-.385.283-.759.584-1.142.872,1.252-2.645,2.517-5.288,3.713-7.955.564-.259,1.126-.524,1.69-.782.672-.307,1.35-.6,2.024-.9A74.682,74.682,0,0,0,907.9,606.739Zm13.548-13.85c2.537-.879,5.084-1.7,7.641-2.494-2.876,1.233-5.731,2.522-8.576,3.83C920.827,593.779,921.135,593.33,921.451,592.889Zm-1.257.45c-.367.513-.738,1.023-1.1,1.543q-2.234,1.031-4.462,2.063.681-1.039,1.389-2.068Q918.1,594.084,920.193,593.339ZM833.5,657.9a24.81,24.81,0,0,1,5.336-13.04c5.081-5.954,12.347-10.592,18.294-15.238,3.516-2.749,6.639-5.932,9.874-8.989q5.558-3.844,11.323-7.361c3.792-2.3,7.676-4.48,11.618-6.555l2.158-.845a.542.542,0,0,0,.348-.455c7.009-3.58,14.2-6.821,21.476-9.728.295-.118.59-.226.885-.342q-.824,1.115-1.6,2.262l-1.014.469c-7.939,3.657-15.852,7.367-23.662,11.294a107.152,107.152,0,0,0-11.09,5.968,42,42,0,0,0-8.047,7.309,80.181,80.181,0,0,1-7.888,8.248,65.087,65.087,0,0,1-8.6,5.8c-5.647,3.378-12.416,7.016-15.2,13.345a.321.321,0,0,0,.554.324c3.914-5.594,9.14-9.043,14.923-12.489a61.334,61.334,0,0,0,15.145-12.236,63.907,63.907,0,0,1,7.433-7.606c3.265-2.635,7.114-4.442,10.842-6.308q8.649-4.33,17.416-8.425c-1.776,3.417-3.41,6.914-5.059,10.4-.635.538-1.257,1.093-1.882,1.644,1.072-2.54,2.118-5.092,3.1-7.663.1-.264-.338-.45-.459-.193-1.4,2.978-2.711,6.006-3.984,9.044-.772.7-1.532,1.41-2.288,2.127q1.664-4.856,3.314-9.717c.088-.257-.31-.36-.4-.111q-2.007,5.43-3.992,10.866c-.9.873-1.788,1.763-2.667,2.66a79.823,79.823,0,0,0,3.2-10.428.232.232,0,0,0-.447-.124,108.726,108.726,0,0,1-3.952,11.547.316.316,0,0,0,0,.255c-.452.474-.881.971-1.327,1.45a85.626,85.626,0,0,0,.968-9,.159.159,0,0,0-.311-.042,75.764,75.764,0,0,0-1.473,9.919v.008a165.5,165.5,0,0,0-25.435,37.216c-4.477,8.911-8.907,19.25-9.686,29.48-1.184-.258-2.364-.534-3.55-.776a.2.2,0,0,0-.107.386c1.191.43,2.4.825,3.591,1.243-.042.74-.066,1.48-.067,2.218a37.184,37.184,0,0,0-7.467-3.259c-.053-.016-.1.058-.057.1a38.838,38.838,0,0,0,7.544,4.665c.032.747.1,1.5.184,2.243-5.27-2.106-10.676-4.812-10.856-11.372a.208.208,0,0,0-.416,0c-.357,6.712,5.578,11.108,11.5,12.918a21.4,21.4,0,0,0,.8,3.172,67.215,67.215,0,0,1-7.636-3.359c-6.248-3.722-6.721-11.1-7.326-17.605-.054-.583-.947-.606-.926,0,.194,5.777.926,12.416,5.343,16.636,3,2.864,7.105,3.7,10.861,5.2a15.227,15.227,0,0,0,2.227,3.886c.107.135.231.26.352.388a41.5,41.5,0,0,1-12.467-6.872,22.312,22.312,0,0,1-6.532-8.714c-1.463-3.728-1.652-7.793-1.88-11.745C833.892,674.093,832.717,665.787,833.5,657.9Zm14.39,57.75c-8.735-2.664-16.317-6.706-19.306-15.839-2.935-8.965-3.265-19.19-2.127-29.144a94.285,94.285,0,0,1,6.592-19.008A26.421,26.421,0,0,0,832,655.831c-.718,4.375-.36,8.829-.122,13.228.256,4.769.495,9.54.795,14.307.5,8.022,2.483,15,8.868,20.3,4.331,3.6,9.362,5.641,14.595,7.239-.1,1.29-.246,2.563-.446,3.829a5.76,5.76,0,0,0-1.8-.478c-.222-.023-.262.285-.106.388.587.387,1.161.765,1.732,1.151-.041.222-.088.443-.131.664-.145.083-.29.165-.434.25A18.947,18.947,0,0,1,847.886,715.648Zm-7.019,30.59a51.429,51.429,0,0,0,3.8-8.918c1.372-4.321,1.5-9.352,4.839-12.757.041-.042.084-.082.125-.122-.083.213-.178.419-.243.647-1.028,3.541-.595,7.408-1.586,11.014-1.2,4.362-3.7,7.3-6.779,10.47q-.681.7-1.307,1.438A19.328,19.328,0,0,0,840.868,746.238Zm2.776,10.894c-2.743-1.927-2.263-6.208.012-8.793.238-.271-.155-.662-.4-.395-1.69,1.823-2.839,4.345-2.063,6.849a5.216,5.216,0,0,0,1.46,2.318,7.661,7.661,0,0,1-1.679-.271,4.509,4.509,0,0,1-.743-3.549c.1-.461-.614-.642-.712-.18a4.388,4.388,0,0,0,.7,3.47,4.2,4.2,0,0,1-1.325-.85c-.279-.76-.621-1.612-.867-2.471,0-.043.011-.087.014-.13,1-3.022,3.253-5.265,5.448-7.639a21.507,21.507,0,0,0,4.743-7.554,35.138,35.138,0,0,0,1.688-9.24c.158-2.2.361-3.968,1.635-5.784a11.081,11.081,0,0,1,3.326-1.63,12.653,12.653,0,0,0-3.208,9.134.356.356,0,0,0,.711-.016,14.814,14.814,0,0,1,4.35-9.5,9.672,9.672,0,0,1,1.743-.051,14.32,14.32,0,0,0-4.427,6.089c-1.01,2.694-.93,5.562-1.466,8.353-.62,3.224-2.355,5.785-4.394,8.287-2.348,2.879-6.619,6.694-4.892,10.82a6.163,6.163,0,0,0,2.2,2.713C844.877,757.126,844.26,757.129,843.643,757.131Zm20.7,1.191a78.647,78.647,0,0,0-9.761-1.213c-2.206-.152-4.387-.112-6.57-.055-3.078-1.114-5.4-3.144-3.457-7.073,1.821-3.68,5.31-6.361,7.308-9.967,1.937-3.495,1.7-7.216,2.6-10.992a13.485,13.485,0,0,1,5.5-7.951,7.615,7.615,0,0,1,2.168.885,8.681,8.681,0,0,1,2.637,2.687c1.634,5.182,3.32,10.35,3.426,15.863.079,4.113-.891,8.261.385,12.276.054.171.125.332.187.5-.043.531-.081,1.066-.1,1.6a8.976,8.976,0,0,0,1.274,5.021C868.012,759.333,866.11,758.671,864.339,758.323Zm7.1,2a8.24,8.24,0,0,1-1.048-1.588,7.933,7.933,0,0,1-.7-3.439,21.446,21.446,0,0,0,4.58,5.424c.067.059.137.115.2.173A19.477,19.477,0,0,1,871.442,760.326Zm172.848,27.879c-8.4,3.618-16.88,7.391-25.717,9.823-8.862,2.44-18.07,3.218-27.2,3.94-9.475.75-19.051,1.214-28.511.057a99.564,99.564,0,0,1-29.792-9.057c-17.117-7.969-33.331-18.337-48.609-29.382-3.995-2.887-9.191-5.94-11.584-10.459-.018-.032-.029-.066-.046-.1,21.045,16.324,44.074,30.195,68.82,40.164,13.625,5.489,27.723,8.549,42.458,7.9,14.149-.626,28.039-4.125,41.19-9.274a214.568,214.568,0,0,0,21.848-10.146c.23,1.635.493,3.266.8,4.887C1046.737,787.114,1045.526,787.673,1044.289,788.206Zm21.175,44.316q-2.885-2.526-5.766-5.054a20.6,20.6,0,0,0,5.873,2.487C1065.533,830.68,1065.473,831.575,1065.464,832.522Zm-4.409-5.43a30.422,30.422,0,0,1-4.34-2.67,6.237,6.237,0,0,1-.379-.624.349.349,0,0,0-.148-.292l-.011-.028a24.81,24.81,0,0,0,8.264,4.047.467.467,0,0,0,.248-.9,63.963,63.963,0,0,1-8.89-4.3c-.041-.19-.068-.392-.093-.6a17.7,17.7,0,0,0,5.627,3.257.43.43,0,0,0,.33-.783,51,51,0,0,1-6.009-3.551,12.438,12.438,0,0,1,.169-1.783c.18-1.1.35-2.176.464-3.277,1.464.535,2.919,1.082,4.38,1.655.413.163.688-.508.3-.713a19.412,19.412,0,0,0-4.6-1.687c.031-.438.049-.875.061-1.313.725.349,1.493.633,2.222.948a.3.3,0,1,0,.233-.55c-.8-.279-1.62-.611-2.447-.848.1-7.185-2.13-14.231-3.906-21.12-3.681-14.288-2.995-28.127-2.348-42.345a39.06,39.06,0,0,1,8.973-11.639,23.449,23.449,0,0,0,10.129-1.143c.122-.021.242-.036.364-.059a69.46,69.46,0,0,0-1.431,7.49c-.9,4.117-1.71,8.279-2.449,12.45a170.816,170.816,0,0,0-3.342,23.269c-.969,13.54,1.958,26.672,2.9,40a27.449,27.449,0,0,0-3.394-.429c-.313-.018-.39.495-.076.554,1.183.219,2.355.459,3.526.714.019.3.043.594.06.891a52.29,52.29,0,0,0-5.879-1.607.348.348,0,0,0-.184.671c2.064.632,4.1,1.3,6.127,2.028.1,2.012.137,4.03.1,6.055A28.04,28.04,0,0,1,1061.055,827.092Zm160.96-169.848c-.841,1.325-1.7,2.637-2.506,3.976-.043.066-.1.131-.139.2-4.4,6.9-6.967,14.794-9.807,22.414-2.94,7.887-6.268,16.051-12.482,21.956a27.685,27.685,0,0,1-4.857,2.913c-1.8.841-3.708,1.545-5.544,2.371a46.861,46.861,0,0,1-8.373,1c-.489.013-.957.617-.617,1.073a65.892,65.892,0,0,1,4.174,6.578c1.619,5.939,4.492,11.351,7.122,17.021a98.027,98.027,0,0,1,7.439,25.86c2.489,15.4,3.678,30.395,8.352,45.141l-.023-.029a.489.489,0,0,0-.084-.147c-.088-.106-.184-.2-.274-.308-.489-.585-1-1.154-1.5-1.721-2.1-4.666-3-9.8-3.855-14.9-.112-.673-1.124-.383-1.02.281a57.958,57.958,0,0,0,3.265,13.341,58.809,58.809,0,0,0-11.385-6.852c-6.368-3.137-12.839-6.106-19.3-9.042-.3-.136-.562.294-.261.447,11.013,5.571,22.614,10.155,32.179,18.028a23.975,23.975,0,0,0,1.52,2.437c-.343-.2-.681-.416-1.026-.614-4.365-2.9-8.474-6.213-13.1-8.719-6.513-3.527-13.482-6.108-20.335-8.876-10.557-4.262-22.079-9.772-29.623-18.644-1.967-4.331-4.044-8.613-6.036-12.932-.2.977-.424,1.948-.715,2.9a25.579,25.579,0,0,1-2.65,5.771v.014c-10.171,26.056-40.76,37.918-56.925,59.958.337-.671.68-1.332,1.049-1.962a79.622,79.622,0,0,1,21.97-24.419c.669-.5.04-1.632-.667-1.14a75.411,75.411,0,0,0-16.785,16,73.877,73.877,0,0,0-6.228,9.482,38.694,38.694,0,0,0-3.613,7.824c.371-3.185,1.661-6.363,2.147-9.48a61.324,61.324,0,0,0,.5-11.92c-.341-8.565-1.633-17.082-.732-25.657.059-.555-.8-.544-.865,0-1.034,8.868.3,17.7.581,26.571a54.8,54.8,0,0,1-.979,13.411,51.616,51.616,0,0,0-1.5,7.318c-.336-1.462.189-4.174.211-4.977a95.364,95.364,0,0,0-.723-13.271c-.994-8.846-2.563-17.606-2.653-26.532-.179-17.589,4.525-34.209,7.6-51.3.062-1.755.14-3.508.2-5.258a1.618,1.618,0,0,0-1.019-.049c-18.17,4.639-33.047-7.714-44.867-19.915-2.47-2.549-4.924-5.1-7.422-7.6a95.774,95.774,0,0,0-9.574-10.478q-3.159-2.964-6.554-5.664c-1.89-1.507-7.12-5.087-4.662-7.329.219.007.367.014.412.018a36.724,36.724,0,0,0,5.411-.02,55.144,55.144,0,0,0,9.37-1.615c4.48-1.136,8.848-2.664,13.222-4.17,2.407-.636,4.807-1.3,7.2-2.035,3.5-1.072,6.966-2.146,10.428-3.138,4.4-1.042,8.836-1.936,13.3-2.64,4.213-.662,8.436-1.109,12.678-1.526.684-.068,1.362-.123,2.033-.185a55.67,55.67,0,0,1,9.158,1.08,1.791,1.791,0,0,0,2-2.6,12.894,12.894,0,0,1-1.194-7.181c4.152-15.265,8.024-30.6,15.5-44.675a191.671,191.671,0,0,1,13.3-21.123c4.8-6.746,10.258-13.134,14.663-20.15,1.992,2.7.622,10,.648,12.345a60.872,60.872,0,0,0,.853,9.189,96.132,96.132,0,0,0,5.752,19.7c2.206,5.569,4.7,11.019,7.057,16.521a.364.364,0,0,0,.005.1,18.294,18.294,0,0,0,2.3,5.615c.046.122.086.246.131.368a.367.367,0,0,0-.068.472c.163.26.335.508.506.755,1.805,5.01,3.345,10.068,5.009,15.179a1.662,1.662,0,0,0,.086.188c.171,1.555.287,3.111.338,4.656a.719.719,0,0,0,1.214.5,18.687,18.687,0,0,1,5.064-3.937c13.59-.266,27.168,1.729,40.761.848a71.168,71.168,0,0,0,9.869-1.315l.969-.07c4.633-.332,9.673-1.342,14.313-.807.239.028.56.036.906.057.575.133,1.147.274,1.721.4a1.192,1.192,0,0,1,.578.759C1224.628,653.766,1222.384,656.662,1222.016,657.244Z" transform="translate(0 0)" fill="#bfa871"/>
    <path id="Path_3082" data-name="Path 3082" d="M1079.106,727.579a32.322,32.322,0,0,1-6.7,11.69c-.247.273.162.68.405.4a28.7,28.7,0,0,0,6.437-12.056A.073.073,0,0,0,1079.106,727.579Z" transform="translate(50.949 34.883)" fill="#bfa871"/>
    <path id="Path_3083" data-name="Path 3083" d="M1035.533,696.37q-2.736,8.75-5.474,17.5c-.033.1.13.149.164.046q2.865-8.714,5.729-17.428C1036.038,696.22,1035.616,696.1,1035.533,696.37Z" transform="translate(42.313 28.487)" fill="#bfa871"/>
    <path id="Path_3084" data-name="Path 3084" d="M1036.834,694.473a115.483,115.483,0,0,1-4.289,19.04c-.143.462.572.654.723.2a86.654,86.654,0,0,0,3.983-19.182C1037.273,694.293,1036.866,694.235,1036.834,694.473Z" transform="translate(42.819 28.1)" fill="#bfa871"/>
    <path id="Path_3085" data-name="Path 3085" d="M1038.176,699.383c-.59,2.393-1.31,4.794-1.755,7.217-.088.483.615.694.744.206.633-2.386,1.006-4.87,1.495-7.291C1038.723,699.2,1038.253,699.066,1038.176,699.383Z" transform="translate(43.612 29.097)" fill="#bfa871"/>
    <path id="Path_3086" data-name="Path 3086" d="M1040.225,702.028c.137-.656.241-1.313.341-1.974.044-.3-.406-.435-.463-.128-.123.679-.241,1.355-.326,2.042C1039.746,702.222,1040.173,702.277,1040.225,702.028Z" transform="translate(44.299 29.209)" fill="#bfa871"/>
    <path id="Path_3087" data-name="Path 3087" d="M1044.014,657.89a44.365,44.365,0,0,1-1.188-23.28.109.109,0,0,0-.209-.057,41.181,41.181,0,0,0,.661,23.541C1043.429,658.558,1044.167,658.359,1044.014,657.89Z" transform="translate(44.592 15.875)" fill="#bfa871"/>
    <path id="Path_3088" data-name="Path 3088" d="M1046.072,655.428a15.681,15.681,0,0,1-1.516-9.03c.036-.263-.355-.387-.409-.113a14.472,14.472,0,0,0,1.272,9.525C1045.648,656.246,1046.274,655.863,1046.072,655.428Z" transform="translate(45.132 18.256)" fill="#bfa871"/>
    <path id="Path_3089" data-name="Path 3089" d="M1046.427,653.935a.383.383,0,0,0,.737-.2q-.519-1.806-1.037-3.612a.333.333,0,0,0-.641.177Q1045.958,652.116,1046.427,653.935Z" transform="translate(45.463 19.022)" fill="#bfa871"/>
    <path id="Path_3090" data-name="Path 3090" d="M1052.65,663.808c.219.429.872.049.646-.378q-2.57-4.888-5.16-9.767c-.173-.326-.659-.039-.494.288Q1050.136,658.886,1052.65,663.808Z" transform="translate(45.899 19.765)" fill="#bfa871"/>
    <path id="Path_3091" data-name="Path 3091" d="M1094.722,652.876c-.2-13.666-9.341-25.054-11.346-38.349-.039-.26-.492-.2-.462.063,1.491,13.346,10.154,24.752,10.681,38.286A.564.564,0,0,0,1094.722,652.876Z" transform="translate(53.111 11.765)" fill="#bfa871"/>
    <path id="Path_3092" data-name="Path 3092" d="M1090.759,649.5a39.639,39.639,0,0,0-4.236-16.945c-.173-.349-.66-.042-.513.3a49.979,49.979,0,0,1,3.815,16.644A.467.467,0,0,0,1090.759,649.5Z" transform="translate(53.738 15.451)" fill="#bfa871"/>
    <path id="Path_3093" data-name="Path 3093" d="M1088.784,649.4a20.493,20.493,0,0,0-1.38-6.684c-.117-.3-.6-.179-.492.135A19.918,19.918,0,0,1,1088,649.4.39.39,0,0,0,1088.784,649.4Z" transform="translate(53.925 17.524)" fill="#bfa871"/>
    <path id="Path_3094" data-name="Path 3094" d="M1086.948,647.748a24.04,24.04,0,0,1-.965,6.506.317.317,0,0,0,.611.169,18.549,18.549,0,0,0,1.012-6.674A.329.329,0,0,0,1086.948,647.748Z" transform="translate(53.736 18.521)" fill="#bfa871"/>
    <path id="Path_3095" data-name="Path 3095" d="M1160.785,637.627c-5.083-.192-10.61,1.077-15.6,1.974q-8.371,1.5-16.583,3.745a.584.584,0,0,0,.311,1.125c5.469-1.5,10.995-2.765,16.58-3.749,2.766-.488,5.543-.906,8.328-1.273,1.456-.193,3.015-.287,4.494-.6-6.52,5.687-10.726,13.087-14.5,20.825-3.89,7.976-7.752,16.378-15.13,21.749-.552.4-.026,1.33.542.927,6.989-4.958,10.942-12.544,14.627-20.061,4.338-8.849,9.034-17.1,16.328-23.9a.448.448,0,0,0,.11-.158c.2-.084.393-.167.583-.267A.183.183,0,0,0,1160.785,637.627Z" transform="translate(62.361 16.515)" fill="#bfa871"/>
    <path id="Path_3096" data-name="Path 3096" d="M1109.277,641.9a94.222,94.222,0,0,0,11.863-.289c.24-.021.247-.388,0-.379-3.955.137-7.911.088-11.863-.088C1108.79,641.121,1108.79,641.88,1109.277,641.9Z" transform="translate(58.422 17.237)" fill="#bfa871"/>
    <path id="Path_3097" data-name="Path 3097" d="M1099.912,640.932c1.815.518,3.689.871,5.536,1.248.392.079.554-.527.165-.6-1.879-.329-3.773-.687-5.671-.873C1099.814,640.7,1099.794,640.9,1099.912,640.932Z" transform="translate(56.568 17.149)" fill="#bfa871"/>
    <path id="Path_3098" data-name="Path 3098" d="M1136.344,664.374c.29-.442-.417-.85-.707-.413-3.325,5-9.018,12.062-15.447,12.6a.193.193,0,0,0,0,.385c3.39.133,6.186-2.045,8.676-4.113A38.054,38.054,0,0,0,1136.344,664.374Z" transform="translate(60.688 21.86)" fill="#bfa871"/>
    <path id="Path_3099" data-name="Path 3099" d="M1130.774,665.363a62.511,62.511,0,0,1-8.289,7.052c-.426.3-.006,1.01.41.7a57.287,57.287,0,0,0,8.186-7.446C1131.265,665.463,1130.972,665.163,1130.774,665.363Z" transform="translate(61.158 22.171)" fill="#bfa871"/>
    <path id="Path_3100" data-name="Path 3100" d="M1107.89,681.783a.1.1,0,0,0-.1.167c9.964,6.946,14.156,18.382,18.445,29.217.235.593,1.19.358.975-.269C1123.42,699.794,1118.552,687.913,1107.89,681.783Z" transform="translate(58.185 25.536)" fill="#bfa871"/>
    <path id="Path_3101" data-name="Path 3101" d="M1126.5,721.63a100.625,100.625,0,0,0-13.843-31.44c-.185-.279-.631-.025-.454.265a121.368,121.368,0,0,1,13.485,31.4A.421.421,0,0,0,1126.5,721.63Z" transform="translate(59.085 27.231)" fill="#bfa871"/>
    <path id="Path_3102" data-name="Path 3102" d="M1123.757,710.183c1.757,7.533,3.193,15.144,4.476,22.771.083.491.82.281.744-.2a223.958,223.958,0,0,0-4.833-22.672A.2.2,0,0,0,1123.757,710.183Z" transform="translate(61.453 31.289)" fill="#bfa871"/>
    <path id="Path_3103" data-name="Path 3103" d="M1131.326,741.337q-.629-3.468-1.267-6.933c-.071-.385-.663-.223-.588.163.444,2.3.9,4.606,1.356,6.908C1130.892,741.8,1131.385,741.662,1131.326,741.337Z" transform="translate(62.621 36.243)" fill="#bfa871"/>
    <path id="Path_3104" data-name="Path 3104" d="M1096.645,682.343c.182.17.458-.108.274-.273q-3.667-3.251-7.326-6.513c-.082-.072-.2.046-.12.12Q1093.071,679,1096.645,682.343Z" transform="translate(54.445 24.262)" fill="#bfa871"/>
    <path id="Path_3105" data-name="Path 3105" d="M1097.264,680.483c.35.256.678-.324.338-.581-2.554-1.923-5.113-3.879-7.757-5.679-.258-.176-.584.237-.337.436C1092.022,676.683,1094.657,678.58,1097.264,680.483Z" transform="translate(54.441 23.985)" fill="#bfa871"/>
    <path id="Path_3106" data-name="Path 3106" d="M1089.71,658.136a87.156,87.156,0,0,0,9.727,17.59c.215.3.718.011.5-.293a100.344,100.344,0,0,1-10.031-17.38C1089.858,657.943,1089.663,658.023,1089.71,658.136Z" transform="translate(54.498 20.68)" fill="#bfa871"/>
    <path id="Path_3107" data-name="Path 3107" d="M1050.867,673.005c-1.708,2.92-3.353,5.877-5,8.834a65.773,65.773,0,0,0-4.307,8.147c-.033.087.1.169.162.094a66.052,66.052,0,0,0,4.754-7.884c1.687-2.932,3.371-5.867,4.993-8.837A.351.351,0,0,0,1050.867,673.005Z" transform="translate(44.664 23.71)" fill="#bfa871"/>
    <path id="Path_3108" data-name="Path 3108" d="M1050.462,676.929a11.4,11.4,0,0,0,1.335-5.11c.01-.373-.562-.371-.579,0a10.675,10.675,0,0,1-1.343,4.768C1049.662,676.97,1050.259,677.315,1050.462,676.929Z" transform="translate(46.353 23.446)" fill="#bfa871"/>
    <path id="Path_3109" data-name="Path 3109" d="M1025.233,665.238a.124.124,0,0,0,.065-.239,33.14,33.14,0,0,1-6.564-2.611c-.146-.076-.275.143-.129.221A33.461,33.461,0,0,0,1025.233,665.238Z" transform="translate(39.961 21.574)" fill="#bfa871"/>
    <path id="Path_3110" data-name="Path 3110" d="M1055.028,686.336c8.1,2.375,14.347,7.957,20.549,13.413.208.183.514-.118.306-.306-6.142-5.54-12.684-11.036-20.8-13.316A.108.108,0,0,0,1055.028,686.336Z" transform="translate(47.399 26.425)" fill="#bfa871"/>
    <path id="Path_3111" data-name="Path 3111" d="M1075.333,695.234c.327.233.644-.31.315-.54a91.777,91.777,0,0,0-9.207-5.635c-.228-.123-.429.219-.2.347A106,106,0,0,1,1075.333,695.234Z" transform="translate(49.685 27.02)" fill="#bfa871"/>
    <path id="Path_3112" data-name="Path 3112" d="M1058.125,659.715a68.52,68.52,0,0,0,6.526-17.079c.1-.406-.524-.578-.625-.172a93.542,93.542,0,0,1-6.088,17.142C1057.879,659.729,1058.056,659.839,1058.125,659.715Z" transform="translate(48.007 17.459)" fill="#bfa871"/>
    <path id="Path_3113" data-name="Path 3113" d="M1059.247,651.344a100.873,100.873,0,0,1,7.409-20.968c.159-.331-.342-.62-.494-.288a110.738,110.738,0,0,0-7.072,21.212C1059.067,651.4,1059.224,651.447,1059.247,651.344Z" transform="translate(48.244 14.949)" fill="#bfa871"/>
    <path id="Path_3114" data-name="Path 3114" d="M1060.42,637.252q2-6.089,4.005-12.177c.083-.25-.314-.36-.394-.109q-1.953,6.1-3.9,12.207C1060.069,637.357,1060.36,637.435,1060.42,637.252Z" transform="translate(48.455 13.903)" fill="#bfa871"/>
    <path id="Path_3115" data-name="Path 3115" d="M1060.827,629.444q2.543-6.568,5.033-13.158c.076-.2-.247-.288-.319-.088q-2.422,6.6-4.8,13.222C1060.717,629.475,1060.8,629.5,1060.827,629.444Z" transform="translate(48.581 12.118)" fill="#bfa871"/>
    <path id="Path_3116" data-name="Path 3116" d="M1061.958,620.141c1.364-3.282,2.731-6.562,4.078-9.85.079-.193-.236-.279-.312-.087-1.3,3.3-2.574,6.606-3.855,9.911C1061.847,620.172,1061.936,620.194,1061.958,620.141Z" transform="translate(48.812 10.894)" fill="#bfa871"/>
    <path id="Path_3117" data-name="Path 3117" d="M1062.481,613.94l.087-.1c.043-.053-.027-.126-.077-.076a2.751,2.751,0,0,1,.356-1.678q.271-.652.543-1.3c.333-.773.685-1.538,1.045-2.3.671-1.416,1.392-2.8,2.151-4.174.118-.213-.208-.4-.326-.19a59.12,59.12,0,0,0-3,6.218c-.335.825-1.673,2.807-.867,3.6A.061.061,0,0,0,1062.481,613.94Z" transform="translate(48.868 9.654)" fill="#bfa871"/>
    <path id="Path_3118" data-name="Path 3118" d="M1074.274,640.827c-.037-.081-.156-.011-.119.07a119.156,119.156,0,0,0,6.818,12.909c.114.185.409.014.294-.172A124.173,124.173,0,0,1,1074.274,640.827Z" transform="translate(51.321 17.165)" fill="#bfa871"/>
    <path id="Path_3119" data-name="Path 3119" d="M1075.352,641.1c-.029-.053-.107-.006-.079.046a93.766,93.766,0,0,0,6.4,10.333c.132.185.443,0,.307-.18A88.936,88.936,0,0,1,1075.352,641.1Z" transform="translate(51.549 17.224)" fill="#bfa871"/>
    <path id="Path_3120" data-name="Path 3120" d="M1071.705,628.3a90.808,90.808,0,0,1,6.108,12.226c.09.218.449.122.358-.1a80.059,80.059,0,0,0-6.359-12.188C1071.771,628.169,1071.665,628.231,1071.705,628.3Z" transform="translate(50.82 14.594)" fill="#bfa871"/>
    <path id="Path_3121" data-name="Path 3121" d="M1071.438,629.939c1.149,2.337,2.293,4.679,3.462,7.007.081.16.321.019.239-.14-1.185-2.317-2.4-4.62-3.6-6.926C1071.5,629.814,1071.406,629.873,1071.438,629.939Z" transform="translate(50.766 14.93)" fill="#bfa871"/>
    <path id="Path_3122" data-name="Path 3122" d="M1062.79,649.034c-.951,3.81-2.127,7.556-3.453,11.252-.044.126.167.218.219.093a80.489,80.489,0,0,0,3.77-11.2A.278.278,0,0,0,1062.79,649.034Z" transform="translate(48.294 18.808)" fill="#bfa871"/>
    <path id="Path_3123" data-name="Path 3123" d="M1069.359,618.234a95.164,95.164,0,0,0,7.041,13.818.2.2,0,0,0,.347-.2,130.334,130.334,0,0,1-7.176-13.7C1069.519,618.025,1069.309,618.112,1069.359,618.234Z" transform="translate(50.341 12.527)" fill="#bfa871"/>
    <path id="Path_3124" data-name="Path 3124" d="M1069.517,613.613a61.7,61.7,0,0,0,4.146,11.538c.127.262.5.034.386-.225a82.761,82.761,0,0,1-4.167-11.413A.189.189,0,0,0,1069.517,613.613Z" transform="translate(50.373 11.565)" fill="#bfa871"/>
    <path id="Path_3125" data-name="Path 3125" d="M1071.564,615.93l-1.667-3.284c-.046-.088-.177-.011-.134.078q.815,1.653,1.628,3.307C1071.448,616.146,1071.623,616.044,1071.564,615.93Z" transform="translate(50.423 11.407)" fill="#bfa871"/>
    <path id="Path_3126" data-name="Path 3126" d="M1067.724,606.511a118.772,118.772,0,0,1,4.744,11.2c.144.411.8.235.655-.181a55.421,55.421,0,0,0-5.193-11.14A.119.119,0,0,0,1067.724,606.511Z" transform="translate(50.006 10.126)" fill="#bfa871"/>
    <path id="Path_3127" data-name="Path 3127" d="M1070.4,607.685c.148.27.57.025.413-.241-1.014-1.738-1.993-3.513-3.091-5.2a.1.1,0,0,0-.181.1C1068.422,604.163,1069.438,605.918,1070.4,607.685Z" transform="translate(49.969 9.281)" fill="#bfa871"/>
    <path id="Path_3128" data-name="Path 3128" d="M1067.088,595.676a.039.039,0,0,0,0,.077A.039.039,0,0,0,1067.088,595.676Z" transform="translate(49.871 7.949)" fill="#bfa871"/>
    <path id="Path_3129" data-name="Path 3129" d="M1051.923,711.4a84.261,84.261,0,0,0-1.789-15.819c0-.025-.049-.02-.045.006a129.435,129.435,0,0,1,1.116,15.813A.359.359,0,0,0,1051.923,711.4Z" transform="translate(46.406 28.353)" fill="#bfa871"/>
    <path id="Path_3130" data-name="Path 3130" d="M1048.546,700.5a102.572,102.572,0,0,1,1.039,14.18.158.158,0,0,0,.317,0,85.965,85.965,0,0,0-1.312-14.192C1048.584,700.455,1048.541,700.468,1048.546,700.5Z" transform="translate(46.091 29.355)" fill="#bfa871"/>
    <path id="Path_3131" data-name="Path 3131" d="M1047.226,713.913q-.029,7.764-.809,15.487c-.023.22.33.222.348,0q.637-7.733.508-15.487A.023.023,0,0,0,1047.226,713.913Z" transform="translate(45.655 32.097)" fill="#bfa871"/>
    <path id="Path_3132" data-name="Path 3132" d="M1044.438,730.729a128.028,128.028,0,0,0-.377-15.163c-.012-.166-.269-.17-.262,0,.206,5.057.125,10.105.021,15.163A.309.309,0,0,0,1044.438,730.729Z" transform="translate(45.121 32.414)" fill="#bfa871"/>
    <path id="Path_3133" data-name="Path 3133" d="M1041.785,721.595c.239,4.941.449,9.9.847,14.827.031.4.647.406.625,0-.27-4.946-.727-9.892-1.155-14.827C1042.085,721.395,1041.775,721.389,1041.785,721.595Z" transform="translate(44.71 33.64)" fill="#bfa871"/>
    <path id="Path_3134" data-name="Path 3134" d="M1040.4,728.7c.027,4.28.3,8.571.56,12.843.021.336.546.338.526,0-.264-4.281-.526-8.582-1.024-12.843C1040.457,728.658,1040.4,728.655,1040.4,728.7Z" transform="translate(44.427 35.116)" fill="#bfa871"/>
    <path id="Path_3135" data-name="Path 3135" d="M1038.04,736.627c.313,5.38.526,10.754.477,16.145a.228.228,0,0,0,.456,0,150.833,150.833,0,0,0-.841-16.145C1038.127,736.568,1038.036,736.565,1038.04,736.627Z" transform="translate(43.945 36.733)" fill="#bfa871"/>
    <path id="Path_3136" data-name="Path 3136" d="M1036.57,747.886a78.247,78.247,0,0,0,.02,15.163c.008.071.114.077.115,0,.074-5.076,0-10.1.435-15.163C1037.172,747.521,1036.6,747.521,1036.57,747.886Z" transform="translate(43.571 38.986)" fill="#bfa871"/>
    <path id="Path_3137" data-name="Path 3137" d="M1047.125,750.988a51.571,51.571,0,0,0-7.388,10.874.1.1,0,0,0,.181.106c2.518-3.561,4.839-7.182,7.649-10.538C1047.823,751.124,1047.383,750.678,1047.125,750.988Z" transform="translate(44.288 39.654)" fill="#bfa871"/>
    <path id="Path_3138" data-name="Path 3138" d="M1053.271,742c-3.533,3.635-7.3,6.967-11.131,10.282-.043.037.015.113.061.079a100.585,100.585,0,0,0,11.333-10.1C1053.7,742.088,1053.439,741.824,1053.271,742Z" transform="translate(44.779 37.827)" fill="#bfa871"/>
    <path id="Path_3139" data-name="Path 3139" d="M1061.461,731.347c-4.726,4.8-9.658,9.5-14.109,14.56a.054.054,0,0,0,.076.076c4.986-4.531,9.6-9.539,14.329-14.34C1061.944,731.451,1061.649,731.156,1061.461,731.347Z" transform="translate(45.844 35.651)" fill="#bfa871"/>
    <path id="Path_3140" data-name="Path 3140" d="M1062.612,726.631a69.069,69.069,0,0,1-10,8.786c-.051.037,0,.123.051.087a61.52,61.52,0,0,0,10.273-8.55C1063.139,726.743,1062.813,726.418,1062.612,726.631Z" transform="translate(46.916 34.686)" fill="#bfa871"/>
    <path id="Path_3141" data-name="Path 3141" d="M1068.226,718.478c-3.427,3.382-6.984,6.638-10.5,9.923-.033.03.016.079.049.049,3.547-3.259,7.068-6.561,10.7-9.721C1068.648,718.58,1068.39,718.316,1068.226,718.478Z" transform="translate(47.963 33.024)" fill="#bfa871"/>
    <path id="Path_3142" data-name="Path 3142" d="M1068.666,713.606l-7.9,8.573c-.04.043.025.11.065.065q3.958-4.281,7.915-8.561C1068.79,713.631,1068.713,713.555,1068.666,713.606Z" transform="translate(48.584 32.036)" fill="#bfa871"/>
    <path id="Path_3143" data-name="Path 3143" d="M1073.586,707.59l-4.619,3.949c-.053.046.024.122.076.077l4.607-3.96C1073.7,707.616,1073.631,707.551,1073.586,707.59Z" transform="translate(50.259 30.808)" fill="#bfa871"/>
    <path id="Path_3144" data-name="Path 3144" d="M1095.5,710.3a51.3,51.3,0,0,0-13.569-7.251c-.085-.03-.12.1-.037.135a50.9,50.9,0,0,1,13.32,7.486A.235.235,0,1,0,1095.5,710.3Z" transform="translate(52.894 29.883)" fill="#bfa871"/>
    <path id="Path_3145" data-name="Path 3145" d="M1093.482,711.552c-2.712-1.608-5.3-3.525-8.084-4.991-.064-.033-.138.052-.08.1a56.49,56.49,0,0,0,7.883,5.367C1093.506,712.22,1093.791,711.734,1093.482,711.552Z" transform="translate(53.598 30.599)" fill="#bfa871"/>
    <path id="Path_3146" data-name="Path 3146" d="M1108.8,721.593a186.154,186.154,0,0,0-18.56-10.018c-.351-.169-.66.347-.308.527,6.265,3.208,12.348,6.708,18.49,10.138A.375.375,0,0,0,1108.8,721.593Z" transform="translate(54.513 31.618)" fill="#bfa871"/>
    <path id="Path_3147" data-name="Path 3147" d="M1107.864,725.061c.1.085.239-.056.142-.142a36.709,36.709,0,0,0-5.306-3.947c-.081-.049-.154.076-.075.127A40.638,40.638,0,0,1,1107.864,725.061Z" transform="translate(57.131 33.542)" fill="#bfa871"/>
    <path id="Path_3148" data-name="Path 3148" d="M1104.807,726.31a58.631,58.631,0,0,1,12.124,10.252c.174.194.453-.089.284-.283a47.726,47.726,0,0,0-12.338-10.089A.07.07,0,0,0,1104.807,726.31Z" transform="translate(57.577 34.608)" fill="#bfa871"/>
    <path id="Path_3149" data-name="Path 3149" d="M1110.853,734.2a.066.066,0,0,0-.066.113c5.111,3.708,10.2,7.154,15,11.3.286.248.7-.155.42-.42A61.837,61.837,0,0,0,1110.853,734.2Z" transform="translate(58.799 36.244)" fill="#bfa871"/>
    <path id="Path_3150" data-name="Path 3150" d="M1123.151,737.9c-.671-3.22-.917-6.464-1.29-9.722-.048-.414-.664-.44-.665,0a46.165,46.165,0,0,0,2.246,13.377c.225.738,1.424,6.277,2.772,5.49.058-.035.019-.141-.047-.113C1125.273,747.3,1123.324,738.733,1123.151,737.9Z" transform="translate(60.932 34.951)" fill="#bfa871"/>
    <path id="Path_3151" data-name="Path 3151" d="M1116.939,720.049a81.512,81.512,0,0,0,4.45,17.09c.022.059.118.035.1-.027a97.785,97.785,0,0,1-4-17.213C1117.433,719.542,1116.886,719.691,1116.939,720.049Z" transform="translate(60.061 33.283)" fill="#bfa871"/>
    <path id="Path_3152" data-name="Path 3152" d="M1110.937,704.993c1.52,5.936,3.085,11.86,4.653,17.782a.236.236,0,0,0,.454-.125c-1.508-5.938-3.017-11.878-4.572-17.8A.278.278,0,0,0,1110.937,704.993Z" transform="translate(58.834 30.209)" fill="#bfa871"/>
    <path id="Path_3153" data-name="Path 3153" d="M1106.451,698.876c.768,3.406,1.507,6.819,2.254,10.229.025.117.206.068.178-.049-.791-3.4-1.59-6.8-2.358-10.2C1106.514,698.807,1106.44,698.828,1106.451,698.876Z" transform="translate(57.919 29.02)" fill="#bfa871"/>
    <path id="Path_3154" data-name="Path 3154" d="M1104.992,701.935l.666,1.645c.07.172.353.1.283-.078q-.325-.824-.651-1.65C1105.217,701.669,1104.917,701.751,1104.992,701.935Z" transform="translate(57.619 29.617)" fill="#bfa871"/>
    <path id="Path_3155" data-name="Path 3155" d="M1104.328,698.877c-1.482-4.484-2.922-9-4.574-13.427a.131.131,0,0,0-.252.07c1.25,4.549,2.725,9.048,4.148,13.543C1103.786,699.495,1104.47,699.308,1104.328,698.877Z" transform="translate(56.499 26.269)" fill="#bfa871"/>
    <path id="Path_3156" data-name="Path 3156" d="M1104.94,676.539a72.942,72.942,0,0,1,5.475-9.369c.053-.078-.075-.153-.128-.074a73.127,73.127,0,0,0-5.4,9.413C1104.869,676.543,1104.923,676.574,1104.94,676.539Z" transform="translate(57.599 22.531)" fill="#bfa871"/>
    <path id="Path_3157" data-name="Path 3157" d="M1113.6,664.955c.1-.14-.133-.277-.234-.136-2.01,2.806-3.878,5.706-5.636,8.677a.027.027,0,0,0,.047.027C1109.6,670.587,1111.55,667.74,1113.6,664.955Z" transform="translate(58.179 22.061)" fill="#bfa871"/>
    <path id="Path_3158" data-name="Path 3158" d="M1119.089,661.885a41.341,41.341,0,0,0-6.839,8.608.212.212,0,0,0,.366.214,42.9,42.9,0,0,1,6.816-8.479C1119.658,662.01,1119.314,661.667,1119.089,661.885Z" transform="translate(59.097 21.46)" fill="#bfa871"/>
    <path id="Path_3159" data-name="Path 3159" d="M1126.7,657.433c.173-.156-.087-.418-.257-.256a62.037,62.037,0,0,0-7.818,9c-.018.024.023.047.04.023A65.406,65.406,0,0,1,1126.7,657.433Z" transform="translate(60.406 20.502)" fill="#bfa871"/>
    <path id="Path_3160" data-name="Path 3160" d="M1131.367,654.049q-2.535,2.442-5.017,4.939c-.949.958-2.142,1.962-1.823,3.431.036.165.285.123.289-.039.035-1.852,2.249-3.307,3.464-4.493q1.752-1.711,3.486-3.439A.282.282,0,0,0,1131.367,654.049Z" transform="translate(61.601 19.856)" fill="#bfa871"/>
    <path id="Path_3161" data-name="Path 3161" d="M1131.061,657.512l3.961-4.434c.1-.108-.065-.268-.158-.159l-3.859,4.539C1130.974,657.5,1131.027,657.55,1131.061,657.512Z" transform="translate(62.933 19.635)" fill="#bfa871"/>
    <path id="Path_3162" data-name="Path 3162" d="M1136.276,652.914c-.03.046.043.088.074.043l1.482-2.224c.03-.046-.043-.088-.073-.044Z" transform="translate(64.011 19.183)" fill="#bfa871"/>
    <path id="Path_3163" data-name="Path 3163" d="M1106.833,659.1c.221.028.221-.319,0-.347a39.251,39.251,0,0,1-8.838-2.234c-.089-.034-.154.116-.066.155A31.71,31.71,0,0,0,1106.833,659.1Z" transform="translate(56.17 20.378)" fill="#bfa871"/>
    <path id="Path_3164" data-name="Path 3164" d="M1109.92,657.243a45.35,45.35,0,0,1-8.9-2.046c-.065-.022-.112.083-.048.113a26.682,26.682,0,0,0,8.943,2.311C1110.166,657.642,1110.157,657.27,1109.92,657.243Z" transform="translate(56.795 20.107)" fill="#bfa871"/>
    <path id="Path_3165" data-name="Path 3165" d="M1114.664,656.307c.288.015.287-.432,0-.448a29.75,29.75,0,0,1-6.622-1.177c-.065-.018-.113.084-.048.113A19.334,19.334,0,0,0,1114.664,656.307Z" transform="translate(58.229 20.002)" fill="#bfa871"/>
    <path id="Path_3166" data-name="Path 3166" d="M1113.554,653.845c-.182-.006-.231.3-.043.326,1.813.275,3.654.43,5.479.6.312.029.308-.456,0-.487C1117.187,654.105,1115.367,653.914,1113.554,653.845Z" transform="translate(59.337 19.831)" fill="#bfa871"/>
    <path id="Path_3167" data-name="Path 3167" d="M1120.324,653.1c2.481-.184,4.956-.538,7.425-.836.331-.041.333-.567,0-.525-2.49.311-5,.565-7.474.989C1120.065,652.762,1120.113,653.114,1120.324,653.1Z" transform="translate(60.716 19.4)" fill="#bfa871"/>
    <path id="Path_3168" data-name="Path 3168" d="M1139.031,647.7a24.247,24.247,0,0,1-5.594,1.912c-.045.01-.025.074.019.066a23.408,23.408,0,0,0,5.739-1.7C1139.383,647.9,1139.22,647.612,1139.031,647.7Z" transform="translate(63.427 18.573)" fill="#bfa871"/>
    <path id="Path_3169" data-name="Path 3169" d="M990.907,671.568c-.089-.076-.22.051-.13.131,3.081,2.764,6.115,5.594,9.254,8.291.277.239.683-.16.4-.4C997.318,676.851,994.083,674.238,990.907,671.568Z" transform="translate(34.284 23.447)" fill="#bfa871"/>
    <path id="Path_3170" data-name="Path 3170" d="M995.366,674.053c-.06-.036-.112.056-.054.093,4.956,3.211,10.005,6.3,15.243,9.032.229.119.429-.219.2-.347C1005.62,679.918,1000.45,677.064,995.366,674.053Z" transform="translate(35.211 23.958)" fill="#bfa871"/>
    <path id="Path_3171" data-name="Path 3171" d="M1015.547,683.822a139.939,139.939,0,0,1-12.172-7.311c-.049-.034-.113.046-.065.084a70.456,70.456,0,0,0,11.972,7.68C1015.582,684.43,1015.848,683.977,1015.547,683.822Z" transform="translate(36.846 24.46)" fill="#bfa871"/>
    <path id="Path_3172" data-name="Path 3172" d="M1013.666,680.5c-.049-.019-.081.06-.035.084,3.637,1.92,7.474,3.545,11.241,5.2.188.082.354-.191.164-.281C1021.295,683.767,1017.524,681.963,1013.666,680.5Z" transform="translate(38.954 25.277)" fill="#bfa871"/>
    <path id="Path_3173" data-name="Path 3173" d="M1030.6,684.838a104.715,104.715,0,0,0-10.944-5.211c-.354-.144-.508.43-.159.573a117.122,117.122,0,0,1,10.834,5.1C1030.638,685.459,1030.906,685,1030.6,684.838Z" transform="translate(40.117 25.093)" fill="#bfa871"/>
    <path id="Path_3174" data-name="Path 3174" d="M1032.515,682.638q-1.472-.881-2.957-1.744a.232.232,0,0,0-.234.4q1.479.871,2.969,1.724A.22.22,0,0,0,1032.515,682.638Z" transform="translate(42.142 25.35)" fill="#bfa871"/>
    <path id="Path_3175" data-name="Path 3175" d="M1008.648,662.813c-7.038,1.51-13.368,5.1-20.744,4.779-.06,0-.076.1-.014.106,7.193,1.037,14.066-2.772,20.915-4.318C1009.174,663.295,1009.016,662.734,1008.648,662.813Z" transform="translate(33.692 21.662)" fill="#bfa871"/>
    <path id="Path_3176" data-name="Path 3176" d="M998.454,668.793q6.571-1.763,13.087-3.728c.308-.092.177-.578-.134-.483q-6.514,1.974-12.977,4.122A.046.046,0,0,0,998.454,668.793Z" transform="translate(35.846 22.022)" fill="#bfa871"/>
    <path id="Path_3177" data-name="Path 3177" d="M1011.183,668.111c3.219-.8,6.44-1.6,9.641-2.464a.182.182,0,0,0-.1-.35c-3.218.806-6.417,1.683-9.616,2.553A.135.135,0,0,0,1011.183,668.111Z" transform="translate(38.424 22.17)" fill="#bfa871"/>
    <path id="Path_3178" data-name="Path 3178" d="M1036.431,665.232c.117-.011.122-.19,0-.185a26.419,26.419,0,0,0-8.875,2.023c-.031.012-.018.064.014.052A35.6,35.6,0,0,1,1036.431,665.232Z" transform="translate(41.799 22.12)" fill="#bfa871"/>
    <path id="Path_3179" data-name="Path 3179" d="M1032.149,667.868a35.085,35.085,0,0,1,7.357-1.692c.328-.041.34-.56,0-.525a29.861,29.861,0,0,0-7.474,1.793C1031.77,667.542,1031.88,667.963,1032.149,667.868Z" transform="translate(42.687 22.243)" fill="#bfa871"/>
    <path id="Path_3180" data-name="Path 3180" d="M1046.6,667.571c.313-.135.043-.62-.273-.466a8.7,8.7,0,0,1-3.808.806.023.023,0,0,0-.006.045A6.087,6.087,0,0,0,1046.6,667.571Z" transform="translate(44.855 22.534)" fill="#bfa871"/>
    <path id="Path_3181" data-name="Path 3181" d="M1067.591,675.755a.189.189,0,0,0,0-.378A.189.189,0,0,0,1067.591,675.755Z" transform="translate(49.944 24.23)" fill="#bfa871"/>
  </g>
</svg>
