<svg xmlns="http://www.w3.org/2000/svg" width="529.501" height="561.177" viewBox="0 0 529.501 561.177">
  <g id="Group_3075" data-name="Group 3075" transform="translate(-225.647 -757.297) rotate(-11)" opacity="0.5">
    <path id="Path_2926" data-name="Path 2926" d="M186.592,1004.412a.606.606,0,0,0,.322,1.167,18.015,18.015,0,0,1,11.678.847c.149.073.281-.144.132-.226C194.766,1004.019,191.074,1003.2,186.592,1004.412Z" transform="translate(97.613 104.369)" fill="#bfa871"/>
    <path id="Path_2927" data-name="Path 2927" d="M179.662,1014.347a15.092,15.092,0,0,1,7.965-7.807c.181-.069.108-.361-.082-.3a13.238,13.238,0,0,0-8.642,7.783C178.736,1014.464,179.458,1014.771,179.662,1014.347Z" transform="translate(91.941 106.224)" fill="#bfa871"/>
    <path id="Path_2928" data-name="Path 2928" d="M180.32,1011.878a9.711,9.711,0,0,0-1.928,4.491c-.053.34.446.495.528.144a10.237,10.237,0,0,1,2.019-4.158A.392.392,0,1,0,180.32,1011.878Z" transform="translate(91.559 110.478)" fill="#bfa871"/>
    <path id="Path_2929" data-name="Path 2929" d="M227.092,982.752c-.2,6.5-8.625,9.128-8.263,15.639a.229.229,0,0,0,.448.061c1.453-6,8.315-9.331,8.443-15.7A.314.314,0,0,0,227.092,982.752Z" transform="translate(123.039 87.704)" fill="#bfa871"/>
    <path id="Path_2930" data-name="Path 2930" d="M222.189,982.783a.4.4,0,1,0,.8.108,5.651,5.651,0,0,0-1.59-4.612c-.141-.146-.413.052-.288.22A5.736,5.736,0,0,1,222.189,982.783Z" transform="translate(124.796 84.418)" fill="#bfa871"/>
    <path id="Path_2931" data-name="Path 2931" d="M250.49,1011.126a.617.617,0,0,0,1.188-.327c-1.937-9-5.713-17.651-13.841-22.608-.251-.155-.445.215-.224.384C244.87,994.113,248.235,1002.553,250.49,1011.126Z" transform="translate(137.599 92.146)" fill="#bfa871"/>
    <path id="Path_2932" data-name="Path 2932" d="M250.371,1036.858c-.167.557.69.788.87.238a31.979,31.979,0,0,0,1.017-16.781c-1.279-5.994-3.778-11.7-5.2-17.671a.2.2,0,0,0-.382.052c-.005,5.267,2.453,9.8,3.885,14.756A33.972,33.972,0,0,1,250.371,1036.858Z" transform="translate(144.73 103.322)" fill="#bfa871"/>
    <path id="Path_2933" data-name="Path 2933" d="M247.646,1024.1c-.185,3.328-.438,6.668-.735,9.99-.028.329.486.327.514,0a87.123,87.123,0,0,0,.29-9.99A.035.035,0,0,0,247.646,1024.1Z" transform="translate(144.913 120.107)" fill="#bfa871"/>
    <path id="Path_2934" data-name="Path 2934" d="M237.949,1024.181c.349-1.519-.653-3.111-1.11-4.491a27.888,27.888,0,0,1-1.391-5.916.2.2,0,0,0-.409,0,20.407,20.407,0,0,0,.212,4.751,16.751,16.751,0,0,0,.623,2.232c.018.052,1.866,5.149-.464,3.81-.731-.42-1.318.641-.651,1.112A2.108,2.108,0,0,0,237.949,1024.181Z" transform="translate(135.223 111.941)" fill="#bfa871"/>
    <path id="Path_2935" data-name="Path 2935" d="M220.077,1043.563c-3.666,1.149-5.731-3.669-8.573-5.1a.394.394,0,0,0-.4.68c2.782,2.026,5.039,7.333,9.313,5.663C221.175,1044.509,220.887,1043.308,220.077,1043.563Z" transform="translate(116.896 131.277)" fill="#bfa871"/>
    <path id="Path_2936" data-name="Path 2936" d="M199.858,1054.605c-10.816-6.375-15.808-16.9-21.055-27.777-.007-.016-.037,0-.03.014,4.315,10.782,9.848,22.875,20.627,28.55A.456.456,0,0,0,199.858,1054.605Z" transform="translate(91.858 122.253)" fill="#bfa871"/>
    <path id="Path_2937" data-name="Path 2937" d="M203.24,1049.148a18.6,18.6,0,0,1-4.407-1.821c-.018-.011-.036.018-.016.03a20.548,20.548,0,0,0,4.336,2.109C203.352,1049.538,203.447,1049.2,203.24,1049.148Z" transform="translate(107.459 138.218)" fill="#bfa871"/>
    <path id="Path_2938" data-name="Path 2938" d="M178.779,1044.764c.078.42.71.24.639-.174-1.747-10.12-9.61-17.5-18.631-21.591a.126.126,0,0,0-.126.217C168.723,1028.707,176.89,1034.549,178.779,1044.764Z" transform="translate(77.71 119.267)" fill="#bfa871"/>
    <path id="Path_2939" data-name="Path 2939" d="M171.028,1070.3c-.407.74.735,1.407,1.133.661,4.939-9.227,6.737-21.752,1.6-31.318a.057.057,0,0,0-.1.043C176.127,1050.368,176.456,1060.394,171.028,1070.3Z" transform="translate(85.761 132.212)" fill="#bfa871"/>
    <path id="Path_2940" data-name="Path 2940" d="M152.562,1014.167c-9.117-3.294-15.606,3.586-23.633,6.643-7.079,2.695-14.846,4.169-19.325,10.891-.251.375.345.71.6.351,4.772-6.69,12.936-8.048,20.134-10.775a57.159,57.159,0,0,0,7.908-4.055,20.273,20.273,0,0,1,14.2-2.636A.217.217,0,0,0,152.562,1014.167Z" transform="translate(37.956 111.722)" fill="#bfa871"/>
    <path id="Path_2941" data-name="Path 2941" d="M104.086,1044.7c.624-6.268,3.49-12.145,6.9-17.375l-.009-.005c-4,5.261-7.4,10.535-7.275,17.381A.194.194,0,0,0,104.086,1044.7Z" transform="translate(33.402 122.641)" fill="#bfa871"/>
    <path id="Path_2942" data-name="Path 2942" d="M118.881,1051.462c-3.057,1.985-3.008-3.131-2.814-4.251.1-.6.245-1.19.334-1.795a23.519,23.519,0,0,0,.132-5.21c-.027-.354-.569-.363-.558,0a34.07,34.07,0,0,1-.607,6.812,6.457,6.457,0,0,0,.055,3.6,2.616,2.616,0,0,0,3.792,1.414C119.572,1051.8,119.241,1051.231,118.881,1051.462Z" transform="translate(42.31 132.467)" fill="#bfa871"/>
    <path id="Path_2943" data-name="Path 2943" d="M161.594,1062.491a21.4,21.4,0,0,0-3.76,6.079c-1.446,3.429-4.178,9.036-8.945,6.65-.8-.4-1.515.8-.708,1.211,2.81,1.419,5.836.47,7.885-1.811,3.065-3.413,2.869-8.514,5.633-12.025C161.758,1062.521,161.658,1062.417,161.594,1062.491Z" transform="translate(67.763 150.007)" fill="#bfa871"/>
    <path id="Path_2944" data-name="Path 2944" d="M113.876,1075.116c-4.544-2.718-4.367-9.163-6.049-13.658-1.706-4.552-3.909-8.785-4.546-13.669-.016-.128-.217-.133-.2,0,.525,5.686,3.052,10.784,4.454,16.257,1.161,4.528,1.268,9.533,5.684,12.2A.656.656,0,0,0,113.876,1075.116Z" transform="translate(32.919 138.503)" fill="#bfa871"/>
    <path id="Path_2945" data-name="Path 2945" d="M152.379,1033.779a11.679,11.679,0,0,0-3.331-4.69c-1.964-1.407-4.155-1.819-5.594-3.956-.151-.222-.509-.021-.365.214a9.853,9.853,0,0,0,3.7,3.541,10.966,10.966,0,0,1,4.6,5.473C151.7,1035.03,152.7,1034.448,152.379,1033.779Z" transform="translate(64.049 120.864)" fill="#bfa871"/>
    <path id="Path_2946" data-name="Path 2946" d="M464.848,1086.807c3.968-23.024-5.765-50.577-23.624-65.494-12.463-10.41-32.7-17.093-49.311-12.543-.315-.037-.63-.085-.944-.128a15.335,15.335,0,0,1-10.512-1.425,24.157,24.157,0,0,1-5.878-4.125q-.352-.43-.688-.85a52.065,52.065,0,0,0-3.589-4c-.34-.463-.676-.928-1-1.4-6.851-6.673-14.706-11.78-24.465-14.284-10.956-2.812-25.073-4.057-36.805-2.234a8.841,8.841,0,0,1-3.552-2.577,334.75,334.75,0,0,0-17.331-57.546c.672-9.176,1.3-20.522-3.7-28.655-1.215-3.182-2.744-6.243-3.708-8.719-1.846-4.747-2.99-15.191-9.944-12.605-11.264,4.187-4.034,12.977-4.073,21.151-.018,4.03-.582,8.162.272,11.641a3.63,3.63,0,0,0,.238,1.448l.1-.023a14.552,14.552,0,0,0-.521,7.358c.745,3.4,3.145,6.174,6.6,6.631,2.561,17.272,4.135,34.845-.576,51.911a157.167,157.167,0,0,1-5.926,17.135c-6.472-11.826-23.11-17.975-35.747-17.165-17.208,1.1-34.56,6.68-47.861,17.92-12.365,10.449-20.444,25.169-21.429,41.41-.43,7.1-.63,17.317,1.8,25.943a23.92,23.92,0,0,0-6.634-3.18c-6.458-3.6-15.467-4.788-21.893-6.407a47.435,47.435,0,0,0-28.881,1.555c-18.448,7.068-30.994,24.01-36.513,42.514-6.12,20.523-.658,39.158,8.655,57.32.544,4.624-1.345,10.311-3.9,14.364a51.736,51.736,0,0,0-8.392,13.843,60.135,60.135,0,0,0-3.04,34.863c4.557,22.5,23.49,40.912,46.945,38.827a39.834,39.834,0,0,0-1.2,4.407c-3.726,18.131-.4,39.589,9.156,55.466,9.462,15.716,24.588,24.535,42.482,27.425,15.936,2.575,35.213,2.673,45.239-11.691,10.3,13.228,26.08,22.957,41.606,27.423,37.725,10.849,79.983-12.434,82.841-51.47.221.406.45.806.644,1.225,15.792,34.253,76.623,41.188,96.282,23.924,15.4-13.521,29.529-30.463,34.5-50.629,4.873-19.787-.085-40.642-12.353-56.783-1.179-1.551-2.511-3.077-3.913-4.589-.055-.636-.117-1.277-.167-1.915,6.209-.308,16.319-2.919,16.39-2.865,22.946-6.314,42.153-30.137,44.907-53.177C509.02,1125.96,491.927,1097.559,464.848,1086.807ZM395.8,1012.729a49.522,49.522,0,0,1,16.785-.05,55.07,55.07,0,0,1,27.912,13.813c16.913,15.835,19.9,36.7,19.06,58.47a64.386,64.386,0,0,0-9.187-2.026c-13.647-1.969-32.232.076-44.414,8.959.365-.64.727-1.288,1.1-1.916a.5.5,0,0,0-.866-.507c-.809,1.4-1.659,2.8-2.511,4.208a30.806,30.806,0,0,0-4.539,4.834l-.007-.021q2.575-5.08,5.585-9.919c.308-.493-.478-.953-.777-.455q-2.785,4.637-5.167,9.479c-.242-.615-.519-1.2-.772-1.811,1.533-3.321,3.178-6.583,4.845-9.847.3-.6-.573-1.12-.907-.528-1.658,2.938-3.127,5.974-4.5,9.055-.381-.877-.781-1.74-1.179-2.6.984-2.332,2.07-4.6,3.184-6.894a.5.5,0,0,0-.855-.5,34.626,34.626,0,0,0-2.976,6.012c-.4-.825-.816-1.633-1.238-2.437.363-.975.727-1.949,1.074-2.929.258-.726-.873-1.017-1.144-.315-.235.615-.457,1.234-.687,1.853-.591-1.047-1.24-2.1-1.916-3.141.219-.617.441-1.234.642-1.859.178-.551-.637-.738-.847-.233-.151.366-.288.74-.434,1.108a70.529,70.529,0,0,0-10.528-12.281c7.709-6.709,9.528-18.777,10.133-28.474a41.243,41.243,0,0,0-.141-6.76c1.2-4.559,3.78-8.639,6.485-12.63.487-.72-.676-1.389-1.163-.679a41.21,41.21,0,0,0-5.693,10.665c-.212-1.277-.491-2.535-.809-3.78a38,38,0,0,1,6.382-15.634A.441.441,0,0,0,395.8,1012.729ZM315.162,1218.2c-1.409,1.2-3.009,2.3-4.327,3.614-.813-.706-1.649-1.385-2.511-2.03a116.446,116.446,0,0,0,16.906-12.333c.486-.429-.155-1.277-.7-.905-5.74,3.929-11.476,8.278-16.828,12.772-.872-.626-1.759-1.231-2.673-1.8,5.441-3.431,10.706-7.22,15.936-10.96.589-.422.032-1.405-.576-.984-5.368,3.712-10.789,7.442-15.929,11.465-.039.03-.037.071-.055.109-.6-.361-1.193-.734-1.811-1.073,2.766-1.762,5.482-3.6,8.283-5.315a.445.445,0,0,0-.448-.768,50.691,50.691,0,0,0-8.473,5.733c-.7-.37-1.4-.729-2.111-1.069.726-.491,1.434-1.014,2.131-1.531.656-.487.009-1.6-.644-1.1-.886.671-1.8,1.345-2.632,2.085q-1.211-.549-2.449-1.048a9.612,9.612,0,0,1,1.507-1.048c.525-.286.032-1.126-.466-.8a9.084,9.084,0,0,0-1.768,1.549q-1.358-.528-2.737-1l.34-.222q.936-.6,1.846-1.249c.742-.526.03-1.762-.72-1.231-.646.461-1.275.939-1.9,1.423a9.539,9.539,0,0,0-.973.807c-.946-.3-1.894-.6-2.848-.863,1.5-.863,2.951-1.811,4.4-2.735.582-.37.032-1.309-.541-.925-1.638,1.1-3.312,2.179-4.879,3.383q-1.812-.48-3.621-.879l-.108-.023c1.446-.9,2.878-1.816,4.31-2.721.683-.432.048-1.522-.633-1.085-1.763,1.138-3.548,2.266-5.29,3.449-1.62-.359-3.523-.768-5.53-1.083,1.058-.542,2.058-1.227,3.061-1.848,1.6-.989,3.209-1.974,4.79-3,.784-.51.071-1.756-.736-1.261-1.608.984-3.189,2.008-4.774,3.029a23.418,23.418,0,0,0-4.016,2.848A34.7,34.7,0,0,0,271,1207.3c1-.576,1.935-1.186,2.645-1.571,3.118-1.688,6.142-3.545,9.094-5.506.688-.457.039-1.578-.651-1.113-2.451,1.654-4.93,3.26-7.465,4.783-1.953,1.174-4.612,2.205-6.6,3.6a12.789,12.789,0,0,0-2.826.687c.039-.107.071-.215.109-.322,4.79-3.55,9.573-7.109,14.313-10.727.722-.55.025-1.795-.726-1.24-4.29,3.168-8.545,6.385-12.794,9.61.251-.792.486-1.587.71-2.387,5.261-4.562,10.537-9.139,15.584-13.925.594-.564-.277-1.4-.888-.888-4.8,4.023-9.452,8.249-14.078,12.484.365-1.448.692-2.9,1-4.363,4.187-3.426,8.247-7.045,12.351-10.549.719-.614-.317-1.627-1.032-1.033-3.664,3.05-7.374,6.156-10.894,9.423.171-.879.318-1.754.475-2.632a77.506,77.506,0,0,0,11.093-9.283c.551-.557-.263-1.336-.847-.847-3.354,2.812-6.709,5.7-9.98,8.644.3-1.768.59-3.529.859-5.268,2.7-2.108,5.311-4.333,7.954-6.5a.491.491,0,0,0,.107-.134,71.881,71.881,0,0,0,7.205,6.43c13.74,10.6,30.669,15.127,47.694,16.8a68.784,68.784,0,0,0-12.874,12.173.751.751,0,0,0-.386.155C318.412,1215.165,316.846,1216.768,315.162,1218.2Zm1.686.469c-.272.413-.559.818-.822,1.24a44.815,44.815,0,0,0-2.47,4.512c-.624-.672-1.3-1.295-1.971-1.914a29.078,29.078,0,0,0,4-2.844C316,1219.341,316.427,1219.009,316.848,1218.674Zm-45.912-38.093a24.853,24.853,0,0,1,3.3-2.5c.672-.414.03-1.5-.617-1.055a20.329,20.329,0,0,0-2.574,2.109c.078-1.2.1-2.381.108-3.555,1.067-.6,2.076-1.35,3.086-2.028q1.7,2.052,3.55,3.982a.544.544,0,0,0-.142.078c-2.341,2.013-4.728,4-7.043,6.051C270.746,1182.63,270.846,1181.6,270.937,1180.581ZM270.752,1169c.875,1.245,1.8,2.456,2.755,3.646-.777.626-1.592,1.241-2.355,1.9A46.7,46.7,0,0,0,270.752,1169Zm18.592,13.96a68.763,68.763,0,0,1-26.791-41.27c-3.426-17.041-1.722-37.164,12.024-49.2,7.442-6.515,15.712-11.8,23.953-17.1a127.31,127.31,0,0,0,14.044,37.406c-2.46-1-4.948-1.894-7.525-.815-.7.29-.7,1.444.192,1.421,2.378-.059,4.813,1.565,7.013,2.4a57.817,57.817,0,0,0,7.18,2.236c3.611.856,7.717,1.4,11.138-.4,3.3-1.734,4.827-5.142,5.549-8.641.486-2.349.61-4.779,1.3-7.084.96-3.2,3.07-5.505,5.265-7.922,1.238-1.364-.743-3.376-2.033-2.033-2.746,2.862-5.19,5.852-6.2,9.761-.061.235-.114.477-.165.72-9.647-11.366-16.66-23.426-19.78-37.926.331-.249.667-.489,1-.742a87.152,87.152,0,0,1,38.338-3.244c16.34,2.173,31.855,17.882,38.639,32.295,13.909,29.554,14.521,70.9-11.556,93.876a79.038,79.038,0,0,0-43.535,12.07C320.455,1196.687,303.412,1193.22,289.344,1182.961Zm-38.594-69.955q4.89-4.57,9.7-9.229c-.112.315-.222.631-.336.946a53.527,53.527,0,0,0-3.089,11.428,57.653,57.653,0,0,0-.29,10.713.6.6,0,0,0-.589.267c-2.214,3.239-4.347,6.545-6.421,9.88-.9-.631-1.809-1.241-2.728-1.839a122.6,122.6,0,0,0,7.968-11.1c.391-.607-.571-1.162-.966-.564-2.5,3.783-5.073,7.524-7.557,11.316-.8-.509-1.6-.992-2.412-1.482,2.334-2.99,4.356-6.284,6.456-9.423.462-.688-.66-1.345-1.113-.649-2.051,3.146-4.288,6.294-6.111,9.6-.614-.363-1.238-.706-1.857-1.06a17.48,17.48,0,0,1,2.558-3.685c.566-.621-.375-1.551-.92-.92a17.158,17.158,0,0,0-2.6,4.059c-.327-.183-.647-.379-.976-.558-.446-.245-.9-.5-1.354-.754a7.954,7.954,0,0,1,1.174-1.635c.519-.537-.334-1.371-.815-.813a7.57,7.57,0,0,0-1.209,1.973c-.816-.459-1.643-.916-2.481-1.35.452-.5.866-1.037,1.282-1.57a.5.5,0,1,0-.788-.608c-.429.594-.861,1.181-1.238,1.809a17.929,17.929,0,0,0-7.3-2.163,5.439,5.439,0,0,1-2.255-1.039,4.969,4.969,0,0,1-1.592-2.609c3.173-15.972,9.758-31.453,15.631-46.443q10.141-25.887,22.169-50.975a77.084,77.084,0,0,0-2.15,8.3c-2.981,14.985-5.532,40.028,6.743,52.35a15.992,15.992,0,0,0-4.642,1.172c-6.074,2.481-11.79,4.626-18.073,6.556a.61.61,0,0,0,0,1.167,19.628,19.628,0,0,0,2.088.439,40.812,40.812,0,0,0-2.791,4.685.36.36,0,0,0,.621.363c1.1-1.62,2.191-3.255,3.264-4.9a20.987,20.987,0,0,0,2.913.069c-2.492,2.821-4.825,5.793-7.043,8.829-.245.336.322.779.582.448,2.54-3.223,5.227-6.3,7.95-9.368a27.963,27.963,0,0,0,3.908-.69c.05-.012.1-.034.157-.046q-5.592,6.187-11.18,12.374c-.279.309.174.767.461.461l12.445-13.359c1.971-.681,4.018-1.587,6.072-2.172a.375.375,0,0,1,.009.041c-.228.292-.462.566-.7.839a.53.53,0,0,0-.454.153c-5.252,5.014-10.421,10.213-15.451,15.451-.331.343.162.818.516.516a179.976,179.976,0,0,0,15.734-15.168.536.536,0,0,0,.123-.548c.135-.139.27-.277.406-.418a20.747,20.747,0,0,1,.012,4.72c-2.476,2.024-4.779,4.3-7.141,6.448-2.113,1.925-4.612,3.742-6.151,6.181-.292.461.43.877.727.425,1.7-2.584,4.6-4.55,6.9-6.583,1.809-1.6,3.685-3.148,5.455-4.8-.012.071-.023.13-.03.169-.213,1.016-.493,2.013-.8,3a.533.533,0,0,0-.254.139c-3.6,3.531-7.147,7.129-10.666,10.745A.348.348,0,0,0,250.749,1113.006Zm6.96,22c.2,1.119.414,2.229.662,3.315.233,1.464.494,2.908.8,4.306.249,1.137.528,2.264.831,3.383-.338-.379-.66-.761-1.014-1.135a54.615,54.615,0,0,0-4.813-4.489Q255.949,1137.7,257.709,1135Zm-4.23,4.822c-.932-.754-1.892-1.469-2.864-2.173q3.207-4.6,6.231-9.34c.146,1.756.347,3.506.619,5.233A62.072,62.072,0,0,0,253.479,1139.824Zm29.5-204.019a288.693,288.693,0,0,1,10.293,45.837,14.02,14.02,0,0,1-2.9,5.042,51.058,51.058,0,0,1-5.048,3.92c-.187.135-.363.286-.548.423a46.72,46.72,0,0,0-13.7,12.7c4.852-9.683,9.268-19.565,11.232-30.251C284.593,961.1,284.331,948.364,282.981,935.805Zm11.291,53.418a319.7,319.7,0,0,1,2.166,34.439c.139,15.776-1.238,31.476,1.238,47.141-2.609,1.727-5.169,3.5-7.682,5.226-4.847,3.337-9.994,6.8-14.686,10.679a2.591,2.591,0,0,0-.567-.475c-9.962-6.134-13.153-13.573-13.914-25.112-.687-10.417-.286-21,2.2-31.174C267.525,1011.511,278.49,998.838,294.272,989.223Zm100.14,23.743a31.174,31.174,0,0,0-5.777,13.114c-.116-.365-.254-.722-.379-1.083a26.91,26.91,0,0,1,2.536-10.471.616.616,0,0,0-.19-.759C391.872,1013.472,393.141,1013.2,394.412,1012.966Zm-4.676,1a23.82,23.82,0,0,0-2.422,8.493c-.341-.847-.727-1.677-1.112-2.508a36.73,36.73,0,0,1,1.622-5.478C388.459,1014.312,389.1,1014.12,389.736,1013.969Zm-3.205.85a28.761,28.761,0,0,0-1.012,3.675c-.5-1.007-1.016-2.006-1.576-2.988C384.811,1015.256,385.669,1015.05,386.531,1014.819Zm-75.353-29.945c.64.03,1.279.052,1.916.037a1.019,1.019,0,0,0,.507-.153c5.8.489,12.273-.254,16.922.148,13.148,1.138,25.23,4.918,34.829,14.35,8.7,8.545,17.045,18.937,20.191,30.932,2.782,10.606,1.354,29.833-8.523,37.015-6.816-5.482-14.645-9.519-22.646-10.588-12.246-1.636-28.965-2.27-40.538,4.39-.062-.372-.135-.735-.192-1.108-2.865-18.809-2.218-38.052-4.8-56.962-.621-4.552-1.371-9.108-2.177-13.663A6.363,6.363,0,0,1,311.178,984.874ZM271.385,874.652c-1.876,1.17-3.539,3.979-4.422,5.855C266.874,876.209,268.79,873.333,271.385,874.652Zm-1.494,35.395a20.63,20.63,0,0,1,1.3-8.589c.647-1.777,1.533-3.547,2.083-5.38a11.528,11.528,0,0,0,1.27-1.707c.5-.843-.724-1.494-1.281-.749-1.469,1.965-3.257,3.445-4.575,5.179a24.538,24.538,0,0,1,.007-4.822c.382-3.97-.445-6.213-1.238-9.834a11.639,11.639,0,0,1,1.437-3.568c.571-.927,2.915-4.463,4.352-4.334h.011a12.456,12.456,0,0,1,.8,1.071,25.32,25.32,0,0,1,2.421,5.859,4.581,4.581,0,0,0-4.3-.948c-1.329.342-.758,2.284.562,2.033,2.719-.516,5.407,3.755,6.983,6.624.423,1.01.827,2.056,1.181,3.109-1.88,4.473-6.453,7.823-8.929,12.009A25.425,25.425,0,0,0,269.891,910.047Zm2.414,2.682c-1.627-2.839,6.962-12.746,7.812-13.852a13.7,13.7,0,0,0,1.462-2.314,18.41,18.41,0,0,1,.237,4c-.114,1.629-.706,3.077-.895,4.687a11.24,11.24,0,0,0,.274,3.264c-.02.1-.037.21-.055.317-2.038-1.576-4.888-.1-6.734,1.5A9.228,9.228,0,0,0,272.3,912.729Zm3.781,52.037c3.481-16.858,1.163-34.1-1.448-50.945a13.63,13.63,0,0,1,1.062-1.064c.9-.815,3.05-2.8,4.18-1.526a1.146,1.146,0,0,0,.436.308c5.306,15.255,11.737,30.094,16.171,45.684a285.469,285.469,0,0,1,10.652,58.106c.96,13.9.055,28.243,1.965,42.12,4.231,26.35,13.229,39.037,23.78,49.336a2.117,2.117,0,0,0,.655.439c-.489,3.059-1.3,6.054-3.972,7.668-3.248,1.967-7.716,1-11.481-.144a1.989,1.989,0,0,0-.283-1.067,133.167,133.167,0,0,1-15.558-40.691l.016-.011a38.728,38.728,0,0,1-1.361-7.876c-2.168-16.4-.722-33.059-1.352-49.551-1.24-32.433-8.15-63.584-18.546-94.246-.486-1.427-2.969-1.313-2.8.379,1.878,19.094,4.726,38.486-.334,57.372-4.781,17.843-15.439,34.331-23.174,51.016q-11.363,24.513-21.009,49.771c-6.049,15.837-13.968,32.949-13.77,50.22.39,2.993.681,6,1.028,9a1.051,1.051,0,0,0,.927-1.163c-.137-2.181-.093-4.827,1.442-6.572a14.65,14.65,0,0,1,1.524-1.485c4.852-1.051,12.817,4.82,16.536,7.074a75.18,75.18,0,0,1,15.314,11.819c10.526,10.924,11.83,22.925,9.453,37.362-1.834,11.138-3.94,23.327-11.211,32.364-7.524,9.354-19.761,16.054-30.165,21.731-12.8,6.983-27.466,11.956-42.168,8.986-11.842-2.394-21.84-9.624-30-18.259-8.146-8.619-16.819-19.652-19.648-31.4-2.99-12.4-1.45-28.315,2.042-40.432,4.342-15.067,14.193-26.56,29.379-31.1,6.414-1.919,12.908-3.609,19.362-5.388,7.251-2,15.157-3.982,22.009-.219-.274.767-.525,1.538-.786,2.307-.247.311-.5.623-.726.95a21.964,21.964,0,0,0-2.218,4.237c-1.432-2.341-3.255-4.127-6.458-4.07-.3,0-.461.455-.16.594,6.777,3.152,6.307,12.66,13.454,15.753,2.945,1.274,5.951,1.06,8.993.286,3.991-1.016,7.39-1.747,11.127-1.357a24.418,24.418,0,0,1,4.879-.217.633.633,0,0,0-.4-.516,18.634,18.634,0,0,0-10.174-1.371c-4.884.729-9.629,3.541-14.462.873-2.677-1.478-4.027-4.6-5.476-7.538a1.2,1.2,0,0,0,.162-.253c.091-.228.178-.459.267-.686,11.049-17.678,18.2-38.587,26.719-57.587q12.747-28.435,25.313-56.955C263.18,1000.006,272.342,982.891,276.086,964.766Zm-69.537,148.444c-.516,1.067-1.083,2.106-1.629,3.157a19.653,19.653,0,0,1-2.166-.646,42.56,42.56,0,0,0,4.859-8.459c.315-.671-.69-1.254-.994-.581-1.348,2.983-3.009,5.864-4.3,8.875a11.541,11.541,0,0,1-1.848-.952c2.09-3.748,4.5-7.557,5.971-11.547.212-.573-.63-.852-.937-.395-2.332,3.456-4,7.6-5.788,11.426a17.446,17.446,0,0,1-1.9-1.533.4.4,0,0,0,.043-.05c2.221-4.037,4.569-8.047,6.615-12.18a28.169,28.169,0,0,0,10,1.172c-2.362,5.122-4.637,10.282-6.691,15.492-.591-.125-1.167-.244-1.74-.366.571-.905,1.112-1.834,1.633-2.757C208.087,1113.132,206.911,1112.465,206.548,1113.211Zm-9.158-1.825c-.183-.576-.356-1.147-.523-1.684-.009-.571-.046-1.14-.089-1.709,1.5-2.938,2.99-5.882,4.413-8.854.687.292,1.384.551,2.086.8C201.186,1103.672,199.317,1107.558,197.39,1111.386Zm-.829-5.375a35.161,35.161,0,0,0-.916-4.4c.807-1.325,1.6-2.659,2.392-3.991q1.011.555,2.045,1.037C198.875,1101.089,197.712,1103.546,196.561,1106.011Zm-1.242-5.5a47.379,47.379,0,0,0-2.444-6.284,41.556,41.556,0,0,0,4.306,2.89C196.56,1098.245,195.932,1099.373,195.32,1100.509Zm-30.144-72.086a54.288,54.288,0,0,1,19.35-36.432c11.421-9.667,26.068-15.008,40.821-16.737,7.41-.868,14.713-1.083,21.529,2.417,6.012,3.089,13.466,7.76,17.009,13.66a1.615,1.615,0,0,0,.27.333c-4.756,11.122-10.293,22.009-15.124,32.9q-11.76,26.5-23.481,53.021c-2.762,6.282-5.784,12.589-8.767,18.941a2.683,2.683,0,0,0-.855-.023c-11.963,1.691-21.872-5.412-29.575-13.772-.823-.895-1.606-1.827-2.4-2.743-1.263-1.647-2.542-3.235-3.8-4.738a91.966,91.966,0,0,0-9.959-13.166,32.952,32.952,0,0,1-4.47-13.094A95.893,95.893,0,0,1,165.176,1028.423ZM72.314,1092.47c5.126-17.507,16.635-34.009,34.061-40.9,9.128-3.611,18.432-3.863,27.962-1.812,6.134,1.322,13.338,2.572,19.551,5.055,3.79,2.876,7.84,5.373,11.364,8.714,4.013,3.8,7.253,8.2,10.739,12.434a2.057,2.057,0,0,0,.391.781c9.976,12.509,16.26,24.14,16.162,40.114-7.107.7-14.585,3.664-20.815,5.352-13.786,3.735-25.4,8.109-33.511,20.58-6.383,9.814-8.991,21.37-9.834,32.97-9.606.495-18.846-2.182-27.446-6.41-9.108-4.477-14.441-11.276-19.245-20.008C71.867,1131.484,66.416,1112.611,72.314,1092.47Zm-6.362,113.6a55.535,55.535,0,0,1,3.381-28.7,46.159,46.159,0,0,1,6.22-10.779c.589-.544,1.169-1.067,1.7-1.565,2.383-2.234,4.646-3.917,7.885-4.632.02,0,.03-.016.048-.021a40.229,40.229,0,0,0,14.065,11.86,71.768,71.768,0,0,0,13.811,5.469,31.22,31.22,0,0,1,10.825,13.69c.224.559,1.128.34.923-.254a25.484,25.484,0,0,0-9.8-12.945,47.527,47.527,0,0,0,13.167,1.249c-.1,2.41-.144,4.815-.13,7.2a55.715,55.715,0,0,0,6.785,26.733,2.073,2.073,0,0,0-.34.9,9.6,9.6,0,0,1-2.9,5.825,74.013,74.013,0,0,0-12.723,12.207,54.334,54.334,0,0,0-7.938,12.13c-.027,0-.05,0-.076.005C86.991,1248.258,69.048,1228.136,65.952,1206.066Zm87.452,124.8a52.612,52.612,0,0,1-35.213-28.8c-7.033-14.507-9.58-33.956-5.405-49.638a42.6,42.6,0,0,1,6.446-13.448c3.867-3.616,8.495-6.126,14.156-5.147.633.109.916-.838.27-.98a14.217,14.217,0,0,0-12.057,2.942c1.306-1.628,2.691-3.2,4.137-4.735,2.7-2.862,6.008-5.489,8.909-8.377a9.1,9.1,0,0,0,1.462-1.11,10.383,10.383,0,0,0,1.289-1.537,6.888,6.888,0,0,1,1.222-.34l.011,0c1.387,2.09,2.871,4.171,4.493,6.266,8.169,10.535,18.375,20.2,30.9,25.256a48.931,48.931,0,0,0,23.042,3.146,127.392,127.392,0,0,1-3.7,20.033,1.606,1.606,0,0,0,.016.836c-2.072,12.776-1,26.245,3.892,37.389a55.8,55.8,0,0,0,4.626,8.375C192.286,1337.172,169.124,1334.8,153.4,1330.861Zm149.771,8.653c-16.39,11.771-37.776,14.233-56.872,8.441-18.5-5.611-37.408-19.1-45.342-37.175-8.45-19.259-2.517-38.143,2.191-57.3a71.4,71.4,0,0,0,13.288-4.043,128.983,128.983,0,0,0,23.055-12.913c5.91-4,12.3-7.9,17.085-13.286a42.584,42.584,0,0,0,6.675-10.348c17.427-2.631,35.549,3.879,48.281,16.036.048.044.1.075.148.115-3.822,17.358,3.312,39.79,7.682,50.494,1.875,4.589,3.824,9.156,5.932,13.646.26,1.7.514,3.4.775,5.092A55.148,55.148,0,0,1,303.174,1339.514Zm152.448-64.347c-4.493,17.429-16.23,32.521-29.726,44.042-8.445,7.207-17.153,9.6-28.478,11.535-11.221,1.921-51.721-3.8-67.349-38.968-.936-2.106-1.8-4.251-2.679-6.4a148.948,148.948,0,0,1-8.733-19.8c-2.3-6.437-3.484-23.229-3.62-25.022,0-5.11.754-11.006,3.054-15.394,11.9-22.708,39.119-34.424,63.86-33.524.318.155,17.231,2.084,25.125,4.542,13.658,5.412,26.67,12.438,36.078,24.385C455.238,1235.915,460.545,1256.066,455.622,1275.167Zm31.7-88.84c-16.792,22.238-45.074,20.643-51.785,19.606-11.013-8.423-26.7-15.415-49.263-18.99,1.122-1.151,2.177-2.348,3.189-3.575a7.208,7.208,0,0,0,1.446,3.586.374.374,0,1,0,.59-.455,6.555,6.555,0,0,1-1.458-3.875c.658-.824,1.32-1.641,1.935-2.492a15.949,15.949,0,0,0,1.839,6.353c.244.454.925.051.69-.4a19.08,19.08,0,0,1-2.037-6.616q1.011-1.433,1.942-2.914a26.9,26.9,0,0,0,2.721,9.987c.3.592,1.172.073.886-.518a31.952,31.952,0,0,1-3.079-10.35c1.137-1.878,2.19-3.808,3.138-5.793-.388,5.492.2,10.949,3.36,15.75a.639.639,0,0,0,1.1-.644c-3.045-5.519-3.568-11.616-3.266-17.745,8.313-19.4,8.189-42.877,1.755-63.291a2.336,2.336,0,0,0,.21-.3c10.218-18.2,39.964-19.266,57.519-14.042,1.474.439,2.915.948,4.34,1.489-4.146-.857-8.6-.464-13.434.52-.422.087-.334.806.1.763a61.269,61.269,0,0,1,10.6-.494c5.163.4,8.845,2.831,12.436,6.406,5.725,5.7,10.894,12.475,11.205,20.863a.525.525,0,0,0,1.049,0c-.089-8.886-5.551-16.282-11.611-22.327a23.859,23.859,0,0,0-2.136-1.88,58.483,58.483,0,0,1,27.663,34.765C504.682,1149.35,499.734,1169.886,487.317,1186.326Z" transform="translate(0 0)" fill="#bfa871"/>
    <path id="Path_2947" data-name="Path 2947" d="M113.977,993.889a15.112,15.112,0,0,0,2.376,8.105,11.691,11.691,0,0,0,6.241,4.082,129.993,129.993,0,0,0,13.094,3.205.965.965,0,0,0,.512-1.859c-4.15-1.152-8.432-1.857-12.559-3.088-4.811-1.435-7.2-4.63-7.821-9.533-.628-4.955,1.355-13.2-5.432-14.446-.256-.048-.473.338-.192.459C115.317,983.02,113.739,989.482,113.977,993.889Z" transform="translate(38.362 86.071)" fill="#bfa871"/>
    <path id="Path_2948" data-name="Path 2948" d="M124.243,1001.4c.491.13.836-.6.356-.843-3.632-1.818-7.054-4.457-8.006-8.626a7.46,7.46,0,0,1-.08-3.436c.441-1.362,3.274-2.985,4.619-2.581,1.234.372,2,1.449,3.37,1.722a.8.8,0,0,0,.425-1.54c-2.316-.882-4.215-3.584-6.963-2.572-2.1.774-3.029,3.189-3.28,5.219C113.924,994.909,118.564,999.911,124.243,1001.4Z" transform="translate(41.895 88.365)" fill="#bfa871"/>
    <path id="Path_2949" data-name="Path 2949" d="M126.1,996.939a.776.776,0,0,0,.413-1.5c-1.684-.7-2.108-2.6-2.712-4.139a42.45,42.45,0,0,0-1.978-4.366c-.238-.452-.891-.13-.791.334a35.747,35.747,0,0,0,2.067,6.688C123.686,995.319,124.552,996.641,126.1,996.939Z" transform="translate(46.89 91.031)" fill="#bfa871"/>
    <path id="Path_2950" data-name="Path 2950" d="M134.393,1013.033c.128,1.017,1.729,1.058,1.631,0-.6-6.469-1.96-12.287-7.65-15.979-.076-.048-.139.068-.069.119C133.17,1000.786,133.7,1007.555,134.393,1013.033Z" transform="translate(52.54 99.067)" fill="#bfa871"/>
    <path id="Path_2951" data-name="Path 2951" d="M78.176,990.1c6.2-7.139,13.761-13.439,23.063-15.938a29.084,29.084,0,0,1,15.337-.059c4.333,1.19,8.262,3.8,12.427,5.446l.005-.011c-4.573-3.009-8.223-6.159-13.815-7.257a31.228,31.228,0,0,0-13.671.6c-9.69,2.517-17.516,9.213-23.946,16.62C77.225,989.913,77.819,990.512,78.176,990.1Z" transform="translate(12.982 79.401)" fill="#bfa871"/>
    <path id="Path_2952" data-name="Path 2952" d="M80.691,984.132a30.4,30.4,0,0,0-10.538,13.651c-.235.571.727.975,1,.422a57.23,57.23,0,0,1,9.813-13.715C81.136,984.308,80.912,983.977,80.691,984.132Z" transform="translate(7.257 88.983)" fill="#bfa871"/>
    <path id="Path_2953" data-name="Path 2953" d="M99.534,976.208a.577.577,0,0,0,0,1.152c5.021.386,8.822,3.564,12.463,6.771.018.016.052-.005.036-.027C108.994,980.029,105.2,975.566,99.534,976.208Z" transform="translate(29.73 82.797)" fill="#bfa871"/>
    <path id="Path_2954" data-name="Path 2954" d="M89.147,1005.473q-2.961.211-2.759-2.125a9.017,9.017,0,0,1,.382-2.163,22,22,0,0,0,.555-2.646A10.138,10.138,0,0,0,86.5,993.5c-.039-.093-.2-.046-.19.052a20.046,20.046,0,0,1-.841,7.271,7.266,7.266,0,0,0-.288,4.066c.637,2.045,2.862,3.225,4.731,1.892C90.707,1006.217,89.926,1004.893,89.147,1005.473Z" transform="translate(18.839 96.272)" fill="#bfa871"/>
    <path id="Path_2955" data-name="Path 2955" d="M75.147,1026.348c.5-6.787,2.051-13.514-1.272-19.842-.044-.085-.169-.011-.128.075,3.6,7.755-.309,16.426.237,24.529.487,7.232,6.012,13.238,11.294,17.761.373.32,1.071-.109.735-.566-2.52-3.436-6.037-6.056-8.431-9.606C75.083,1034.994,74.825,1030.677,75.147,1026.348Z" transform="translate(10.077 106.406)" fill="#bfa871"/>
    <path id="Path_2956" data-name="Path 2956" d="M87.473,1035.708a5,5,0,0,1-3.264-1.579c-.025-.027-.076.009-.053.041a5.142,5.142,0,0,0,3.246,2.053A.261.261,0,1,0,87.473,1035.708Z" transform="translate(18.183 127.937)" fill="#bfa871"/>
    <path id="Path_2957" data-name="Path 2957" d="M69.259,1049.148c-3,7.823-3.189,17.271-2.778,25.536a.468.468,0,0,0,.936,0c.1-6.759-.381-13.439,1.3-20.065,1.533-6.053,5.1-16.243,13.016-15.467a.075.075,0,0,0,.021-.146C75.2,1037.459,71.3,1043.842,69.259,1049.148Z" transform="translate(4.3 131.558)" fill="#bfa871"/>
    <path id="Path_2958" data-name="Path 2958" d="M77.669,1074.334a4.245,4.245,0,0,0-2.013.183c-.907.251-.916.455-1.83-.121s-.937-1.174-1.284-2.173c-.982-2.828-2.216-5.546-3.255-8.351-.005-.014-.027-.009-.023.005.562,2,.962,4.05,1.514,6.058A22.255,22.255,0,0,0,72.3,1074.9c1.252,2.172,3.317.525,5.224.517C78.123,1075.417,78.3,1074.43,77.669,1074.334Z" transform="translate(6.592 151.096)" fill="#bfa871"/>
    <path id="Path_2959" data-name="Path 2959" d="M83.49,1079.041a10.623,10.623,0,0,1-2.776-2.015c-.032-.032-.076.014-.05.048,1.327,1.56,3.422,3.6,5.564,3.831.4.043.541-.571.2-.743C85.5,1079.685,84.438,1079.516,83.49,1079.041Z" transform="translate(15.462 161.336)" fill="#bfa871"/>
    <path id="Path_2960" data-name="Path 2960" d="M128.243,1100.362q-.5.793-.948,1.619-5.757,2.3-5.281-2.239c-.116-1.258-.11-2.528-.249-3.783a16.493,16.493,0,0,0-1.688-5.884c-2.184-4.21-5.989-6.914-9.651-9.736-.014-.011-.036.016-.02.028a31.48,31.48,0,0,1,8.352,9.185c2.305,4.228,1.208,8.694,2.682,13.005,1.723,5.039,6.584,1.588,7.936-1.715C129.651,1100.173,128.6,1099.782,128.243,1100.362Z" transform="translate(38.623 163.922)" fill="#bfa871"/>
    <path id="Path_2961" data-name="Path 2961" d="M130.376,1112.854c.043-2.414.663-4.749.441-7.18a10.674,10.674,0,0,0-4.347-7.728c-.012-.009-.032.011-.023.025,3.632,4.879,2.705,9.236,2.666,14.884-.027,3.826,1.35,6.512,3.744,9.395.294.354.882-.107.637-.491C131.683,1118.935,130.314,1116.3,130.376,1112.854Z" transform="translate(51.115 177.631)" fill="#bfa871"/>
    <path id="Path_2962" data-name="Path 2962" d="M134.431,1117.93a13.723,13.723,0,0,1,1.8,5.823c.044.557.927.55.866,0a10.974,10.974,0,0,0-2.531-5.926C134.5,1117.751,134.384,1117.849,134.431,1117.93Z" transform="translate(57.325 193.092)" fill="#bfa871"/>
    <path id="Path_2963" data-name="Path 2963" d="M93.829,1086.492a.018.018,0,0,0-.032-.014c-6.019,12.918-1.972,28.1,6.163,39.142.375.509,1.231.041.866-.507C93.061,1113.431,88.456,1100.239,93.829,1086.492Z" transform="translate(23.448 168.697)" fill="#bfa871"/>
    <path id="Path_2964" data-name="Path 2964" d="M197.81,1070.651c.052-.059-.018-.171-.091-.117-5.4,4.073-10.743,7.981-16.52,11.511-5.676,3.47-11.492,6.734-16.95,10.547-9.158,6.4-17.752,14.519-21.095,25.49-.224.736.9,1.03,1.144.315,4.123-11.959,13.589-20.364,23.953-27.053C178.165,1084.944,189.947,1079.713,197.81,1070.651Z" transform="translate(64.103 156.278)" fill="#bfa871"/>
    <path id="Path_2965" data-name="Path 2965" d="M143.616,1100.562a.08.08,0,0,0-.146-.062c-7.1,14.2-2.533,34.247,9.569,44.412.582.489,1.4-.288.847-.847C142.131,1132.112,138.727,1116.527,143.616,1100.562Z" transform="translate(61.749 179.591)" fill="#bfa871"/>
    <path id="Path_2966" data-name="Path 2966" d="M172.881,1138.059c-5.419.461-9.048-2.873-12.884-6.184a39,39,0,0,0-9.338-6.017c-.333-.155-.622.311-.293.5,4.736,2.746,8.212,6.741,12.562,9.95,3,2.214,6.359,3.616,10.111,2.915A.6.6,0,0,0,172.881,1138.059Z" transform="translate(69.628 199.342)" fill="#bfa871"/>
    <path id="Path_2967" data-name="Path 2967" d="M203.862,1096.892c.623.491,1.51-.332.895-.9-3.605-3.308-3.056-9.22-5.782-13.231-2.7-3.97-6.664-6.234-10.691-8.63a.092.092,0,0,0-.092.158c4.811,2.967,9.905,7.355,11.641,12.922C200.908,1090.669,200.794,1094.474,203.862,1096.892Z" transform="translate(99.159 159.083)" fill="#bfa871"/>
    <path id="Path_2968" data-name="Path 2968" d="M200.854,1092.455a.064.064,0,0,0-.124-.018c-1.073,5.238.391,10.014,2.586,14.764,1.453,3.145,3.237,6.147,4.393,9.423.749,2.124,3.472,10.314-.3,11-.985.18-.562,1.658.413,1.5,5.316-.882,1.731-9.95.64-12.7C205.372,1108.607,200.619,1101.13,200.854,1092.455Z" transform="translate(108.675 173.31)" fill="#bfa871"/>
    <path id="Path_2969" data-name="Path 2969" d="M202.074,1118.828c-6.49,4.293.116,17.395-8.863,18.77-.6.091-.356,1.053.256.923a6.83,6.83,0,0,0,5.074-4.877c1.665-4.952.027-10.277,3.726-14.565C202.378,1118.949,202.234,1118.721,202.074,1118.828Z" transform="translate(102.833 193.871)" fill="#bfa871"/>
    <path id="Path_2970" data-name="Path 2970" d="M189.357,1101.785c-4.541,2.917-6.074-5.2-7.71-7.712-.044-.066-.153,0-.109.064,1.569,2.442,1.263,5.807,3.255,8.009,1.327,1.465,3.744,2,5.242.516C190.478,1102.225,189.9,1101.435,189.357,1101.785Z" transform="translate(94.005 174.596)" fill="#bfa871"/>
    <path id="Path_2971" data-name="Path 2971" d="M213.56,1066.35c.021-.069-.087-.1-.11-.03-1.227,3.668-4.2,6.266-5.909,9.688a23.6,23.6,0,0,0-2.321,9.067c-.507,7.97,2.423,15.547,5.286,22.83.254.649,1.314.366,1.056-.29-2.817-7.166-5.834-14.693-5.5-22.54a22.693,22.693,0,0,1,3.4-11.311C211.015,1071.332,212.694,1069.137,213.56,1066.35Z" transform="translate(112.407 152.977)" fill="#bfa871"/>
    <path id="Path_2972" data-name="Path 2972" d="M240.846,1133.274c-7.563,6.57-16.525-10.364-18.823-15.581-2.686-6.1-5.021-12.2-9.308-17.406-.091-.108-.24.046-.153.155,6.12,7.716,7.593,17.925,13.112,26.013,3.121,4.571,10.051,12.774,15.979,7.627C242.209,1133.6,241.4,1132.8,240.846,1133.274Z" transform="translate(118.148 179.428)" fill="#bfa871"/>
    <path id="Path_2973" data-name="Path 2973" d="M230.421,1060.376c1.45.585,2.575,1.739,4.194,1.9,2.006.2,3.721-.921,3.826-2.976.044-.855-1.307-.861-1.334,0-.13,4.167-6.544.027-8.465-.254-2.627-.384-5.135.708-7.52,1.651-.093.037-.055.188.043.153C224.267,1059.744,227.235,1059.091,230.421,1060.376Z" transform="translate(124.792 147.04)" fill="#bfa871"/>
    <path id="Path_2974" data-name="Path 2974" d="M262.179,1062.309l-4.416,1.306q-.568-.768-1.151-1.522c-.354-.45-.7-.9-1.08-1.322a14.9,14.9,0,0,0-3.463-2.832,17.17,17.17,0,0,0-7.924-2.259c-.194-.011-.185.276,0,.3a16.454,16.454,0,0,1,9.473,4.395c1.387,1.295,2.453,3.829,4.174,4.8a3.787,3.787,0,0,0,5.475-2.561A.565.565,0,0,0,262.179,1062.309Z" transform="translate(142.649 144.724)" fill="#bfa871"/>
    <path id="Path_2975" data-name="Path 2975" d="M281.261,1088.608a28.711,28.711,0,0,0-3.109-7.268,79.678,79.678,0,0,0-10.565-15.026c-.158-.178-.4.08-.258.258a92.639,92.639,0,0,1,10.037,15.227c1.555,2.994,2.947,5.932,3.137,9.347.144,2.609-.153,4.968.6,7.518a.582.582,0,0,0,1.121-.31C281.247,1095.151,281.98,1091.843,281.261,1088.608Z" transform="translate(160.777 152.957)" fill="#bfa871"/>
    <path id="Path_2976" data-name="Path 2976" d="M278.918,1112.169c-.084.861,1.263.856,1.346,0,.45-4.63-1.12-8.861-2.143-13.311-1.361-5.925.34-10.6,1.291-16.337,0,0-.048-.052-.055-.015-.98,4.977-3.449,8.856-2.762,14.1C277.287,1101.906,279.446,1106.725,278.918,1112.169Z" transform="translate(167.934 165.602)" fill="#bfa871"/>
    <path id="Path_2977" data-name="Path 2977" d="M272.435,1110.837a.38.38,0,1,0,.1.75,4.136,4.136,0,0,0,2.6-1.533,3.888,3.888,0,0,0,.831-2.652l-.044-.005A4.253,4.253,0,0,1,272.435,1110.837Z" transform="translate(164.503 184.992)" fill="#bfa871"/>
    <path id="Path_2978" data-name="Path 2978" d="M255.167,1084.432a7.472,7.472,0,0,1-.3,1.332c-.37.791-2.259,2.3-3.219,2.14-1.12-.189-2.387-2.444-3.022-3.241-1.816-2.269-3.771-4.424-5.574-6.7-.087-.112-.277.036-.2.151,1.663,2.391,3.152,4.895,4.811,7.291,1.019,1.469,2.2,3.438,4,4.071,3.157,1.113,4.685-2.309,4.927-4.85C256.666,1083.808,255.355,1083.648,255.167,1084.432Z" transform="translate(141.737 162.042)" fill="#bfa871"/>
    <path id="Path_2979" data-name="Path 2979" d="M253.4,1055.907c-7.556,8.559,1.1,24.348-12.449,28.659-4.786,1.524-8.543-.505-12.808-1.642a6.874,6.874,0,0,0,2.419-1.923c2.985-3.651,3.584-8.018,9.345-8.294,1.265-.062,1.272-2.037,0-1.974a10.023,10.023,0,0,0-7.728,3.824c-2.417,3.152-2.928,6.488-6.581,7.846-.137-.02-.27-.043-.409-.059-3.762-.425-7.479.971-8.79,4.715a1.146,1.146,0,0,0,2.086.879c3.267-6.246,11.428-.841,16.2-.221a15.453,15.453,0,0,0,11.205-2.958c9.69-7.268,2.211-19.608,8.045-28.438C254.146,1056,253.653,1055.613,253.4,1055.907Z" transform="translate(121.105 144.819)" fill="#bfa871"/>
    <path id="Path_2980" data-name="Path 2980" d="M231.572,1073.968c3.193-1.743,5.654-6.289,3.863-9.8-.078-.156-.281-.062-.3.08-.374,3.472-1.3,6.336-4.441,8.221A.868.868,0,0,0,231.572,1073.968Z" transform="translate(131.962 151.271)" fill="#bfa871"/>
    <path id="Path_2981" data-name="Path 2981" d="M199.107,1068.338c-4.576,1.375-7.091,5.22-9.567,9.037-4.391,6.764-9.758,11.149-18.074,7.549a1.056,1.056,0,0,0-1.065,1.821c5.277,3.717,12.737,2.069,16.856-2.563,4.333-4.874,5.868-12.3,12.048-15.374A.258.258,0,0,0,199.107,1068.338Z" transform="translate(84.949 154.571)" fill="#bfa871"/>
    <path id="Path_2982" data-name="Path 2982" d="M172.093,1078.825a.178.178,0,0,0,.277.215c4.818-4.45,9.761-6.681,16.349-6.718a.992.992,0,0,0,0-1.983C182.313,1069.777,175.248,1073.169,172.093,1078.825Z" transform="translate(86.639 156.091)" fill="#bfa871"/>
    <path id="Path_2983" data-name="Path 2983" d="M289.13,995.415c-2.99,2.435-3.456,6.481-4.445,10.1a8.1,8.1,0,0,0-3.957-4.585c-.189-.094-.381-.172-.573-.251a14.666,14.666,0,0,0,6.421-3.554.228.228,0,0,0-.276-.357c-6.775,3.376-20.554,2.536-21.413,12.737a.946.946,0,0,0,.715.978c1.3,2.362,5.423,1.757,7.267.286.751-.6-.249-1.912-1.037-1.345a4.931,4.931,0,0,1-3.134.994,6.962,6.962,0,0,1-1.788-.359.839.839,0,0,0,.1-.269c.779-5.044,4.957-6.647,9.452-7.995a8,8,0,0,1,2.65.51,5.933,5.933,0,0,1,3.726,7.479l0,.03a7.293,7.293,0,0,1-4,2.844c-6.5,1.983-13.964-1.391-19.12,4.406-.446.5.261,1.225.742.742,5.825-5.855,15.549.126,22.146-4.441,5.434-3.764,4.036-11.641,8.071-16.4A1.1,1.1,0,0,0,289.13,995.415Z" transform="translate(154.776 97.576)" fill="#bfa871"/>
    <path id="Path_2984" data-name="Path 2984" d="M258.2,1007.112c2.056-6.371,8.52-9.048,13.687-12.468a.034.034,0,0,0-.027-.062c-6.456,1.652-13.014,5.446-15.166,12.114C256.386,1007.655,257.894,1008.065,258.2,1007.112Z" transform="translate(152.499 97.15)" fill="#bfa871"/>
    <path id="Path_2985" data-name="Path 2985" d="M290.652,1008.868l-.009.007c3.479,4.064,6.334,10.6.911,14.409-.663.464-.068,1.538.644,1.1C298.636,1020.459,295.376,1012.687,290.652,1008.868Z" transform="translate(178.964 108.275)" fill="#bfa871"/>
    <path id="Path_2986" data-name="Path 2986" d="M303.958,1030.9a88.516,88.516,0,0,1-2.924-13.513c-.018-.1-.181-.076-.18.025a53.183,53.183,0,0,0,.791,10.127c.74,3.694,2.348,7.108,3.376,10.718a27.389,27.389,0,0,1-3.644,22.834c-.3.453.427.875.727.427a29.2,29.2,0,0,0,4.907-20.531C306.487,1037.472,305.078,1034.253,303.958,1030.9Z" transform="translate(186.915 114.861)" fill="#bfa871"/>
    <path id="Path_2987" data-name="Path 2987" d="M281.276,1068.747c-7.643-3.143-14.549-6.874-18.523-14.471-3.426-6.553-4.544-14.147-5.435-21.4-.057-.464-.79-.48-.742,0,.77,7.829,1.841,15.908,5.772,22.868,4.142,7.331,11.1,10.965,18.631,14.078C281.642,1070.1,281.934,1069.017,281.276,1068.747Z" transform="translate(152.437 126.695)" fill="#bfa871"/>
    <path id="Path_2988" data-name="Path 2988" d="M285.486,1053.751a10.532,10.532,0,0,0-.829,2.081c-.153.482-.249,1.389-.608,1.74l-2.5.774c-.265-.188-.525-.381-.783-.58-1.889-1.419-3.81-2.8-5.724-4.182-.183-.133-.411.164-.242.313,1.659,1.485,3.3,3,5,4.442a5.214,5.214,0,0,0,2.458,1.546c2.988.354,3.354-3.7,4.24-5.546C286.809,1053.671,285.857,1053.089,285.486,1053.751Z" transform="translate(166.579 142.995)" fill="#bfa871"/>
    <path id="Path_2989" data-name="Path 2989" d="M282.359,964.2c2.958,2.718,5.067,6.191,7.25,9.525,2.358,3.6,6.042,7.239,6.389,11.673a.668.668,0,0,0,1.336,0c.432-4.239-3.127-7.2-5.435-10.318-2.556-3.449-4.589-7.292-7.566-10.423s-6.785-4.875-10.734-6.464c-4.93-1.983-9.9-4.023-14.958-5.665-.313-.1-.537.4-.228.541C266.149,956.592,275.99,958.35,282.359,964.2Z" transform="translate(153.753 64.398)" fill="#bfa871"/>
    <path id="Path_2990" data-name="Path 2990" d="M273.195,973.974a.206.206,0,0,0-.4.11,33.862,33.862,0,0,0,1.229,3.753c.251.6.562,1.16.834,1.747a5.987,5.987,0,0,1,.749,2.14q-.016,1.536-1.556,1.174c-.674-.43-1.309.653-.628,1.074a2.073,2.073,0,0,0,3.072-1.638c.162-1.1-.539-2.188-1-3.12A40.941,40.941,0,0,1,273.195,973.974Z" transform="translate(165.062 80.995)" fill="#bfa871"/>
    <path id="Path_2991" data-name="Path 2991" d="M236.076,949.986a10.2,10.2,0,0,1,2.108,3.765l.352,1.076q-1.78,3.025-3.57,1.09c-.621-.43-1.153.555-.58.994,1.343,1.033,3.6,2.259,4.955.443,1.163-1.565-.185-4.112-.923-5.542-3.6-6.974-11.122-7.97-17.126-11.972-.025-.018-.044.021-.023.039,3.072,2.358,6.552,3.808,9.845,5.791A17,17,0,0,1,236.076,949.986Z" transform="translate(124.941 54.525)" fill="#bfa871"/>
    <path id="Path_2992" data-name="Path 2992" d="M206.324,965.07c-.1,1.857-.608,3.975.2,5.741,1.1,2.4,4.247,3.1,5.464.425.4-.889-.912-1.667-1.32-.772q-4.069.441-3.335-2.951c.053-.815.092-1.627.117-2.444a35.279,35.279,0,0,0-.13-4.045,47.091,47.091,0,0,0-1.626-8.018.16.16,0,0,0-.308.084A43.563,43.563,0,0,1,206.324,965.07Z" transform="translate(112.576 64.691)" fill="#bfa871"/>
    <path id="Path_2993" data-name="Path 2993" d="M236.585,960.019c-.092-.244-.482-.144-.395.108.308.9.555,1.807.829,2.718.14.471.836.2.635-.269C237.293,961.723,236.914,960.885,236.585,960.019Z" transform="translate(136.556 70.131)" fill="#bfa871"/>
    <path id="Path_2994" data-name="Path 2994" d="M243.25,965.313c-.325-6.33-5.677-10.284-8.107-15.767-.114-.253-.535-.073-.448.188,1.853,5.58,6.921,9.6,7.712,15.579C242.477,965.834,243.281,965.871,243.25,965.313Z" transform="translate(135.393 61.99)" fill="#bfa871"/>
    <path id="Path_2995" data-name="Path 2995" d="M238.5,977.932a10.433,10.433,0,0,0,3.319-7.817.023.023,0,0,0-.044-.005,13.741,13.741,0,0,1-4.05,7.047C237.222,977.66,237.976,978.4,238.5,977.932Z" transform="translate(137.631 78.083)" fill="#bfa871"/>
    <path id="Path_2996" data-name="Path 2996" d="M208.4,971.2c2.334,3.748,7.632,4.128,11.577,3.271a.224.224,0,0,0,0-.429c-3.509-1.076-7.952-.085-10.277-3.6C209.164,969.635,207.878,970.367,208.4,971.2Z" transform="translate(114.831 78.081)" fill="#bfa871"/>
    <path id="Path_2997" data-name="Path 2997" d="M203.094,945.068q-.624-3.108-.939-6.264c-.007-.064-.1-.068-.1,0a34.878,34.878,0,0,0,.635,6.376C202.739,945.445,203.148,945.333,203.094,945.068Z" transform="translate(109.985 53.683)" fill="#bfa871"/>
    <path id="Path_2998" data-name="Path 2998" d="M188.867,997.865c.377.155.635-.471.277-.656a22.56,22.56,0,0,1-12.632-21.583c.018-.555-.786-.528-.845,0A21.485,21.485,0,0,0,188.867,997.865Z" transform="translate(89.341 82.075)" fill="#bfa871"/>
    <path id="Path_2999" data-name="Path 2999" d="M176.741,972.891a7.37,7.37,0,0,0-.144,2.191c.338,1.846,2.57,2.837,3.595.946.361-.667-.678-1.266-1.016-.592q-1.926-.243-1.53-1.693c.069-.477.126-.957.171-1.437a8.959,8.959,0,0,0-.087-1.558c-.3-2.111-1.272-3.968-.69-6.149a.143.143,0,0,0-.276-.076,8.561,8.561,0,0,0-.261,4.3A16.44,16.44,0,0,1,176.741,972.891Z" transform="translate(89.977 73.67)" fill="#bfa871"/>
    <path id="Path_3000" data-name="Path 3000" d="M189.065,957.687c.165-2.289,2.639-3.529,2.988-5.814.325-2.132-.573-4.537-.872-6.629-.03-.208-.389-.16-.37.05.235,2.652.927,6.181-.786,8.406-1.01,1.314-2.024,2.273-2.2,3.988C187.74,958.473,189.006,958.487,189.065,957.687Z" transform="translate(98.902 58.631)" fill="#bfa871"/>
    <path id="Path_3001" data-name="Path 3001" d="M166.885,1004.29c3.392-2.122,4.669-5.805,4.674-9.677a45.813,45.813,0,0,0-1.147-8.086,43.464,43.464,0,0,1-.461-12.326s-.028-.023-.034-.005a31.02,31.02,0,0,0-.2,13.219c.973,5.535,2.143,12.3-3.4,15.91C165.72,1003.716,166.269,1004.675,166.885,1004.29Z" transform="translate(81.961 81.273)" fill="#bfa871"/>
    <path id="Path_3002" data-name="Path 3002" d="M125.411,997.283a.639.639,0,0,0,.644-1.1c-4.756-2.844-1.48-9.628-1.133-13.952.334-4.171.028-8.358.02-12.532-.016-9.414,3.3-17.039,7.986-25.027.064-.109-.1-.2-.167-.1-2.846,4.105-5.72,8.095-7.383,12.859-1.675,4.8-1.78,9.875-1.723,14.907.032,2.858.128,5.725-.05,8.58-.183,2.921-.937,5.645-1.334,8.514C121.841,992.543,122.318,995.815,125.411,997.283Z" transform="translate(47.76 58.178)" fill="#bfa871"/>
    <path id="Path_3003" data-name="Path 3003" d="M128.512,972c-.226.766-.583,3.312-1.807,3.061-.13-.027-.235.167-.1.229.863.388,1.531-.285,1.917-1.035a25.216,25.216,0,0,0,1.608-5,.348.348,0,0,0-.671-.185C129.108,970.04,128.8,971.014,128.512,972Z" transform="translate(51.192 77.1)" fill="#bfa871"/>
    <path id="Path_3004" data-name="Path 3004" d="M140.236,1005.14c.343.706,1.327.087,1.033-.6-2.206-5.206-6.627-9.348-8.144-14.862-.943-3.422-.167-6.723.091-10.172a58.635,58.635,0,0,0-.229-10.165c-.014-.15-.245-.156-.238,0a65.827,65.827,0,0,1-.619,12.066c-.407,2.9-.923,5.7-.162,8.591C133.434,995.564,137.751,1000.023,140.236,1005.14Z" transform="translate(55.111 77.407)" fill="#bfa871"/>
    <path id="Path_3005" data-name="Path 3005" d="M139.513,990.486c-.119-.16-.391-.014-.276.16a8.216,8.216,0,0,0,3.66,3.205c1.964.818,4.141.343,5.992,1.489.455.283.992-.388.58-.752a5.687,5.687,0,0,0-3.509-1.193C143.378,993.161,141.176,992.681,139.513,990.486Z" transform="translate(61.054 93.909)" fill="#bfa871"/>
    <path id="Path_3006" data-name="Path 3006" d="M143.385,992.69c.317.213.583-.283.293-.5-3.306-2.511-5.185-6.449-6.855-10.144-.283-.63-1.243-.083-.936.546C137.793,986.488,139.7,990.2,143.385,992.69Z" transform="translate(58.421 87.171)" fill="#bfa871"/>
    <path id="Path_3007" data-name="Path 3007" d="M166.15,940.319c.151.64,1.1.365.978-.27a11.035,11.035,0,0,0-5.576-7.764.058.058,0,0,0-.069.091A16.075,16.075,0,0,1,166.15,940.319Z" transform="translate(78.383 48.64)" fill="#bfa871"/>
    <path id="Path_3008" data-name="Path 3008" d="M154.5,946.145a28.345,28.345,0,0,1,10.677.261,54.546,54.546,0,0,0,6.682,1.547c3.518.363,6.972-.495,9.089-3.458.637-.891-.781-1.973-1.514-1.167a7.5,7.5,0,0,1-3.452,2.218c-4.221-2.483-6-7.223-11.239-8.5a12.737,12.737,0,0,0-6.769.2c-3.068.952-5.569,3.162-8.9,3.264a1.079,1.079,0,0,0,0,2.156,10.945,10.945,0,0,0,3.82-.53,16.191,16.191,0,0,1,3.692,1.675c-.743.073-1.485.164-2.227.267-1.22.171-2.463.448-3.692.541a10.166,10.166,0,0,1-2.947-.073q-3.532-.614-2.106-5.119c.162-.169-.055-.491-.261-.34a3.612,3.612,0,0,0-.745,5.489C147.012,947.568,151.261,946.586,154.5,946.145Zm.541-4.781a23.27,23.27,0,0,1,6.435-2.093,15.931,15.931,0,0,1,2.575,1.473c.672.475,1.362-.67.651-1.112-.1-.061-.2-.107-.3-.164.231.055.459.087.7.164,3.7,1.172,5.523,4.756,8.689,6.266-3.538.109-7.408-1.59-10.917-2.067-.7-.1-1.4-.151-2.1-.178C158.782,943.114,156.966,941.981,155.036,941.364Z" transform="translate(64.522 52.072)" fill="#bfa871"/>
  </g>
</svg>
