<svg xmlns="http://www.w3.org/2000/svg" width="552" height="68.31" viewBox="0 0 552 68.31">
  <g id="Group_5432" data-name="Group 5432" transform="translate(-516 -410.261)">
    <path id="Path_18178" data-name="Path 18178" d="M-154.423,5.391-156.5-.6h-.976a13.5,13.5,0,0,1-5.8,5.073A20.167,20.167,0,0,1-172,6.24q-7.939,0-12.354-4.606t-4.415-13.012V-42.711h16.6v26.28A15.1,15.1,0,0,0-170.832-9.3a4.631,4.631,0,0,0,4.394,2.42,6.394,6.394,0,0,0,6.113-3.375q1.826-3.375,1.826-11.4V-42.711h16.6v48.1ZM-101.4-43.56a24.018,24.018,0,0,1,4.118.34l.934.17-1.486,15.666a24.42,24.42,0,0,0-5.647-.509q-5.434,0-7.9,2.484t-2.462,7.154V5.391h-16.6v-48.1h12.354l2.59,7.684h.807a16.622,16.622,0,0,1,5.8-6.177A13.871,13.871,0,0,1-101.4-43.56ZM-29.9-9.384q0,7.727-5.264,11.675T-50.282,6.24a65.643,65.643,0,0,1-9.3-.573,39.5,39.5,0,0,1-8.066-2.1V-9.723a49.947,49.947,0,0,0,8.47,2.8,35.7,35.7,0,0,0,8.215,1.1q5.392,0,5.392-2.462a2.786,2.786,0,0,0-1.507-2.271,68.79,68.79,0,0,0-8.767-3.885q-6.623-2.717-9.255-6.177a14.068,14.068,0,0,1-2.632-8.767,12.143,12.143,0,0,1,5.18-10.444q5.18-3.736,14.647-3.736a36.928,36.928,0,0,1,8.937,1.04,53.135,53.135,0,0,1,8.682,3.036l-4.5,10.7a50.566,50.566,0,0,0-7.005-2.526,23.308,23.308,0,0,0-6.029-1.04q-4.076,0-4.076,2a2.486,2.486,0,0,0,1.422,2.1,76.564,76.564,0,0,0,8.215,3.545,31.562,31.562,0,0,1,7.536,4.076,12.207,12.207,0,0,1,3.651,4.691A16.479,16.479,0,0,1-29.9-9.384ZM2.532,6.24Q-9.482,6.24-16.127-.15t-6.644-18.192q0-12.185,6.156-18.7T.962-43.56q10.868,0,16.791,5.668t5.922,16.324v7.387H-6A8.233,8.233,0,0,0-3.05-7.855,11.561,11.561,0,0,0,4.528-5.563a36.593,36.593,0,0,0,8.045-.828,39.853,39.853,0,0,0,7.96-2.823V2.716a29.288,29.288,0,0,1-8.066,2.76A55.82,55.82,0,0,1,2.532,6.24ZM1.556-32.267a6.9,6.9,0,0,0-4.9,1.847q-1.974,1.847-2.314,5.8H8.6a8.272,8.272,0,0,0-1.974-5.562A6.517,6.517,0,0,0,1.556-32.267ZM62.1-43.56a24.018,24.018,0,0,1,4.118.34l.934.17L65.663-27.385a24.42,24.42,0,0,0-5.647-.509q-5.434,0-7.9,2.484t-2.462,7.154V5.391h-16.6v-48.1H45.412L48-35.027h.807A16.622,16.622,0,0,1,54.6-41.2,13.871,13.871,0,0,1,62.1-43.56ZM86.466,5.391l-18.341-48.1H85.447L93.6-14.266q.042.212.17.722t.255,1.21q.127.7.233,1.486a10.977,10.977,0,0,1,.106,1.465h.3a17.031,17.031,0,0,1,.764-4.8l8.533-28.53h17.279L102.9,5.391Zm57.187,0h-16.6v-48.1h16.6ZM126.628-54.683q0-3.736,2.08-5.562t6.708-1.826q4.628,0,6.75,1.868a6.962,6.962,0,0,1,2.123,5.519q0,7.3-8.873,7.3Q126.628-47.381,126.628-54.683ZM177.15,6.24q-11.8,0-17.895-6.368t-6.092-18.3q0-11.972,6.581-18.553t18.723-6.581a35.075,35.075,0,0,1,15.751,3.651l-4.882,12.269a53.231,53.231,0,0,0-5.562-2.1,17.908,17.908,0,0,0-5.307-.785,7.182,7.182,0,0,0-6.241,3.142q-2.208,3.142-2.208,8.873,0,11.548,8.533,11.548a25.816,25.816,0,0,0,14.01-4.245v13.2A27.275,27.275,0,0,1,177.15,6.24Zm48.186,0q-12.015,0-18.659-6.389t-6.644-18.192q0-12.185,6.156-18.7t17.576-6.517q10.868,0,16.791,5.668t5.922,16.324v7.387H216.8a8.233,8.233,0,0,0,2.951,6.326,11.561,11.561,0,0,0,7.578,2.293,36.593,36.593,0,0,0,8.045-.828,39.853,39.853,0,0,0,7.96-2.823V2.716a29.288,29.288,0,0,1-8.066,2.76A55.82,55.82,0,0,1,225.336,6.24Zm-.976-38.507a6.9,6.9,0,0,0-4.9,1.847q-1.974,1.847-2.314,5.8h14.265a8.272,8.272,0,0,0-1.974-5.562A6.517,6.517,0,0,0,224.359-32.267Zm68.65,22.883q0,7.727-5.264,11.675T272.631,6.24a65.643,65.643,0,0,1-9.3-.573,39.5,39.5,0,0,1-8.066-2.1V-9.723a49.948,49.948,0,0,0,8.47,2.8,35.7,35.7,0,0,0,8.215,1.1q5.392,0,5.392-2.462a2.786,2.786,0,0,0-1.507-2.271,68.789,68.789,0,0,0-8.767-3.885q-6.623-2.717-9.255-6.177a14.068,14.068,0,0,1-2.632-8.767,12.143,12.143,0,0,1,5.18-10.444q5.179-3.736,14.647-3.736a36.928,36.928,0,0,1,8.937,1.04,53.135,53.135,0,0,1,8.682,3.036l-4.5,10.7a50.566,50.566,0,0,0-7.005-2.526,23.309,23.309,0,0,0-6.029-1.04q-4.076,0-4.076,2a2.486,2.486,0,0,0,1.422,2.1,76.565,76.565,0,0,0,8.215,3.545,31.563,31.563,0,0,1,7.536,4.076,12.207,12.207,0,0,1,3.651,4.691A16.479,16.479,0,0,1,293.009-9.384Z" transform="translate(774.991 472.332)" fill="#bfa871"/>
    <g id="Rectangle_3710" data-name="Rectangle 3710" transform="translate(516 411.876)" fill="none" stroke="#bfa871" stroke-width="13">
      <path d="M30.4,0h0a30.4,30.4,0,0,1,30.4,30.4V33.72a30.4,30.4,0,0,1-30.4,30.4H0a0,0,0,0,1,0,0V30.4A30.4,30.4,0,0,1,30.4,0Z" stroke="none"/>
      <path d="M30.4,6.5h0a23.9,23.9,0,0,1,23.9,23.9V33.72a23.9,23.9,0,0,1-23.9,23.9H7.768A1.268,1.268,0,0,1,6.5,56.356V30.4A23.9,23.9,0,0,1,30.4,6.5Z" fill="none"/>
    </g>
  </g>
</svg>
