<svg xmlns="http://www.w3.org/2000/svg" width="453.02" height="449.374"><g data-name="Group 593" opacity=".5" fill="#7d8b94"><path data-name="Path 1508" d="M230.997 411.493a71.311 71.311 0 00-4.73-123.657c-.98-1.135-1.889-2.278-2.815-3.447a16.514 16.514 0 001.052-2.485l12.376-38.085 36.971 5.184a15.581 15.581 0 007.77-.814c.61 1.29 1.24 2.606 1.823 3.912a71.313 71.313 0 10131.828-39.721c-1.685-2.755-40.832-67.633-72.583-83.424a64.688 64.688 0 00-92.591 84.217l-12.903-1.807-73.76-118.014a16.1 16.1 0 10-27.305 17.066l72.54 116.062-4.128 12.603a64.693 64.693 0 00-114.956 48.062c.31 35.442 41.444 99.077 43.142 101.669a71.4 71.4 0 0098.27 22.679zm-128.4-125.602a51.633 51.633 0 0194.983-34.065 63.407 63.407 0 011.819 3.1l-5.53 17.017a16.062 16.062 0 0019.366 20.54c1.297 1.637 2.61 3.304 4.018 4.873a6.842 6.842 0 001.984 1.558 58.257 58.257 0 11-75.515 82.873c-.431-.624-41.127-63.564-41.06-95.043zm120.877-60.352l-76.275-122.04a3.05 3.05 0 115.173-3.232l76.973 123.156 47.16 6.628a3.069 3.069 0 012.607 3.424 3.331 3.331 0 01-1.184 2.022 3.108 3.108 0 01-2.267.6l-47.808-6.728-15.782 48.492a3.073 3.073 0 01-1.505 1.757 2.968 2.968 0 01-2.32.205 3.116 3.116 0 01-1.981-3.852l15.19-46.64.223-.45zm40.143-14.986a51.633 51.633 0 0172.242-70.451l.765.416c28.297 13.753 67.039 77.912 67.51 78.666a58.265 58.265 0 11-107.681 31.47 6.322 6.322 0 00-.504-2.483c-1.43-3.342-3.015-6.626-4.656-9.875a15.338 15.338 0 00.72-3.015 16.1 16.1 0 00-13.723-18.16l-11.073-1.552a47.99 47.99 0 01-3.6-5.016z"/><path data-name="Path 1509" d="M301.218 248.454a10.342 10.342 0 0010.903-.092 10.687 10.687 0 003.43-3.465c4.751-7.944 6.05-16.373 3.79-24.404-4.184-14.837-19.03-22.926-20.698-23.789a10.443 10.443 0 00-9.694 18.497c2.774 1.45 8.93 6.076 10.303 11.013.707 2.434.193 4.971-1.612 7.926a10.485 10.485 0 003.578 14.314zm3.137-10.276c2.904-4.808 3.71-9.547 2.453-14.048-2.16-7.742-10.221-13.74-14.184-15.85a2.608 2.608 0 01-1.102-3.508 2.5 2.5 0 01.925-1.007 2.611 2.611 0 012.563-.125c.575.302 13.453 7.098 16.805 18.993 1.656 5.883.628 12.198-2.985 18.227a2.687 2.687 0 01-3.585.918 2.659 2.659 0 01-.89-3.602z"/><path data-name="Path 1510" d="M200.135 317.033a10.8 10.8 0 004.618-1.565 10.443 10.443 0 00-6.439-19.254c-3.45.33-5.925-.34-7.83-2.025-3.832-3.395-5.293-10.953-5.384-14.087a10.443 10.443 0 00-20.877.61c.047 1.876.811 18.77 12.316 29.029 6.228 5.555 14.375 8.08 23.596 7.292zm-26.848-38.793a2.413 2.413 0 011.31-.39 2.606 2.606 0 012.668 2.53c.162 4.484 2.018 14.36 8.017 19.666 3.51 3.13 8.126 4.48 13.717 3.98a2.63 2.63 0 012.847 2.378 2.667 2.667 0 01-2.396 2.82c-7.006.605-13.13-1.237-17.693-5.303-9.195-8.244-9.689-22.78-9.707-23.43a2.611 2.611 0 011.237-2.25z"/></g></svg>