<svg xmlns="http://www.w3.org/2000/svg" width="442.894" height="125.012"><defs><filter id="a" x="0" y="1.349" width="182.154" height="123.664" filterUnits="userSpaceOnUse"><feOffset dx="1" dy="1"/><feGaussianBlur stdDeviation=".5" result="blur"/><feFlood flood-opacity=".361"/><feComposite operator="in" in2="blur"/><feComposite in="SourceGraphic"/></filter></defs><g data-name="Group 4826"><g transform="translate(-.001 .002)" filter="url(#a)"><path data-name="Exclusion 12" d="M135.989 122.514H40.7a6.45 6.45 0 01-1.978-.313 43.405 43.405 0 1136.543-13.107H130.4a36.349 36.349 0 0026.488-11.374 34.224 34.224 0 009.267-25.9 34.676 34.676 0 00-26.579-31.586 48.078 48.078 0 01-14.844 45.816 6.366 6.366 0 01-4.278 1.643 6.493 6.493 0 01-4.439-1.744 6.643 6.643 0 01-1.161-1.261l-8.7-12.438a6.665 6.665 0 1110.925-7.636l3.85 5.508a34.926 34.926 0 00-39.44-53.141l4.83 6.909a6.346 6.346 0 11-10.4 7.273l-8.992-12.86a5.939 5.939 0 01-.6-1.092l-.032-.04a6.161 6.161 0 011.921-8.937 48.365 48.365 0 0163.275 13.716 47.624 47.624 0 012.541 3.93 48.356 48.356 0 011.957 96.4v.234zM43.894 49.15a29.973 29.973 0 1029.974 29.972A30.007 30.007 0 0043.894 49.15z" fill="#fff"/></g><path data-name="Path 2762" d="M245.549 54.964a28.816 28.816 0 01-14-3.4 25.056 25.056 0 01-9.795-9.393 26.056 26.056 0 01-3.543-13.517 25.851 25.851 0 013.582-13.523 25.319 25.319 0 019.831-9.393 28.816 28.816 0 0114-3.4A29.2 29.2 0 01257.1 4.531a23.407 23.407 0 018.771 6.359l-6.142 5.774a17.906 17.906 0 00-13.666-5.992 19.166 19.166 0 00-9.429 2.3 16.587 16.587 0 00-6.506 6.4 18.374 18.374 0 00-2.341 9.282 18.374 18.374 0 002.339 9.283 16.587 16.587 0 006.506 6.4 19.165 19.165 0 009.429 2.3 17.809 17.809 0 0013.668-6.073l6.14 5.848a23.345 23.345 0 01-8.806 6.363 29.466 29.466 0 01-11.514 2.189zm28.58-54.968h9.134v54.241h-9.134zm38.668 54.753a22.146 22.146 0 01-10.672-2.558 18.654 18.654 0 01-7.419-7.127 20.126 20.126 0 01-2.668-10.344 19.93 19.93 0 012.668-10.306 18.73 18.73 0 017.419-7.09 22.146 22.146 0 0110.672-2.56 22.3 22.3 0 0110.745 2.558 18.73 18.73 0 017.421 7.092 19.93 19.93 0 012.668 10.307 20.126 20.126 0 01-2.668 10.343 18.654 18.654 0 01-7.419 7.127 22.3 22.3 0 01-10.747 2.558zm0-7.821a11.163 11.163 0 008.333-3.362 12.106 12.106 0 003.289-8.845 12.106 12.106 0 00-3.289-8.845 11.163 11.163 0 00-8.333-3.362 11.044 11.044 0 00-8.3 3.362 12.183 12.183 0 00-3.253 8.845 12.183 12.183 0 003.256 8.843 11.044 11.044 0 008.297 3.363zm67.394-31.724v39.033h-8.7v-4.973a14.541 14.541 0 01-5.482 4.057 17.638 17.638 0 01-7.09 1.425q-7.821 0-12.317-4.349t-4.5-12.9V15.204h9.137v21.051q0 5.263 2.376 7.858a8.7 8.7 0 006.761 2.595 10.24 10.24 0 007.785-3.033q2.887-3.033 2.887-8.735V15.204zm50.217-15.2v54.233h-8.771v-5.044a14.137 14.137 0 01-5.592 4.166 18.883 18.883 0 01-7.346 1.389 20.57 20.57 0 01-10.124-2.484 17.857 17.857 0 01-7.054-7.054 21.1 21.1 0 01-2.558-10.49 20.9 20.9 0 012.558-10.456 17.923 17.923 0 017.054-7.017 20.57 20.57 0 0110.123-2.483 18.555 18.555 0 017.09 1.316 14.262 14.262 0 015.482 3.947V0zm-20.613 46.923a11.751 11.751 0 005.921-1.5 10.829 10.829 0 004.166-4.276 13.082 13.082 0 001.535-6.432 13.082 13.082 0 00-1.535-6.432 10.829 10.829 0 00-4.166-4.276 12.446 12.446 0 00-11.842 0 10.83 10.83 0 00-4.166 4.276 13.082 13.082 0 00-1.535 6.432 13.082 13.082 0 001.535 6.432 10.829 10.829 0 004.166 4.276 11.751 11.751 0 005.921 1.5zm-187.856 27.15h19.51a28.206 28.206 0 0113.028 2.91 21.379 21.379 0 018.829 8.168 23.074 23.074 0 013.141 12.069 23.074 23.074 0 01-3.141 12.07 21.379 21.379 0 01-8.829 8.17 28.206 28.206 0 01-13.028 2.91h-19.51zm19.113 40.54a21.418 21.418 0 009.887-2.182 15.777 15.777 0 006.58-6.117 17.6 17.6 0 002.315-9.093 17.6 17.6 0 00-2.315-9.093 15.777 15.777 0 00-6.58-6.117 21.418 21.418 0 00-9.887-2.182h-12.5v34.785zm49.6 6.15a19.007 19.007 0 01-9.389-2.314 16.786 16.786 0 01-6.514-6.382 19.3 19.3 0 010-18.451 16.555 16.555 0 016.514-6.349 20.4 20.4 0 0118.749 0 16.615 16.615 0 016.481 6.349 19.3 19.3 0 010 18.451 16.849 16.849 0 01-6.481 6.382 18.821 18.821 0 01-9.36 2.311zm0-5.555a11.835 11.835 0 006.051-1.554 10.97 10.97 0 004.2-4.365 14.428 14.428 0 000-12.9 10.744 10.744 0 00-4.2-4.332 12.8 12.8 0 00-12.1 0 10.966 10.966 0 00-4.233 4.332 14.153 14.153 0 000 12.9 11.2 11.2 0 004.233 4.365 11.835 11.835 0 006.049 1.555zm42.26 5.555a19.466 19.466 0 01-9.556-2.315 16.96 16.96 0 01-6.58-6.382 19.065 19.065 0 010-18.451 16.726 16.726 0 016.58-6.349 19.693 19.693 0 019.556-2.282 18.344 18.344 0 018.5 1.918 13.66 13.66 0 015.787 5.555l-4.828 3.108a10.786 10.786 0 00-4.1-3.77 11.7 11.7 0 00-5.423-1.257 12.539 12.539 0 00-6.185 1.522 10.839 10.839 0 00-4.3 4.332 13.1 13.1 0 00-1.554 6.448 13.243 13.243 0 001.554 6.52 10.839 10.839 0 004.3 4.332 12.539 12.539 0 006.184 1.521 11.7 11.7 0 005.423-1.257 10.786 10.786 0 004.1-3.77l4.828 3.042a13.867 13.867 0 01-5.787 5.588 18.088 18.088 0 01-8.499 1.944zm42.657-2.447a9.472 9.472 0 01-3.439 1.819 14.364 14.364 0 01-4.233.628q-5.291 0-8.2-2.844t-2.91-8.135V90.545h-5.952V85.32h5.952v-7.671h6.349v7.672h10.052v5.225h-10.053v18.979a6.157 6.157 0 001.422 4.365 5.3 5.3 0 004.067 1.521 7.651 7.651 0 004.96-1.653zm21.494 2.444a19.007 19.007 0 01-9.391-2.315 16.786 16.786 0 01-6.514-6.382 19.3 19.3 0 010-18.451 16.555 16.555 0 016.514-6.349 20.4 20.4 0 0118.749 0 16.615 16.615 0 016.481 6.349 19.3 19.3 0 010 18.451 16.849 16.849 0 01-6.481 6.382 18.821 18.821 0 01-9.358 2.315zm0-5.555a11.835 11.835 0 006.051-1.554 10.97 10.97 0 004.2-4.365 14.428 14.428 0 000-12.9 10.744 10.744 0 00-4.2-4.332 12.8 12.8 0 00-12.1 0 10.965 10.965 0 00-4.233 4.332 14.153 14.153 0 000 12.9 11.2 11.2 0 004.233 4.365 11.835 11.835 0 006.049 1.558zm33.067-24.007a10.832 10.832 0 014.894-4.629 17.762 17.762 0 017.87-1.587v6.15a12.4 12.4 0 00-1.455-.066 10.682 10.682 0 00-8.1 3.075q-2.943 3.075-2.943 8.763v17.463h-6.349V85.32h6.084z" fill="#fff"/></g></svg>