<svg id="Component_3_22" data-name="Component 3 – 22" xmlns="http://www.w3.org/2000/svg" width="45.796" height="36" viewBox="0 0 45.796 36">
  <g id="Group_23" data-name="Group 23" transform="translate(-661 -184.142)">
    <g id="Rectangle_28" data-name="Rectangle 28" transform="translate(661 184.142)" fill="#fff" stroke="#707070" stroke-width="1" opacity="0">
      <rect width="36" height="36" stroke="none"/>
      <rect x="0.5" y="0.5" width="35" height="35" fill="none"/>
    </g>
    <path id="Path_21" data-name="Path 21" d="M693.175,191.395l-3.857,2.846a13.029,13.029,0,0,0-22.273,2.159,12.828,12.828,0,0,0-.687,1.773c-.14.4-.337.984-.55,1.711-.156.532-.32,1.14-.476,1.8q-.04.166-.078.338c-.026.114-.052.229-.077.346-.013.058-.025.117-.037.176q-.037.177-.073.358-.075.378-.142.77c-.017.1-.033.195-.049.293-.056.35-.108.707-.151,1.07-.013.1-.025.2-.036.3a21.742,21.742,0,0,0-.131,3.148c0,.056,0,.112.007.168,0,.022,0,.044,0,.067,0,.054.005.108.009.162,0,.022,0,.044,0,.066,0,.059.008.117.012.176.013.173.028.344.047.515.005.045.01.09.015.136q.011.1.023.192c0,.013,0,.026.005.039.009.068.018.136.028.2s.021.14.032.209c.008.053.017.107.027.16,0,.031.011.062.016.093.014.078.029.155.044.232s.028.14.044.21c.011.05.022.1.034.149q.024.1.05.208.058.232.126.46c.009.031.019.062.028.093s.017.057.026.085.027.086.041.128a.2.2,0,0,0,.009.028c.008.025.016.049.025.074s.015.045.023.067c.014.041.029.083.044.123l.032.088c.017.046.035.092.053.137,0,.007.006.015.009.022.021.053.042.106.064.159s.044.106.067.158c.01.024.02.048.031.072.073.165.151.327.234.487l.054.1c.086.16.176.317.273.471q.039.063.079.125l.014.021q.182.279.389.545c-.12-.114-.24-.23-.358-.348l-.075-.077a18,18,0,0,1-1.8-2.125h0a17.612,17.612,0,0,1-2.771-5.885,17.777,17.777,0,0,1,4.646-17.119,17.834,17.834,0,0,1,20.772-3.242A17.982,17.982,0,0,1,693.175,191.395Z" fill="#f0de9f"/>
    <path id="Path_2683" data-name="Path 2683" d="M691.062,184.416v7.066H684" transform="translate(1.467 2.467)" fill="none" stroke="#f0de9f" stroke-linecap="round" stroke-linejoin="round" stroke-width="5" opacity="0"/>
  </g>
  <path id="Path_22" data-name="Path 22" d="M701.289,243.154a17.849,17.849,0,0,1-14.63,7.64,18.041,18.041,0,0,1-2.408-.161,17.642,17.642,0,0,1-8.712-3.731l-.141-.115c-.178-.144-.353-.294-.526-.447q-.232-.2-.458-.419-.207-.265-.389-.545l-.014-.021q-.04-.062-.078-.125c-.1-.154-.187-.311-.273-.471l-.054-.1c-.083-.16-.161-.322-.234-.487-.011-.024-.021-.048-.031-.072-.023-.052-.046-.1-.067-.158s-.043-.105-.064-.159c0-.007-.006-.015-.009-.022l-.053-.137-.032-.088c-.015-.041-.03-.082-.044-.123-.008-.022-.016-.044-.023-.067s-.017-.049-.025-.074a.2.2,0,0,1-.009-.028c-.014-.042-.028-.085-.042-.128s-.018-.056-.026-.085-.019-.062-.028-.093q-.068-.229-.126-.46-.026-.1-.05-.208c-.012-.05-.023-.1-.034-.149-.015-.069-.03-.14-.044-.21s-.031-.155-.045-.232c-.006-.031-.011-.062-.017-.093-.01-.053-.019-.107-.027-.16-.011-.069-.022-.139-.032-.209s-.019-.136-.028-.2c0-.012,0-.026-.005-.039q-.013-.1-.023-.192c-.006-.045-.01-.09-.015-.136-.018-.171-.034-.343-.047-.515,0-.059-.008-.117-.012-.176,0-.021,0-.044,0-.066,0-.054-.007-.108-.009-.162,0-.022,0-.045,0-.067,0-.056,0-.112-.007-.168a21.742,21.742,0,0,1,.13-3.148c.012-.1.023-.2.036-.3.044-.363.1-.72.151-1.07.016-.1.032-.2.049-.293q.067-.392.142-.77.036-.181.073-.358c.012-.06.025-.118.037-.176.025-.117.051-.232.077-.346s.051-.227.078-.338c.156-.662.321-1.27.476-1.8.213-.727.41-1.315.55-1.711-.121.4-.224.8-.306,1.213a12.889,12.889,0,0,0-.225,1.668q-.033.453-.032.913,0,.279.012.554a12.96,12.96,0,0,0,2.271,6.8A13.006,13.006,0,0,0,686.659,246a12.878,12.878,0,0,0,1.429-.079h0a13.055,13.055,0,0,0,8.863-4.961L697,240.9c.121-.157.237-.316.351-.479l0,0,1.986,1.385Z" transform="translate(-668.835 -215.147)" fill="#f0de9f"/>
  <path id="Subtraction_1" data-name="Subtraction 1" d="M-1409.832,175.6H-1419V154.287l1.469.628,7.7-4.942V175.6Z" transform="translate(1455.128 -141.27)" fill="#f0de9f" stroke="rgba(0,0,0,0)" stroke-miterlimit="10" stroke-width="1"/>
  <path id="Path_24" data-name="Path 24" d="M786.135,193.361v5.344l-7.7,4.943-1.469-.629v-9.658Z" transform="translate(-740.84 -190.489)" fill="#f0de9f"/>
</svg>
