<svg data-name="Component 3 – 22" xmlns="http://www.w3.org/2000/svg" width="45.796" height="36"><g data-name="Group 23"><path data-name="Path 21" d="M32.175 7.253l-3.857 2.846a13.029 13.029 0 00-22.273 2.159 12.828 12.828 0 00-.687 1.773 34.54 34.54 0 00-1.026 3.511q-.04.166-.078.338c-.026.114-.052.229-.077.346l-.037.176-.073.358q-.075.378-.142.77l-.049.293a26.5 26.5 0 00-.187 1.37 21.742 21.742 0 00-.131 3.148c0 .056 0 .112.007.168v.067c0 .054.005.108.009.162v.066c0 .059.008.117.012.176a14.48 14.48 0 00.062.651l.023.192c0 .013 0 .026.005.039.009.068.018.136.028.2l.032.209c.008.053.017.107.027.16 0 .031.011.062.016.093l.044.232a6.353 6.353 0 00.078.359l.05.208q.058.232.126.46l.028.093.026.085.041.128a.2.2 0 00.009.028l.025.074.023.067.044.123.032.088.053.137c0 .007.006.015.009.022a10.556 10.556 0 00.162.389c.073.165.151.327.234.487l.054.1c.086.16.176.317.273.471l.079.125.014.021q.182.279.389.545c-.12-.114-.24-.23-.358-.348l-.075-.077a18 18 0 01-1.8-2.125 17.612 17.612 0 01-2.771-5.885A17.777 17.777 0 015.214 5.212 17.834 17.834 0 0125.986 1.97a17.982 17.982 0 016.189 5.283z" fill="#f0de9f"/></g><path data-name="Path 22" d="M32.454 28.007a17.849 17.849 0 01-14.63 7.64 18.041 18.041 0 01-2.408-.161 17.642 17.642 0 01-8.712-3.731l-.141-.115a15.734 15.734 0 01-.526-.447q-.232-.2-.458-.419-.207-.265-.389-.545l-.014-.021q-.04-.062-.078-.125a6.536 6.536 0 01-.273-.471l-.054-.1a8.707 8.707 0 01-.265-.559c-.023-.052-.046-.1-.067-.158s-.043-.105-.064-.159c0-.007-.006-.015-.009-.022l-.053-.137-.032-.088-.044-.123-.023-.067-.025-.074a.2.2 0 01-.009-.028l-.042-.128-.026-.085-.028-.093q-.068-.229-.126-.46-.026-.1-.05-.208l-.034-.149a12.963 12.963 0 01-.089-.442l-.017-.093a13.074 13.074 0 01-.059-.369l-.028-.2c0-.012 0-.026-.005-.039q-.013-.1-.023-.192c-.006-.045-.01-.09-.015-.136a17.583 17.583 0 01-.047-.515c0-.059-.008-.117-.012-.176v-.066c0-.054-.007-.108-.009-.162v-.067c0-.056 0-.112-.007-.168a21.742 21.742 0 01.13-3.148l.036-.3c.044-.363.1-.72.151-1.07.016-.1.032-.2.049-.293q.067-.392.142-.77l.073-.358.037-.176c.025-.117.051-.232.077-.346s.051-.227.078-.338a35.164 35.164 0 011.026-3.511c-.121.4-.224.8-.306 1.213a12.889 12.889 0 00-.225 1.668q-.033.453-.032.913 0 .279.012.554a12.96 12.96 0 002.271 6.8 13.006 13.006 0 0010.742 5.666 12.878 12.878 0 001.429-.079 13.055 13.055 0 008.863-4.961l.049-.06c.121-.157.237-.316.351-.479l1.986 1.385z" fill="#f0de9f"/><path data-name="Subtraction 1" d="M45.296 34.33h-9.168V13.017l1.469.628 7.7-4.942V34.33z" fill="#f0de9f" stroke="rgba(0,0,0,0)" stroke-miterlimit="10"/><path data-name="Path 24" d="M45.295 2.872v5.344l-7.7 4.943-1.469-.629V2.872z" fill="#f0de9f"/></svg>